<svg viewBox="0 0 1434 400" xmlns="http://www.w3.org/2000/svg"><g><g><g><g><g><line x1="48.97600173950195" y1="369.1310482480047" x2="43.97600173950195" y2="369.1310482480047" style="visibility: inherit;" fill="rgb(0, 0, 0)" stroke="rgb(204, 204, 204)" stroke-width="1px"></line><line x1="48.97600173950195" y1="364.20095632040517" x2="43.97600173950195" y2="364.20095632040517" style="visibility: inherit;" fill="rgb(0, 0, 0)" stroke="rgb(204, 204, 204)" stroke-width="1px"></line><line x1="48.97600173950195" y1="331.7668010945991" x2="43.97600173950195" y2="331.7668010945991" style="visibility: inherit;" fill="rgb(0, 0, 0)" stroke="rgb(204, 204, 204)" stroke-width="1px"></line><line x1="48.97600173950195" y1="312.79403654493336" x2="43.97600173950195" y2="312.79403654493336" style="visibility: inherit;" fill="rgb(0, 0, 0)" stroke="rgb(204, 204, 204)" stroke-width="1px"></line><line x1="48.97600173950195" y1="299.33264586879295" x2="43.97600173950195" y2="299.33264586879295" style="visibility: inherit;" fill="rgb(0, 0, 0)" stroke="rgb(204, 204, 204)" stroke-width="1px"></line><line x1="48.97600173950195" y1="288.89118006766824" x2="43.97600173950195" y2="288.89118006766824" style="visibility: inherit;" fill="rgb(0, 0, 0)" stroke="rgb(204, 204, 204)" stroke-width="1px"></line><line x1="48.97600173950195" y1="280.3598813191273" x2="43.97600173950195" y2="280.3598813191273" style="visibility: inherit;" fill="rgb(0, 0, 0)" stroke="rgb(204, 204, 204)" stroke-width="1px"></line><line x1="48.97600173950195" y1="273.14677100445806" x2="43.97600173950195" y2="273.14677100445806" style="visibility: inherit;" fill="rgb(0, 0, 0)" stroke="rgb(204, 204, 204)" stroke-width="1px"></line><line x1="48.97600173950195" y1="266.89849064298687" x2="43.97600173950195" y2="266.89849064298687" style="visibility: inherit;" fill="rgb(0, 0, 0)" stroke="rgb(204, 204, 204)" stroke-width="1px"></line><line x1="48.97600173950195" y1="261.3871167694616" x2="43.97600173950195" y2="261.3871167694616" style="visibility: inherit;" fill="rgb(0, 0, 0)" stroke="rgb(204, 204, 204)" stroke-width="1px"></line><line x1="48.97600173950195" y1="256.4570248418621" x2="43.97600173950195" y2="256.4570248418621" style="visibility: inherit;" fill="rgb(0, 0, 0)" stroke="rgb(204, 204, 204)" stroke-width="1px"></line><line x1="48.97600173950195" y1="224.02286961605603" x2="43.97600173950195" y2="224.02286961605603" style="visibility: inherit;" fill="rgb(0, 0, 0)" stroke="rgb(204, 204, 204)" stroke-width="1px"></line><line x1="48.97600173950195" y1="205.05010506639033" x2="43.97600173950195" y2="205.05010506639033" style="visibility: inherit;" fill="rgb(0, 0, 0)" stroke="rgb(204, 204, 204)" stroke-width="1px"></line><line x1="48.97600173950195" y1="191.58871439024992" x2="43.97600173950195" y2="191.58871439024992" style="visibility: inherit;" fill="rgb(0, 0, 0)" stroke="rgb(204, 204, 204)" stroke-width="1px"></line><line x1="48.97600173950195" y1="181.14724858912518" x2="43.97600173950195" y2="181.14724858912518" style="visibility: inherit;" fill="rgb(0, 0, 0)" stroke="rgb(204, 204, 204)" stroke-width="1px"></line><line x1="48.97600173950195" y1="172.61594984058422" x2="43.97600173950195" y2="172.61594984058422" style="visibility: inherit;" fill="rgb(0, 0, 0)" stroke="rgb(204, 204, 204)" stroke-width="1px"></line><line x1="48.97600173950195" y1="165.40283952591497" x2="43.97600173950195" y2="165.40283952591497" style="visibility: inherit;" fill="rgb(0, 0, 0)" stroke="rgb(204, 204, 204)" stroke-width="1px"></line><line x1="48.97600173950195" y1="159.15455916444387" x2="43.97600173950195" y2="159.15455916444387" style="visibility: inherit;" fill="rgb(0, 0, 0)" stroke="rgb(204, 204, 204)" stroke-width="1px"></line><line x1="48.97600173950195" y1="153.64318529091855" x2="43.97600173950195" y2="153.64318529091855" style="visibility: inherit;" fill="rgb(0, 0, 0)" stroke="rgb(204, 204, 204)" stroke-width="1px"></line><line x1="48.97600173950195" y1="148.71309336331908" x2="43.97600173950195" y2="148.71309336331908" style="visibility: inherit;" fill="rgb(0, 0, 0)" stroke="rgb(204, 204, 204)" stroke-width="1px"></line><line x1="48.97600173950195" y1="116.27893813751302" x2="43.97600173950195" y2="116.27893813751302" style="visibility: inherit;" fill="rgb(0, 0, 0)" stroke="rgb(204, 204, 204)" stroke-width="1px"></line><line x1="48.97600173950195" y1="97.3061735878473" x2="43.97600173950195" y2="97.3061735878473" style="visibility: inherit;" fill="rgb(0, 0, 0)" stroke="rgb(204, 204, 204)" stroke-width="1px"></line><line x1="48.97600173950195" y1="83.84478291170689" x2="43.97600173950195" y2="83.84478291170689" style="visibility: inherit;" fill="rgb(0, 0, 0)" stroke="rgb(204, 204, 204)" stroke-width="1px"></line><line x1="48.97600173950195" y1="73.40331711058212" x2="43.97600173950195" y2="73.40331711058212" style="visibility: inherit;" fill="rgb(0, 0, 0)" stroke="rgb(204, 204, 204)" stroke-width="1px"></line><line x1="48.97600173950195" y1="64.87201836204116" x2="43.97600173950195" y2="64.87201836204116" style="visibility: inherit;" fill="rgb(0, 0, 0)" stroke="rgb(204, 204, 204)" stroke-width="1px"></line><line x1="48.97600173950195" y1="57.658908047371995" x2="43.97600173950195" y2="57.658908047371995" style="visibility: inherit;" fill="rgb(0, 0, 0)" stroke="rgb(204, 204, 204)" stroke-width="1px"></line><line x1="48.97600173950195" y1="51.41062768590075" x2="43.97600173950195" y2="51.41062768590075" style="visibility: inherit;" fill="rgb(0, 0, 0)" stroke="rgb(204, 204, 204)" stroke-width="1px"></line><line x1="48.97600173950195" y1="45.89925381237549" x2="43.97600173950195" y2="45.89925381237549" style="visibility: inherit;" fill="rgb(0, 0, 0)" stroke="rgb(204, 204, 204)" stroke-width="1px"></line><line x1="48.97600173950195" y1="40.96916188477604" x2="43.97600173950195" y2="40.96916188477604" style="visibility: inherit;" fill="rgb(0, 0, 0)" stroke="rgb(204, 204, 204)" stroke-width="1px"></line><line x1="48.97600173950195" y1="8.535006658969905" x2="43.97600173950195" y2="8.535006658969905" style="visibility: inherit;" fill="rgb(0, 0, 0)" stroke="rgb(204, 204, 204)" stroke-width="1px"></line></g><g transform="translate(38.97600173950195, 0)"><text style="text-anchor: end; visibility: hidden; font-family: &quot;Helvetica Neue&quot;, sans-serif; font-size: 12px; font-weight: 200;" x="0" y="369.1310482480047" dx="0em" dy="0.3em" fill="rgb(50, 49, 63)" stroke="none" stroke-width="1px">0.09</text><text style="text-anchor: end; visibility: inherit; font-family: &quot;Helvetica Neue&quot;, sans-serif; font-size: 12px; font-weight: 200;" x="0" y="364.20095632040517" dx="0em" dy="0.3em" fill="rgb(50, 49, 63)" stroke="none" stroke-width="1px">0.1</text><text style="text-anchor: end; visibility: hidden; font-family: &quot;Helvetica Neue&quot;, sans-serif; font-size: 12px; font-weight: 200;" x="0" y="331.7668010945991" dx="0em" dy="0.3em" fill="rgb(50, 49, 63)" stroke="none" stroke-width="1px">0.2</text><text style="text-anchor: end; visibility: hidden; font-family: &quot;Helvetica Neue&quot;, sans-serif; font-size: 12px; font-weight: 200;" x="0" y="312.79403654493336" dx="0em" dy="0.3em" fill="rgb(50, 49, 63)" stroke="none" stroke-width="1px">0.3</text><text style="text-anchor: end; visibility: hidden; font-family: &quot;Helvetica Neue&quot;, sans-serif; font-size: 12px; font-weight: 200;" x="0" y="299.33264586879295" dx="0em" dy="0.3em" fill="rgb(50, 49, 63)" stroke="none" stroke-width="1px">0.4</text><text style="text-anchor: end; visibility: hidden; font-family: &quot;Helvetica Neue&quot;, sans-serif; font-size: 12px; font-weight: 200;" x="0" y="288.89118006766824" dx="0em" dy="0.3em" fill="rgb(50, 49, 63)" stroke="none" stroke-width="1px">0.5</text><text style="text-anchor: end; visibility: inherit; font-family: &quot;Helvetica Neue&quot;, sans-serif; font-size: 12px; font-weight: 200;" x="0" y="280.3598813191273" dx="0em" dy="0.3em" fill="rgb(50, 49, 63)" stroke="none" stroke-width="1px">0.6</text><text style="text-anchor: end; visibility: hidden; font-family: &quot;Helvetica Neue&quot;, sans-serif; font-size: 12px; font-weight: 200;" x="0" y="273.14677100445806" dx="0em" dy="0.3em" fill="rgb(50, 49, 63)" stroke="none" stroke-width="1px">0.7</text><text style="text-anchor: end; visibility: hidden; font-family: &quot;Helvetica Neue&quot;, sans-serif; font-size: 12px; font-weight: 200;" x="0" y="266.89849064298687" dx="0em" dy="0.3em" fill="rgb(50, 49, 63)" stroke="none" stroke-width="1px">0.8</text><text style="text-anchor: end; visibility: hidden; font-family: &quot;Helvetica Neue&quot;, sans-serif; font-size: 12px; font-weight: 200;" x="0" y="261.3871167694616" dx="0em" dy="0.3em" fill="rgb(50, 49, 63)" stroke="none" stroke-width="1px">0.9</text><text style="text-anchor: end; visibility: hidden; font-family: &quot;Helvetica Neue&quot;, sans-serif; font-size: 12px; font-weight: 200;" x="0" y="256.4570248418621" dx="0em" dy="0.3em" fill="rgb(50, 49, 63)" stroke="none" stroke-width="1px">1</text><text style="text-anchor: end; visibility: inherit; font-family: &quot;Helvetica Neue&quot;, sans-serif; font-size: 12px; font-weight: 200;" x="0" y="224.02286961605603" dx="0em" dy="0.3em" fill="rgb(50, 49, 63)" stroke="none" stroke-width="1px">2</text><text style="text-anchor: end; visibility: hidden; font-family: &quot;Helvetica Neue&quot;, sans-serif; font-size: 12px; font-weight: 200;" x="0" y="205.05010506639033" dx="0em" dy="0.3em" fill="rgb(50, 49, 63)" stroke="none" stroke-width="1px">3</text><text style="text-anchor: end; visibility: hidden; font-family: &quot;Helvetica Neue&quot;, sans-serif; font-size: 12px; font-weight: 200;" x="0" y="191.58871439024992" dx="0em" dy="0.3em" fill="rgb(50, 49, 63)" stroke="none" stroke-width="1px">4</text><text style="text-anchor: end; visibility: hidden; font-family: &quot;Helvetica Neue&quot;, sans-serif; font-size: 12px; font-weight: 200;" x="0" y="181.14724858912518" dx="0em" dy="0.3em" fill="rgb(50, 49, 63)" stroke="none" stroke-width="1px">5</text><text style="text-anchor: end; visibility: hidden; font-family: &quot;Helvetica Neue&quot;, sans-serif; font-size: 12px; font-weight: 200;" x="0" y="172.61594984058422" dx="0em" dy="0.3em" fill="rgb(50, 49, 63)" stroke="none" stroke-width="1px">6</text><text style="text-anchor: end; visibility: inherit; font-family: &quot;Helvetica Neue&quot;, sans-serif; font-size: 12px; font-weight: 200;" x="0" y="165.40283952591497" dx="0em" dy="0.3em" fill="rgb(50, 49, 63)" stroke="none" stroke-width="1px">7</text><text style="text-anchor: end; visibility: hidden; font-family: &quot;Helvetica Neue&quot;, sans-serif; font-size: 12px; font-weight: 200;" x="0" y="159.15455916444387" dx="0em" dy="0.3em" fill="rgb(50, 49, 63)" stroke="none" stroke-width="1px">8</text><text style="text-anchor: end; visibility: hidden; font-family: &quot;Helvetica Neue&quot;, sans-serif; font-size: 12px; font-weight: 200;" x="0" y="153.64318529091855" dx="0em" dy="0.3em" fill="rgb(50, 49, 63)" stroke="none" stroke-width="1px">9</text><text style="text-anchor: end; visibility: hidden; font-family: &quot;Helvetica Neue&quot;, sans-serif; font-size: 12px; font-weight: 200;" x="0" y="148.71309336331908" dx="0em" dy="0.3em" fill="rgb(50, 49, 63)" stroke="none" stroke-width="1px">10</text><text style="text-anchor: end; visibility: hidden; font-family: &quot;Helvetica Neue&quot;, sans-serif; font-size: 12px; font-weight: 200;" x="0" y="116.27893813751302" dx="0em" dy="0.3em" fill="rgb(50, 49, 63)" stroke="none" stroke-width="1px">20</text><text style="text-anchor: end; visibility: inherit; font-family: &quot;Helvetica Neue&quot;, sans-serif; font-size: 12px; font-weight: 200;" x="0" y="97.3061735878473" dx="0em" dy="0.3em" fill="rgb(50, 49, 63)" stroke="none" stroke-width="1px">30</text><text style="text-anchor: end; visibility: hidden; font-family: &quot;Helvetica Neue&quot;, sans-serif; font-size: 12px; font-weight: 200;" x="0" y="83.84478291170689" dx="0em" dy="0.3em" fill="rgb(50, 49, 63)" stroke="none" stroke-width="1px">40</text><text style="text-anchor: end; visibility: hidden; font-family: &quot;Helvetica Neue&quot;, sans-serif; font-size: 12px; font-weight: 200;" x="0" y="73.40331711058212" dx="0em" dy="0.3em" fill="rgb(50, 49, 63)" stroke="none" stroke-width="1px">50</text><text style="text-anchor: end; visibility: hidden; font-family: &quot;Helvetica Neue&quot;, sans-serif; font-size: 12px; font-weight: 200;" x="0" y="64.87201836204116" dx="0em" dy="0.3em" fill="rgb(50, 49, 63)" stroke="none" stroke-width="1px">60</text><text style="text-anchor: end; visibility: hidden; font-family: &quot;Helvetica Neue&quot;, sans-serif; font-size: 12px; font-weight: 200;" x="0" y="57.658908047371995" dx="0em" dy="0.3em" fill="rgb(50, 49, 63)" stroke="none" stroke-width="1px">70</text><text style="text-anchor: end; visibility: inherit; font-family: &quot;Helvetica Neue&quot;, sans-serif; font-size: 12px; font-weight: 200;" x="0" y="51.41062768590075" dx="0em" dy="0.3em" fill="rgb(50, 49, 63)" stroke="none" stroke-width="1px">80</text><text style="text-anchor: end; visibility: hidden; font-family: &quot;Helvetica Neue&quot;, sans-serif; font-size: 12px; font-weight: 200;" x="0" y="45.89925381237549" dx="0em" dy="0.3em" fill="rgb(50, 49, 63)" stroke="none" stroke-width="1px">90</text><text style="text-anchor: end; visibility: hidden; font-family: &quot;Helvetica Neue&quot;, sans-serif; font-size: 12px; font-weight: 200;" x="0" y="40.96916188477604" dx="0em" dy="0.3em" fill="rgb(50, 49, 63)" stroke="none" stroke-width="1px">100</text><text style="text-anchor: end; visibility: hidden; font-family: &quot;Helvetica Neue&quot;, sans-serif; font-size: 12px; font-weight: 200;" x="0" y="8.535006658969905" dx="0em" dy="0.3em" fill="rgb(50, 49, 63)" stroke="none" stroke-width="1px">200</text></g><line x1="48.97600173950195" y1="0" x2="48.97600173950195" y2="374.5999984741211" fill="rgb(0, 0, 0)" stroke="rgb(204, 204, 204)" stroke-width="1px"></line></g></g><g transform="translate(48, 0)" clip-path="url(#clip_0)"><clipPath id="clip_0"><rect width="1385" height="374"></rect></clipPath><g><g><g><line x1="0" y1="0" x2="0" y2="374.5999984741211" fill="rgb(0, 0, 0)" stroke="rgb(60, 60, 60)" stroke-width="1px" opacity="0.25"></line><line x1="115.41866652170816" y1="0" x2="115.41866652170816" y2="374.5999984741211" fill="rgb(0, 0, 0)" stroke="rgb(60, 60, 60)" stroke-width="1px" opacity="0.25"></line><line x1="230.83733304341632" y1="0" x2="230.83733304341632" y2="374.5999984741211" fill="rgb(0, 0, 0)" stroke="rgb(60, 60, 60)" stroke-width="1px" opacity="0.25"></line><line x1="346.2559995651245" y1="0" x2="346.2559995651245" y2="374.5999984741211" fill="rgb(0, 0, 0)" stroke="rgb(60, 60, 60)" stroke-width="1px" opacity="0.25"></line><line x1="461.67466608683264" y1="0" x2="461.67466608683264" y2="374.5999984741211" fill="rgb(0, 0, 0)" stroke="rgb(60, 60, 60)" stroke-width="1px" opacity="0.25"></line><line x1="577.0933326085409" y1="0" x2="577.0933326085409" y2="374.5999984741211" fill="rgb(0, 0, 0)" stroke="rgb(60, 60, 60)" stroke-width="1px" opacity="0.25"></line><line x1="692.511999130249" y1="0" x2="692.511999130249" y2="374.5999984741211" fill="rgb(0, 0, 0)" stroke="rgb(60, 60, 60)" stroke-width="1px" opacity="0.25"></line><line x1="807.9306656519573" y1="0" x2="807.9306656519573" y2="374.5999984741211" fill="rgb(0, 0, 0)" stroke="rgb(60, 60, 60)" stroke-width="1px" opacity="0.25"></line><line x1="923.3493321736653" y1="0" x2="923.3493321736653" y2="374.5999984741211" fill="rgb(0, 0, 0)" stroke="rgb(60, 60, 60)" stroke-width="1px" opacity="0.25"></line><line x1="1038.7679986953735" y1="0" x2="1038.7679986953735" y2="374.5999984741211" fill="rgb(0, 0, 0)" stroke="rgb(60, 60, 60)" stroke-width="1px" opacity="0.25"></line><line x1="1154.1866652170818" y1="0" x2="1154.1866652170818" y2="374.5999984741211" fill="rgb(0, 0, 0)" stroke="rgb(60, 60, 60)" stroke-width="1px" opacity="0.25"></line><line x1="1269.6053317387898" y1="0" x2="1269.6053317387898" y2="374.5999984741211" fill="rgb(0, 0, 0)" stroke="rgb(60, 60, 60)" stroke-width="1px" opacity="0.25"></line><line x1="1385.023998260498" y1="0" x2="1385.023998260498" y2="374.5999984741211" fill="rgb(0, 0, 0)" stroke="rgb(60, 60, 60)" stroke-width="1px" opacity="0.25"></line></g><g><line x1="0" y1="369.1310482480047" x2="1385.023998260498" y2="369.1310482480047" fill="rgb(0, 0, 0)" stroke="rgb(60, 60, 60)" stroke-width="1px" opacity="0.25"></line><line x1="0" y1="364.20095632040517" x2="1385.023998260498" y2="364.20095632040517" fill="rgb(0, 0, 0)" stroke="rgb(60, 60, 60)" stroke-width="1px" opacity="0.25"></line><line x1="0" y1="331.7668010945991" x2="1385.023998260498" y2="331.7668010945991" fill="rgb(0, 0, 0)" stroke="rgb(60, 60, 60)" stroke-width="1px" opacity="0.25"></line><line x1="0" y1="312.79403654493336" x2="1385.023998260498" y2="312.79403654493336" fill="rgb(0, 0, 0)" stroke="rgb(60, 60, 60)" stroke-width="1px" opacity="0.25"></line><line x1="0" y1="299.33264586879295" x2="1385.023998260498" y2="299.33264586879295" fill="rgb(0, 0, 0)" stroke="rgb(60, 60, 60)" stroke-width="1px" opacity="0.25"></line><line x1="0" y1="288.89118006766824" x2="1385.023998260498" y2="288.89118006766824" fill="rgb(0, 0, 0)" stroke="rgb(60, 60, 60)" stroke-width="1px" opacity="0.25"></line><line x1="0" y1="280.3598813191273" x2="1385.023998260498" y2="280.3598813191273" fill="rgb(0, 0, 0)" stroke="rgb(60, 60, 60)" stroke-width="1px" opacity="0.25"></line><line x1="0" y1="273.14677100445806" x2="1385.023998260498" y2="273.14677100445806" fill="rgb(0, 0, 0)" stroke="rgb(60, 60, 60)" stroke-width="1px" opacity="0.25"></line><line x1="0" y1="266.89849064298687" x2="1385.023998260498" y2="266.89849064298687" fill="rgb(0, 0, 0)" stroke="rgb(60, 60, 60)" stroke-width="1px" opacity="0.25"></line><line x1="0" y1="261.3871167694616" x2="1385.023998260498" y2="261.3871167694616" fill="rgb(0, 0, 0)" stroke="rgb(60, 60, 60)" stroke-width="1px" opacity="0.25"></line><line x1="0" y1="256.4570248418621" x2="1385.023998260498" y2="256.4570248418621" fill="rgb(0, 0, 0)" stroke="rgb(60, 60, 60)" stroke-width="1px" opacity="0.25"></line><line x1="0" y1="224.02286961605603" x2="1385.023998260498" y2="224.02286961605603" fill="rgb(0, 0, 0)" stroke="rgb(60, 60, 60)" stroke-width="1px" opacity="0.25"></line><line x1="0" y1="205.05010506639033" x2="1385.023998260498" y2="205.05010506639033" fill="rgb(0, 0, 0)" stroke="rgb(60, 60, 60)" stroke-width="1px" opacity="0.25"></line><line x1="0" y1="191.58871439024992" x2="1385.023998260498" y2="191.58871439024992" fill="rgb(0, 0, 0)" stroke="rgb(60, 60, 60)" stroke-width="1px" opacity="0.25"></line><line x1="0" y1="181.14724858912518" x2="1385.023998260498" y2="181.14724858912518" fill="rgb(0, 0, 0)" stroke="rgb(60, 60, 60)" stroke-width="1px" opacity="0.25"></line><line x1="0" y1="172.61594984058422" x2="1385.023998260498" y2="172.61594984058422" fill="rgb(0, 0, 0)" stroke="rgb(60, 60, 60)" stroke-width="1px" opacity="0.25"></line><line x1="0" y1="165.40283952591497" x2="1385.023998260498" y2="165.40283952591497" fill="rgb(0, 0, 0)" stroke="rgb(60, 60, 60)" stroke-width="1px" opacity="0.25"></line><line x1="0" y1="159.15455916444387" x2="1385.023998260498" y2="159.15455916444387" fill="rgb(0, 0, 0)" stroke="rgb(60, 60, 60)" stroke-width="1px" opacity="0.25"></line><line x1="0" y1="153.64318529091855" x2="1385.023998260498" y2="153.64318529091855" fill="rgb(0, 0, 0)" stroke="rgb(60, 60, 60)" stroke-width="1px" opacity="0.25"></line><line x1="0" y1="148.71309336331908" x2="1385.023998260498" y2="148.71309336331908" fill="rgb(0, 0, 0)" stroke="rgb(60, 60, 60)" stroke-width="1px" opacity="0.25"></line><line x1="0" y1="116.27893813751302" x2="1385.023998260498" y2="116.27893813751302" fill="rgb(0, 0, 0)" stroke="rgb(60, 60, 60)" stroke-width="1px" opacity="0.25"></line><line x1="0" y1="97.3061735878473" x2="1385.023998260498" y2="97.3061735878473" fill="rgb(0, 0, 0)" stroke="rgb(60, 60, 60)" stroke-width="1px" opacity="0.25"></line><line x1="0" y1="83.84478291170689" x2="1385.023998260498" y2="83.84478291170689" fill="rgb(0, 0, 0)" stroke="rgb(60, 60, 60)" stroke-width="1px" opacity="0.25"></line><line x1="0" y1="73.40331711058212" x2="1385.023998260498" y2="73.40331711058212" fill="rgb(0, 0, 0)" stroke="rgb(60, 60, 60)" stroke-width="1px" opacity="0.25"></line><line x1="0" y1="64.87201836204116" x2="1385.023998260498" y2="64.87201836204116" fill="rgb(0, 0, 0)" stroke="rgb(60, 60, 60)" stroke-width="1px" opacity="0.25"></line><line x1="0" y1="57.658908047371995" x2="1385.023998260498" y2="57.658908047371995" fill="rgb(0, 0, 0)" stroke="rgb(60, 60, 60)" stroke-width="1px" opacity="0.25"></line><line x1="0" y1="51.41062768590075" x2="1385.023998260498" y2="51.41062768590075" fill="rgb(0, 0, 0)" stroke="rgb(60, 60, 60)" stroke-width="1px" opacity="0.25"></line><line x1="0" y1="45.89925381237549" x2="1385.023998260498" y2="45.89925381237549" fill="rgb(0, 0, 0)" stroke="rgb(60, 60, 60)" stroke-width="1px" opacity="0.25"></line><line x1="0" y1="40.96916188477604" x2="1385.023998260498" y2="40.96916188477604" fill="rgb(0, 0, 0)" stroke="rgb(60, 60, 60)" stroke-width="1px" opacity="0.25"></line><line x1="0" y1="8.535006658969905" x2="1385.023998260498" y2="8.535006658969905" fill="rgb(0, 0, 0)" stroke="rgb(60, 60, 60)" stroke-width="1px" opacity="0.25"></line></g></g></g><g><g><line x1="115.41866652170816" y1="0" x2="115.41866652170816" y2="374.5999984741211" fill="rgb(0, 0, 0)" stroke="rgb(153, 153, 153)" stroke-width="1.5px"></line></g></g><g><g><g><g><g><path style="fill: none;" stroke="rgb(204, 51, 17)" stroke-width="2px" d="M117.84245851866403,368.6121716080674L118.07329585170747,376.79744640064206L118.41955185127259,286.7454798959443L118.76580785083772,270.5361823490904L118.99664518388113,305.3284568245884L119.22748251692454,312.2487181064788L119.45831984996795,352.3085768507299L119.68915718301137,302.4886649120949L120.0354131825765,272.41578125410587L120.26625051561992,278.72710193809615L120.49708784866333,284.9375106318196L120.72792518170675,324.81726965744264L120.95876251475016,294.19867593745363L121.18959984779357,300.1812582662839L121.53585584735869,281.62638653001466L121.76669318040213,277.8492753183768L121.99753051344554,274.7743531438379L122.34378651301066,272.2334464459156L122.9208798456192,247.5266115519463L123.15171717866262,258.58763134348226L123.38255451170603,253.05632405085242L123.61339184474944,258.7386123823025L123.84422917779287,264.4007212825081L124.07506651083628,270.0450107800828L124.30590384387969,261.9167312122024L124.53674117692313,283.3288652105686L124.76757850996654,279.40196010190135L125.11383450953166,276.17997582467444L125.34467184257507,273.49983318893135L125.57550917561849,271.24638725002296L125.8063465086619,276.8119583301259L126.03718384170531,282.37079969200147L126.26802117474872,287.9236720009701L126.49885850779216,293.47124858789994L126.72969584083557,278.3636330873134L126.96053317387899,307.91172178466553L127.19137050692241,379.1038583557183L127.42220783996582,337.71827182735234M127.88388250605266,341.114282469179L128.11471983909607,414.4089166213607M132.15437316735586,359.68085653208345L132.38521050039927,309.7717414850333L132.61604783344268,386.2797208751333L132.8468851664861,391.7874499320378L133.19314116605122,317.48655148209764L133.65481583213807,322.9938182827344M134.46274649779002,361.9106765435316L134.69358383083343,367.4172894174042L134.92442116387684,372.9237815343289M136.30944516213734,327.68281825179616L136.7711198282242,297.4938534455772L137.0019571612676,302.99980291170516L137.232794494311,308.50570527714405L137.46363182735445,287.57100852782474L137.69446916039786,306.0902783688669L137.92530649344127,371.3838857581253L138.15614382648468,334.84834397938175L138.3869811595281,300.7006183722277L138.6178184925715,293.16489907431884L138.84865582561494,335.74647054927914M140.57993582344056,329.6233935387394L140.81077315648398,377.5799703376027L141.0416104895274,383.0855600787663L141.2724478225708,339.2671553640588L141.5032851556142,406.53436494461147L141.73412248865762,319.8557585998649L141.96495982170103,486.42132904138975L142.6574718208313,407.80245517975874L142.88830915387473,320.0306802839859L143.23456515343983,307.00820734561285L143.69623981952665,312.5137524210956L143.9270771525701,301.8187550198002L144.1579144856135,283.6550939945818L144.3887518186569,300.98412523485695L144.61958915170035,293.3794966361017L144.85042648474376,298.885032856761L145.08126381778717,304.3905678502065L145.65835715039572,262.7498374112431L145.88919448343913,256.4975076614314L146.12003181648254,251.56399761616615L146.35086914952598,252.0825544769608L146.6971251490911,243.85325784767983L147.50505581474303,237.58399257643637L147.85131181430816,243.08952205443927L148.1975678138733,244.39832781239974L148.54382381343842,245.59341305097414L148.77466114648183,261.4224601169979L149.00549847952524,260.84457369000694L149.23633581256865,273.25178637188685L149.46717314561207,271.06120895412533L150.04426647822064,257.2277603242544L150.27510381126405,262.7332871717205L150.50594114430746,275.4478138662282L150.85219714387256,272.91748682162284L151.42929047648113,248.69802589130114L151.89096514256795,241.30671740747795L152.1218024756114,242.7658218413143L152.4680584751765,248.27134783669499L153.16057047430675,230.94580768543645L153.39140780735016,233.18125320860457L153.62224514039357,232.07162883951457L153.853082473437,234.2302246169399L154.08391980648042,243.51790172767303L154.66101313908894,230.88541931124385L155.00726913865407,227.20628277295137L155.23810647169748,229.68494903594365L155.46894380474092,229.02157662667807L155.69978113778433,228.43963296259054L155.93061847082774,227.92829291144557L156.50771180343628,224.76268014526167L156.8539678030014,227.39072114490733L157.08480513604482,227.00470449913433L157.31564246908823,229.4959718664179L157.54647980213167,228.85589959217072L158.12357313474018,220.45367578099237L158.70066646734873,214.07198087061786L158.93150380039216,217.27354153669108L159.16234113343558,220.31616826328332L159.5085971330007,220.713419152944L159.73943446604412,221.06942940386193L160.08569046560922,218.99563132489814L160.54736513169607,217.22616334452553L160.77820246473948,217.933687718706L161.00903979778292,218.57178733681062L161.58613313039143,214.68602312071556L161.81697046343484,217.85789692401946L162.2786451295217,218.5034787449944L162.5094824625651,219.0849766158694L162.7403197956085,222.03299983237144L162.97115712865195,227.53852501631476L163.31741312821705,233.04405019812202L163.66366912778219,228.97283459719975L163.8945064608256,241.47005082111312L164.24076246039073,235.7205921871182L164.58701845995586,237.61795339395474L165.1641117925644,239.37183462998593L165.97204245821635,225.28492935964778L166.20287979125976,225.14314944908404L166.5491357908249,225.0174668078003L166.7799731238683,236.90739542862306L167.12622912343343,242.4129205985974L167.35706645647684,243.77938452629306L167.58790378952025,249.2849096951614L167.8187411225637,260.0919779794872L168.0495784556071,259.6742826130586L168.28041578865052,265.1798077806871L168.97292778778075,240.5855161236717L169.31918378734588,242.10394570107835L169.78085845343273,232.96386097491165L170.01169578647614,231.8828385535516L170.58878911908468,230.9423409813729L170.93504511864978,233.17802023719406L171.51213845125835,226.2744080324703L171.74297578430176,238.35094642569928L171.97381311734517,236.52620190332823L172.3200691169103,234.96167599454662L172.55090644995371,236.91493679454535L172.78174378299713,246.43581352638355L173.01258111604054,243.34857409667455L173.58967444864908,233.8707383011045L173.82051178169252,235.9028961756565L174.05134911473593,241.40842134080182L174.39760511430106,239.1277647810622L175.09011711343132,230.76909020225114L175.55179177951814,229.97044329224718L176.12888511212668,223.7946109013031L176.7059784447352,218.91472018887947L176.93681577777863,221.87178363677143L177.28307177734376,222.1057329690481L177.8601651099523,224.88807821928918L178.32183977603913,219.78849611121444L178.66809577560426,222.69883205579544L179.4760264412562,211.6377925417587L179.8222824408213,217.14331770656685L180.16853844038644,215.63608769911576L180.745631772995,210.29283205090573L181.32272510560352,213.6691501542831L181.78439977169037,210.63752780631634L182.1306557712555,213.99845860751938L182.47691177082064,212.91646944650347L182.70774910386402,214.02696740718218L182.93858643690746,217.23068971714164L183.6310984360377,211.55296874494127L184.0927731021245,208.86768090963741L184.9007037677765,203.1541338296432L185.1315411008199,208.65965899436918L185.82405309995013,202.99038150239247L186.05489043299357,206.66842932588057L186.285727766037,208.30623562653068L186.63198376560211,207.93342208750494L186.86282109864553,213.43894725221915L187.09365843168894,214.50236649828756L187.32449576473238,215.4684756696077L187.55533309777576,218.6019795873439L188.13242643038433,214.71072371179955L188.36326376342774,220.21624887650722L189.1711944290797,211.8418607498998L189.40203176212313,213.04769620659673L189.74828776168826,214.14641471169918L190.32538109429677,211.03485957743763L190.55621842734018,218.80764954765198L190.90247442690531,217.06520257351602L191.13331175994875,217.78838917408189L191.36414909299214,218.44082332654327L191.71040509255727,216.7508378755044L191.9412424256007,222.25636304020645L192.2874984251658,220.00314598286874L192.63375442473094,218.08726225464767L193.5571037569046,206.53221165639332L194.13419708951312,204.61772751877595L194.36503442255656,206.41497964949534L194.5958717556,208.0728427623844L194.82670908864338,209.59768065104177L195.1729650882085,209.07053714895534L195.63463975429534,210.51320881839393L195.98089575386047,209.87436703547814L196.32715175342557,217.59028569184127L196.6734077529907,218.2621993543611L197.01966375255583,216.59763238548965L197.36591975212096,215.1659702746263L197.7121757516861,213.92899105971028L197.9430130847295,214.94781750883732L198.17385041777294,220.45334267353718L198.52010641733807,218.4711595213665L198.8663624169032,216.77684890808953L199.32803708299002,217.52797231585618L199.55887441603343,220.55751982617696L200.36680508168538,210.12473381457124L200.8284797477722,207.6658752645734L201.29015441385906,205.58342382728338L201.6364104134242,211.08894899198305L201.98266641298932,214.42956380340584L202.32892241255445,215.40239915095884L202.90601574516296,210.1074058273219L203.71394641081494,202.4593663935508L203.94478374385832,207.96489155825037L204.17562107690176,209.49852385087868L204.63729574298858,207.13712133974735L206.59941307385762,186.73008780631315L206.94566907342275,188.4437725696756L207.29192507298788,191.29468013471856L208.44611173820496,184.1580357903372L208.67694907124837,187.2353572139712L208.9077864042918,190.15210480123733L209.71571706994376,186.66468915662588L210.6390664021174,182.68264096175145L211.33157840124764,181.45225757009183L212.0240904003779,180.38496703607754L212.83202106602988,179.4561641272066L213.63995173168183,179.6408872069482L216.64083706124626,163.7322877545204L218.60295439211527,157.2283991143135L220.2188157234192,155.59742625394367L220.4496530564626,161.10295141864313L223.450538386027,150.10004872396726L225.41265571689607,146.35276196830307L225.98974904950458,149.68739513902864L226.79767971515656,152.30141756894866L227.25935438124338,155.34936150218056L230.4910770438512,145.0163451552626L231.2990077095032,147.89751717972806L232.79945037428539,146.47775029847142L234.0690557060242,148.2382532489343L237.300778368632,139.8390148571154L237.87787170124057,143.9165884584714L238.45496503384908,147.86628437542598L241.22501303037006,141.30114631674886L242.49461836210887,141.61979309177804L245.03382902558644,138.02839834653997L246.41885302384694,138.26259382110507L248.03471435515087,137.64453920564745L248.61180768775938,140.8991922385603L249.07348235384626,144.46777893350782L250.11225035254162,145.40187541650457L250.343087685585,150.9074005812041L251.03559968471527,153.44741319248578L253.69022901471456,146.04155392991404L254.84441567993164,147.32847280578733L255.883183678627,147.98880513332867L257.15278901036584,147.5591407159471L257.84530100949604,150.83840537890012L258.653231675148,153.3826519999888L259.9228370068868,153.41149972640108L263.38539700253807,142.7077854094957L264.42416500123346,143.8010572813585L265.8091889994939,143.3852272423841L269.38716766166687,135.01368359590091L271.1184476594925,135.16948635468705L273.0805649903615,134.5348204843258L276.54312498601274,128.61534855739862L280.3519409812291,123.61757523878549L282.77573297818503,123.04297309540135L291.66297030035656,108.92733363576508L292.2400636329651,113.12417758337313L294.66385562992093,113.70922170001973L300.20395162296296,107.61135946209356L302.2814876203537,108.93009743304361L304.35902361774447,110.60233433310566L305.0515356168747,114.58055164675568L310.47621294339496,108.49970726405468L311.28414360904696,112.29529372512883L314.16961027208964,111.53290020284908L319.7097062651316,105.90440413409175L321.09473026339214,108.67285481502984L325.1343835916519,106.63798577266385L326.0577329238256,110.27745885440373L333.4445275812149,102.42114751675308L342.2163462368647,94.48562820097567L352.1423515577316,87.53757168773183L357.6824475507736,86.13412430582719L367.60845287164057,81.28981093280538L371.0710128672918,82.88768752005711L373.8410608638128,85.0783536787572L383.76706618467966,80.20079202686861L388.26839417902625,80.78868071567854L388.7300688451131,86.02134768209879L398.65607416598004,80.9546082803277L401.31070349597934,83.47086956260085L411.2367088168462,79.14311368285348L421.16271413771307,75.44458581534622L431.08871945858004,72.38539702146647L436.62881545162196,72.79330032119299L439.9759567807515,75.28484899966804L441.47639944553373,79.47106310816918L451.4024047664007,75.87561051887582L461.32841008726757,72.74405079597722L471.25441540813443,70.12584193324989L481.18042072900136,67.91522491888259L491.1064260498682,66.03401294870565L501.0324313707352,64.4228463759357L510.95843669160206,63.035664139228174L520.884442012469,61.83606815617634L530.8104473333359,60.794851969851436L536.8122179924648,61.96576150671865L546.7382233133316,60.86148444602128L556.6642286341985,59.94636694253086L566.2439779555003,59.26876998951292L576.1699832763671,58.48321531938319L581.017567270279,60.60475361229527L590.9435725911459,59.837382832422804L600.8695779120128,59.05232685434686L610.7955832328796,58.36530240258202L620.7215885537465,57.76289392850339L630.6475938746134,57.233788062304484L640.5735991954804,56.76838449454732L650.4996045163473,56.35849202140503L660.4256098372141,55.99708822454744L670.351615158081,55.67812736858599L680.2776204789479,55.396385304283285L690.2036257998149,55.147333108224075L700.1296311206817,54.92703328038829L702.5534231176376,58.84730879454219L712.4794284385044,58.29684005844865L722.4054337593714,57.70280405692927L732.3314390802384,57.18096470589239L742.2574444011053,56.721886140796755L752.1834497219722,56.31751308945496L753.453055053711,60.98068008889288L763.3790603745779,60.16597948791144L773.3050656954448,59.33946202423351L783.2310710163116,58.61674927491521L793.1570763371785,57.98349817961213L803.0830816580454,57.42764476983007L813.0090869789123,56.938975119473014L822.9350922997792,56.50879185234248L832.8610976206462,56.12965164514651L835.0540522845586,60.16567020439021L844.9800576054255,59.29921469766202L854.9060629262924,58.58151588898329L864.8320682471592,57.95259530574805L870.1413269071579,59.808864685476294L880.0673322280247,58.984934978710896L889.9933375488916,58.306258969807175L899.9193428697587,57.71107173814511L909.8453481906256,57.188233084091905L919.7713535114924,56.72828458535565L929.6973588323593,56.323152316176845L930.8515454975765,61.065954562813374L940.7775508184433,60.240471436345615L950.7035561393102,59.40451934822306L960.6295614601771,58.67369388555238L970.555566781044,58.033437717074776L980.4815721019108,57.47151390651834L990.4075774227778,56.977567439905215L1000.3335827436447,56.54278478757368L1010.2595880645117,56.15962620960016L1020.1855933853785,55.82161283200418L1030.1115987062456,55.523155514605264L1040.0376040271124,55.2594159988455L1049.9636093479792,55.026193270518036L1059.8896146688462,54.81982982414132L1066.0068039944967,56.42197402283068L1075.9328093153636,56.159316610897406L1085.8588146362306,55.82133957967659L1095.7848199570974,55.522914137698535L1105.7108252779642,55.25920262078063L1115.6368305988312,55.02600452048114L1125.562835919698,54.819662763712074L1135.4888412405649,54.6369858489914L1145.414846561432,54.4751827321611L1155.3408518822987,54.33180804852407L1165.2668572031657,54.20471577983744L1170.4606971966425,56.401565068993136L1180.3867025175093,55.99553881786994L1190.3127078383764,55.67675930064598L1200.2387131592434,55.39517639074188L1210.1647184801102,55.14626408747927L1220.090723800977,54.92608738348383L1230.016729121844,54.73121642100176L1239.9427344427108,54.55865494773701L1249.8687397635777,54.40578031578468L1258.6405584192275,54.68567635197593L1268.5665637400946,54.4617341312761L1278.4925690609614,54.31988862464715L1288.4185743818284,54.19414800087225" fill="none"></path></g></g></g></g><g opacity="0.2"><g><g><g><path style="fill: none;" stroke="rgb(204, 51, 17)" stroke-width="2px" d="M115.880341187795,256.4570248418621ZM117.49620251909892,256.4570248418621L117.84245851866403,224.02286961605603M118.41955185127259,205.05010506639033L118.76580785083772,224.02286961605603M119.68915718301137,224.02286961605603L120.0354131825765,205.05010506639033M120.95876251475016,224.02286961605603ZM121.53585584735869,224.02286961605603L121.76669318040213,256.4570248418621L121.99753051344554,256.4570248418621L122.34378651301066,256.4570248418621L122.9208798456192,181.14724858912518M123.38255451170603,224.02286961605603ZM124.30590384387969,224.02286961605603ZM124.76757850996654,256.4570248418621L125.11383450953166,256.4570248418621L125.34467184257507,256.4570248418621L125.57550917561849,256.4570248418621M126.72969584083557,224.02286961605603ZM127.42220783996582,256.4570248418621ZM127.88388250605266,224.02286961605603ZM128.6918131717046,224.02286961605603ZM129.49974383735656,256.4570248418621ZM130.42309316953023,256.4570248418621ZM130.88476783561705,256.4570248418621ZM131.92353583431245,256.4570248418621L132.15437316735586,224.02286961605603L132.38521050039927,224.02286961605603M133.19314116605122,224.02286961605603ZM134.46274649779002,256.4570248418621ZM135.73235182952882,224.02286961605603ZM136.30944516213734,224.02286961605603L136.7711198282242,224.02286961605603M137.46363182735445,224.02286961605603ZM138.15614382648468,256.4570248418621L138.3869811595281,224.02286961605603L138.6178184925715,256.4570248418621M140.57993582344056,181.14724858912518ZM141.2724478225708,256.4570248418621ZM141.73412248865762,224.02286961605603ZM142.42663448778788,256.4570248418621L142.6574718208313,256.4570248418621L142.88830915387473,224.02286961605603L143.23456515343983,256.4570248418621M143.9270771525701,256.4570248418621L144.1579144856135,224.02286961605603M144.61958915170035,256.4570248418621ZM145.65835715039572,181.14724858912518L145.88919448343913,224.02286961605603L146.12003181648254,224.02286961605603L146.35086914952598,256.4570248418621L146.6971251490911,205.05010506639033L147.50505581474303,205.05010506639033M148.1975678138733,256.4570248418621L148.54382381343842,256.4570248418621M149.00549847952524,256.4570248418621ZM149.46717314561207,256.4570248418621L150.04426647822064,205.05010506639033M150.85219714387256,256.4570248418621L151.42929047648113,181.14724858912518L151.89096514256795,205.05010506639033L152.1218024756114,256.4570248418621M153.16057047430675,172.61594984058422L153.39140780735016,256.4570248418621L153.62224514039357,224.02286961605603L153.853082473437,256.4570248418621M154.66101313908894,181.14724858912518L155.00726913865407,205.05010506639033L155.23810647169748,256.4570248418621L155.46894380474092,224.02286961605603L155.69978113778433,224.02286961605603L155.93061847082774,224.02286961605603L156.50771180343628,205.05010506639033L156.8539678030014,256.4570248418621L157.08480513604482,224.02286961605603L157.31564246908823,256.4570248418621L157.54647980213167,224.02286961605603L158.12357313474018,181.14724858912518L158.70066646734873,181.14724858912518L158.93150380039216,256.4570248418621L159.16234113343558,256.4570248418621L159.5085971330007,224.02286961605603L159.73943446604412,224.02286961605603L160.08569046560922,205.05010506639033L160.54736513169607,205.05010506639033L160.77820246473948,224.02286961605603L161.00903979778292,224.02286961605603L161.58613313039143,191.58871439024992L161.81697046343484,256.4570248418621L162.2786451295217,224.02286961605603L162.5094824625651,224.02286961605603L162.7403197956085,256.4570248418621M163.66366912778219,205.05010506639033ZM164.24076246039073,205.05010506639033L164.58701845995586,256.4570248418621L165.1641117925644,256.4570248418621L165.97204245821635,172.61594984058422L166.20287979125976,224.02286961605603L166.5491357908249,224.02286961605603M167.35706645647684,256.4570248418621ZM168.0495784556071,256.4570248418621ZM168.97292778778075,172.61594984058422L169.31918378734588,256.4570248418621L169.78085845343273,191.58871439024992L170.01169578647614,224.02286961605603L170.58878911908468,224.02286961605603L170.93504511864978,256.4570248418621L171.51213845125835,191.58871439024992M171.97381311734517,224.02286961605603L172.3200691169103,224.02286961605603L172.55090644995371,256.4570248418621M173.01258111604054,224.02286961605603L173.58967444864908,191.58871439024992L173.82051178169252,256.4570248418621M174.39760511430106,224.02286961605603L175.09011711343132,191.58871439024992L175.55179177951814,224.02286961605603L176.12888511212668,191.58871439024992L176.7059784447352,191.58871439024992L176.93681577777863,256.4570248418621L177.28307177734376,224.02286961605603L177.8601651099523,256.4570248418621L178.32183977603913,191.58871439024992L178.66809577560426,256.4570248418621L179.4760264412562,165.40283952591497M180.16853844038644,205.05010506639033L180.745631772995,181.14724858912518L181.32272510560352,256.4570248418621L181.78439977169037,191.58871439024992L182.1306557712555,256.4570248418621L182.47691177082064,205.05010506639033L182.70774910386402,224.02286961605603L182.93858643690746,256.4570248418621L183.6310984360377,181.14724858912518L184.0927731021245,191.58871439024992L184.9007037677765,172.61594984058422M185.82405309995013,172.61594984058422L186.05489043299357,256.4570248418621L186.285727766037,224.02286961605603L186.63198376560211,205.05010506639033M187.09365843168894,224.02286961605603L187.32449576473238,224.02286961605603L187.55533309777576,256.4570248418621L188.13242643038433,191.58871439024992M189.1711944290797,172.61594984058422L189.40203176212313,224.02286961605603L189.74828776168826,224.02286961605603L190.32538109429677,191.58871439024992M190.90247442690531,205.05010506639033L191.13331175994875,224.02286961605603L191.36414909299214,224.02286961605603L191.71040509255727,205.05010506639033M192.2874984251658,205.05010506639033L192.63375442473094,205.05010506639033L193.5571037569046,159.15455916444387L194.13419708951312,191.58871439024992L194.36503442255656,224.02286961605603L194.5958717556,224.02286961605603L194.82670908864338,224.02286961605603L195.1729650882085,205.05010506639033L195.63463975429534,224.02286961605603L195.98089575386047,205.05010506639033M196.6734077529907,224.02286961605603L197.01966375255583,205.05010506639033L197.36591975212096,205.05010506639033L197.7121757516861,205.05010506639033L197.9430130847295,224.02286961605603M198.52010641733807,205.05010506639033L198.8663624169032,205.05010506639033L199.32803708299002,224.02286961605603L199.55887441603343,256.4570248418621L200.36680508168538,165.40283952591497L200.8284797477722,191.58871439024992L201.29015441385906,191.58871439024992M201.98266641298932,256.4570248418621L202.32892241255445,224.02286961605603L202.90601574516296,181.14724858912518L203.71394641081494,165.40283952591497M204.17562107690176,224.02286961605603L204.63729574298858,191.58871439024992L206.59941307385762,123.88362056903415L206.94566907342275,205.05010506639033L207.29192507298788,224.02286961605603L208.44611173820496,148.71309336331908L208.67694907124837,224.02286961605603L208.9077864042918,224.02286961605603L209.71571706994376,165.40283952591497L210.6390664021174,159.15455916444387L211.33157840124764,172.61594984058422L212.0240904003779,172.61594984058422L212.83202106602988,172.61594984058422L213.63995173168183,181.14724858912518L216.64083706124626,107.747639388972L218.60295439211527,123.88362056903415L220.2188157234192,144.25328272991837M223.450538386027,104.00223339412963L225.41265571689607,123.88362056903415L225.98974904950458,191.58871439024992L226.79767971515656,181.14724858912518L227.25935438124338,191.58871439024992L230.4910770438512,100.5412137236699L231.2990077095032,181.14724858912518L232.79945037428539,136.43638861993577L234.0690557060242,165.40283952591497L237.300778368632,100.5412137236699L237.87787170124057,205.05010506639033L238.45496503384908,205.05010506639033L241.22501303037006,107.747639388972L242.49461836210887,144.25328272991837L245.03382902558644,116.27893813751302L246.41885302384694,140.18179461477814L248.03471435515087,132.9686843001089L248.61180768775938,181.14724858912518L249.07348235384626,191.58871439024992L250.11225035254162,153.64318529091855M251.03559968471527,181.14724858912518L253.69022901471456,109.73911418555787L254.84441567993164,159.15455916444387L255.883183678627,153.64318529091855L257.15278901036584,144.25328272991837L257.84530100949604,191.58871439024992L258.653231675148,181.14724858912518L259.9228370068868,153.64318529091855L263.38539700253807,97.32489301307362L264.42416500123346,153.6223947088564L265.8091889994939,140.18179461477814L269.38716766166687,95.79601107220742L271.1184476594925,136.43638861993577L273.0805649903615,129.7403288136534L276.54312498601274,97.32489301307362L280.3519409812291,95.82017904984235L282.77573297818503,118.67908448286033L291.66297030035656,56.2031451653923L292.2400636329651,178.27964744197908L294.66385562992093,118.67908448286033L300.20395162296296,75.68146878109252L302.2814876203537,121.09478611679782L304.35902361774447,126.72040393863773L305.0515356168747,172.61594984058422L310.47621294339496,76.63033641923079L311.28414360904696,165.1362145857184L314.16961027208964,105.83747233638826L319.7097062651316,75.68146878109252L321.09473026339214,140.01053682481518L325.1343835916519,92.91447493501312L326.0577329238256,159.1077877658203L333.4445275812149,64.72874212247496L342.2163462368647,56.55437481692235L352.1423515577316,52.7058254123524L357.6824475507736,76.19520104637246L367.60845287164057,54.107245497268195L371.0710128672918,98.14340723122598L373.8410608638128,107.73984183813485L383.76706618467966,52.884159740539474L388.26839417902625,85.78420514888347L388.7300688451131,224.02286961605603L398.65607416598004,52.884159740539474L401.31070349597934,110.80917713144646L411.2367088168462,54.107245497268195L421.16271413771307,53.19909741397129L431.08871945858004,53.19909741397129L436.62881545162196,76.19520104637246L439.9759567807515,102.25013103722699L441.47639944553373,144.25328272991837L451.4024047664007,54.107245497268195L461.32841008726757,53.19909741397129L471.25441540813443,53.19909741397129L481.18042072900136,53.19909741397129L491.1064260498682,53.19909741397129L501.0324313707352,53.19909741397129L510.95843669160206,53.19909741397129L520.884442012469,53.19909741397129L530.8104473333359,53.19909741397129L536.8122179924648,72.57957355319178L546.7382233133316,52.8479534398158L556.6642286341985,53.19909741397129L566.2439779555003,54.16924614567887L576.1699832763671,52.626520257373784L581.017567270279,82.33461895581081L590.9435725911459,54.107245497268195L600.8695779120128,53.19909741397129L610.7955832328796,53.19909741397129L620.7215885537465,53.19909741397129L630.6475938746134,53.19909741397129L640.5735991954804,53.19909741397129L650.4996045163473,53.19909741397129L660.4256098372141,53.19909741397129L670.351615158081,53.19909741397129L680.2776204789479,53.19909741397129L690.2036257998149,53.19909741397129L700.1296311206817,53.19909741397129L702.5534231176376,115.16918136097706L712.4794284385044,54.107245497268195L722.4054337593714,53.19909741397129L732.3314390802384,53.19909741397129L742.2574444011053,53.19909741397129L752.1834497219722,53.19909741397129L753.453055053711,146.5192907647976L763.3790603745779,54.107245497268195L773.3050656954448,53.19909741397129L783.2310710163116,53.19909741397129L793.1570763371785,53.19909741397129L803.0830816580454,53.19909741397129L813.0090869789123,53.19909741397129L822.9350922997792,53.19909741397129L832.8610976206462,53.19909741397129L835.0540522845586,119.97757607725546L844.9800576054255,52.884159740539474L854.9060629262924,53.19909741397129L864.8320682471592,53.19909741397129L870.1413269071579,78.13832748059576L880.0673322280247,52.86243259847447L889.9933375488916,53.19909741397129L899.9193428697587,53.19909741397129L909.8453481906256,53.19909741397129L919.7713535114924,53.19909741397129L929.6973588323593,53.19909741397129L930.8515454975765,151.21185653552837L940.7775508184433,54.107245497268195L950.7035561393102,53.19909741397129L960.6295614601771,53.19909741397129L970.555566781044,53.19909741397129L980.4815721019108,53.19909741397129L990.4075774227778,53.19909741397129L1000.3335827436447,53.19909741397129L1010.2595880645117,53.19909741397129L1020.1855933853785,53.19909741397129L1030.1115987062456,53.19909741397129L1040.0376040271124,53.19909741397129L1049.9636093479792,53.19909741397129L1059.8896146688462,53.19909741397129L1066.0068039944967,71.72672054547735L1075.9328093153636,54.107245497268195L1085.8588146362306,53.19909741397129L1095.7848199570974,53.19909741397129L1105.7108252779642,53.19909741397129L1115.6368305988312,53.19909741397129L1125.562835919698,53.19909741397129L1135.4888412405649,53.19909741397129L1145.414846561432,53.19909741397129L1155.3408518822987,53.19909741397129L1165.2668572031657,53.19909741397129L1170.4606971966425,79.14736078482451L1180.3867025175093,52.86484469278059L1190.3127078383764,53.19909741397129L1200.2387131592434,53.19909741397129L1210.1647184801102,53.19909741397129L1220.090723800977,53.19909741397129L1230.016729121844,53.19909741397129L1239.9427344427108,53.19909741397129L1249.8687397635777,53.19909741397129L1258.6405584192275,56.98989792865035L1268.5665637400946,52.7058254123524L1278.4925690609614,53.19909741397129L1288.4185743818284,53.19909741397129" fill="none"></path></g></g></g></g></g></g><g transform="translate(48, 374)" clip-path="url(#clip_1)"><clipPath id="clip_1"><rect width="1385" height="25"></rect></clipPath><g><g><line x1="0" y1="0" x2="0" y2="5" style="visibility: inherit;" fill="rgb(0, 0, 0)" stroke="rgb(204, 204, 204)" stroke-width="1px"></line><line x1="115.41866652170816" y1="0" x2="115.41866652170816" y2="5" style="visibility: inherit;" fill="rgb(0, 0, 0)" stroke="rgb(204, 204, 204)" stroke-width="1px"></line><line x1="230.83733304341632" y1="0" x2="230.83733304341632" y2="5" style="visibility: inherit;" fill="rgb(0, 0, 0)" stroke="rgb(204, 204, 204)" stroke-width="1px"></line><line x1="346.2559995651245" y1="0" x2="346.2559995651245" y2="5" style="visibility: inherit;" fill="rgb(0, 0, 0)" stroke="rgb(204, 204, 204)" stroke-width="1px"></line><line x1="461.67466608683264" y1="0" x2="461.67466608683264" y2="5" style="visibility: inherit;" fill="rgb(0, 0, 0)" stroke="rgb(204, 204, 204)" stroke-width="1px"></line><line x1="577.0933326085409" y1="0" x2="577.0933326085409" y2="5" style="visibility: inherit;" fill="rgb(0, 0, 0)" stroke="rgb(204, 204, 204)" stroke-width="1px"></line><line x1="692.511999130249" y1="0" x2="692.511999130249" y2="5" style="visibility: inherit;" fill="rgb(0, 0, 0)" stroke="rgb(204, 204, 204)" stroke-width="1px"></line><line x1="807.9306656519573" y1="0" x2="807.9306656519573" y2="5" style="visibility: inherit;" fill="rgb(0, 0, 0)" stroke="rgb(204, 204, 204)" stroke-width="1px"></line><line x1="923.3493321736653" y1="0" x2="923.3493321736653" y2="5" style="visibility: inherit;" fill="rgb(0, 0, 0)" stroke="rgb(204, 204, 204)" stroke-width="1px"></line><line x1="1038.7679986953735" y1="0" x2="1038.7679986953735" y2="5" style="visibility: inherit;" fill="rgb(0, 0, 0)" stroke="rgb(204, 204, 204)" stroke-width="1px"></line><line x1="1154.1866652170818" y1="0" x2="1154.1866652170818" y2="5" style="visibility: inherit;" fill="rgb(0, 0, 0)" stroke="rgb(204, 204, 204)" stroke-width="1px"></line><line x1="1269.6053317387898" y1="0" x2="1269.6053317387898" y2="5" style="visibility: inherit;" fill="rgb(0, 0, 0)" stroke="rgb(204, 204, 204)" stroke-width="1px"></line><line x1="1385.023998260498" y1="0" x2="1385.023998260498" y2="5" style="visibility: inherit;" fill="rgb(0, 0, 0)" stroke="rgb(204, 204, 204)" stroke-width="1px"></line></g><g transform="translate(0, 8)"><text style="text-anchor: middle; visibility: hidden; font-family: &quot;Helvetica Neue&quot;, sans-serif; font-size: 12px; font-weight: 200;" x="0" y="0" dx="0em" dy="0.95em" fill="rgb(50, 49, 63)" stroke="none" stroke-width="1px">-1k</text><text style="text-anchor: middle; visibility: inherit; font-family: &quot;Helvetica Neue&quot;, sans-serif; font-size: 12px; font-weight: 200;" x="115.41866652170816" y="0" dx="0em" dy="0.95em" fill="rgb(50, 49, 63)" stroke="none" stroke-width="1px">0</text><text style="text-anchor: middle; visibility: inherit; font-family: &quot;Helvetica Neue&quot;, sans-serif; font-size: 12px; font-weight: 200;" x="230.83733304341632" y="0" dx="0em" dy="0.95em" fill="rgb(50, 49, 63)" stroke="none" stroke-width="1px">1k</text><text style="text-anchor: middle; visibility: inherit; font-family: &quot;Helvetica Neue&quot;, sans-serif; font-size: 12px; font-weight: 200;" x="346.2559995651245" y="0" dx="0em" dy="0.95em" fill="rgb(50, 49, 63)" stroke="none" stroke-width="1px">2k</text><text style="text-anchor: middle; visibility: inherit; font-family: &quot;Helvetica Neue&quot;, sans-serif; font-size: 12px; font-weight: 200;" x="461.67466608683264" y="0" dx="0em" dy="0.95em" fill="rgb(50, 49, 63)" stroke="none" stroke-width="1px">3k</text><text style="text-anchor: middle; visibility: inherit; font-family: &quot;Helvetica Neue&quot;, sans-serif; font-size: 12px; font-weight: 200;" x="577.0933326085409" y="0" dx="0em" dy="0.95em" fill="rgb(50, 49, 63)" stroke="none" stroke-width="1px">4k</text><text style="text-anchor: middle; visibility: inherit; font-family: &quot;Helvetica Neue&quot;, sans-serif; font-size: 12px; font-weight: 200;" x="692.511999130249" y="0" dx="0em" dy="0.95em" fill="rgb(50, 49, 63)" stroke="none" stroke-width="1px">5k</text><text style="text-anchor: middle; visibility: inherit; font-family: &quot;Helvetica Neue&quot;, sans-serif; font-size: 12px; font-weight: 200;" x="807.9306656519573" y="0" dx="0em" dy="0.95em" fill="rgb(50, 49, 63)" stroke="none" stroke-width="1px">6k</text><text style="text-anchor: middle; visibility: inherit; font-family: &quot;Helvetica Neue&quot;, sans-serif; font-size: 12px; font-weight: 200;" x="923.3493321736653" y="0" dx="0em" dy="0.95em" fill="rgb(50, 49, 63)" stroke="none" stroke-width="1px">7k</text><text style="text-anchor: middle; visibility: inherit; font-family: &quot;Helvetica Neue&quot;, sans-serif; font-size: 12px; font-weight: 200;" x="1038.7679986953735" y="0" dx="0em" dy="0.95em" fill="rgb(50, 49, 63)" stroke="none" stroke-width="1px">8k</text><text style="text-anchor: middle; visibility: inherit; font-family: &quot;Helvetica Neue&quot;, sans-serif; font-size: 12px; font-weight: 200;" x="1154.1866652170818" y="0" dx="0em" dy="0.95em" fill="rgb(50, 49, 63)" stroke="none" stroke-width="1px">9k</text><text style="text-anchor: middle; visibility: inherit; font-family: &quot;Helvetica Neue&quot;, sans-serif; font-size: 12px; font-weight: 200;" x="1269.6053317387898" y="0" dx="0em" dy="0.95em" fill="rgb(50, 49, 63)" stroke="none" stroke-width="1px">10k</text><text style="text-anchor: middle; visibility: hidden; font-family: &quot;Helvetica Neue&quot;, sans-serif; font-size: 12px; font-weight: 200;" x="1385.023998260498" y="0" dx="0em" dy="0.95em" fill="rgb(50, 49, 63)" stroke="none" stroke-width="1px">11k</text></g><line x1="0" y1="0" x2="1385.023998260498" y2="0" fill="rgb(0, 0, 0)" stroke="rgb(204, 204, 204)" stroke-width="1px"></line></g></g></g></g></svg>