<svg viewBox="0 0 1434 400" xmlns="http://www.w3.org/2000/svg"><g><g><g><g><g><line x1="39.232001304626465" y1="374.5999984741211" x2="34.232001304626465" y2="374.5999984741211" style="visibility: inherit;" fill="rgb(0, 0, 0)" stroke="rgb(204, 204, 204)" stroke-width="1px"></line><line x1="39.232001304626465" y1="337.139998626709" x2="34.232001304626465" y2="337.139998626709" style="visibility: inherit;" fill="rgb(0, 0, 0)" stroke="rgb(204, 204, 204)" stroke-width="1px"></line><line x1="39.232001304626465" y1="299.67999877929685" x2="34.232001304626465" y2="299.67999877929685" style="visibility: inherit;" fill="rgb(0, 0, 0)" stroke="rgb(204, 204, 204)" stroke-width="1px"></line><line x1="39.232001304626465" y1="262.2199989318848" x2="34.232001304626465" y2="262.2199989318848" style="visibility: inherit;" fill="rgb(0, 0, 0)" stroke="rgb(204, 204, 204)" stroke-width="1px"></line><line x1="39.232001304626465" y1="224.75999908447264" x2="34.232001304626465" y2="224.75999908447264" style="visibility: inherit;" fill="rgb(0, 0, 0)" stroke="rgb(204, 204, 204)" stroke-width="1px"></line><line x1="39.232001304626465" y1="187.29999923706055" x2="34.232001304626465" y2="187.29999923706055" style="visibility: inherit;" fill="rgb(0, 0, 0)" stroke="rgb(204, 204, 204)" stroke-width="1px"></line><line x1="39.232001304626465" y1="149.83999938964845" x2="34.232001304626465" y2="149.83999938964845" style="visibility: inherit;" fill="rgb(0, 0, 0)" stroke="rgb(204, 204, 204)" stroke-width="1px"></line><line x1="39.232001304626465" y1="112.37999954223636" x2="34.232001304626465" y2="112.37999954223636" style="visibility: inherit;" fill="rgb(0, 0, 0)" stroke="rgb(204, 204, 204)" stroke-width="1px"></line><line x1="39.232001304626465" y1="74.91999969482418" x2="34.232001304626465" y2="74.91999969482418" style="visibility: inherit;" fill="rgb(0, 0, 0)" stroke="rgb(204, 204, 204)" stroke-width="1px"></line><line x1="39.232001304626465" y1="37.45999984741212" x2="34.232001304626465" y2="37.45999984741212" style="visibility: inherit;" fill="rgb(0, 0, 0)" stroke="rgb(204, 204, 204)" stroke-width="1px"></line><line x1="39.232001304626465" y1="0" x2="34.232001304626465" y2="0" style="visibility: inherit;" fill="rgb(0, 0, 0)" stroke="rgb(204, 204, 204)" stroke-width="1px"></line></g><g transform="translate(29.232001304626465, 0)"><text style="text-anchor: end; visibility: hidden; font-family: &quot;Helvetica Neue&quot;, sans-serif; font-size: 12px; font-weight: 200;" x="0" y="374.5999984741211" dx="0em" dy="0.3em" fill="rgb(50, 49, 63)" stroke="none" stroke-width="1px">-10</text><text style="text-anchor: end; visibility: inherit; font-family: &quot;Helvetica Neue&quot;, sans-serif; font-size: 12px; font-weight: 200;" x="0" y="337.139998626709" dx="0em" dy="0.3em" fill="rgb(50, 49, 63)" stroke="none" stroke-width="1px">0</text><text style="text-anchor: end; visibility: inherit; font-family: &quot;Helvetica Neue&quot;, sans-serif; font-size: 12px; font-weight: 200;" x="0" y="299.67999877929685" dx="0em" dy="0.3em" fill="rgb(50, 49, 63)" stroke="none" stroke-width="1px">10</text><text style="text-anchor: end; visibility: inherit; font-family: &quot;Helvetica Neue&quot;, sans-serif; font-size: 12px; font-weight: 200;" x="0" y="262.2199989318848" dx="0em" dy="0.3em" fill="rgb(50, 49, 63)" stroke="none" stroke-width="1px">20</text><text style="text-anchor: end; visibility: inherit; font-family: &quot;Helvetica Neue&quot;, sans-serif; font-size: 12px; font-weight: 200;" x="0" y="224.75999908447264" dx="0em" dy="0.3em" fill="rgb(50, 49, 63)" stroke="none" stroke-width="1px">30</text><text style="text-anchor: end; visibility: inherit; font-family: &quot;Helvetica Neue&quot;, sans-serif; font-size: 12px; font-weight: 200;" x="0" y="187.29999923706055" dx="0em" dy="0.3em" fill="rgb(50, 49, 63)" stroke="none" stroke-width="1px">40</text><text style="text-anchor: end; visibility: inherit; font-family: &quot;Helvetica Neue&quot;, sans-serif; font-size: 12px; font-weight: 200;" x="0" y="149.83999938964845" dx="0em" dy="0.3em" fill="rgb(50, 49, 63)" stroke="none" stroke-width="1px">50</text><text style="text-anchor: end; visibility: inherit; font-family: &quot;Helvetica Neue&quot;, sans-serif; font-size: 12px; font-weight: 200;" x="0" y="112.37999954223636" dx="0em" dy="0.3em" fill="rgb(50, 49, 63)" stroke="none" stroke-width="1px">60</text><text style="text-anchor: end; visibility: inherit; font-family: &quot;Helvetica Neue&quot;, sans-serif; font-size: 12px; font-weight: 200;" x="0" y="74.91999969482418" dx="0em" dy="0.3em" fill="rgb(50, 49, 63)" stroke="none" stroke-width="1px">70</text><text style="text-anchor: end; visibility: inherit; font-family: &quot;Helvetica Neue&quot;, sans-serif; font-size: 12px; font-weight: 200;" x="0" y="37.45999984741212" dx="0em" dy="0.3em" fill="rgb(50, 49, 63)" stroke="none" stroke-width="1px">80</text><text style="text-anchor: end; visibility: hidden; font-family: &quot;Helvetica Neue&quot;, sans-serif; font-size: 12px; font-weight: 200;" x="0" y="0" dx="0em" dy="0.3em" fill="rgb(50, 49, 63)" stroke="none" stroke-width="1px">90</text></g><line x1="39.232001304626465" y1="0" x2="39.232001304626465" y2="374.5999984741211" fill="rgb(0, 0, 0)" stroke="rgb(204, 204, 204)" stroke-width="1px"></line></g></g><g transform="translate(39, 0)" clip-path="url(#clip_0)"><clipPath id="clip_0"><rect width="1394" height="374"></rect></clipPath><g><g><g><line x1="0" y1="0" x2="0" y2="374.5999984741211" fill="rgb(0, 0, 0)" stroke="rgb(60, 60, 60)" stroke-width="1px" opacity="0.25"></line><line x1="116.23066655794779" y1="0" x2="116.23066655794779" y2="374.5999984741211" fill="rgb(0, 0, 0)" stroke="rgb(60, 60, 60)" stroke-width="1px" opacity="0.25"></line><line x1="232.46133311589557" y1="0" x2="232.46133311589557" y2="374.5999984741211" fill="rgb(0, 0, 0)" stroke="rgb(60, 60, 60)" stroke-width="1px" opacity="0.25"></line><line x1="348.6919996738434" y1="0" x2="348.6919996738434" y2="374.5999984741211" fill="rgb(0, 0, 0)" stroke="rgb(60, 60, 60)" stroke-width="1px" opacity="0.25"></line><line x1="464.92266623179114" y1="0" x2="464.92266623179114" y2="374.5999984741211" fill="rgb(0, 0, 0)" stroke="rgb(60, 60, 60)" stroke-width="1px" opacity="0.25"></line><line x1="581.153332789739" y1="0" x2="581.153332789739" y2="374.5999984741211" fill="rgb(0, 0, 0)" stroke="rgb(60, 60, 60)" stroke-width="1px" opacity="0.25"></line><line x1="697.3839993476868" y1="0" x2="697.3839993476868" y2="374.5999984741211" fill="rgb(0, 0, 0)" stroke="rgb(60, 60, 60)" stroke-width="1px" opacity="0.25"></line><line x1="813.6146659056346" y1="0" x2="813.6146659056346" y2="374.5999984741211" fill="rgb(0, 0, 0)" stroke="rgb(60, 60, 60)" stroke-width="1px" opacity="0.25"></line><line x1="929.8453324635823" y1="0" x2="929.8453324635823" y2="374.5999984741211" fill="rgb(0, 0, 0)" stroke="rgb(60, 60, 60)" stroke-width="1px" opacity="0.25"></line><line x1="1046.0759990215302" y1="0" x2="1046.0759990215302" y2="374.5999984741211" fill="rgb(0, 0, 0)" stroke="rgb(60, 60, 60)" stroke-width="1px" opacity="0.25"></line><line x1="1162.306665579478" y1="0" x2="1162.306665579478" y2="374.5999984741211" fill="rgb(0, 0, 0)" stroke="rgb(60, 60, 60)" stroke-width="1px" opacity="0.25"></line><line x1="1278.5373321374257" y1="0" x2="1278.5373321374257" y2="374.5999984741211" fill="rgb(0, 0, 0)" stroke="rgb(60, 60, 60)" stroke-width="1px" opacity="0.25"></line><line x1="1394.7679986953735" y1="0" x2="1394.7679986953735" y2="374.5999984741211" fill="rgb(0, 0, 0)" stroke="rgb(60, 60, 60)" stroke-width="1px" opacity="0.25"></line></g><g><line x1="0" y1="374.5999984741211" x2="1394.7679986953735" y2="374.5999984741211" fill="rgb(0, 0, 0)" stroke="rgb(60, 60, 60)" stroke-width="1px" opacity="0.25"></line><line x1="0" y1="337.139998626709" x2="1394.7679986953735" y2="337.139998626709" fill="rgb(0, 0, 0)" stroke="rgb(60, 60, 60)" stroke-width="1px" opacity="0.25"></line><line x1="0" y1="299.67999877929685" x2="1394.7679986953735" y2="299.67999877929685" fill="rgb(0, 0, 0)" stroke="rgb(60, 60, 60)" stroke-width="1px" opacity="0.25"></line><line x1="0" y1="262.2199989318848" x2="1394.7679986953735" y2="262.2199989318848" fill="rgb(0, 0, 0)" stroke="rgb(60, 60, 60)" stroke-width="1px" opacity="0.25"></line><line x1="0" y1="224.75999908447264" x2="1394.7679986953735" y2="224.75999908447264" fill="rgb(0, 0, 0)" stroke="rgb(60, 60, 60)" stroke-width="1px" opacity="0.25"></line><line x1="0" y1="187.29999923706055" x2="1394.7679986953735" y2="187.29999923706055" fill="rgb(0, 0, 0)" stroke="rgb(60, 60, 60)" stroke-width="1px" opacity="0.25"></line><line x1="0" y1="149.83999938964845" x2="1394.7679986953735" y2="149.83999938964845" fill="rgb(0, 0, 0)" stroke="rgb(60, 60, 60)" stroke-width="1px" opacity="0.25"></line><line x1="0" y1="112.37999954223636" x2="1394.7679986953735" y2="112.37999954223636" fill="rgb(0, 0, 0)" stroke="rgb(60, 60, 60)" stroke-width="1px" opacity="0.25"></line><line x1="0" y1="74.91999969482418" x2="1394.7679986953735" y2="74.91999969482418" fill="rgb(0, 0, 0)" stroke="rgb(60, 60, 60)" stroke-width="1px" opacity="0.25"></line><line x1="0" y1="37.45999984741212" x2="1394.7679986953735" y2="37.45999984741212" fill="rgb(0, 0, 0)" stroke="rgb(60, 60, 60)" stroke-width="1px" opacity="0.25"></line><line x1="0" y1="0" x2="1394.7679986953735" y2="0" fill="rgb(0, 0, 0)" stroke="rgb(60, 60, 60)" stroke-width="1px" opacity="0.25"></line></g></g></g><g><g><line x1="0" y1="337.139998626709" x2="1394.7679986953735" y2="337.139998626709" fill="rgb(0, 0, 0)" stroke="rgb(153, 153, 153)" stroke-width="1.5px"></line></g></g><g><g><line x1="116.23066655794779" y1="0" x2="116.23066655794779" y2="374.5999984741211" fill="rgb(0, 0, 0)" stroke="rgb(153, 153, 153)" stroke-width="1.5px"></line></g></g><g><g><g><g><g><path style="fill: none;" stroke="rgb(238, 51, 119)" stroke-width="2px" d="M116.34689722450574,340.8859986114502L116.69558922417959,336.7942454877569L116.92805055729548,339.90253955973634L117.27674255696932,339.0100779745712L117.50920389008523,339.535208843469L117.74166522320111,338.93166460292457L118.09035722287496,339.3863845090106L118.32281855599085,338.0755828255521L118.6715105556647,336.31945269608144L118.9039718887806,336.4839590301615L119.25266388845445,334.42720024472175L119.6013558881283,333.5212710637945L119.83381722124417,335.58496032078614L120.06627855436007,335.86903573717433L120.29873988747596,336.7731686707164L120.53120122059187,335.5033460859141L120.87989322026571,333.8078543613351L121.11235455338159,334.39184232467073L121.34481588649749,334.87048541282326L121.57727721961339,336.56189390619784L121.80973855272929,335.3689987094999L122.04219988584518,335.6734831597255L122.39089188551903,334.64055813102567L122.62335321863493,334.42738253276787L122.85581455175083,334.25101704445007L123.20450655142466,334.10499504304295L123.7856598842144,331.43451810180625L124.0181212173303,333.04082691633056L124.2505825504462,332.46475417096116L124.48304388356208,333.2579423832117L124.715505216678,333.9161281530474L124.94796654979388,334.46242329634947L125.18042788290977,333.6469732278812L125.41288921602568,335.5068775045294L125.64535054914157,335.1492521134746L125.99404254881541,334.8522354700985L126.22650388193131,334.6055319813797L126.45896521504721,334.4006023609695L126.6914265481631,334.86389940775973L126.92388788127899,335.24879426586944L127.15634921439488,335.5685694197213L127.38881054751079,335.83425254099666L127.62127188062668,334.7884106201802L127.85373321374256,336.4524596146162L128.08619454685848,337.8351349495312L128.31865587997436,337.08443255958554L128.55111721309027,338.3601835510786L128.78357854620617,336.8876206359229L129.01603987932205,337.5634241868863L129.24850121243793,338.75812736877566L129.5971932121118,337.21839340901215L129.8296545452277,337.8382595720159L130.06211587834358,338.3533557017389L130.41080787801744,337.5151861829254L130.64326921113332,337.45177708594343L130.87573054424922,338.03217877892916L131.340653210481,337.2483058475724L131.57311454359692,338.49617702582344L131.8055758767128,337.633893315333L132.0380372098287,337.55042386099973L132.2704985429446,338.7472249083475L132.61919054261844,338.4756008533492L132.85165187573432,337.6168026877338L133.08411320885023,336.2700651738682L133.31657454196613,335.1509292805997L133.549035875082,336.75323790925717L133.78149720819792,336.8186007387934L134.13018920787175,335.6067648535516L134.59511187410354,335.8658820956732L134.82757320721944,337.3473592737883L135.06003454033532,337.3123152558378L135.40872654000918,336.65011867098235L135.6411878731251,336.7329084954057L135.87364920624097,336.80170680487356L136.2223412059148,337.4919527644739L136.4548025390307,338.6986214460126L136.68726387214662,337.16906520878183L137.03595587182045,337.1641529537803L137.26841720493636,335.89392231225276L137.73333987116814,334.8383608241033L137.96580120428402,335.2273377323094L138.19826253739993,335.5505775060304L138.43072387051583,334.5530414688373L138.6631852036317,335.6233114147291L138.89564653674762,337.1457797715659L139.12810786986353,336.51172868342917L139.3605692029794,335.3517581915826L139.59303053609528,335.0208967998662L139.8254918692112,336.6451731169857L140.0579532023271,337.9949467013781L140.29041453544298,338.48353449776533L140.52287586855888,339.52262497208125L140.7553372016748,339.7530351248152L140.98779853479067,339.3114319444024L141.5689518675804,335.77908964529286L141.80141320069632,336.6421572770833L142.0338745338122,336.7262924665075L142.2663358669281,336.163134802721L142.498797200044,336.96129879515803L142.7312585331599,335.72535106057296L142.96371986627577,337.230574505503L143.19618119939167,338.48141518470896L143.42864253250758,337.62164178448495L143.66110386562346,336.90717009029146L143.89356519873937,335.6803701136686L144.24225719841323,335.2939733337904L144.70717986464498,335.60595160907246L144.9396411977609,335.2321315568563L145.1721025308768,334.28841309519197L145.40456386399268,335.4034050490369L145.63702519710858,335.06381536583797L145.8694865302245,335.4146903372723L146.10194786334037,335.7062674384268L146.68310119613014,332.78319802014323L146.91556252924602,332.2533493275095L147.1480238623619,331.813045064024L147.3804851954778,332.0802262188012L147.72917719515166,331.0361057631337L148.54279186105728,330.16844166457923L148.8914838607311,331.3466347914442L149.24017586040497,331.6926392822474L149.5888678600788,331.9801690140848L149.82132919319469,334.11832821373685L150.05379052631062,333.9959165160948L150.2862518594265,335.16034039031365L150.51871319254238,334.86182863482105L151.09986652533215,333.3476173710931L151.33232785844802,333.988529803325L151.5647891915639,335.1542020319477L151.91348119123776,334.8567276590306L152.4946345240275,332.0772304653803L152.9595571902593,331.0336162923556L153.1920185233752,331.43252090944816L153.54071052304906,332.39708464368147L154.23809452239672,329.4001931222436L154.47055585551263,330.0751462550848L154.7030171886285,330.0029583110461L154.93547852174441,330.57604412697646L155.16793985486032,332.31842643486414L155.74909318765003,329.96790214816656L156.0977851873239,329.2807644607733L156.33024652043977,329.9759010373978L156.56270785355568,329.9204855351487L156.7951691866716,329.87443525277973L157.02763051978746,329.8361674681312L157.6087838525772,329.1712929416658L157.95747585225106,329.8849302050179L158.18993718536694,329.84488877344114L158.42239851848282,330.4446883412228L158.65485985159876,330.3100477846273L159.23601318438847,328.2989394898313L159.8171665171782,326.6277084968563L160.04962785029412,327.77121153138074L160.28208918341002,328.7214625530703L160.63078118308385,328.8780471546728L160.86324251619973,329.0081689586044L161.2119345158736,328.48322618025014L161.67685718210538,328.04699873143784L161.9093185152213,328.31756771889616L162.1417798483372,328.54241054747405L162.7229331811269,327.4631069431796L162.9553945142428,328.46542764027487L163.4203171804746,328.66528214213974L163.6527785135905,328.8313612331894L163.88523984670638,329.60244695527297L164.1177011798223,330.8762931877457L164.46639317949612,331.93485940693057L164.81508517916998,330.9153059428093L165.04754651228586,333.2334270012309L165.39623851195972,331.9944156136729L165.74493051163356,332.2309451454547L166.3260838444233,332.4275011863655L167.13969851032894,329.42546926925587L167.37215984344482,329.46307673582294L167.72085184311865,329.49432854054015L167.95331317623456,332.05259477994525L168.30200517590842,332.9123660300483L168.5344665090243,332.9937619414627L168.7669278421402,333.69447594126933L168.9993891752561,334.9098432725299L169.231850508372,334.6536655299649L169.46431184148787,335.07385582331466L170.16169584083556,331.62458997256067L170.51038784050942,331.9236200376905L170.9753105067412,330.27289202954955L171.2077718398571,330.16728504962697L171.78892517264683,330.0795256493113L172.1376171723207,330.63967158507023L172.71877050511043,329.20593086542215L172.9512318382263,331.81293631192216L173.1836931713422,331.44706184827857L173.53238517101605,331.1430201689908L173.76484650413195,331.5234355309239L173.99730783724786,333.10570869153287L174.22976917036374,332.5213556957351L174.81092250315348,330.7696103613846L175.04338383626938,331.21313198080315L175.2758451693853,332.21477244396124L175.62453716905912,331.7809876740031L176.32192116840682,330.1543645353253L176.7868438346386,330.0687887019266L177.36799716742834,328.7315271895298L177.94915050021805,327.620262872728L178.18161183333396,328.59602421772956L178.53030383300782,328.7738078980045L179.11145716579756,329.5546201337343L179.57637983202935,328.304253109362L179.92507183170318,329.16442010437237L180.73868649760882,326.0807748926984L181.08737849728266,327.94978370374616L181.4360704969565,327.60370803346314L182.01722382974626,326.04997115661536L182.59837716253597,327.2911118016399L183.06329982876778,326.4232776853915L183.41199182844161,327.6013295270529L183.76068382811548,327.314142612631L183.99314516123135,327.70856428416766L184.22560649434726,328.6694026906359L184.92299049369493,326.9355634167259L185.3879131599267,326.12781697752797L186.2015278258324,324.190431691712L186.43398915894824,326.3789085037265L187.13137315829593,324.3990887499829L187.36383449141184,325.91922852172837L187.59629582452774,326.54939067462755L187.9449878242016,326.43998142626555L188.17744915731745,328.2482843331405L188.40991049043336,328.484836053911L188.6423718235493,328.6814105338714L188.87483315666515,329.47783792413964L189.45598648945492,328.2404470931888L189.68844782257082,329.7444713023537L190.50206248847644,327.1958714356422L190.73452382159235,327.6102809360899L191.08321582126618,327.95465523096203L191.6643691540559,326.9746822751582L191.8968304871718,329.32569473599153L192.24552248684566,328.747090101259L192.47798381996157,328.8993436472175L192.71044515307744,329.02586634390906L193.05913715275128,328.49793270743845L193.29159848586718,329.95844184779514L193.64029048554104,329.2729029511678L193.98898248521488,328.7032201280705L194.91882781767848,325.06444371497025L195.4999811504682,324.57291650536905L195.7324424835841,325.43060538903296L195.9649038167,326.1433448513577L196.19736514981588,326.7356313445495L196.5460571494897,326.59474742297067L197.0109798157215,327.1107468815599L197.35967181539533,326.9064684342263L197.7083638150692,329.26900903417715L198.05705581474302,329.3330582804725L198.40574781441686,328.75320920672266L198.75443981409072,328.27135462643656L199.10313181376455,327.8709334702188L199.33559314688046,328.17125748682315L199.56805447999636,329.68697473946384L199.91674647967022,329.0473137841445L200.26543847934406,328.5157555302741L200.73036114557584,328.70710461872903L200.96282247869175,329.4991897086564L201.77643714459737,326.3589684338584L202.24135981082915,325.6486665467651L202.70628247706097,325.0584056785906L203.0549744767348,327.1001948868226L203.40366647640866,328.1638477214421L203.7523584760825,328.41466922958966L204.3335118088722,326.7238799105965L205.14712647477788,324.05268599167067L205.37958780789373,326.26444182699214L205.61204914100966,326.8362629313018L206.07697180724142,326.0452982741405L208.05289313872655,317.1580446775631L208.4015851384004,318.63577290270496L208.75027713807424,320.4968390552191L209.91258380365372,316.9787930485883L210.14504513676962,319.11988879644815L210.37750646988553,320.8991393629197L211.19112113579115,319.21232659655124L212.1209664682547,317.17751119027776L212.8183504676024,316.7527275825071L213.51573446695008,316.3997324044496L214.32934913285575,316.10639341148385L215.14296379876137,316.49570270575055L218.16496112926802,304.7908127782822L220.14088246075312,299.49556723050483L221.76811179256438,298.8936621648294L222.0005731256803,305.3572930268871L225.0225704561869,294.2686463403041L226.99849178767204,290.751646920545L227.57964512046178,296.05898236920166L228.39325978636742,299.83630412961406L228.8581824525992,303.60833250993807L232.11264111622174,291.5516442683277L232.92625578212738,296.09070616778786L234.4372544473807,294.79807462686904L235.71579177951816,297.5223418008932L238.97025044314069,286.49418598911143L239.55140377593042,293.1541063326016L240.13255710872014,298.68850013804195L242.92209310611088,289.9930274445163L244.20063043824834,290.99705160267297L246.75770510252318,286.1337297013098L248.15247310121853,287.1569011806471L249.77970243302983,286.7410086851338L250.36085576581954,292.0930679981537L250.82577843205135,297.1737032846945L251.87185443107288,298.23034122070356L252.10431576418875,304.80607332231847L252.80169976353645,307.10513671165415L255.47500509436927,297.6203264346093L256.6373117599487,299.23455905570404L257.68338775897024,299.9429123664125L258.9619250911077,299.2654059727687L259.6593090904554,303.13391614159957L260.472923756361,305.7155740944767L261.75146108849844,305.3286358636326L265.2383810852369,291.7201325853069L266.2844570842584,293.69589185706167L267.6792250829538,293.4410579320769L271.2823757462502,281.2110146467064L273.02583574461937,282.4330509728504L275.00175707610447,282.18241516503355L278.4886770728429,272.4856231847711L282.3242890692552,263.8071768214984L284.7651330669721,264.172017755575L293.7148943919341,230.7880682961247L294.2960477247238,245.3961231613619L296.7368917224407,248.8724321640015L302.3159637172222,233.64013449525086L304.4081157152653,239.70842392794032L306.50026771330835,246.04517609329199L307.197651712656,257.6417571169119L312.66049304087954,241.53266308408925L313.4741077067852,253.23346187309613L316.3798743707339,251.5868166489251L321.9589463655154,235.89578800222233L323.35371436421076,245.38131658050764L327.4217876937389,240.0274796958089L328.35163302620253,251.3698385871129L335.79039568591116,227.76407137083615L344.6239263443152,200.87492538861076L354.6197636682987,174.64043538468334L360.19883566308016,172.2825439400948L370.19467298706377,152.33370762206604L373.6815929838022,164.91054598502245L376.4711289811929,178.82101543090636L386.4669663051764,156.50102943608792L390.9999623009364,162.73416785202235L391.4648849671682,190.94260525810185L401.4607222911517,166.57407058248737L404.1340276219845,181.16820924972907L414.129864945968,159.71769549437215L424.1257022699515,140.9553669222997L434.12153959393504,125.3638718789075L439.70061158871647,131.33371966679502L443.07130091889695,149.02704710554792L444.5822995841503,173.8543219409902L454.57813690813384,153.63985514081014L464.57397423211734,135.90468158848967L474.56981155610083,121.1667523665113L484.5656488800843,108.9195331830474L494.5614862040678,98.74209404158876L504.5573235280514,90.28464211503672L514.5531608520349,83.25649956407193L524.5489981760184,77.41611310422024L534.5448355000019,72.56275195608345L540.5888301610152,85.06043675352771L550.5846674849987,78.54800083096058L560.5805048089821,73.5033506570046L570.2276501332918,70.31150443756599L580.2234874572754,66.0586692410111L585.1051754527092,85.71786075184781L595.1010127766928,80.39845589263285L605.0968501006762,75.04107881325433L615.0926874246597,70.58909846029081L625.0885247486432,66.88950278697808L635.0843620726267,63.81513878245522L645.0801993966103,61.26034229469673L655.0760367205938,59.1373064133694L665.0718740445773,57.37306359598648L675.0677113685608,55.9069778147412L685.0635486925443,54.68866053052636L695.0593860165278,53.67623886734384L705.0552233405112,52.83491646523913L707.4960673382282,87.91712017313836L717.4919046622117,82.22604047172518L727.4877419861951,76.55980159848013L737.4835793101788,71.8511570948134L747.4794166341624,67.93827351226633L757.4752539581458,64.68666725516982L758.7537912902833,104.0966650537834L768.7496286142667,95.67124226754129L778.7454659382503,87.73276429080329L788.7413032622337,81.135889092134L798.7371405862173,75.65388580203978L808.7329779102007,71.09834106797155L818.7288152341843,67.31268339396075L828.7246525581677,64.16680186685784L838.7204898821514,61.55257431783531L840.9288725467522,96.42764184348835L850.9247098707358,88.03213598494352L860.9205471947192,81.38466696996448L870.9163845187028,75.86062021851694L876.2629951803684,91.40948754790827L886.2588325043519,83.83925713078105L896.2546698283354,77.90038464215547L906.2505071523191,72.96518160410761L916.2463444763025,68.86402787948987L926.2421818002861,65.45596913433258L936.2380191242695,62.623872317106816L937.400325789849,103.01555645767428L947.3961631138325,94.77284102417462L957.392000437816,86.98619285756553L967.3878377617995,80.51548823111347L977.383675085783,75.13833268653173L987.3795124097664,70.66991642898432L997.37534973375,66.95666251896239L1007.3711870577334,63.87094851973421L1017.3670243817171,61.30672018637563L1027.3628617057007,59.175846441354565L1037.3586990296842,57.40509035924214L1047.3545363536675,55.93359205500661L1057.350373677651,54.71077696418695L1067.3462110016346,53.69461762371583L1073.5064363292058,68.78845934010701L1083.5022736531894,66.33012331947612L1093.498110977173,63.35029444496115L1103.4939483011565,60.8740566502392L1113.4897856251398,58.81630304282521L1123.4856229491234,57.106309795064135L1133.481460273107,55.685305406174734L1143.4772975970905,54.50445075900768L1153.4731349210738,53.52316054721183L1163.4689722450573,52.7077083812095L1173.464809569041,52.030067631261545L1178.6951895641484,72.21658212577046L1188.691026888132,67.89248362994255L1198.6868642121158,64.6486158629587L1208.682701536099,61.9529617485951L1218.6785388600827,59.71287317955904L1228.6743761840662,57.85135957868994L1238.6702135080498,56.30444177636781L1248.666050832033,55.01895308263812L1258.6618881560166,53.95071197814866L1267.4954188144206,56.85638096495842L1277.4912561384042,54.96102496862824L1287.4870934623877,53.90257371540645L1297.4829307863713,53.02300072397924" fill="none"></path></g><g><path style="fill: none;" stroke="rgb(0, 119, 187)" stroke-width="2px" d="M116.46312789106369,337.139998626709L116.69558922417959,339.18587518855566L117.16051189041139,338.37452199827123L117.50920389008523,334.5872059672366L118.09035722287496,333.2045620667531L118.6715105556647,329.66541609188266L119.02020255533854,330.53295495658665L119.6013558881283,331.1587926383474L120.41497055403391,328.502213873057L120.87989322026571,328.73192539492663L121.11235455338159,330.3661574184424L121.34481588649749,330.3720415232593L121.57727721961339,333.02066377871154L122.04219988584518,331.17276402160803L122.27466121896109,332.24815035868994L122.50712255207698,331.9182803280097L122.85581455175083,330.9881720132691L123.0882758848667,333.3793741533035L123.43696788454055,333.38192128295975L123.66942921765646,334.0330953190514L123.90189055077235,334.05209208764677L124.13435188388824,333.4237136487085L124.36681321700415,333.5470521134784L124.715505216678,333.52087826005135L124.94796654979388,332.9877663619073L125.29665854946772,333.6952392281344L125.76158121569952,333.643983654594L125.99404254881541,335.5114313244912L126.34273454848926,334.6430791041742L126.57519588160514,335.7022344510379L126.80765721472105,335.94600112041354L127.04011854783694,336.14832780944556L127.62127188062668,335.0473252495199L127.85373321374256,335.4016414238903L128.2024252134164,334.55459062019156L128.55111721309027,334.9920825382074L128.78357854620617,335.4822146172155L129.01603987932205,335.2557214317778L129.48096254555384,334.9408598393721L130.17834654490153,332.27213588857626L130.41080787801744,334.3620089243817L130.64326921113332,334.95835444693705L130.87573054424922,334.8205450102819L131.57311454359692,332.6796157450215L131.8055758767128,332.9270208751646L132.0380372098287,332.4993953032794L132.2704985429446,333.4104236945274L132.5029598760605,334.04080904577273L132.73542120917637,335.83092582585425L132.96788254229227,336.17880715689495L133.31657454196613,336.9743856571744L133.66526654163997,335.86276776616626L134.01395854131383,335.5721446472642L134.2464198744297,336.4702268717396L134.59511187410354,336.5834225826926L134.82757320721944,336.8041056765719L135.06003454033532,338.12705415810046L135.29249587345123,337.4537679440498L135.75741853968302,335.62810081481024L136.10611053935685,334.1109816272042L136.57103320558866,334.6228918806435L136.80349453870454,335.0482873268485L137.1521865383784,334.7687101327124L137.6171092046102,334.02991943873326L137.84957053772607,333.41598600721284L138.08203187084197,332.90580845480423L138.31449320395788,333.621389531015L138.54695453707376,333.076499444448L138.77941587018967,334.3963085446202L139.12810786986353,333.08738192280555L139.3605692029794,334.40535072293767L139.94172253576914,333.09489692453326L140.29041453544298,332.63898533078225L140.63910653511684,332.76658272369616L140.87156786823275,333.63230562075876L141.10402920134862,335.49125517554097L141.3364905344645,337.03604180937407L141.68518253413836,335.2810024088273L142.15010520037015,334.4556392370895L142.38256653348606,334.4028367489198L142.84748919971784,333.59926886441883L143.31241186594963,334.1976523470952L143.54487319906553,335.32798310570445L143.7773345321814,336.26728789186404L144.12602653185527,336.41477602767225L144.4747185315291,335.39780535785985L144.70717986464498,336.3253101116036L145.1721025308768,334.05731111986285L145.52079453055063,334.5782853449371L145.8694865302245,334.50475567980146L146.21817852989832,334.4436525293954L146.56687052957216,335.5324090609369L147.26425452891985,332.1322622784172L147.6129465285937,333.61164375968025L147.8454078617096,334.2079357459345L148.65902252761524,330.39855099670075L148.8914838607311,331.0313964507483L149.12394519384702,332.6968242379071L149.35640652696293,332.3081875401774L149.5888678600788,333.1247636212503L149.93755985975264,332.0307311662871L150.2862518594265,331.12159019877913L150.86740519221624,330.2394792262177L151.21609719189007,330.77259300979864L151.79725052467984,330.5825365635269L152.02971185779572,332.32382165485683L152.2621731909116,334.40390356313503L153.07578785681724,332.9670816336346L153.8894025227229,330.0004752945574L154.12186385583877,331.8401287377477L154.7030171886285,332.10273275187353L155.16793985486032,330.5483495231695L155.4004011879762,332.2954122205252L155.6328625210921,333.7472213215833L155.98155452076594,333.6875266886944L156.6789385201136,330.5991651389693L156.91139985322954,332.97071399416956L157.26009185290337,331.90271593412854L157.6087838525772,332.78781670941424L157.8412451856931,333.52333545360256L158.18993718536694,333.5014775324322L159.0035518512726,330.9510176098624L159.35224385094642,331.3638814043415L160.04962785029412,329.80774922506964L160.28208918341002,329.9073662087846L160.86324251619973,328.0909257789079L161.4443958489895,326.581463781722L161.67685718210538,329.6320041655234L162.37424118145307,328.36855923972496L162.60670251456895,328.71139933096646L162.9553945142428,330.13583261198875L163.18785584735872,331.4461514698794L163.6527785135905,331.1422636445349L163.88523984670638,332.2824956579125L164.1177011798223,333.7364876570807L164.35016251293817,334.438295812327L164.69885451261203,333.75535042278L164.9313158457279,333.8208967637607L165.97739184474943,328.8107736805091L166.20985317786534,329.0788795312474L166.44231451098125,330.4412086583867L166.79100651065508,330.9402301656138L167.023467843771,331.9879910355422L168.0695438427925,327.28762902038056L168.5344665090243,327.6865314890084L168.7669278421402,328.1446342701097L168.9993891752561,329.6648508463773L169.58054250804582,327.88939551287973L169.81300384116173,330.7188954339624L170.51038784050942,330.53791387869387L171.32400250641504,327.34876289789224L171.90515583920478,327.73733374121997L172.1376171723207,329.32638410686843L172.3700785054366,330.646884960722L172.60253983855247,333.01036916511714L172.9512318382263,333.07520254670493L173.29992383790017,334.3952270816472L173.76484650413195,332.45341231274875L174.46223050347962,329.57361609401494L174.69469183659552,330.8523347420404L175.2758451693853,329.5092687785358L175.856998502175,327.76010681450555L176.0894598352909,328.8388493252842L176.90307450119653,327.0763735701185L177.36799716742834,326.37144504466875L177.94915050021805,325.1525752916622L178.53030383300782,324.1396945269137L178.76276516612373,326.33674591977916L179.34391849891344,325.1237403188789L179.57637983202935,326.01495480773127L180.1575331648191,327.2620132157173L181.08737849728266,325.13294876564726L181.31983983039856,327.1621401921667L183.1795304953257,318.845828987599L183.6444531615575,319.53186249659507L184.69052916057902,318.0761195206355L185.15545182681083,320.0317670947194L185.5041438264847,322.2899842262044L185.85283582615853,325.43271065731096L186.66645049206414,324.2458723370329L187.015142491738,326.42497967998816L187.36383449141184,326.4632107193918L187.59629582452774,328.2675878757284L188.06121849075953,328.5008772978016L188.29367982387544,329.96088880238693L188.75860249010722,329.9080103678548L189.33975582289696,329.35760922100894L189.57221715601284,329.5332998654013L189.92090915568667,330.31237275057845L190.15337048880258,330.3267083584736L190.50206248847644,330.84508041638406L193.05913715275128,318.10790893314254L193.64029048554104,319.42511009909146L194.22144381833078,319.38017095188746L194.45390515144666,321.24204866376135L195.38375048391026,318.99082490686436L195.7324424835841,321.5515760600343L196.19736514981588,321.7803383137888L196.89474914916354,321.8438249169873L197.7083638150692,320.12397497071635L198.173286481301,321.7335349737366L198.8706704806487,321.29847202271753L199.21936248032253,323.3426160213709L199.56805447999636,325.0412996842517L200.03297714622815,324.6802986455135L201.31151447836558,321.0883219655442L202.24135981082915,320.00261133675343L202.8225131436189,319.8600744803846L203.86858914264045,318.9819376765858L204.21728114231428,321.4175759797354L204.5659731419881,322.30205824448166L204.91466514166197,323.0370630064859L205.2633571413358,324.7873851288823L205.7282798075676,325.6088288151725L207.5879704724948,318.69456054942447L209.91258380365372,309.2769749185416L210.26127580332755,312.2132187626297L211.30735180234907,310.8547932616027L212.23719713481267,310.3590156676705L212.46965846792855,313.74546862257705L215.84034779810906,300.61121048780274L216.77019313057264,301.844066270192L217.93249979615211,302.7444868590732L218.97857579517364,302.9862770497473L219.5597291279634,306.98564883366157L220.25711312731107,309.5494379590015L227.57964512046178,275.51369644075083L236.76186777853968,240.6434937949511L241.41109444085757,232.9730927329483L251.40693176484106,201.61535918681946L261.4027690888246,175.7723254507234L271.3986064128081,154.2967644160276L276.62898640791576,157.20020715391104L279.4185224053065,172.52261194259307L281.97559706958134,186.54193763142223L282.44051973581315,210.72686194478317L286.2761317322254,211.3461123112145L293.0175103925864,197.83178967946313L295.5745850568612,208.71339704312237L305.5704223808447,181.46821142333516L310.1034183766047,183.48189608342483L311.9631090415319,200.58707944934218L318.8207183684508,187.18426641515626L324.51602102979024,183.04073051977664L334.5118583537738,160.1038401930256L335.0930116865635,187.18677944779589L337.3013943511645,201.76661553287073L339.62600768232346,212.1098526097855L349.62184500630696,185.430201126579L357.87422233192126,168.43542050121L367.87005965590475,147.85540495981996L377.86589697988825,131.09780348808684L384.25858364057547,131.9380554116852L394.25442096455896,118.80743765495765L398.554955627203,132.65668176215382L402.97172095640497,143.3322794517802L404.25025828854245,170.3881180155518L410.64294494922956,164.38572329803264L414.82724894531566,172.09466522549604L415.9895556108952,194.9227345909309L420.5225516066551,194.4600213497209L430.5183889306386,169.61352777231548L435.9812302588622,168.710403267187L443.53622358512877,158.5397650456008L447.4880662480991,168.49016014282103L457.4839035720825,148.03763491929755L460.85459290226305,161.9710514539923L467.24727956295015,157.38860766543314L470.38550756001473,171.93974280235716L480.3813448839982,152.04883987660605L488.9824142092864,139.2774249006508L498.9782515332699,123.59725617130391L499.7918661991755,155.58366013090264L501.4190955309868,178.66979336763876L506.30078352642056,180.23465412746057L508.9740888572534,192.3023768074284L515.9479288507302,180.87704121325882L525.9437661747138,158.26529575012557L528.1521488393148,176.7959133537215L538.1479861632982,156.08431760478982L548.1438234872818,137.93602989605677L552.6768194830418,147.30665323425652L562.6726568070252,131.57874244551445L564.6485781385104,155.88553555243215L567.3218834693432,173.22298586613837L569.76272746706,188.8965550716708L577.5501821264427,174.26355445600697L578.3637967923482,197.37334942110425L584.2915607868035,189.17054844916518L594.2873981107871,165.19265225246025L595.2172434432507,189.5163602769223L598.5879327734311,196.2372887402025L608.5837700974147,171.0980345186508L618.5796074213981,150.41242865147524L621.7178354184628,165.20558881537295L631.7136727424463,145.31322278607539L640.3147420677344,133.6801270984198L650.3105793917179,118.94590169764999L660.3064167157014,107.07400627722359L661.7011847143967,138.68746978368878L662.0498767140707,171.59287316073792L672.0457140380541,150.6210560770737L678.6708620318572,147.00461719113827L683.552550027291,153.92089272478867L693.5483873512745,135.92044524510953L694.710694016854,163.92500856084456L697.1515380145709,180.03040321861047L707.1473753385544,158.77217868251256L708.309682004134,182.91479904732648L709.1232966700394,204.67395447302826L714.0049846654733,200.70457929367808L717.2594433290958,206.15004674589957L722.0249006579718,202.54655997520717L727.6039726527531,196.40948270120526L732.485660648187,194.97633596365435L734.461581979672,208.351158397833L734.926504645904,227.71079123649955L742.8301899718443,206.00412844919464L749.3391072990894,194.5422646672745L750.8501059643428,211.67746773478504L754.685717960755,213.27559964256L756.4291779591242,224.83412356339565L761.6595579542319,215.61416911939799L763.4030179526011,227.92207233965712L763.8679406188329,245.1137538873263L766.5412459496657,246.23210259007428L769.7957046132883,243.99861248740228L779.7915419372719,211.92976058487858L781.4187712690831,224.55645361850753L786.0679979314009,219.6047623463237L796.0638352553844,191.65847111764225L798.9696019193331,200.74719809960024L801.526676583608,209.99656872789518L811.5225139075915,183.6740622207282L812.684820573171,203.60826426758362L814.4282805715402,217.94516540779938L824.4241178955236,189.13981093438179L831.9791112217904,174.57965359065446L835.3498005519708,184.9644181962751L837.9068752162457,196.87854530828838L845.9267912087441,178.73654065555016L846.3917138749758,202.97442906299094L856.3875511989594,177.83866415919272L866.3833885229428,156.01389188276556L876.3792258469264,137.8775061210546L886.3750631709098,122.80616955307283L896.3709004948935,110.2818888650799L904.042124487718,108.51946900158936L905.5531231529712,138.9491673650543L915.5489604769548,123.4941365608606L922.9877231366634,120.56241134564962L932.983560460647,109.3542774360821L934.8432511255742,138.05007912701515L943.909243117094,125.68445719668708L947.6286244469484,142.44341765792032L957.6244617709318,126.39279191434505L959.2516911027432,153.47523265329417L969.2475284267266,135.56529681538797L979.24336575071,120.88472362006382L980.1732110831738,152.69647158340086L985.6360524113973,155.5892788005841L992.1449697386424,151.48266835742464L1001.0947310636044,138.40936694110428L1010.5094150547982,125.92224984140523L1014.1125657180945,143.26903311820075L1018.8780230469704,151.43450368289422L1023.0623270430566,161.33220172531603L1033.05816436704,142.08684056939293L1039.567081694285,140.49004921277412L1040.6131576933067,169.29237268178028L1050.60899501729,149.84887530640668L1052.933608348449,169.16879396756985L1055.14199101305,186.79366959880284L1058.6289110097885,193.34419090171474L1064.0917523380122,188.22546752179824L1066.8812883354028,198.2995390834058L1069.9032856659094,206.56980080811368L1076.0635109934806,196.7646857927268L1078.2718936580818,208.54580557145624L1080.8289683223566,216.47721153700755L1088.0352696489492,198.71765121321175L1098.0311069729328,173.08071421028333L1100.5881816372078,187.20830410184877L1102.7965643018085,200.6449698080275L1112.792401625792,174.76334839097134L1120.114933618943,163.7090394956937L1125.4615442806085,165.34847319362734L1135.457381604592,146.57149483175164L1139.1767629344463,158.86359670627377L1140.8039922662576,180.25082312076304L1144.407142929554,188.41607751334715L1144.8720655957857,212.28427218666278L1146.731756260713,223.38232067502534L1154.1705189204217,204.50644398589134L1163.9338949112891,179.76509945715048L1168.2344295739333,182.82376599948438L1169.164274906397,203.95763537362467L1179.1601122303805,178.65570860332937L1181.8334175612133,191.2080504450488L1186.482644223531,190.7527065968183L1196.4784815475145,167.68241278980327L1197.640788213094,190.31920359048505L1206.706780204614,169.1200996258305L1216.7026175285976,148.3560002387445L1218.4460775269667,171.0935847734489L1221.5843055240314,183.3285787791182L1231.580142848015,160.37342744594773L1237.5079068424702,158.62619677378606L1237.7403681755861,187.62004398152598L1238.4377521749338,210.35662032687685L1240.064981506745,224.1861232904933L1245.7602841680844,212.64974087082058L1255.756121492068,184.7089277947431L1258.080734823227,198.1374975853774L1261.6838854865232,203.27990399344168L1262.265038819313,222.86097256564173L1265.0545748167037,228.2465000266943L1267.4954188144206,234.62109533909273L1277.4912561384042,202.99750870728656" fill="none"></path></g></g></g></g><g opacity="0.2"><g><g><g><path style="fill: none;" stroke="rgb(238, 51, 119)" stroke-width="2px" d="M116.34689722450574,340.8859986114502L116.69558922417959,333.39399864196776L116.92805055729548,344.6319985961914L117.27674255696932,337.139998626709L117.50920389008523,340.8859986114502L117.74166522320111,337.139998626709L118.09035722287496,340.8859986114502L118.32281855599085,333.39399864196776L118.6715105556647,329.6479986572266L118.9039718887806,337.139998626709L119.25266388845445,325.9019986724853L119.6013558881283,329.6479986572266L119.83381722124417,344.6319985961914L120.06627855436007,337.139998626709L120.29873988747596,340.8859986114502L120.53120122059187,329.6479986572266L120.87989322026571,325.9019986724853L121.11235455338159,337.139998626709L121.34481588649749,337.139998626709L121.57727721961339,344.6319985961914L121.80973855272929,329.6479986572266L122.04219988584518,337.139998626709L122.39089188551903,329.6479986572266L122.62335321863493,333.39399864196776L122.85581455175083,333.39399864196776L123.20450655142466,333.39399864196776L123.7856598842144,318.40999870300294L124.0181212173303,340.8859986114502L124.2505825504462,329.6479986572266L124.48304388356208,337.139998626709L124.715505216678,337.139998626709L124.94796654979388,337.139998626709L125.18042788290977,329.6479986572266L125.41288921602568,344.6319985961914L125.64535054914157,333.39399864196776L125.99404254881541,333.39399864196776L126.22650388193131,333.39399864196776L126.45896521504721,333.39399864196776L126.6914265481631,337.139998626709L126.92388788127899,337.139998626709L127.15634921439488,337.139998626709L127.38881054751079,337.139998626709L127.62127188062668,329.6479986572266L127.85373321374256,344.6319985961914L128.08619454685848,344.6319985961914L128.31865587997436,333.39399864196776L128.55111721309027,344.6319985961914L128.78357854620617,329.6479986572266L129.01603987932205,340.8859986114502L129.24850121243793,344.6319985961914L129.5971932121118,329.6479986572266L129.8296545452277,340.8859986114502L130.06211587834358,340.8859986114502L130.41080787801744,333.39399864196776L130.64326921113332,337.139998626709L130.87573054424922,340.8859986114502L131.340653210481,333.39399864196776L131.57311454359692,344.6319985961914L131.8055758767128,333.39399864196776L132.0380372098287,337.139998626709L132.2704985429446,344.6319985961914L132.61919054261844,337.139998626709L132.85165187573432,333.39399864196776L133.08411320885023,329.6479986572266L133.31657454196613,329.6479986572266L133.549035875082,344.6319985961914L133.78149720819792,337.139998626709L134.13018920787175,329.6479986572266L134.59511187410354,337.139998626709L134.82757320721944,344.6319985961914L135.06003454033532,337.139998626709L135.40872654000918,333.39399864196776L135.6411878731251,337.139998626709L135.87364920624097,337.139998626709L136.2223412059148,340.8859986114502L136.4548025390307,344.6319985961914L136.68726387214662,329.6479986572266L137.03595587182045,337.139998626709L137.26841720493636,329.6479986572266L137.73333987116814,329.6479986572266L137.96580120428402,337.139998626709L138.19826253739993,337.139998626709L138.43072387051583,329.6479986572266L138.6631852036317,340.8859986114502L138.89564653674762,344.6319985961914L139.12810786986353,333.39399864196776L139.3605692029794,329.6479986572266L139.59303053609528,333.39399864196776L139.8254918692112,344.6319985961914L140.0579532023271,344.6319985961914L140.29041453544298,340.8859986114502L140.52287586855888,344.6319985961914L140.7553372016748,340.8859986114502L140.98779853479067,337.139998626709L141.5689518675804,318.40999870300294L141.80141320069632,340.8859986114502L142.0338745338122,337.139998626709L142.2663358669281,333.39399864196776L142.498797200044,340.8859986114502L142.7312585331599,329.6479986572266L142.96371986627577,344.6319985961914L143.19618119939167,344.6319985961914L143.42864253250758,333.39399864196776L143.66110386562346,333.39399864196776L143.89356519873937,329.6479986572266L144.24225719841323,333.39399864196776L144.70717986464498,337.139998626709L144.9396411977609,333.39399864196776L145.1721025308768,329.6479986572266L145.40456386399268,340.8859986114502L145.63702519710858,333.39399864196776L145.8694865302245,337.139998626709L146.10194786334037,337.139998626709L146.68310119613014,318.40999870300294L146.91556252924602,329.6479986572266L147.1480238623619,329.6479986572266L147.3804851954778,333.39399864196776L147.72917719515166,325.9019986724853L148.54279186105728,325.9019986724853L148.8914838607311,337.139998626709L149.24017586040497,333.39399864196776L149.5888678600788,333.39399864196776L149.82132919319469,344.6319985961914L150.05379052631062,333.39399864196776L150.2862518594265,340.8859986114502L150.51871319254238,333.39399864196776L151.09986652533215,325.9019986724853L151.33232785844802,337.139998626709L151.5647891915639,340.8859986114502L151.91348119123776,333.39399864196776L152.4946345240275,318.40999870300294L152.9595571902593,325.9019986724853L153.1920185233752,333.39399864196776L153.54071052304906,337.139998626709L154.23809452239672,314.6639987182617L154.47055585551263,333.39399864196776L154.7030171886285,329.6479986572266L154.93547852174441,333.39399864196776L155.16793985486032,340.8859986114502L155.74909318765003,318.40999870300294L156.0977851873239,325.9019986724853L156.33024652043977,333.39399864196776L156.56270785355568,329.6479986572266L156.7951691866716,329.6479986572266L157.02763051978746,329.6479986572266L157.6087838525772,325.9019986724853L157.95747585225106,333.39399864196776L158.18993718536694,329.6479986572266L158.42239851848282,333.39399864196776L158.65485985159876,329.6479986572266L159.23601318438847,318.40999870300294L159.8171665171782,318.40999870300294L160.04962785029412,333.39399864196776L160.28208918341002,333.39399864196776L160.63078118308385,329.6479986572266L160.86324251619973,329.6479986572266L161.2119345158736,325.9019986724853L161.67685718210538,325.9019986724853L161.9093185152213,329.6479986572266L162.1417798483372,329.6479986572266L162.7229331811269,322.15599868774416L162.9553945142428,333.39399864196776L163.4203171804746,329.6479986572266L163.6527785135905,329.6479986572266L163.88523984670638,333.39399864196776L164.1177011798223,337.139998626709L164.46639317949612,337.139998626709L164.81508517916998,325.9019986724853L165.04754651228586,344.6319985961914L165.39623851195972,325.9019986724853L165.74493051163356,333.39399864196776L166.3260838444233,333.39399864196776L167.13969851032894,314.6639987182617L167.37215984344482,329.6479986572266L167.72085184311865,329.6479986572266L167.95331317623456,344.6319985961914L168.30200517590842,337.139998626709L168.5344665090243,333.39399864196776L168.7669278421402,337.139998626709L168.9993891752561,340.8859986114502L169.231850508372,333.39399864196776L169.46431184148787,337.139998626709L170.16169584083556,314.6639987182617L170.51038784050942,333.39399864196776L170.9753105067412,322.15599868774416L171.2077718398571,329.6479986572266L171.78892517264683,329.6479986572266L172.1376171723207,333.39399864196776L172.71877050511043,322.15599868774416L172.9512318382263,344.6319985961914L173.1836931713422,329.6479986572266L173.53238517101605,329.6479986572266L173.76484650413195,333.39399864196776L173.99730783724786,340.8859986114502L174.22976917036374,329.6479986572266L174.81092250315348,322.15599868774416L175.04338383626938,333.39399864196776L175.2758451693853,337.139998626709L175.62453716905912,329.6479986572266L176.32192116840682,322.15599868774416L176.7868438346386,329.6479986572266L177.36799716742834,322.15599868774416L177.94915050021805,322.15599868774416L178.18161183333396,333.39399864196776L178.53030383300782,329.6479986572266L179.11145716579756,333.39399864196776L179.57637983202935,322.15599868774416L179.92507183170318,333.39399864196776L180.73868649760882,310.9179987335205L181.08737849728266,337.139998626709L181.4360704969565,325.9019986724853L182.01722382974626,318.40999870300294L182.59837716253597,333.39399864196776L183.06329982876778,322.15599868774416L183.41199182844161,333.39399864196776L183.76068382811548,325.9019986724853L183.99314516123135,329.6479986572266L184.22560649434726,333.39399864196776L184.92299049369493,318.40999870300294L185.3879131599267,322.15599868774416L186.2015278258324,314.6639987182617L186.43398915894824,337.139998626709L187.13137315829593,314.6639987182617L187.36383449141184,333.39399864196776L187.59629582452774,329.6479986572266L187.9449878242016,325.9019986724853L188.17744915731745,337.139998626709L188.40991049043336,329.6479986572266L188.6423718235493,329.6479986572266L188.87483315666515,333.39399864196776L189.45598648945492,322.15599868774416L189.68844782257082,337.139998626709L190.50206248847644,314.6639987182617L190.73452382159235,329.6479986572266L191.08321582126618,329.6479986572266L191.6643691540559,322.15599868774416L191.8968304871718,340.8859986114502L192.24552248684566,325.9019986724853L192.47798381996157,329.6479986572266L192.71044515307744,329.6479986572266L193.05913715275128,325.9019986724853L193.29159848586718,337.139998626709L193.64029048554104,325.9019986724853L193.98898248521488,325.9019986724853L194.91882781767848,307.1719987487793L195.4999811504682,322.15599868774416L195.7324424835841,329.6479986572266L195.9649038167,329.6479986572266L196.19736514981588,329.6479986572266L196.5460571494897,325.9019986724853L197.0109798157215,329.6479986572266L197.35967181539533,325.9019986724853L197.7083638150692,340.8859986114502L198.05705581474302,329.6479986572266L198.40574781441686,325.9019986724853L198.75443981409072,325.9019986724853L199.10313181376455,325.9019986724853L199.33559314688046,329.6479986572266L199.56805447999636,337.139998626709L199.91674647967022,325.9019986724853L200.26543847934406,325.9019986724853L200.73036114557584,329.6479986572266L200.96282247869175,333.39399864196776L201.77643714459737,310.9179987335205L202.24135981082915,322.15599868774416L202.70628247706097,322.15599868774416L203.0549744767348,337.139998626709L203.40366647640866,333.39399864196776L203.7523584760825,329.6479986572266L204.3335118088722,318.40999870300294L205.14712647477788,310.9179987335205L205.37958780789373,337.139998626709L205.61204914100966,329.6479986572266L206.07697180724142,322.15599868774416L208.05289313872655,273.4579988861084L208.4015851384004,325.9019986724853L208.75027713807424,329.6479986572266L209.91258380365372,299.67999877929685L210.14504513676962,329.6479986572266L210.37750646988553,329.6479986572266L211.19112113579115,310.9179987335205L212.1209664682547,307.1719987487793L212.8183504676024,314.6639987182617L213.51573446695008,314.6639987182617L214.32934913285575,314.6639987182617L215.14296379876137,318.40999870300294L218.16496112926802,247.23599899291992L220.14088246075312,273.4579988861084L221.76811179256438,295.9339987945557L222.0005731256803,337.139998626709L225.0225704561869,239.7439990234375L226.99849178767204,273.4579988861084L227.57964512046178,322.15599868774416L228.39325978636742,318.40999870300294L228.8581824525992,322.15599868774416L232.11264111622174,232.266981967865L232.92625578212738,318.40999870300294L234.4372544473807,288.44199882507326L235.71579177951816,310.9179987335205L238.97025044314069,232.266981967865L239.55140377593042,325.9019986724853L240.13255710872014,325.9019986724853L242.92209310611088,247.23599899291992L244.20063043824834,295.9339987945557L246.75770510252318,262.2199989318848L248.15247310121853,292.1879988098145L249.77970243302983,284.69599884033204L250.36085576581954,318.40999870300294L250.82577843205135,322.15599868774416L251.87185443107288,303.42599876403807L252.10431576418875,337.139998626709L252.80169976353645,318.40999870300294L255.47500509436927,250.98199897766114L256.6373117599487,307.1719987487793L257.68338775897024,303.42599876403807L258.9619250911077,295.9339987945557L259.6593090904554,322.15599868774416L260.472923756361,318.40999870300294L261.75146108849844,303.42599876403807L265.2383810852369,224.8049478262024L266.2844570842584,303.41101585012814L267.6792250829538,292.1879988098145L271.2823757462502,221.07393790029906L273.02583574461937,288.44199882507326L275.00175707610447,280.9499988555908L278.4886770728429,224.8049478262024L282.3242890692552,221.13386955593873L284.7651330669721,265.96599891662595L293.7148943919341,66.63385527362055L294.2960477247238,317.22626276498414L296.7368917224407,265.96599891662595L302.3159637172222,158.74049329565432L304.4081157152653,269.5471725585022L306.50026771330835,277.2039988708496L307.197651712656,314.6639987182617L312.66049304087954,162.32167408245846L313.4741077067852,310.7681588770294L316.3798743707339,243.48999900817873L321.9589463655154,158.74049329565432L323.35371436421076,292.02317603941344L327.4217876937389,213.70180838702393L328.35163302620253,307.1420293484955L335.79039568591116,111.69074263281243L344.6239263443152,68.65669869494627L354.6197636682987,45.641256726318375L360.19883566308016,160.68841500250247L370.19467298706377,54.24209235412593L373.6815929838022,226.75286953305056L376.4711289811929,247.22101607900998L386.4669663051764,46.750092384643494L390.9999623009364,193.38350527001953L391.4648849671682,329.6479986572266L401.4607222911517,46.750092384643494L404.1340276219845,252.92992068450928L414.129864945968,54.24209235412593L424.1257022699515,48.69799980163572L434.12153959393504,48.69799980163572L439.70061158871647,160.68841500250247L443.07130091889695,236.02796486651613L444.5822995841503,295.9339987945557L454.57813690813384,54.24209235412593L464.57397423211734,48.69799980163572L474.56981155610083,48.69799980163572L484.5656488800843,48.69799980163572L494.5614862040678,48.69799980163572L504.5573235280514,48.69799980163572L514.5531608520349,48.69799980163572L524.5489981760184,48.69799980163572L534.5448355000019,48.69799980163572L540.5888301610152,146.51354957409671L550.5846674849987,46.52531295135503L560.5805048089821,48.69799980163572L570.2276501332918,54.616686636657676L580.2234874572754,45.14679913250728L585.1051754527092,182.38524622821046L595.1010127766928,54.24209235412593L605.0968501006762,48.69799980163572L615.0926874246597,48.69799980163572L625.0885247486432,48.69799980163572L635.0843620726267,48.69799980163572L645.0801993966103,48.69799980163572L655.0760367205938,48.69799980163572L665.0718740445773,48.69799980163572L675.0677113685608,48.69799980163572L685.0635486925443,48.69799980163572L695.0593860165278,48.69799980163572L705.0552233405112,48.69799980163572L707.4960673382282,260.4219206539917L717.4919046622117,54.24209235412593L727.4877419861951,48.69799980163572L737.4835793101788,48.69799980163572L747.4794166341624,48.69799980163572L757.4752539581458,48.69799980163572L758.7537912902833,297.8819205014038L768.7496286142667,54.24209235412593L778.7454659382503,48.69799980163572L788.7413032622337,48.69799980163572L798.7371405862173,48.69799980163572L808.7329779102007,48.69799980163572L818.7288152341843,48.69799980163572L828.7246525581677,48.69799980163572L838.7204898821514,48.69799980163572L840.9288725467522,267.9139206234741L850.9247098707358,46.750092384643494L860.9205471947192,48.69799980163572L870.9163845187028,48.69799980163572L876.2629951803684,167.86575234509277L886.2588325043519,46.61522472467044L896.2546698283354,48.69799980163572L906.2505071523191,48.69799980163572L916.2463444763025,48.69799980163572L926.2421818002861,48.69799980163572L936.2380191242695,48.69799980163572L937.400325789849,301.627920486145L947.3961631138325,54.24209235412593L957.392000437816,48.69799980163572L967.3878377617995,48.69799980163572L977.383675085783,48.69799980163572L987.3795124097664,48.69799980163572L997.37534973375,48.69799980163572L1007.3711870577334,48.69799980163572L1017.3670243817171,48.69799980163572L1027.3628617057007,48.69799980163572L1037.3586990296842,48.69799980163572L1047.3545363536675,48.69799980163572L1057.350373677651,48.69799980163572L1067.3462110016346,48.69799980163572L1073.5064363292058,143.00729050177003L1083.5022736531894,54.24209235412593L1093.498110977173,48.69799980163572L1103.4939483011565,48.69799980163572L1113.4897856251398,48.69799980163572L1123.4856229491234,48.69799980163572L1133.481460273107,48.69799980163572L1143.4772975970905,48.69799980163572L1153.4731349210738,48.69799980163572L1163.4689722450573,48.69799980163572L1173.464809569041,48.69799980163572L1178.6951895641484,171.4768989597168L1188.691026888132,46.63020049365235L1198.6868642121158,48.69799980163572L1208.682701536099,48.69799980163572L1218.6785388600827,48.69799980163572L1228.6743761840662,48.69799980163572L1238.6702135080498,48.69799980163572L1248.666050832033,48.69799980163572L1258.6618881560166,48.69799980163572L1267.4954188144206,71.14401959240729L1277.4912561384042,45.641256726318375L1287.4870934623877,48.69799980163572L1297.4829307863713,48.69799980163572" fill="none"></path></g><g><path style="fill: none;" stroke="rgb(0, 119, 187)" stroke-width="2px" d="M116.46312789106369,337.139998626709L116.69558922417959,340.8859986114502L117.16051189041139,337.139998626709L117.50920389008523,326.65119884805677L118.09035722287496,329.6479986572266L118.6715105556647,319.1591979854584L119.02020255533854,333.39399864196776L119.6013558881283,333.39399864196776L120.41497055403391,318.40999870300294L120.87989322026571,329.6479986572266L121.11235455338159,337.139998626709L121.34481588649749,330.397198832798L121.57727721961339,344.6319985961914L122.04219988584518,322.9051988633156L122.27466121896109,337.139998626709L122.50712255207698,330.397198832798L122.85581455175083,326.65119884805677L123.0882758848667,344.6319985961914L123.43696788454055,333.39399864196776L123.66942921765646,337.139998626709L123.90189055077235,334.1431985942602L124.13435188388824,330.397198832798L124.36681321700415,334.1431985942602L124.715505216678,333.39399864196776L124.94796654979388,330.397198832798L125.29665854946772,337.139998626709L125.76158121569952,333.39399864196776L125.99404254881541,344.6319985961914L126.34273454848926,330.397198832798L126.57519588160514,340.8859986114502L126.80765721472105,337.139998626709L127.04011854783694,337.139998626709L127.62127188062668,329.6479986572266L127.85373321374256,337.139998626709L128.2024252134164,330.397198832798L128.55111721309027,337.139998626709L128.78357854620617,337.8891986348212L129.01603987932205,334.1431985942602L129.48096254555384,333.39399864196776L130.17834654490153,319.1591979854584L130.41080787801744,344.6319985961914L130.64326921113332,337.8891986348212L130.87573054424922,334.1431985942602L131.57311454359692,322.15599868774416L131.8055758767128,334.1431985942602L132.0380372098287,330.397198832798L132.2704985429446,337.8891986348212L132.5029598760605,337.139998626709L132.73542120917637,344.6319985961914L132.96788254229227,337.8891986348212L133.31657454196613,340.8859986114502L133.66526654163997,330.397198832798L134.01395854131383,334.1431985942602L134.2464198744297,340.8859986114502L134.59511187410354,337.139998626709L134.82757320721944,337.8891986348212L135.06003454033532,344.6319985961914L135.29249587345123,334.1431985942602L135.75741853968302,326.65119884805677L136.10611053935685,326.65119884805677L136.57103320558866,337.139998626709L136.80349453870454,337.139998626709L137.1521865383784,333.39399864196776L137.6171092046102,330.397198832798L137.84957053772607,330.397198832798L138.08203187084197,330.397198832798L138.31449320395788,337.139998626709L138.54695453707376,330.397198832798L138.77941587018967,340.8859986114502L139.12810786986353,326.65119884805677L139.3605692029794,340.8859986114502L139.94172253576914,326.65119884805677L140.29041453544298,330.397198832798L140.63910653511684,333.39399864196776L140.87156786823275,337.8891986348212L141.10402920134862,344.6319985961914L141.3364905344645,344.6319985961914L141.68518253413836,326.65119884805677L142.15010520037015,330.397198832798L142.38256653348606,334.1431985942602L142.84748919971784,329.6479986572266L143.31241186594963,337.139998626709L143.54487319906553,340.8859986114502L143.7773345321814,340.8859986114502L144.12602653185527,337.139998626709L144.4747185315291,330.397198832798L144.70717986464498,340.8859986114502L145.1721025308768,322.9051988633156L145.52079453055063,337.139998626709L145.8694865302245,334.1431985942602L146.21817852989832,334.1431985942602L146.56687052957216,340.8859986114502L147.26425452891985,315.41319800071716L147.6129465285937,340.8859986114502L147.8454078617096,337.139998626709L148.65902252761524,311.66719801597594L148.8914838607311,334.1431985942602L149.12394519384702,340.8859986114502L149.35640652696293,330.397198832798L149.5888678600788,337.139998626709L149.93755985975264,326.65119884805677L150.2862518594265,326.65119884805677L150.86740519221624,325.9019986724853L151.21609719189007,333.39399864196776L151.79725052467984,329.6479986572266L152.02971185779572,340.8859986114502L152.2621731909116,344.6319985961914L153.07578785681724,325.9019986724853L153.8894025227229,315.41319800071716L154.12186385583877,340.8859986114502L154.7030171886285,333.39399864196776L155.16793985486032,322.9051988633156L155.4004011879762,340.8859986114502L155.6328625210921,340.8859986114502L155.98155452076594,333.39399864196776L156.6789385201136,315.41319800071716L156.91139985322954,344.6319985961914L157.26009185290337,326.65119884805677L157.6087838525772,337.139998626709L157.8412451856931,337.139998626709L158.18993718536694,333.39399864196776L159.0035518512726,318.40999870300294L159.35224385094642,333.39399864196776L160.04962785029412,322.15599868774416L160.28208918341002,330.397198832798L160.86324251619973,319.1591979854584L161.4443958489895,319.1591979854584L161.67685718210538,344.6319985961914L162.37424118145307,322.15599868774416L162.60670251456895,330.397198832798L162.9553945142428,337.139998626709L163.18785584735872,337.8891986348212L163.6527785135905,329.6479986572266L163.88523984670638,337.8891986348212L164.1177011798223,340.8859986114502L164.35016251293817,337.8891986348212L164.69885451261203,330.397198832798L164.9313158457279,334.1431985942602L165.97739184474943,304.1751980464935L166.20985317786534,330.397198832798L166.44231451098125,337.139998626709L166.79100651065508,333.39399864196776L167.023467843771,337.139998626709L168.0695438427925,304.1751980464935L168.5344665090243,329.6479986572266L168.7669278421402,330.397198832798L168.9993891752561,337.139998626709L169.58054250804582,319.1591979854584L169.81300384116173,344.6319985961914L170.51038784050942,329.6479986572266L171.32400250641504,311.66719801597594L171.90515583920478,329.6479986572266L172.1376171723207,337.139998626709L172.3700785054366,337.139998626709L172.60253983855247,344.6319985961914L172.9512318382263,333.39399864196776L173.29992383790017,340.8859986114502L173.76484650413195,322.9051988633156L174.46223050347962,315.41319800071716L174.69469183659552,337.139998626709L175.2758451693853,322.9051988633156L175.856998502175,319.1591979854584L176.0894598352909,334.1431985942602L176.90307450119653,318.40999870300294L177.36799716742834,322.9051988633156L177.94915050021805,319.1591979854584L178.53030383300782,319.1591979854584L178.76276516612373,337.139998626709L179.34391849891344,319.1591979854584L179.57637983202935,330.397198832798L180.1575331648191,333.39399864196776L181.08737849728266,314.6639987182617L181.31983983039856,337.139998626709L183.1795304953257,277.95319815330504L183.6444531615575,322.9051988633156L184.69052916057902,310.9179987335205L185.15545182681083,329.6479986572266L185.5041438264847,333.39399864196776L185.85283582615853,340.8859986114502L186.66645049206414,318.40999870300294L187.015142491738,337.139998626709L187.36383449141184,326.65119884805677L187.59629582452774,337.139998626709L188.06121849075953,329.6479986572266L188.29367982387544,337.139998626709L188.75860249010722,329.6479986572266L189.33975582289696,326.65119884805677L189.57221715601284,330.397198832798L189.92090915568667,334.1431985942602L190.15337048880258,330.397198832798L190.50206248847644,333.39399864196776L193.05913715275128,255.47720181732177L193.64029048554104,325.9019986724853L194.22144381833078,319.1591979854584L194.45390515144666,330.397198832798L195.38375048391026,307.9211980312347L195.7324424835841,334.1431985942602L196.19736514981588,322.9051988633156L196.89474914916354,322.15599868774416L197.7083638150692,311.66719801597594L198.173286481301,329.6479986572266L198.8706704806487,319.1591979854584L199.21936248032253,333.39399864196776L199.56805447999636,333.39399864196776L200.03297714622815,322.9051988633156L201.31151447836558,303.42599876403807L202.24135981082915,314.6639987182617L202.8225131436189,319.1591979854584L203.86858914264045,314.6639987182617L204.21728114231428,333.39399864196776L204.5659731419881,326.65119884805677L204.91466514166197,326.65119884805677L205.2633571413358,333.39399864196776L205.7282798075676,329.6479986572266L207.5879704724948,284.69599884033204L209.91258380365372,262.9692017868042L210.26127580332755,326.65119884805677L211.30735180234907,304.1751980464935L212.23719713481267,307.9211980312347L212.46965846792855,330.397198832798L215.84034779810906,236.02796486651613L216.77019313057264,307.90621511732485L217.93249979615211,307.1719987487793L218.97857579517364,304.1751980464935L219.5597291279634,326.65119884805677L220.25711312731107,322.15599868774416L227.57964512046178,108.15451773266597L236.76186777853968,69.1811364064331L241.41109444085757,195.25650526239014L251.40693176484106,47.4243735250854L261.4027690888246,48.69799980163572L271.3986064128081,48.69799980163572L276.62898640791576,171.4768989597168L279.4185224053065,247.86532424670412L281.97559706958134,255.47720181732177L282.44051973581315,329.6479986572266L286.2761317322254,214.39106529644778L293.0175103925864,131.3797062061768L295.5745850568612,262.2199989318848L305.5704223808447,47.499280949706986L310.1034183766047,193.38350527001953L311.9631090415319,284.69599884033204L318.8207183684508,121.28049344824217L324.51602102979024,162.66630253717042L334.5118583537738,47.319485982788024L335.0930116865635,320.35791862361907L337.3013943511645,273.4579988861084L339.62600768232346,262.9692017868042L349.62184500630696,54.24209235412593L357.87422233192126,84.86936902380376L367.87005965590475,46.66018061132809L377.86589697988825,48.69799980163572L384.25858364057547,136.06970836145018L394.25442096455896,54.24209235412593L398.554955627203,200.75562763836672L402.97172095640497,195.82589886053464L404.25025828854245,303.42599876403807L410.64294494922956,134.87098950952145L414.82724894531566,210.0007642889404L415.9895556108952,307.1719987487793L420.5225516066551,192.1847864180908L430.5183889306386,47.43934929406737L435.9812302588622,164.26959578930663L443.53622358512877,108.52911201519771L447.4880662480991,217.4178425439453L457.4839035720825,47.46930083203131L460.85459290226305,230.48388660388184L467.24727956295015,134.85599945068358L470.38550756001473,243.48999900817873L480.3813448839982,54.24209235412593L488.9824142092864,76.47833706030275L498.9782515332699,46.495361413391095L499.7918661991755,312.86591865413664L501.4190955309868,292.1879988098145L506.30078352642056,187.92932449084472L508.9740888572534,251.6412972041931L515.9479288507302,124.69684074725342L525.9437661747138,47.07973078051759L528.1521488393148,267.9139206234741L538.1479861632982,54.24209235412593L548.1438234872818,48.69799980163572L552.6768194830418,193.38350527001953L562.6726568070252,54.24209235412593L564.6485781385104,275.40592059295653L567.3218834693432,258.47399894714357L569.76272746706,265.96599891662595L577.5501821264427,102.31075261212158L578.3637967923482,311.00790336190795L584.2915607868035,148.83606556347658L594.2873981107871,47.28950586511229L595.2172434432507,309.1199186693955L598.5879327734311,229.28516775195314L608.5837700974147,47.48430518072507L618.5796074213981,48.69799980163572L621.7178354184628,237.9459207455444L631.7136727424463,47.499280949706986L640.3147420677344,76.47833706030275L650.3105793917179,46.495361413391095L660.3064167157014,48.69799980163572L661.7011847143967,294.1359205166626L662.0498767140707,333.39399864196776L672.0457140380541,47.499280949706986L678.6708620318572,129.22200941473392L683.552550027291,187.92932449084472L693.5483873512745,47.409369176391635L694.710694016854,301.627920486145L697.1515380145709,259.223201802063L707.1473753385544,54.24209235412593L708.309682004134,301.627920486145L709.1232966700394,311.66719801597594L714.0049846654733,181.18652737628173L717.2594433290958,232.92628019439698L722.0249006579718,184.8276398187256L727.6039726527531,166.23249326513672L732.485660648187,187.92932449084472L734.461581979672,274.11729711264036L734.926504645904,322.9051988633156L742.8301899718443,99.26899959564207L749.3391072990894,138.18244926623532L750.8501059643428,295.9339987945557L754.685717960755,221.13386955593873L756.4291779591242,281.66923231022645L761.6595579542319,170.27818010778805L763.4030179526011,288.44199882507326L763.8679406188329,329.6479986572266L766.5412459496657,251.73120183258055L769.7957046132883,233.0161848227844L779.7915419372719,54.24209235412593L781.4187712690831,286.6439205471802L786.0679979314009,195.25650526239014L796.0638352553844,54.24209235412593L798.9696019193331,245.43792071502685L801.526676583608,255.47720181732177L811.5225139075915,54.24209235412593L812.684820573171,301.627920486145L814.4282805715402,288.44199882507326L824.4241178955236,47.499280949706986L831.9791112217904,102.98503375256348L835.3498005519708,236.02796486651613L837.9068752162457,255.4622117584839L845.9267912087441,89.52940535125731L846.3917138749758,322.15599868774416L856.3875511989594,54.24209235412593L866.3833885229428,48.69799980163572L876.3792258469264,48.69799980163572L886.3750631709098,48.69799980163572L896.3709004948935,48.69799980163572L904.042124487718,99.85336896276857L905.5531231529712,288.5768557676544L915.5489604769548,47.499280949706986L922.9877231366634,106.14665008032227L932.983560460647,54.24209235412593L934.8432511255742,279.15192057769775L943.909243117094,64.88071859252932L947.6286244469484,224.8499037128601L957.6244617709318,47.46930083203131L959.2516911027432,286.6439205471802L969.2475284267266,47.499280949706986L979.24336575071,48.69799980163572L980.1732110831738,309.1199186693955L985.6360524113973,169.8136740519409L992.1449697386424,131.28980872271728L1001.0947310636044,74.12585524310299L1010.5094150547982,64.52110007897949L1014.1125657180945,228.5659378697815L1018.8780230469704,191.58542699212643L1023.0623270430566,210.0007642889404L1033.05816436704,47.45432506304934L1039.567081694285,132.63837100360107L1040.6131576933067,310.9179987335205L1050.60899501729,54.24209235412593L1052.933608348449,264.1679206387329L1055.14199101305,273.4579988861084L1058.6289110097885,225.55415068112183L1064.0917523380122,163.05588687854006L1066.8812883354028,247.83535841888428L1069.9032856659094,247.23599899291992L1076.0635109934806,148.55136876440434L1078.2718936580818,266.4754537142029L1080.8289683223566,255.47720181732177L1088.0352696489492,111.39105577490238L1098.0311069729328,47.01979912487792L1100.5881816372078,256.6759206692505L1102.7965643018085,266.71520177154537L1112.792401625792,47.499280949706986L1120.114933618943,109.3532365845947L1125.4615442806085,173.40983060772706L1135.457381604592,54.24209235412593L1139.1767629344463,219.30582545022583L1140.8039922662576,285.41523229496767L1144.407142929554,228.5659378697815L1144.8720655957857,329.6479986572266L1146.731756260713,277.95319815330504L1154.1705189204217,111.69074263281243L1163.9338949112891,58.107955650146494L1168.2344295739333,197.8637180508423L1169.164274906397,307.876247503273L1179.1601122303805,54.24209235412593L1181.8334175612133,252.92992068450928L1186.482644223531,188.51370814782715L1196.4784815475145,54.24209235412593L1197.640788213094,301.627920486145L1206.706780204614,64.88071859252932L1216.7026175285976,46.25560621112061L1218.4460775269667,282.89792056243897L1221.5843055240314,243.48999900817873L1231.580142848015,47.499280949706986L1237.5079068424702,150.0347844154053L1237.7403681755861,330.1874228550873L1238.4377521749338,322.15599868774416L1240.064981506745,292.1879988098145L1245.7602841680844,155.92350542260743L1255.756121492068,47.319485982788024L1258.080734823227,264.1679206387329L1261.6838854865232,228.5659378697815L1262.265038819313,319.14421507154844L1265.0545748167037,254.72799896240235L1267.4954188144206,265.96599891662595L1277.4912561384042,47.499280949706986" fill="none"></path></g></g></g></g></g></g><g transform="translate(39, 374)" clip-path="url(#clip_1)"><clipPath id="clip_1"><rect width="1394" height="25"></rect></clipPath><g><g><line x1="0" y1="0" x2="0" y2="5" style="visibility: inherit;" fill="rgb(0, 0, 0)" stroke="rgb(204, 204, 204)" stroke-width="1px"></line><line x1="116.23066655794779" y1="0" x2="116.23066655794779" y2="5" style="visibility: inherit;" fill="rgb(0, 0, 0)" stroke="rgb(204, 204, 204)" stroke-width="1px"></line><line x1="232.46133311589557" y1="0" x2="232.46133311589557" y2="5" style="visibility: inherit;" fill="rgb(0, 0, 0)" stroke="rgb(204, 204, 204)" stroke-width="1px"></line><line x1="348.6919996738434" y1="0" x2="348.6919996738434" y2="5" style="visibility: inherit;" fill="rgb(0, 0, 0)" stroke="rgb(204, 204, 204)" stroke-width="1px"></line><line x1="464.92266623179114" y1="0" x2="464.92266623179114" y2="5" style="visibility: inherit;" fill="rgb(0, 0, 0)" stroke="rgb(204, 204, 204)" stroke-width="1px"></line><line x1="581.153332789739" y1="0" x2="581.153332789739" y2="5" style="visibility: inherit;" fill="rgb(0, 0, 0)" stroke="rgb(204, 204, 204)" stroke-width="1px"></line><line x1="697.3839993476868" y1="0" x2="697.3839993476868" y2="5" style="visibility: inherit;" fill="rgb(0, 0, 0)" stroke="rgb(204, 204, 204)" stroke-width="1px"></line><line x1="813.6146659056346" y1="0" x2="813.6146659056346" y2="5" style="visibility: inherit;" fill="rgb(0, 0, 0)" stroke="rgb(204, 204, 204)" stroke-width="1px"></line><line x1="929.8453324635823" y1="0" x2="929.8453324635823" y2="5" style="visibility: inherit;" fill="rgb(0, 0, 0)" stroke="rgb(204, 204, 204)" stroke-width="1px"></line><line x1="1046.0759990215302" y1="0" x2="1046.0759990215302" y2="5" style="visibility: inherit;" fill="rgb(0, 0, 0)" stroke="rgb(204, 204, 204)" stroke-width="1px"></line><line x1="1162.306665579478" y1="0" x2="1162.306665579478" y2="5" style="visibility: inherit;" fill="rgb(0, 0, 0)" stroke="rgb(204, 204, 204)" stroke-width="1px"></line><line x1="1278.5373321374257" y1="0" x2="1278.5373321374257" y2="5" style="visibility: inherit;" fill="rgb(0, 0, 0)" stroke="rgb(204, 204, 204)" stroke-width="1px"></line><line x1="1394.7679986953735" y1="0" x2="1394.7679986953735" y2="5" style="visibility: inherit;" fill="rgb(0, 0, 0)" stroke="rgb(204, 204, 204)" stroke-width="1px"></line></g><g transform="translate(0, 8)"><text style="text-anchor: middle; visibility: hidden; font-family: &quot;Helvetica Neue&quot;, sans-serif; font-size: 12px; font-weight: 200;" x="0" y="0" dx="0em" dy="0.95em" fill="rgb(50, 49, 63)" stroke="none" stroke-width="1px">-1k</text><text style="text-anchor: middle; visibility: inherit; font-family: &quot;Helvetica Neue&quot;, sans-serif; font-size: 12px; font-weight: 200;" x="116.23066655794779" y="0" dx="0em" dy="0.95em" fill="rgb(50, 49, 63)" stroke="none" stroke-width="1px">0</text><text style="text-anchor: middle; visibility: inherit; font-family: &quot;Helvetica Neue&quot;, sans-serif; font-size: 12px; font-weight: 200;" x="232.46133311589557" y="0" dx="0em" dy="0.95em" fill="rgb(50, 49, 63)" stroke="none" stroke-width="1px">1k</text><text style="text-anchor: middle; visibility: inherit; font-family: &quot;Helvetica Neue&quot;, sans-serif; font-size: 12px; font-weight: 200;" x="348.6919996738434" y="0" dx="0em" dy="0.95em" fill="rgb(50, 49, 63)" stroke="none" stroke-width="1px">2k</text><text style="text-anchor: middle; visibility: inherit; font-family: &quot;Helvetica Neue&quot;, sans-serif; font-size: 12px; font-weight: 200;" x="464.92266623179114" y="0" dx="0em" dy="0.95em" fill="rgb(50, 49, 63)" stroke="none" stroke-width="1px">3k</text><text style="text-anchor: middle; visibility: inherit; font-family: &quot;Helvetica Neue&quot;, sans-serif; font-size: 12px; font-weight: 200;" x="581.153332789739" y="0" dx="0em" dy="0.95em" fill="rgb(50, 49, 63)" stroke="none" stroke-width="1px">4k</text><text style="text-anchor: middle; visibility: inherit; font-family: &quot;Helvetica Neue&quot;, sans-serif; font-size: 12px; font-weight: 200;" x="697.3839993476868" y="0" dx="0em" dy="0.95em" fill="rgb(50, 49, 63)" stroke="none" stroke-width="1px">5k</text><text style="text-anchor: middle; visibility: inherit; font-family: &quot;Helvetica Neue&quot;, sans-serif; font-size: 12px; font-weight: 200;" x="813.6146659056346" y="0" dx="0em" dy="0.95em" fill="rgb(50, 49, 63)" stroke="none" stroke-width="1px">6k</text><text style="text-anchor: middle; visibility: inherit; font-family: &quot;Helvetica Neue&quot;, sans-serif; font-size: 12px; font-weight: 200;" x="929.8453324635823" y="0" dx="0em" dy="0.95em" fill="rgb(50, 49, 63)" stroke="none" stroke-width="1px">7k</text><text style="text-anchor: middle; visibility: inherit; font-family: &quot;Helvetica Neue&quot;, sans-serif; font-size: 12px; font-weight: 200;" x="1046.0759990215302" y="0" dx="0em" dy="0.95em" fill="rgb(50, 49, 63)" stroke="none" stroke-width="1px">8k</text><text style="text-anchor: middle; visibility: inherit; font-family: &quot;Helvetica Neue&quot;, sans-serif; font-size: 12px; font-weight: 200;" x="1162.306665579478" y="0" dx="0em" dy="0.95em" fill="rgb(50, 49, 63)" stroke="none" stroke-width="1px">9k</text><text style="text-anchor: middle; visibility: inherit; font-family: &quot;Helvetica Neue&quot;, sans-serif; font-size: 12px; font-weight: 200;" x="1278.5373321374257" y="0" dx="0em" dy="0.95em" fill="rgb(50, 49, 63)" stroke="none" stroke-width="1px">10k</text><text style="text-anchor: middle; visibility: hidden; font-family: &quot;Helvetica Neue&quot;, sans-serif; font-size: 12px; font-weight: 200;" x="1394.7679986953735" y="0" dx="0em" dy="0.95em" fill="rgb(50, 49, 63)" stroke="none" stroke-width="1px">11k</text></g><line x1="0" y1="0" x2="1394.7679986953735" y2="0" fill="rgb(0, 0, 0)" stroke="rgb(204, 204, 204)" stroke-width="1px"></line></g></g></g></g></svg>