<svg viewBox="0 0 1434 400" xmlns="http://www.w3.org/2000/svg"><g><g><g><g><g><line x1="39.232001304626465" y1="355.8207469595199" x2="34.232001304626465" y2="355.8207469595199" style="visibility: inherit;" fill="rgb(0, 0, 0)" stroke="rgb(204, 204, 204)" stroke-width="1px"></line><line x1="39.232001304626465" y1="339.4592686356301" x2="34.232001304626465" y2="339.4592686356301" style="visibility: inherit;" fill="rgb(0, 0, 0)" stroke="rgb(204, 204, 204)" stroke-width="1px"></line><line x1="39.232001304626465" y1="326.7683200936239" x2="34.232001304626465" y2="326.7683200936239" style="visibility: inherit;" fill="rgb(0, 0, 0)" stroke="rgb(204, 204, 204)" stroke-width="1px"></line><line x1="39.232001304626465" y1="316.3990601184055" x2="34.232001304626465" y2="316.3990601184055" style="visibility: inherit;" fill="rgb(0, 0, 0)" stroke="rgb(204, 204, 204)" stroke-width="1px"></line><line x1="39.232001304626465" y1="307.6319757286429" x2="34.232001304626465" y2="307.6319757286429" style="visibility: inherit;" fill="rgb(0, 0, 0)" stroke="rgb(204, 204, 204)" stroke-width="1px"></line><line x1="39.232001304626465" y1="300.03758179451563" x2="34.232001304626465" y2="300.03758179451563" style="visibility: inherit;" fill="rgb(0, 0, 0)" stroke="rgb(204, 204, 204)" stroke-width="1px"></line><line x1="39.232001304626465" y1="293.33885160118086" x2="34.232001304626465" y2="293.33885160118086" style="visibility: inherit;" fill="rgb(0, 0, 0)" stroke="rgb(204, 204, 204)" stroke-width="1px"></line><line x1="39.232001304626465" y1="287.3466332525095" x2="34.232001304626465" y2="287.3466332525095" style="visibility: inherit;" fill="rgb(0, 0, 0)" stroke="rgb(204, 204, 204)" stroke-width="1px"></line><line x1="39.232001304626465" y1="247.924946411395" x2="34.232001304626465" y2="247.924946411395" style="visibility: inherit;" fill="rgb(0, 0, 0)" stroke="rgb(204, 204, 204)" stroke-width="1px"></line><line x1="39.232001304626465" y1="224.86473789417042" x2="34.232001304626465" y2="224.86473789417042" style="visibility: inherit;" fill="rgb(0, 0, 0)" stroke="rgb(204, 204, 204)" stroke-width="1px"></line><line x1="39.232001304626465" y1="208.5032595702806" x2="34.232001304626465" y2="208.5032595702806" style="visibility: inherit;" fill="rgb(0, 0, 0)" stroke="rgb(204, 204, 204)" stroke-width="1px"></line><line x1="39.232001304626465" y1="195.81231102827442" x2="34.232001304626465" y2="195.81231102827442" style="visibility: inherit;" fill="rgb(0, 0, 0)" stroke="rgb(204, 204, 204)" stroke-width="1px"></line><line x1="39.232001304626465" y1="185.443051053056" x2="34.232001304626465" y2="185.443051053056" style="visibility: inherit;" fill="rgb(0, 0, 0)" stroke="rgb(204, 204, 204)" stroke-width="1px"></line><line x1="39.232001304626465" y1="176.67596666329334" x2="34.232001304626465" y2="176.67596666329334" style="visibility: inherit;" fill="rgb(0, 0, 0)" stroke="rgb(204, 204, 204)" stroke-width="1px"></line><line x1="39.232001304626465" y1="169.08157272916614" x2="34.232001304626465" y2="169.08157272916614" style="visibility: inherit;" fill="rgb(0, 0, 0)" stroke="rgb(204, 204, 204)" stroke-width="1px"></line><line x1="39.232001304626465" y1="162.38284253583137" x2="34.232001304626465" y2="162.38284253583137" style="visibility: inherit;" fill="rgb(0, 0, 0)" stroke="rgb(204, 204, 204)" stroke-width="1px"></line><line x1="39.232001304626465" y1="156.39062418715997" x2="34.232001304626465" y2="156.39062418715997" style="visibility: inherit;" fill="rgb(0, 0, 0)" stroke="rgb(204, 204, 204)" stroke-width="1px"></line><line x1="39.232001304626465" y1="116.96893734604555" x2="34.232001304626465" y2="116.96893734604555" style="visibility: inherit;" fill="rgb(0, 0, 0)" stroke="rgb(204, 204, 204)" stroke-width="1px"></line><line x1="39.232001304626465" y1="93.90872882882093" x2="34.232001304626465" y2="93.90872882882093" style="visibility: inherit;" fill="rgb(0, 0, 0)" stroke="rgb(204, 204, 204)" stroke-width="1px"></line><line x1="39.232001304626465" y1="77.54725050493107" x2="34.232001304626465" y2="77.54725050493107" style="visibility: inherit;" fill="rgb(0, 0, 0)" stroke="rgb(204, 204, 204)" stroke-width="1px"></line><line x1="39.232001304626465" y1="64.85630196292493" x2="34.232001304626465" y2="64.85630196292493" style="visibility: inherit;" fill="rgb(0, 0, 0)" stroke="rgb(204, 204, 204)" stroke-width="1px"></line><line x1="39.232001304626465" y1="54.48704198770645" x2="34.232001304626465" y2="54.48704198770645" style="visibility: inherit;" fill="rgb(0, 0, 0)" stroke="rgb(204, 204, 204)" stroke-width="1px"></line><line x1="39.232001304626465" y1="45.719957597943846" x2="34.232001304626465" y2="45.719957597943846" style="visibility: inherit;" fill="rgb(0, 0, 0)" stroke="rgb(204, 204, 204)" stroke-width="1px"></line><line x1="39.232001304626465" y1="38.12556366381665" x2="34.232001304626465" y2="38.12556366381665" style="visibility: inherit;" fill="rgb(0, 0, 0)" stroke="rgb(204, 204, 204)" stroke-width="1px"></line><line x1="39.232001304626465" y1="31.426833470481824" x2="34.232001304626465" y2="31.426833470481824" style="visibility: inherit;" fill="rgb(0, 0, 0)" stroke="rgb(204, 204, 204)" stroke-width="1px"></line><line x1="39.232001304626465" y1="25.434615121810452" x2="34.232001304626465" y2="25.434615121810452" style="visibility: inherit;" fill="rgb(0, 0, 0)" stroke="rgb(204, 204, 204)" stroke-width="1px"></line></g><g transform="translate(29.232001304626465, 0)"><text style="text-anchor: end; visibility: inherit; font-family: &quot;Helvetica Neue&quot;, sans-serif; font-size: 12px; font-weight: 200;" x="0" y="355.8207469595199" dx="0em" dy="0.3em" fill="rgb(50, 49, 63)" stroke="none" stroke-width="1px">0.3</text><text style="text-anchor: end; visibility: hidden; font-family: &quot;Helvetica Neue&quot;, sans-serif; font-size: 12px; font-weight: 200;" x="0" y="339.4592686356301" dx="0em" dy="0.3em" fill="rgb(50, 49, 63)" stroke="none" stroke-width="1px">0.4</text><text style="text-anchor: end; visibility: hidden; font-family: &quot;Helvetica Neue&quot;, sans-serif; font-size: 12px; font-weight: 200;" x="0" y="326.7683200936239" dx="0em" dy="0.3em" fill="rgb(50, 49, 63)" stroke="none" stroke-width="1px">0.5</text><text style="text-anchor: end; visibility: hidden; font-family: &quot;Helvetica Neue&quot;, sans-serif; font-size: 12px; font-weight: 200;" x="0" y="316.3990601184055" dx="0em" dy="0.3em" fill="rgb(50, 49, 63)" stroke="none" stroke-width="1px">0.6</text><text style="text-anchor: end; visibility: inherit; font-family: &quot;Helvetica Neue&quot;, sans-serif; font-size: 12px; font-weight: 200;" x="0" y="307.6319757286429" dx="0em" dy="0.3em" fill="rgb(50, 49, 63)" stroke="none" stroke-width="1px">0.7</text><text style="text-anchor: end; visibility: hidden; font-family: &quot;Helvetica Neue&quot;, sans-serif; font-size: 12px; font-weight: 200;" x="0" y="300.03758179451563" dx="0em" dy="0.3em" fill="rgb(50, 49, 63)" stroke="none" stroke-width="1px">0.8</text><text style="text-anchor: end; visibility: hidden; font-family: &quot;Helvetica Neue&quot;, sans-serif; font-size: 12px; font-weight: 200;" x="0" y="293.33885160118086" dx="0em" dy="0.3em" fill="rgb(50, 49, 63)" stroke="none" stroke-width="1px">0.9</text><text style="text-anchor: end; visibility: hidden; font-family: &quot;Helvetica Neue&quot;, sans-serif; font-size: 12px; font-weight: 200;" x="0" y="287.3466332525095" dx="0em" dy="0.3em" fill="rgb(50, 49, 63)" stroke="none" stroke-width="1px">1</text><text style="text-anchor: end; visibility: inherit; font-family: &quot;Helvetica Neue&quot;, sans-serif; font-size: 12px; font-weight: 200;" x="0" y="247.924946411395" dx="0em" dy="0.3em" fill="rgb(50, 49, 63)" stroke="none" stroke-width="1px">2</text><text style="text-anchor: end; visibility: hidden; font-family: &quot;Helvetica Neue&quot;, sans-serif; font-size: 12px; font-weight: 200;" x="0" y="224.86473789417042" dx="0em" dy="0.3em" fill="rgb(50, 49, 63)" stroke="none" stroke-width="1px">3</text><text style="text-anchor: end; visibility: hidden; font-family: &quot;Helvetica Neue&quot;, sans-serif; font-size: 12px; font-weight: 200;" x="0" y="208.5032595702806" dx="0em" dy="0.3em" fill="rgb(50, 49, 63)" stroke="none" stroke-width="1px">4</text><text style="text-anchor: end; visibility: hidden; font-family: &quot;Helvetica Neue&quot;, sans-serif; font-size: 12px; font-weight: 200;" x="0" y="195.81231102827442" dx="0em" dy="0.3em" fill="rgb(50, 49, 63)" stroke="none" stroke-width="1px">5</text><text style="text-anchor: end; visibility: inherit; font-family: &quot;Helvetica Neue&quot;, sans-serif; font-size: 12px; font-weight: 200;" x="0" y="185.443051053056" dx="0em" dy="0.3em" fill="rgb(50, 49, 63)" stroke="none" stroke-width="1px">6</text><text style="text-anchor: end; visibility: hidden; font-family: &quot;Helvetica Neue&quot;, sans-serif; font-size: 12px; font-weight: 200;" x="0" y="176.67596666329334" dx="0em" dy="0.3em" fill="rgb(50, 49, 63)" stroke="none" stroke-width="1px">7</text><text style="text-anchor: end; visibility: hidden; font-family: &quot;Helvetica Neue&quot;, sans-serif; font-size: 12px; font-weight: 200;" x="0" y="169.08157272916614" dx="0em" dy="0.3em" fill="rgb(50, 49, 63)" stroke="none" stroke-width="1px">8</text><text style="text-anchor: end; visibility: hidden; font-family: &quot;Helvetica Neue&quot;, sans-serif; font-size: 12px; font-weight: 200;" x="0" y="162.38284253583137" dx="0em" dy="0.3em" fill="rgb(50, 49, 63)" stroke="none" stroke-width="1px">9</text><text style="text-anchor: end; visibility: inherit; font-family: &quot;Helvetica Neue&quot;, sans-serif; font-size: 12px; font-weight: 200;" x="0" y="156.39062418715997" dx="0em" dy="0.3em" fill="rgb(50, 49, 63)" stroke="none" stroke-width="1px">10</text><text style="text-anchor: end; visibility: hidden; font-family: &quot;Helvetica Neue&quot;, sans-serif; font-size: 12px; font-weight: 200;" x="0" y="116.96893734604555" dx="0em" dy="0.3em" fill="rgb(50, 49, 63)" stroke="none" stroke-width="1px">20</text><text style="text-anchor: end; visibility: hidden; font-family: &quot;Helvetica Neue&quot;, sans-serif; font-size: 12px; font-weight: 200;" x="0" y="93.90872882882093" dx="0em" dy="0.3em" fill="rgb(50, 49, 63)" stroke="none" stroke-width="1px">30</text><text style="text-anchor: end; visibility: hidden; font-family: &quot;Helvetica Neue&quot;, sans-serif; font-size: 12px; font-weight: 200;" x="0" y="77.54725050493107" dx="0em" dy="0.3em" fill="rgb(50, 49, 63)" stroke="none" stroke-width="1px">40</text><text style="text-anchor: end; visibility: inherit; font-family: &quot;Helvetica Neue&quot;, sans-serif; font-size: 12px; font-weight: 200;" x="0" y="64.85630196292493" dx="0em" dy="0.3em" fill="rgb(50, 49, 63)" stroke="none" stroke-width="1px">50</text><text style="text-anchor: end; visibility: hidden; font-family: &quot;Helvetica Neue&quot;, sans-serif; font-size: 12px; font-weight: 200;" x="0" y="54.48704198770645" dx="0em" dy="0.3em" fill="rgb(50, 49, 63)" stroke="none" stroke-width="1px">60</text><text style="text-anchor: end; visibility: hidden; font-family: &quot;Helvetica Neue&quot;, sans-serif; font-size: 12px; font-weight: 200;" x="0" y="45.719957597943846" dx="0em" dy="0.3em" fill="rgb(50, 49, 63)" stroke="none" stroke-width="1px">70</text><text style="text-anchor: end; visibility: hidden; font-family: &quot;Helvetica Neue&quot;, sans-serif; font-size: 12px; font-weight: 200;" x="0" y="38.12556366381665" dx="0em" dy="0.3em" fill="rgb(50, 49, 63)" stroke="none" stroke-width="1px">80</text><text style="text-anchor: end; visibility: inherit; font-family: &quot;Helvetica Neue&quot;, sans-serif; font-size: 12px; font-weight: 200;" x="0" y="31.426833470481824" dx="0em" dy="0.3em" fill="rgb(50, 49, 63)" stroke="none" stroke-width="1px">90</text><text style="text-anchor: end; visibility: hidden; font-family: &quot;Helvetica Neue&quot;, sans-serif; font-size: 12px; font-weight: 200;" x="0" y="25.434615121810452" dx="0em" dy="0.3em" fill="rgb(50, 49, 63)" stroke="none" stroke-width="1px">100</text></g><line x1="39.232001304626465" y1="0" x2="39.232001304626465" y2="374.5999984741211" fill="rgb(0, 0, 0)" stroke="rgb(204, 204, 204)" stroke-width="1px"></line></g></g><g transform="translate(39, 0)" clip-path="url(#clip_0)"><clipPath id="clip_0"><rect width="1394" height="374"></rect></clipPath><g><g><g><line x1="0" y1="0" x2="0" y2="374.5999984741211" fill="rgb(0, 0, 0)" stroke="rgb(60, 60, 60)" stroke-width="1px" opacity="0.25"></line><line x1="116.23066655794779" y1="0" x2="116.23066655794779" y2="374.5999984741211" fill="rgb(0, 0, 0)" stroke="rgb(60, 60, 60)" stroke-width="1px" opacity="0.25"></line><line x1="232.46133311589557" y1="0" x2="232.46133311589557" y2="374.5999984741211" fill="rgb(0, 0, 0)" stroke="rgb(60, 60, 60)" stroke-width="1px" opacity="0.25"></line><line x1="348.6919996738434" y1="0" x2="348.6919996738434" y2="374.5999984741211" fill="rgb(0, 0, 0)" stroke="rgb(60, 60, 60)" stroke-width="1px" opacity="0.25"></line><line x1="464.92266623179114" y1="0" x2="464.92266623179114" y2="374.5999984741211" fill="rgb(0, 0, 0)" stroke="rgb(60, 60, 60)" stroke-width="1px" opacity="0.25"></line><line x1="581.153332789739" y1="0" x2="581.153332789739" y2="374.5999984741211" fill="rgb(0, 0, 0)" stroke="rgb(60, 60, 60)" stroke-width="1px" opacity="0.25"></line><line x1="697.3839993476868" y1="0" x2="697.3839993476868" y2="374.5999984741211" fill="rgb(0, 0, 0)" stroke="rgb(60, 60, 60)" stroke-width="1px" opacity="0.25"></line><line x1="813.6146659056346" y1="0" x2="813.6146659056346" y2="374.5999984741211" fill="rgb(0, 0, 0)" stroke="rgb(60, 60, 60)" stroke-width="1px" opacity="0.25"></line><line x1="929.8453324635823" y1="0" x2="929.8453324635823" y2="374.5999984741211" fill="rgb(0, 0, 0)" stroke="rgb(60, 60, 60)" stroke-width="1px" opacity="0.25"></line><line x1="1046.0759990215302" y1="0" x2="1046.0759990215302" y2="374.5999984741211" fill="rgb(0, 0, 0)" stroke="rgb(60, 60, 60)" stroke-width="1px" opacity="0.25"></line><line x1="1162.306665579478" y1="0" x2="1162.306665579478" y2="374.5999984741211" fill="rgb(0, 0, 0)" stroke="rgb(60, 60, 60)" stroke-width="1px" opacity="0.25"></line><line x1="1278.5373321374257" y1="0" x2="1278.5373321374257" y2="374.5999984741211" fill="rgb(0, 0, 0)" stroke="rgb(60, 60, 60)" stroke-width="1px" opacity="0.25"></line><line x1="1394.7679986953735" y1="0" x2="1394.7679986953735" y2="374.5999984741211" fill="rgb(0, 0, 0)" stroke="rgb(60, 60, 60)" stroke-width="1px" opacity="0.25"></line></g><g><line x1="0" y1="355.8207469595199" x2="1394.7679986953735" y2="355.8207469595199" fill="rgb(0, 0, 0)" stroke="rgb(60, 60, 60)" stroke-width="1px" opacity="0.25"></line><line x1="0" y1="339.4592686356301" x2="1394.7679986953735" y2="339.4592686356301" fill="rgb(0, 0, 0)" stroke="rgb(60, 60, 60)" stroke-width="1px" opacity="0.25"></line><line x1="0" y1="326.7683200936239" x2="1394.7679986953735" y2="326.7683200936239" fill="rgb(0, 0, 0)" stroke="rgb(60, 60, 60)" stroke-width="1px" opacity="0.25"></line><line x1="0" y1="316.3990601184055" x2="1394.7679986953735" y2="316.3990601184055" fill="rgb(0, 0, 0)" stroke="rgb(60, 60, 60)" stroke-width="1px" opacity="0.25"></line><line x1="0" y1="307.6319757286429" x2="1394.7679986953735" y2="307.6319757286429" fill="rgb(0, 0, 0)" stroke="rgb(60, 60, 60)" stroke-width="1px" opacity="0.25"></line><line x1="0" y1="300.03758179451563" x2="1394.7679986953735" y2="300.03758179451563" fill="rgb(0, 0, 0)" stroke="rgb(60, 60, 60)" stroke-width="1px" opacity="0.25"></line><line x1="0" y1="293.33885160118086" x2="1394.7679986953735" y2="293.33885160118086" fill="rgb(0, 0, 0)" stroke="rgb(60, 60, 60)" stroke-width="1px" opacity="0.25"></line><line x1="0" y1="287.3466332525095" x2="1394.7679986953735" y2="287.3466332525095" fill="rgb(0, 0, 0)" stroke="rgb(60, 60, 60)" stroke-width="1px" opacity="0.25"></line><line x1="0" y1="247.924946411395" x2="1394.7679986953735" y2="247.924946411395" fill="rgb(0, 0, 0)" stroke="rgb(60, 60, 60)" stroke-width="1px" opacity="0.25"></line><line x1="0" y1="224.86473789417042" x2="1394.7679986953735" y2="224.86473789417042" fill="rgb(0, 0, 0)" stroke="rgb(60, 60, 60)" stroke-width="1px" opacity="0.25"></line><line x1="0" y1="208.5032595702806" x2="1394.7679986953735" y2="208.5032595702806" fill="rgb(0, 0, 0)" stroke="rgb(60, 60, 60)" stroke-width="1px" opacity="0.25"></line><line x1="0" y1="195.81231102827442" x2="1394.7679986953735" y2="195.81231102827442" fill="rgb(0, 0, 0)" stroke="rgb(60, 60, 60)" stroke-width="1px" opacity="0.25"></line><line x1="0" y1="185.443051053056" x2="1394.7679986953735" y2="185.443051053056" fill="rgb(0, 0, 0)" stroke="rgb(60, 60, 60)" stroke-width="1px" opacity="0.25"></line><line x1="0" y1="176.67596666329334" x2="1394.7679986953735" y2="176.67596666329334" fill="rgb(0, 0, 0)" stroke="rgb(60, 60, 60)" stroke-width="1px" opacity="0.25"></line><line x1="0" y1="169.08157272916614" x2="1394.7679986953735" y2="169.08157272916614" fill="rgb(0, 0, 0)" stroke="rgb(60, 60, 60)" stroke-width="1px" opacity="0.25"></line><line x1="0" y1="162.38284253583137" x2="1394.7679986953735" y2="162.38284253583137" fill="rgb(0, 0, 0)" stroke="rgb(60, 60, 60)" stroke-width="1px" opacity="0.25"></line><line x1="0" y1="156.39062418715997" x2="1394.7679986953735" y2="156.39062418715997" fill="rgb(0, 0, 0)" stroke="rgb(60, 60, 60)" stroke-width="1px" opacity="0.25"></line><line x1="0" y1="116.96893734604555" x2="1394.7679986953735" y2="116.96893734604555" fill="rgb(0, 0, 0)" stroke="rgb(60, 60, 60)" stroke-width="1px" opacity="0.25"></line><line x1="0" y1="93.90872882882093" x2="1394.7679986953735" y2="93.90872882882093" fill="rgb(0, 0, 0)" stroke="rgb(60, 60, 60)" stroke-width="1px" opacity="0.25"></line><line x1="0" y1="77.54725050493107" x2="1394.7679986953735" y2="77.54725050493107" fill="rgb(0, 0, 0)" stroke="rgb(60, 60, 60)" stroke-width="1px" opacity="0.25"></line><line x1="0" y1="64.85630196292493" x2="1394.7679986953735" y2="64.85630196292493" fill="rgb(0, 0, 0)" stroke="rgb(60, 60, 60)" stroke-width="1px" opacity="0.25"></line><line x1="0" y1="54.48704198770645" x2="1394.7679986953735" y2="54.48704198770645" fill="rgb(0, 0, 0)" stroke="rgb(60, 60, 60)" stroke-width="1px" opacity="0.25"></line><line x1="0" y1="45.719957597943846" x2="1394.7679986953735" y2="45.719957597943846" fill="rgb(0, 0, 0)" stroke="rgb(60, 60, 60)" stroke-width="1px" opacity="0.25"></line><line x1="0" y1="38.12556366381665" x2="1394.7679986953735" y2="38.12556366381665" fill="rgb(0, 0, 0)" stroke="rgb(60, 60, 60)" stroke-width="1px" opacity="0.25"></line><line x1="0" y1="31.426833470481824" x2="1394.7679986953735" y2="31.426833470481824" fill="rgb(0, 0, 0)" stroke="rgb(60, 60, 60)" stroke-width="1px" opacity="0.25"></line><line x1="0" y1="25.434615121810452" x2="1394.7679986953735" y2="25.434615121810452" fill="rgb(0, 0, 0)" stroke="rgb(60, 60, 60)" stroke-width="1px" opacity="0.25"></line></g></g></g><g><g><line x1="116.23066655794779" y1="0" x2="116.23066655794779" y2="374.5999984741211" fill="rgb(0, 0, 0)" stroke="rgb(153, 153, 153)" stroke-width="1.5px"></line></g></g><g><g><g><g><g><path style="fill: none;" stroke="rgb(0, 119, 187)" stroke-width="2px" d="M117.50920389008523,280.8340695483362L118.09035722287496,264.19440754834386L118.6715105556647,227.06787137315004L119.02020255533854,244.88315448307742L119.6013558881283,258.5789408937409L120.41497055403391,224.70167545667178L120.87989322026571,232.94404615223897L121.11235455338159,262.134698578502L121.34481588649749,258.6966821292933L121.57727721961339,381.48880581020074L122.04219988584518,259.3589800738533L122.27466121896109,288.4292454915253L122.50712255207698,272.0422798332719L122.85581455175083,250.68170452497458L123.0882758848667,348.1923138016685L123.43696788454055,315.8469050091773L123.66942921765646,344.90071819882206L123.90189055077235,322.59113256419164L124.13435188388824,284.9592778587188L124.36681321700415,290.5205924814367L124.715505216678,289.229670470276L124.94796654979388,272.40491712391645L125.29665854946772,301.4574086671273L125.76158121569952,295.3870087879724M126.34273454848926,321.0857129778181ZM127.62127188062668,301.0989347873139L127.85373321374256,330.15136273953806L128.2024252134164,287.19468467965703L128.55111721309027,316.24711193663114L128.78357854620617,359.5493242662889L129.01603987932205,328.08262360972384L129.48096254555384,308.19153370615464L130.17834654490153,239.09562511991243L130.41080787801744,316.2539466139539L130.64326921113332,359.5581047946486L130.87573054424922,328.0856531539443L131.57311454359692,251.04815625748842L131.8055758767128,265.98441045338535L132.0380372098287,260.84644394817235L132.2704985429446,294.86851543206245L132.5029598760605,323.92094229880973M133.66526654163997,347.62086390457665L134.01395854131383,323.6784284480691M135.75741853968302,287.33261931120865L136.10611053935685,256.4978794783933L136.57103320558866,285.55030634429045L136.80349453870454,314.6027332101871L137.1521865383784,302.09684182992385L137.6171092046102,277.79215289455226L137.84957053772607,267.01404479692735L138.08203187084197,261.4085510675116L138.31449320395788,290.4609779334077L138.54695453707376,272.95126093791794L138.77941587018967,343.46188989378726L139.12810786986353,270.54509687459085L139.3605692029794,338.58253134653074L139.94172253576914,269.7032078512898L140.29041453544298,262.8548139840881L140.63910653511684,271.43012569612887L140.87156786823275,306.52442778986926M141.68518253413836,326.0704266380603L142.15010520037015,286.0142368855344L142.38256653348606,291.21634848964175L142.84748919971784,269.8366079012778L143.31241186594963,298.8890347671737L143.54487319906553,424.4264323965068M144.4747185315291,316.83724197136485ZM145.1721025308768,264.5013493791923L145.52079453055063,293.5537762450883L145.8694865302245,296.0593121209553L146.21817852989832,297.61738796015965L146.56687052957216,417.811813284681L147.26425452891985,238.01918999579112L147.6129465285937,285.758799958582L147.8454078617096,314.811226824478L148.65902252761524,223.18008459816298L148.8914838607311,243.17744948776678L149.12394519384702,293.0571247347478L149.35640652696293,274.08159708532656L149.5888678600788,303.1340239512226L149.93755985975264,261.52725658185057L150.2862518594265,246.11314331187316L150.86740519221624,236.6425704251926L151.21609719189007,251.95129217080785L151.79725052467984,250.30639347165535L152.02971185779572,303.6482213689035M153.07578785681724,287.9018907998355L153.8894025227229,226.5156032055309L154.12186385583877,270.3417674040293L154.7030171886285,276.54764056989245L155.16793985486032,241.34106827414274L155.4004011879762,290.4271412909327L155.6328625210921,388.6732997681606L155.98155452076594,326.6524678354352L156.6789385201136,232.554286402636L156.91139985322954,302.0367864281817L157.26009185290337,261.2083128659876L157.6087838525772,290.26073973188363L157.8412451856931,319.3131665977796L158.18993718536694,304.3165819424332L159.0035518512726,236.49426891099853L159.35224385094642,251.83479428637946L160.04962785029412,230.43145208966214L160.28208918341002,238.70068000537663L160.86324251619973,218.90723243475117L161.4443958489895,209.66996458465923L161.67685718210538,262.375052167359L162.37424118145307,234.5384807727323L162.60670251456895,241.518755877042L162.9553945142428,270.57118274293805L163.18785584735872,305.5700165932184L163.6527785135905,275.3189702592484L163.88523984670638,310.8661863598815M164.69885451261203,310.0517851203962L164.9313158457279,305.83227248425464L165.97739184474943,209.1682425652724L166.20985317786534,223.14495393624202L166.44231451098125,252.19738080213807L166.79100651065508,263.78975660456314L167.023467843771,292.8421834704592L168.0695438427925,207.59018149354745L168.5344665090243,220.50802894886067L168.7669278421402,231.63520706775174L168.9993891752561,260.68763393364776L169.58054250804582,227.2103278940715L169.81300384116173,291.64093495494865L170.51038784050942,270.0111517718309L171.32400250641504,215.5507523991467L171.90515583920478,226.39628048823442L172.1376171723207,255.44870735413048L172.3700785054366,284.5011342200265M172.9512318382263,356.11159299845065ZM173.76484650413195,268.7224552037113L174.46223050347962,222.04530179944175L174.69469183659552,251.0977286653378L175.2758451693853,231.81521298394193L175.856998502175,215.8878774019295L176.0894598352909,236.9016231278345L176.90307450119653,216.80637114819902L177.36799716742834,214.5904471578387L177.94915050021805,207.42727241206217L178.53030383300782,203.52593494759643L178.76276516612373,232.57836181349245L179.34391849891344,216.23265748159756L179.57637983202935,228.48431172655697L180.1575331648191,245.44842902541959L181.08737849728266,213.65793275869032L181.31983983039856,242.71035962458632L183.1795304953257,171.73579502522915L183.6444531615575,184.49238117323387L184.69052916057902,181.2358155161513L185.15545182681083,199.61756767139204L185.5041438264847,221.09041302181478L185.85283582615853,263.4020445678233L186.66645049206414,226.5168994676335L187.015142491738,255.56932633352952L187.36383449141184,243.30939107920864L187.59629582452774,272.3618179451047L188.06121849075953,261.30006117437404L188.29367982387544,290.3524880402701L188.75860249010722,269.4791106688881L189.33975582289696,249.6142634497048L189.57221715601284,251.29656410035398L189.92090915568667,266.1781255075722L190.15337048880258,260.95255142441334L190.50206248847644,270.09634358609253L193.05913715275128,159.1130190583924L193.64029048554104,177.3333073142509L194.22144381833078,184.76710325023984L194.45390515144666,203.56237193198493L195.38375048391026,187.98411439427952L195.7324424835841,211.9815780800039L196.19736514981588,211.75647736840693L196.89474914916354,210.43277733311135L197.7083638150692,195.3597857912549L198.173286481301,211.06293179187827L198.8706704806487,205.53401205554408L199.21936248032253,226.23415922697183L199.56805447999636,243.62229608454558L200.03297714622815,228.49876100617197L201.31151447836558,192.62099627153785L202.24135981082915,189.6402577338471L202.8225131436189,192.88717109575575L203.86858914264045,189.79165529993787L204.21728114231428,212.40173252493648L204.5659731419881,218.4024136694071L204.91466514166197,222.33232344686587L205.2633571413358,240.4240419658516L205.7282798075676,243.30680833561323L207.5879704724948,177.48189528183647L209.91258380365372,145.73344679188264L210.26127580332755,166.6017106236724L211.30735180234907,165.40709857022352L212.23719713481267,167.39800958048872L212.46965846792855,188.7184791694267L215.84034779810906,136.46626529196368L216.77019313057264,147.75956422811734L217.93249979615211,155.3576950829928L218.97857579517364,158.53505559598807L219.5597291279634,177.5109553368984L220.25711312731107,187.97456986341513L227.57964512046178,98.04734552555004L236.76186777853968,70.40853160614279L241.41109444085757,74.28685514925445L251.40693176484106,58.05448205476017L261.4027690888246,50.2759201574799L271.3986064128081,46.073066818973984L276.62898640791576,55.030264541512224L279.4185224053065,70.60815588988913L281.97559706958134,83.80176769368097L282.44051973581315,110.77645168711842L286.2761317322254,100.99072306748326L293.0175103925864,80.6687798380911L295.5745850568612,92.563137771328L305.5704223808447,65.59019541585786L310.1034183766047,70.89180140804393L311.9631090415319,89.2175394636439L318.8207183684508,73.96929103441744L324.51602102979024,71.88315653641331L334.5118583537738,56.94667951808981L335.0930116865635,83.11721458560754L337.3013943511645,96.70442732051077L339.62600768232346,104.14942126161822L349.62184500630696,70.54355496007327L357.87422233192126,60.39215455913103L367.87005965590475,51.29191155347365L377.86589697988825,46.63699740002181L384.25858364057547,51.89426976476835L394.25442096455896,47.4630288451454L398.554955627203,59.13093304412001L402.97172095640497,66.86262651973738L404.25025828854245,89.25127740650771L410.64294494922956,75.95665162815595L414.82724894531566,80.08159056378213L415.9895556108952,101.7114687487936L420.5225516066551,91.73134903057746L430.5183889306386,65.27084226608827L435.9812302588622,66.8927637212987L443.53622358512877,61.161608275290575L447.4880662480991,71.10490358308334L457.4839035720825,56.601992323574734L460.85459290226305,69.50627500301619L467.24727956295015,65.72187952178564L470.38550756001473,78.1951955257698L480.3813448839982,60.546574742579935L488.9824142092864,54.302243575451655L498.9782515332699,48.08197658628353L499.7918661991755,73.58852839338448L501.4190955309868,92.91264154265883L506.30078352642056,86.37222933314877L508.9740888572534,94.518449551826L515.9479288507302,76.850766572417L525.9437661747138,59.158694728744024L528.1521488393148,76.76620728009397L538.1479861632982,59.91349216111894L548.1438234872818,51.24116250616902L552.6768194830418,61.04580384440072L562.6726568070252,52.35964695901214L564.6485781385104,72.17304011576545L567.3218834693432,85.50277227724035L569.76272746706,96.89168968237033L577.5501821264427,74.56227686912496L578.3637967923482,97.6628994472224L584.2915607868035,82.04671054227816L594.2873981107871,61.408539668449635L595.2172434432507,85.35833110776815L598.5879327734311,89.46687677236082L608.5837700974147,64.4124184539179L618.5796074213981,53.514285496303046L621.7178354184628,68.11816532184474L631.7136727424463,55.196853844201485L640.3147420677344,51.363796102224L650.3105793917179,46.482722695880966L660.3064167157014,43.92814692668475L661.7011847143967,67.25353617932802L662.0498767140707,95.52045337353297L672.0457140380541,66.67656688578307L678.6708620318572,63.44458169688119L683.552550027291,68.75565531558209L693.5483873512745,55.49145736030971L694.710694016854,78.75169519238159L697.1515380145709,90.56423305588777L707.1473753385544,65.66017880790685L708.309682004134,87.85236809506131L709.1232966700394,109.66034471179671L714.0049846654733,93.34593231844724L717.2594433290958,95.23790884677533L722.0249006579718,87.04475353801132L727.6039726527531,79.63463877660485L732.485660648187,78.88821054120172L734.461581979672,93.5866998622119L734.926504645904,118.05352887369247L742.8301899718443,81.71539435544054L749.3391072990894,72.71285877047228L750.8501059643428,92.91408336477696L754.685717960755,92.58809744907768L756.4291779591242,105.7854662445514L761.6595579542319,89.48740760010764L763.4030179526011,105.06798291972518L763.8679406188329,131.1250144807581L766.5412459496657,121.47717075580562L769.7957046132883,111.02360459705125L779.7915419372719,72.73695930147852L781.4187712690831,91.11543758649009L786.0679979314009,86.69579472040778L796.0638352553844,64.13079286601521L798.9696019193331,77.295931667844L801.526676583608,88.78828027299062L811.5225139075915,64.96586429232497L812.684820573171,87.23652424394129L814.4282805715402,103.28447554997166L824.4241178955236,69.36120086332119L831.9791112217904,61.845116778882186L835.3498005519708,74.19580276875882L837.9068752162457,86.49266690079668L845.9267912087441,68.43951037172928L846.3917138749758,94.34984860876745L856.3875511989594,67.09637905220103L866.3833885229428,54.82801692761865L876.3792258469264,48.564695217356416L886.3750631709098,45.113126105846675L896.3709004948935,43.138454612567216L904.042124487718,46.301469395401625L905.5531231529712,68.66853697233893L915.5489604769548,55.4592999869256L922.9877231366634,54.43454611958157L932.983560460647,48.85891635877317L934.8432511255742,69.67676380384313L943.909243117094,57.77058707166083L947.6286244469484,69.63458214557357L957.6244617709318,55.91363782267456L959.2516911027432,76.84043146345778L969.2475284267266,59.20026701040723L979.24336575071,50.87263252061541L980.1732110831738,75.65377484503955L985.6360524113973,73.8593822408314L992.1449697386424,67.66753797479822L1001.0947310636044,57.76665567798699L1010.5094150547982,51.628121428089L1014.1125657180945,65.48594411137566L1018.8780230469704,70.58108209151771L1023.0623270430566,76.55601579219098L1033.05816436704,59.070017786625215L1039.567081694285,59.38435895863671L1040.6131576933067,83.809003731357L1050.60899501729,62.94828864471515L1052.933608348449,79.25682030501747L1055.14199101305,93.73965940909409L1058.6289110097885,93.96792931569564L1064.0917523380122,82.64591275660604L1066.8812883354028,91.17351823158992L1069.9032856659094,96.85225130876188L1076.0635109934806,81.62921409583737L1078.2718936580818,94.13017335746935L1080.8289683223566,100.64290820774505L1088.0352696489492,77.41144210719796L1098.0311069729328,59.397870344126375L1100.5881816372078,75.29756893127626L1102.7965643018085,89.37678218971803L1112.792401625792,64.37940919371039L1120.114933618943,59.87601886808852L1125.4615442806085,64.59677046601189L1135.457381604592,54.1607573545499L1139.1767629344463,66.25011952531543L1140.8039922662576,85.47260881937882L1144.407142929554,89.4058814211042L1144.8720655957857,116.16967960422937L1146.731756260713,121.43415532812207L1154.1705189204217,84.87011817731099L1163.9338949112891,63.84649113075358L1168.2344295739333,70.33341404065902L1169.164274906397,93.21073466717172L1179.1601122303805,66.67045121736396L1181.8334175612133,80.38945260931854L1186.482644223531,79.42561230237038L1196.4784815475145,61.08459567447255L1197.640788213094,83.77855856011274L1206.706780204614,64.19880753325191L1216.7026175285976,53.16631842201218L1218.4460775269667,73.9152400212007L1221.5843055240314,84.2026298890022L1231.580142848015,62.3228741316579L1237.5079068424702,63.345778045668396L1237.7403681755861,91.04391758093294L1238.4377521749338,115.4816525238823L1240.064981506745,125.81871968355833L1245.7602841680844,94.63148338909201L1255.756121492068,66.3313404527031L1258.080734823227,81.9444077837801L1261.6838854865232,87.11240579828666L1262.265038819313,111.01728351291285L1265.0545748167037,111.22910208069561L1267.4954188144206,114.53553321435987L1277.4912561384042,72.83865492454817" fill="none"></path></g></g></g></g><g opacity="0.2"><g><g><g><path style="fill: none;" stroke="rgb(0, 119, 187)" stroke-width="2px" d="M117.16051189041139,2297.8526621493465L117.50920389008523,228.78860301496346L118.09035722287496,247.924946411395L118.6715105556647,198.13399733511346L119.02020255533854,287.3466332525095L119.6013558881283,287.3466332525095L120.41497055403391,195.81231102827442L120.87989322026571,247.924946411395L121.11235455338159,2337.2743489904606L121.34481588649749,253.91716626669898M122.04219988584518,211.42048803168555L122.27466121896109,2337.2743489904606L122.50712255207698,253.91716626669898L122.85581455175083,228.78860301496346M123.43696788454055,287.3466332525095L123.66942921765646,2337.2743489904606L123.90189055077235,300.0375809470349L124.13435188388824,253.91716626669898L124.36681321700415,300.0375809470349L124.715505216678,287.3466332525095L124.94796654979388,253.91716626669898L125.29665854946772,2337.2743489904606L125.76158121569952,287.3466332525095M126.34273454848926,253.91716626669898ZM127.04011854783694,2337.2743489904606L127.62127188062668,247.924946411395L127.85373321374256,2337.2743489904606L128.2024252134164,253.91716626669898L128.55111721309027,2337.2743489904606M129.01603987932205,300.0375809470349L129.48096254555384,287.3466332525095L130.17834654490153,198.13399733511346M130.87573054424922,300.0375809470349L131.57311454359692,208.5032595702806L131.8055758767128,300.0375809470349L132.0380372098287,253.91716626669898M133.66526654163997,253.91716626669898L134.01395854131383,300.0375809470349M135.29249587345123,300.0375809470349L135.75741853968302,228.78860301496346L136.10611053935685,228.78860301496346L136.57103320558866,2297.8526621493465L136.80349453870454,2337.2743489904606L137.1521865383784,287.3466332525095L137.6171092046102,253.91716626669898L137.84957053772607,253.91716626669898L138.08203187084197,253.91716626669898L138.31449320395788,2337.2743489904606L138.54695453707376,253.91716626669898M139.12810786986353,228.78860301496346ZM139.94172253576914,228.78860301496346L140.29041453544298,253.91716626669898L140.63910653511684,287.3466332525095M141.68518253413836,228.78860301496346L142.15010520037015,253.91716626669898L142.38256653348606,300.0375809470349L142.84748919971784,247.924946411395L143.31241186594963,2297.8526621493465L144.12602653185527,2337.2743489904606L144.4747185315291,253.91716626669898M145.1721025308768,211.42048803168555L145.52079453055063,2337.2743489904606L145.8694865302245,300.0375809470349L146.21817852989832,300.0375809470349M147.26425452891985,187.3711481364375ZM147.8454078617096,2337.2743489904606L148.65902252761524,178.32458693790943L148.8914838607311,300.0375809470349M149.35640652696293,253.91716626669898L149.5888678600788,2337.2743489904606L149.93755985975264,228.78860301496346L150.2862518594265,228.78860301496346L150.86740519221624,224.86473789417042L151.21609719189007,287.3466332525095L151.79725052467984,247.924946411395M153.07578785681724,224.86473789417042L153.8894025227229,187.3711481364375M154.7030171886285,287.3466332525095L155.16793985486032,211.42048803168555M155.98155452076594,287.3466332525095L156.6789385201136,187.3711481364375M157.26009185290337,228.78860301496346L157.6087838525772,2337.2743489904606L157.8412451856931,2337.2743489904606L158.18993718536694,287.3466332525095L159.0035518512726,195.81231102827442L159.35224385094642,287.3466332525095L160.04962785029412,208.5032595702806L160.28208918341002,253.91716626669898L160.86324251619973,198.13399733511346L161.4443958489895,198.13399733511346M162.37424118145307,208.5032595702806L162.60670251456895,253.91716626669898L162.9553945142428,2337.2743489904606M163.6527785135905,247.924946411395ZM164.69885451261203,253.91716626669898L164.9313158457279,300.0375809470349L165.97739184474943,163.66095064364714L166.20985317786534,253.91716626669898L166.44231451098125,2337.2743489904606L166.79100651065508,287.3466332525095L167.023467843771,2337.2743489904606L168.0695438427925,163.66095064364714L168.5344665090243,247.924946411395L168.7669278421402,253.91716626669898L168.9993891752561,2337.2743489904606L169.58054250804582,198.13399733511346M170.51038784050942,247.924946411395L171.32400250641504,178.32458693790943L171.90515583920478,247.924946411395L172.1376171723207,2337.2743489904606M172.9512318382263,287.3466332525095ZM173.76484650413195,211.42048803168555L174.46223050347962,187.3711481364375L174.69469183659552,2337.2743489904606L175.2758451693853,211.42048803168555L175.856998502175,198.13399733511346L176.0894598352909,300.0375809470349L176.90307450119653,195.81231102827442L177.36799716742834,211.42048803168555L177.94915050021805,198.13399733511346L178.53030383300782,198.13399733511346L178.76276516612373,2337.2743489904606L179.34391849891344,198.13399733511346L179.57637983202935,253.91716626669898L180.1575331648191,287.3466332525095L181.08737849728266,185.443051053056L181.31983983039856,2337.2743489904606L183.1795304953257,130.37528422049394L183.6444531615575,211.42048803168555L184.69052916057902,176.67596666329334L185.15545182681083,247.924946411395L185.5041438264847,287.3466332525095M186.66645049206414,195.81231102827442L187.015142491738,2337.2743489904606L187.36383449141184,228.78860301496346L187.59629582452774,2337.2743489904606L188.06121849075953,247.924946411395L188.29367982387544,2337.2743489904606L188.75860249010722,247.924946411395L189.33975582289696,228.78860301496346L189.57221715601284,253.91716626669898L189.92090915568667,300.0375809470349L190.15337048880258,253.91716626669898L190.50206248847644,287.3466332525095L193.05913715275128,112.06771453286251L193.64029048554104,224.86473789417042L194.22144381833078,198.13399733511346L194.45390515144666,253.91716626669898L195.38375048391026,170.52148298468788L195.7324424835841,300.0375809470349L196.19736514981588,211.42048803168555L196.89474914916354,208.5032595702806L197.7083638150692,178.32458693790943L198.173286481301,247.924946411395L198.8706704806487,198.13399733511346L199.21936248032253,287.3466332525095L199.56805447999636,287.3466332525095L200.03297714622815,211.42048803168555L201.31151447836558,162.38284253583137L202.24135981082915,185.443051053056L202.8225131436189,198.13399733511346L203.86858914264045,185.443051053056L204.21728114231428,287.3466332525095L204.5659731419881,228.78860301496346L204.91466514166197,228.78860301496346L205.2633571413358,287.3466332525095L205.7282798075676,247.924946411395L207.5879704724948,137.2542798221789L209.91258380365372,117.54053703336274L210.26127580332755,228.78860301496346L211.30735180234907,163.66095064364714L212.23719713481267,170.52148298468788L212.46965846792855,253.91716626669898L215.84034779810906,99.9177998518939L216.77019313057264,170.4923266909814L217.93249979615211,169.08157272916614L218.97857579517364,163.66095064364714L219.5597291279634,228.78860301496346L220.25711312731107,208.5032595702806L227.57964512046178,53.42774870662902L236.76186777853968,44.48866810915308L241.41109444085757,80.65036965739563L251.40693176484106,40.04876263629632L261.4027690888246,40.29933674512415L271.3986064128081,40.29933674512415L276.62898640791576,71.8378277449653L279.4185224053065,106.99918986464633L281.97559706958134,112.06771453286251L282.44051973581315,247.924946411395L286.2761317322254,88.88935513049643L293.0175103925864,59.51018097702945L295.5745850568612,116.96893734604555L305.5704223808447,40.063469458451095L310.1034183766047,79.90449691860795L311.9631090415319,137.2542798221789L318.8207183684508,56.785037667849394L324.51602102979024,68.8907703650491L334.5118583537738,40.02817610721536L335.0930116865635,202.05786350516834L337.3013943511645,126.2119531500467L339.62600768232346,117.54053703336274L349.62184500630696,41.40313393348458L357.87422233192126,47.919903334573576L367.87005965590475,39.89894301942246L377.86589697988825,40.29933674512415L384.25858364057547,60.821530395363425L394.25442096455896,41.40313393348458L398.554955627203,82.89852653479176L402.97172095640497,80.87906817281419L404.25025828854245,162.38284253583137L410.64294494922956,60.4834750458283L414.82724894531566,86.89072222257823L415.9895556108952,169.08157272916614L420.5225516066551,79.43222167909255L430.5183889306386,40.051702574359126L435.9812302588622,69.41581456156302L443.53622358512877,53.52086344158579L447.4880662480991,90.30933698573517L457.4839035720825,40.057582906443145L460.85459290226305,96.88185949031538L467.24727956295015,60.47926033637788L470.38550756001473,104.2779888040393L480.3813448839982,41.40313393348458L488.9824142092864,46.05895712992407L498.9782515332699,39.86668197714857L499.7918661991755,181.06600925910536L501.4190955309868,146.02136421194155L506.30078352642056,77.78662107502339L508.9740888572534,109.45707127544097L515.9479288507302,57.6923570494958L525.9437661747138,39.981146745163414L528.1521488393148,121.46440040294004L538.1479861632982,41.40313393348458L548.1438234872818,40.29933674512415L552.6768194830418,79.90449691860795L562.6726568070252,41.40313393348458L564.6485781385104,127.97877575295723L567.3218834693432,114.19407130495432L569.76272746706,119.88616509378247L577.5501821264427,51.994535048599005L578.3637967923482,176.87129783598508L584.2915607868035,64.55227245991489L594.2873981107871,40.02229320683887L595.2172434432507,172.9039675353242L598.5879327734311,96.24621813859693L608.5837700974147,40.060528912080144L618.5796074213981,40.29933674512415L621.7178354184628,101.00697424703077L631.7136727424463,40.063469458451095L640.3147420677344,46.05895712992407L650.3105793917179,39.86668197714857L660.3064167157014,40.29933674512415L661.7011847143967,148.5408760185476L662.0498767140707,287.3466332525095L672.0457140380541,40.063469458451095L678.6708620318572,58.916885043454954L683.552550027291,77.78662107502339L693.5483873512745,40.045817240065276L694.710694016854,159.42771451922357L697.1515380145709,114.73832129652783L707.1473753385544,41.40313393348458L708.309682004134,159.42771451922357L709.1232966700394,178.32458693790943L714.0049846654733,75.2729004041446L717.2594433290958,98.19938903537894L722.0249006579718,76.61649620918297L727.6039726527531,70.06529206076482L732.485660648187,77.78662107502339L734.461581979672,126.80383202031445L734.926504645904,211.42048803168555L742.8301899718443,51.26258094039957L749.3391072990894,61.422288724054056L750.8501059643428,150.97000333434028L754.685717960755,92.10259542047402L756.4291779591242,134.06309682525134L761.6595579542319,71.4277796866989L763.4030179526011,141.46905750952956L763.8679406188329,247.924946411395L766.5412459496657,109.51690702167883L769.7957046132883,98.24847465751895L779.7915419372719,41.40313393348458L781.4187712690831,139.40695541997502L786.0679979314009,80.65036965739563L796.0638352553844,41.40313393348458L798.9696019193331,105.47343426311517L801.526676583608,112.06771453286251L811.5225139075915,41.40313393348458L812.684820573171,159.42771451922357L814.4282805715402,141.46905750952956L824.4241178955236,40.063469458451095L831.9791112217904,52.15807460992369L835.3498005519708,99.9177998518939L837.9068752162457,112.05727577139334L845.9267912087441,48.98031573623564L846.3917138749758,208.5032595702806L856.3875511989594,41.40313393348458L866.3833885229428,40.29933674512415L876.3792258469264,40.29933674512415L886.3750631709098,40.29933674512415L896.3709004948935,40.29933674512415L904.042124487718,51.402471914054786L905.5531231529712,141.6267728574655L915.5489604769548,40.063469458451095L922.9877231366634,52.931225288921894L932.983560460647,41.40313393348458L934.8432511255742,131.5389787892811L943.909243117094,43.58316405443128L947.6286244469484,93.95424613418709L957.6244617709318,40.057582906443145L959.2516911027432,139.40695541997502L969.2475284267266,40.063469458451095L979.24336575071,40.29933674512415L980.1732110831738,172.9039675353242L985.6360524113973,71.26967659554674L992.1449697386424,59.485338159273L1001.0947310636044,45.54797416006534L1010.5094150547982,43.508091286704484L1014.1125657180945,95.86821637631601L1018.8780230469704,79.19754662264614L1023.0623270430566,86.89072222257823L1033.05816436704,40.05464266440282L1039.567081694285,59.85915249180118L1040.6131576933067,176.67596666329334L1050.60899501729,41.40313393348458L1052.933608348449,118.46721202924556L1055.14199101305,126.2119531500467L1058.6289110097885,94.31206128762005L1064.0917523380122,69.01790579510669L1066.8812883354028,106.98010298784129L1069.9032856659094,106.59967737082707L1076.0635109934806,64.4663503689319L1078.2718936580818,120.2947224136366L1080.8289683223566,112.06771453286251L1088.0352696489492,54.237347693644665L1098.0311069729328,39.969396879218436L1100.5881816372078,112.90874160677714L1102.7965643018085,120.48800870168154L1112.792401625792,40.063469458451095L1120.114933618943,53.72625835013952L1125.4615442806085,72.50532041609813L1135.457381604592,41.40313393348458L1139.1767629344463,91.21336176434096L1140.8039922662576,138.03965830710715L1144.407142929554,95.86821637631601L1144.8720655957857,247.924946411395L1146.731756260713,130.37528422049394L1154.1705189204217,54.31289868079341L1163.9338949112891,42.185681784551434L1168.2344295739333,81.70518267114392L1169.164274906397,170.43405543487634L1179.1601122303805,41.40313393348458L1181.8334175612133,110.32078499012005L1186.482644223531,78.0098033808876L1196.4784815475145,41.40313393348458L1197.640788213094,159.42771451922357L1206.706780204614,43.58316405443128L1216.7026175285976,39.81978591216398L1218.4460775269667,135.33701674062112L1221.5843055240314,104.2779888040393L1231.580142848015,40.063469458451095L1237.5079068424702,64.91547903274773L1237.7403681755861,252.17473556838127L1238.4377521749338,208.5032595702806L1240.064981506745,146.02136421194155L1245.7602841680844,66.7342181612799L1255.756121492068,40.02817610721536L1258.080734823227,118.46721202924556L1261.6838854865232,95.86821637631601L1262.265038819313,198.0866259459353L1265.0545748167037,111.54831649322585L1267.4954188144206,119.88616509378247L1277.4912561384042,40.063469458451095" fill="none"></path></g></g></g></g></g></g><g transform="translate(39, 374)" clip-path="url(#clip_1)"><clipPath id="clip_1"><rect width="1394" height="25"></rect></clipPath><g><g><line x1="0" y1="0" x2="0" y2="5" style="visibility: inherit;" fill="rgb(0, 0, 0)" stroke="rgb(204, 204, 204)" stroke-width="1px"></line><line x1="116.23066655794779" y1="0" x2="116.23066655794779" y2="5" style="visibility: inherit;" fill="rgb(0, 0, 0)" stroke="rgb(204, 204, 204)" stroke-width="1px"></line><line x1="232.46133311589557" y1="0" x2="232.46133311589557" y2="5" style="visibility: inherit;" fill="rgb(0, 0, 0)" stroke="rgb(204, 204, 204)" stroke-width="1px"></line><line x1="348.6919996738434" y1="0" x2="348.6919996738434" y2="5" style="visibility: inherit;" fill="rgb(0, 0, 0)" stroke="rgb(204, 204, 204)" stroke-width="1px"></line><line x1="464.92266623179114" y1="0" x2="464.92266623179114" y2="5" style="visibility: inherit;" fill="rgb(0, 0, 0)" stroke="rgb(204, 204, 204)" stroke-width="1px"></line><line x1="581.153332789739" y1="0" x2="581.153332789739" y2="5" style="visibility: inherit;" fill="rgb(0, 0, 0)" stroke="rgb(204, 204, 204)" stroke-width="1px"></line><line x1="697.3839993476868" y1="0" x2="697.3839993476868" y2="5" style="visibility: inherit;" fill="rgb(0, 0, 0)" stroke="rgb(204, 204, 204)" stroke-width="1px"></line><line x1="813.6146659056346" y1="0" x2="813.6146659056346" y2="5" style="visibility: inherit;" fill="rgb(0, 0, 0)" stroke="rgb(204, 204, 204)" stroke-width="1px"></line><line x1="929.8453324635823" y1="0" x2="929.8453324635823" y2="5" style="visibility: inherit;" fill="rgb(0, 0, 0)" stroke="rgb(204, 204, 204)" stroke-width="1px"></line><line x1="1046.0759990215302" y1="0" x2="1046.0759990215302" y2="5" style="visibility: inherit;" fill="rgb(0, 0, 0)" stroke="rgb(204, 204, 204)" stroke-width="1px"></line><line x1="1162.306665579478" y1="0" x2="1162.306665579478" y2="5" style="visibility: inherit;" fill="rgb(0, 0, 0)" stroke="rgb(204, 204, 204)" stroke-width="1px"></line><line x1="1278.5373321374257" y1="0" x2="1278.5373321374257" y2="5" style="visibility: inherit;" fill="rgb(0, 0, 0)" stroke="rgb(204, 204, 204)" stroke-width="1px"></line><line x1="1394.7679986953735" y1="0" x2="1394.7679986953735" y2="5" style="visibility: inherit;" fill="rgb(0, 0, 0)" stroke="rgb(204, 204, 204)" stroke-width="1px"></line></g><g transform="translate(0, 8)"><text style="text-anchor: middle; visibility: hidden; font-family: &quot;Helvetica Neue&quot;, sans-serif; font-size: 12px; font-weight: 200;" x="0" y="0" dx="0em" dy="0.95em" fill="rgb(50, 49, 63)" stroke="none" stroke-width="1px">-1k</text><text style="text-anchor: middle; visibility: inherit; font-family: &quot;Helvetica Neue&quot;, sans-serif; font-size: 12px; font-weight: 200;" x="116.23066655794779" y="0" dx="0em" dy="0.95em" fill="rgb(50, 49, 63)" stroke="none" stroke-width="1px">0</text><text style="text-anchor: middle; visibility: inherit; font-family: &quot;Helvetica Neue&quot;, sans-serif; font-size: 12px; font-weight: 200;" x="232.46133311589557" y="0" dx="0em" dy="0.95em" fill="rgb(50, 49, 63)" stroke="none" stroke-width="1px">1k</text><text style="text-anchor: middle; visibility: inherit; font-family: &quot;Helvetica Neue&quot;, sans-serif; font-size: 12px; font-weight: 200;" x="348.6919996738434" y="0" dx="0em" dy="0.95em" fill="rgb(50, 49, 63)" stroke="none" stroke-width="1px">2k</text><text style="text-anchor: middle; visibility: inherit; font-family: &quot;Helvetica Neue&quot;, sans-serif; font-size: 12px; font-weight: 200;" x="464.92266623179114" y="0" dx="0em" dy="0.95em" fill="rgb(50, 49, 63)" stroke="none" stroke-width="1px">3k</text><text style="text-anchor: middle; visibility: inherit; font-family: &quot;Helvetica Neue&quot;, sans-serif; font-size: 12px; font-weight: 200;" x="581.153332789739" y="0" dx="0em" dy="0.95em" fill="rgb(50, 49, 63)" stroke="none" stroke-width="1px">4k</text><text style="text-anchor: middle; visibility: inherit; font-family: &quot;Helvetica Neue&quot;, sans-serif; font-size: 12px; font-weight: 200;" x="697.3839993476868" y="0" dx="0em" dy="0.95em" fill="rgb(50, 49, 63)" stroke="none" stroke-width="1px">5k</text><text style="text-anchor: middle; visibility: inherit; font-family: &quot;Helvetica Neue&quot;, sans-serif; font-size: 12px; font-weight: 200;" x="813.6146659056346" y="0" dx="0em" dy="0.95em" fill="rgb(50, 49, 63)" stroke="none" stroke-width="1px">6k</text><text style="text-anchor: middle; visibility: inherit; font-family: &quot;Helvetica Neue&quot;, sans-serif; font-size: 12px; font-weight: 200;" x="929.8453324635823" y="0" dx="0em" dy="0.95em" fill="rgb(50, 49, 63)" stroke="none" stroke-width="1px">7k</text><text style="text-anchor: middle; visibility: inherit; font-family: &quot;Helvetica Neue&quot;, sans-serif; font-size: 12px; font-weight: 200;" x="1046.0759990215302" y="0" dx="0em" dy="0.95em" fill="rgb(50, 49, 63)" stroke="none" stroke-width="1px">8k</text><text style="text-anchor: middle; visibility: inherit; font-family: &quot;Helvetica Neue&quot;, sans-serif; font-size: 12px; font-weight: 200;" x="1162.306665579478" y="0" dx="0em" dy="0.95em" fill="rgb(50, 49, 63)" stroke="none" stroke-width="1px">9k</text><text style="text-anchor: middle; visibility: inherit; font-family: &quot;Helvetica Neue&quot;, sans-serif; font-size: 12px; font-weight: 200;" x="1278.5373321374257" y="0" dx="0em" dy="0.95em" fill="rgb(50, 49, 63)" stroke="none" stroke-width="1px">10k</text><text style="text-anchor: middle; visibility: hidden; font-family: &quot;Helvetica Neue&quot;, sans-serif; font-size: 12px; font-weight: 200;" x="1394.7679986953735" y="0" dx="0em" dy="0.95em" fill="rgb(50, 49, 63)" stroke="none" stroke-width="1px">11k</text></g><line x1="0" y1="0" x2="1394.7679986953735" y2="0" fill="rgb(0, 0, 0)" stroke="rgb(204, 204, 204)" stroke-width="1px"></line></g></g></g></g></svg>