<svg viewBox="0 0 1446 400" xmlns="http://www.w3.org/2000/svg"><g><g><g><g><g><line x1="39.232001304626465" y1="336.4224862553567" x2="34.232001304626465" y2="336.4224862553567" style="visibility: inherit;" fill="rgb(0, 0, 0)" stroke="rgb(204, 204, 204)" stroke-width="1px"></line><line x1="39.232001304626465" y1="304.1550726342131" x2="34.232001304626465" y2="304.1550726342131" style="visibility: inherit;" fill="rgb(0, 0, 0)" stroke="rgb(204, 204, 204)" stroke-width="1px"></line><line x1="39.232001304626465" y1="281.26097832730403" x2="34.232001304626465" y2="281.26097832730403" style="visibility: inherit;" fill="rgb(0, 0, 0)" stroke="rgb(204, 204, 204)" stroke-width="1px"></line><line x1="39.232001304626465" y1="263.5029391689119" x2="34.232001304626465" y2="263.5029391689119" style="visibility: inherit;" fill="rgb(0, 0, 0)" stroke="rgb(204, 204, 204)" stroke-width="1px"></line><line x1="39.232001304626465" y1="248.99356470616044" x2="34.232001304626465" y2="248.99356470616044" style="visibility: inherit;" fill="rgb(0, 0, 0)" stroke="rgb(204, 204, 204)" stroke-width="1px"></line><line x1="39.232001304626465" y1="236.72606339347112" x2="34.232001304626465" y2="236.72606339347112" style="visibility: inherit;" fill="rgb(0, 0, 0)" stroke="rgb(204, 204, 204)" stroke-width="1px"></line><line x1="39.232001304626465" y1="226.09947039925135" x2="34.232001304626465" y2="226.09947039925135" style="visibility: inherit;" fill="rgb(0, 0, 0)" stroke="rgb(204, 204, 204)" stroke-width="1px"></line><line x1="39.232001304626465" y1="216.72615108501688" x2="34.232001304626465" y2="216.72615108501688" style="visibility: inherit;" fill="rgb(0, 0, 0)" stroke="rgb(204, 204, 204)" stroke-width="1px"></line><line x1="39.232001304626465" y1="208.3414312408592" x2="34.232001304626465" y2="208.3414312408592" style="visibility: inherit;" fill="rgb(0, 0, 0)" stroke="rgb(204, 204, 204)" stroke-width="1px"></line><line x1="39.232001304626465" y1="153.17992331280655" x2="34.232001304626465" y2="153.17992331280655" style="visibility: inherit;" fill="rgb(0, 0, 0)" stroke="rgb(204, 204, 204)" stroke-width="1px"></line><line x1="39.232001304626465" y1="120.91250969166293" x2="34.232001304626465" y2="120.91250969166293" style="visibility: inherit;" fill="rgb(0, 0, 0)" stroke="rgb(204, 204, 204)" stroke-width="1px"></line><line x1="39.232001304626465" y1="98.01841538475384" x2="34.232001304626465" y2="98.01841538475384" style="visibility: inherit;" fill="rgb(0, 0, 0)" stroke="rgb(204, 204, 204)" stroke-width="1px"></line><line x1="39.232001304626465" y1="80.2603762263617" x2="34.232001304626465" y2="80.2603762263617" style="visibility: inherit;" fill="rgb(0, 0, 0)" stroke="rgb(204, 204, 204)" stroke-width="1px"></line><line x1="39.232001304626465" y1="65.75100176361025" x2="34.232001304626465" y2="65.75100176361025" style="visibility: inherit;" fill="rgb(0, 0, 0)" stroke="rgb(204, 204, 204)" stroke-width="1px"></line><line x1="39.232001304626465" y1="53.483500450920985" x2="34.232001304626465" y2="53.483500450920985" style="visibility: inherit;" fill="rgb(0, 0, 0)" stroke="rgb(204, 204, 204)" stroke-width="1px"></line><line x1="39.232001304626465" y1="42.85690745670115" x2="34.232001304626465" y2="42.85690745670115" style="visibility: inherit;" fill="rgb(0, 0, 0)" stroke="rgb(204, 204, 204)" stroke-width="1px"></line><line x1="39.232001304626465" y1="33.48358814246666" x2="34.232001304626465" y2="33.48358814246666" style="visibility: inherit;" fill="rgb(0, 0, 0)" stroke="rgb(204, 204, 204)" stroke-width="1px"></line><line x1="39.232001304626465" y1="25.098868298309014" x2="34.232001304626465" y2="25.098868298309014" style="visibility: inherit;" fill="rgb(0, 0, 0)" stroke="rgb(204, 204, 204)" stroke-width="1px"></line></g><g transform="translate(29.232001304626465, 0)"><text style="text-anchor: end; visibility: inherit; font-family: &quot;Helvetica Neue&quot;, sans-serif; font-size: 12px; font-weight: 200;" x="0" y="336.4224862553567" dx="0em" dy="0.3em" fill="rgb(50, 49, 63)" stroke="none" stroke-width="1px">2</text><text style="text-anchor: end; visibility: hidden; font-family: &quot;Helvetica Neue&quot;, sans-serif; font-size: 12px; font-weight: 200;" x="0" y="304.1550726342131" dx="0em" dy="0.3em" fill="rgb(50, 49, 63)" stroke="none" stroke-width="1px">3</text><text style="text-anchor: end; visibility: hidden; font-family: &quot;Helvetica Neue&quot;, sans-serif; font-size: 12px; font-weight: 200;" x="0" y="281.26097832730403" dx="0em" dy="0.3em" fill="rgb(50, 49, 63)" stroke="none" stroke-width="1px">4</text><text style="text-anchor: end; visibility: inherit; font-family: &quot;Helvetica Neue&quot;, sans-serif; font-size: 12px; font-weight: 200;" x="0" y="263.5029391689119" dx="0em" dy="0.3em" fill="rgb(50, 49, 63)" stroke="none" stroke-width="1px">5</text><text style="text-anchor: end; visibility: hidden; font-family: &quot;Helvetica Neue&quot;, sans-serif; font-size: 12px; font-weight: 200;" x="0" y="248.99356470616044" dx="0em" dy="0.3em" fill="rgb(50, 49, 63)" stroke="none" stroke-width="1px">6</text><text style="text-anchor: end; visibility: hidden; font-family: &quot;Helvetica Neue&quot;, sans-serif; font-size: 12px; font-weight: 200;" x="0" y="236.72606339347112" dx="0em" dy="0.3em" fill="rgb(50, 49, 63)" stroke="none" stroke-width="1px">7</text><text style="text-anchor: end; visibility: inherit; font-family: &quot;Helvetica Neue&quot;, sans-serif; font-size: 12px; font-weight: 200;" x="0" y="226.09947039925135" dx="0em" dy="0.3em" fill="rgb(50, 49, 63)" stroke="none" stroke-width="1px">8</text><text style="text-anchor: end; visibility: hidden; font-family: &quot;Helvetica Neue&quot;, sans-serif; font-size: 12px; font-weight: 200;" x="0" y="216.72615108501688" dx="0em" dy="0.3em" fill="rgb(50, 49, 63)" stroke="none" stroke-width="1px">9</text><text style="text-anchor: end; visibility: hidden; font-family: &quot;Helvetica Neue&quot;, sans-serif; font-size: 12px; font-weight: 200;" x="0" y="208.3414312408592" dx="0em" dy="0.3em" fill="rgb(50, 49, 63)" stroke="none" stroke-width="1px">10</text><text style="text-anchor: end; visibility: inherit; font-family: &quot;Helvetica Neue&quot;, sans-serif; font-size: 12px; font-weight: 200;" x="0" y="153.17992331280655" dx="0em" dy="0.3em" fill="rgb(50, 49, 63)" stroke="none" stroke-width="1px">20</text><text style="text-anchor: end; visibility: hidden; font-family: &quot;Helvetica Neue&quot;, sans-serif; font-size: 12px; font-weight: 200;" x="0" y="120.91250969166293" dx="0em" dy="0.3em" fill="rgb(50, 49, 63)" stroke="none" stroke-width="1px">30</text><text style="text-anchor: end; visibility: hidden; font-family: &quot;Helvetica Neue&quot;, sans-serif; font-size: 12px; font-weight: 200;" x="0" y="98.01841538475384" dx="0em" dy="0.3em" fill="rgb(50, 49, 63)" stroke="none" stroke-width="1px">40</text><text style="text-anchor: end; visibility: inherit; font-family: &quot;Helvetica Neue&quot;, sans-serif; font-size: 12px; font-weight: 200;" x="0" y="80.2603762263617" dx="0em" dy="0.3em" fill="rgb(50, 49, 63)" stroke="none" stroke-width="1px">50</text><text style="text-anchor: end; visibility: hidden; font-family: &quot;Helvetica Neue&quot;, sans-serif; font-size: 12px; font-weight: 200;" x="0" y="65.75100176361025" dx="0em" dy="0.3em" fill="rgb(50, 49, 63)" stroke="none" stroke-width="1px">60</text><text style="text-anchor: end; visibility: hidden; font-family: &quot;Helvetica Neue&quot;, sans-serif; font-size: 12px; font-weight: 200;" x="0" y="53.483500450920985" dx="0em" dy="0.3em" fill="rgb(50, 49, 63)" stroke="none" stroke-width="1px">70</text><text style="text-anchor: end; visibility: inherit; font-family: &quot;Helvetica Neue&quot;, sans-serif; font-size: 12px; font-weight: 200;" x="0" y="42.85690745670115" dx="0em" dy="0.3em" fill="rgb(50, 49, 63)" stroke="none" stroke-width="1px">80</text><text style="text-anchor: end; visibility: hidden; font-family: &quot;Helvetica Neue&quot;, sans-serif; font-size: 12px; font-weight: 200;" x="0" y="33.48358814246666" dx="0em" dy="0.3em" fill="rgb(50, 49, 63)" stroke="none" stroke-width="1px">90</text><text style="text-anchor: end; visibility: hidden; font-family: &quot;Helvetica Neue&quot;, sans-serif; font-size: 12px; font-weight: 200;" x="0" y="25.098868298309014" dx="0em" dy="0.3em" fill="rgb(50, 49, 63)" stroke="none" stroke-width="1px">100</text></g><line x1="39.232001304626465" y1="0" x2="39.232001304626465" y2="374.5999984741211" fill="rgb(0, 0, 0)" stroke="rgb(204, 204, 204)" stroke-width="1px"></line></g></g><g transform="translate(39, 0)" clip-path="url(#clip_0)"><clipPath id="clip_0"><rect width="1406" height="374"></rect></clipPath><g><g><g><line x1="0" y1="0" x2="0" y2="374.5999984741211" fill="rgb(0, 0, 0)" stroke="rgb(60, 60, 60)" stroke-width="1px" opacity="0.25"></line><line x1="117.23066655794779" y1="0" x2="117.23066655794779" y2="374.5999984741211" fill="rgb(0, 0, 0)" stroke="rgb(60, 60, 60)" stroke-width="1px" opacity="0.25"></line><line x1="234.46133311589557" y1="0" x2="234.46133311589557" y2="374.5999984741211" fill="rgb(0, 0, 0)" stroke="rgb(60, 60, 60)" stroke-width="1px" opacity="0.25"></line><line x1="351.6919996738434" y1="0" x2="351.6919996738434" y2="374.5999984741211" fill="rgb(0, 0, 0)" stroke="rgb(60, 60, 60)" stroke-width="1px" opacity="0.25"></line><line x1="468.92266623179114" y1="0" x2="468.92266623179114" y2="374.5999984741211" fill="rgb(0, 0, 0)" stroke="rgb(60, 60, 60)" stroke-width="1px" opacity="0.25"></line><line x1="586.153332789739" y1="0" x2="586.153332789739" y2="374.5999984741211" fill="rgb(0, 0, 0)" stroke="rgb(60, 60, 60)" stroke-width="1px" opacity="0.25"></line><line x1="703.3839993476868" y1="0" x2="703.3839993476868" y2="374.5999984741211" fill="rgb(0, 0, 0)" stroke="rgb(60, 60, 60)" stroke-width="1px" opacity="0.25"></line><line x1="820.6146659056346" y1="0" x2="820.6146659056346" y2="374.5999984741211" fill="rgb(0, 0, 0)" stroke="rgb(60, 60, 60)" stroke-width="1px" opacity="0.25"></line><line x1="937.8453324635823" y1="0" x2="937.8453324635823" y2="374.5999984741211" fill="rgb(0, 0, 0)" stroke="rgb(60, 60, 60)" stroke-width="1px" opacity="0.25"></line><line x1="1055.0759990215302" y1="0" x2="1055.0759990215302" y2="374.5999984741211" fill="rgb(0, 0, 0)" stroke="rgb(60, 60, 60)" stroke-width="1px" opacity="0.25"></line><line x1="1172.306665579478" y1="0" x2="1172.306665579478" y2="374.5999984741211" fill="rgb(0, 0, 0)" stroke="rgb(60, 60, 60)" stroke-width="1px" opacity="0.25"></line><line x1="1289.5373321374257" y1="0" x2="1289.5373321374257" y2="374.5999984741211" fill="rgb(0, 0, 0)" stroke="rgb(60, 60, 60)" stroke-width="1px" opacity="0.25"></line><line x1="1406.7679986953735" y1="0" x2="1406.7679986953735" y2="374.5999984741211" fill="rgb(0, 0, 0)" stroke="rgb(60, 60, 60)" stroke-width="1px" opacity="0.25"></line></g><g><line x1="0" y1="336.4224862553567" x2="1406.7679986953735" y2="336.4224862553567" fill="rgb(0, 0, 0)" stroke="rgb(60, 60, 60)" stroke-width="1px" opacity="0.25"></line><line x1="0" y1="304.1550726342131" x2="1406.7679986953735" y2="304.1550726342131" fill="rgb(0, 0, 0)" stroke="rgb(60, 60, 60)" stroke-width="1px" opacity="0.25"></line><line x1="0" y1="281.26097832730403" x2="1406.7679986953735" y2="281.26097832730403" fill="rgb(0, 0, 0)" stroke="rgb(60, 60, 60)" stroke-width="1px" opacity="0.25"></line><line x1="0" y1="263.5029391689119" x2="1406.7679986953735" y2="263.5029391689119" fill="rgb(0, 0, 0)" stroke="rgb(60, 60, 60)" stroke-width="1px" opacity="0.25"></line><line x1="0" y1="248.99356470616044" x2="1406.7679986953735" y2="248.99356470616044" fill="rgb(0, 0, 0)" stroke="rgb(60, 60, 60)" stroke-width="1px" opacity="0.25"></line><line x1="0" y1="236.72606339347112" x2="1406.7679986953735" y2="236.72606339347112" fill="rgb(0, 0, 0)" stroke="rgb(60, 60, 60)" stroke-width="1px" opacity="0.25"></line><line x1="0" y1="226.09947039925135" x2="1406.7679986953735" y2="226.09947039925135" fill="rgb(0, 0, 0)" stroke="rgb(60, 60, 60)" stroke-width="1px" opacity="0.25"></line><line x1="0" y1="216.72615108501688" x2="1406.7679986953735" y2="216.72615108501688" fill="rgb(0, 0, 0)" stroke="rgb(60, 60, 60)" stroke-width="1px" opacity="0.25"></line><line x1="0" y1="208.3414312408592" x2="1406.7679986953735" y2="208.3414312408592" fill="rgb(0, 0, 0)" stroke="rgb(60, 60, 60)" stroke-width="1px" opacity="0.25"></line><line x1="0" y1="153.17992331280655" x2="1406.7679986953735" y2="153.17992331280655" fill="rgb(0, 0, 0)" stroke="rgb(60, 60, 60)" stroke-width="1px" opacity="0.25"></line><line x1="0" y1="120.91250969166293" x2="1406.7679986953735" y2="120.91250969166293" fill="rgb(0, 0, 0)" stroke="rgb(60, 60, 60)" stroke-width="1px" opacity="0.25"></line><line x1="0" y1="98.01841538475384" x2="1406.7679986953735" y2="98.01841538475384" fill="rgb(0, 0, 0)" stroke="rgb(60, 60, 60)" stroke-width="1px" opacity="0.25"></line><line x1="0" y1="80.2603762263617" x2="1406.7679986953735" y2="80.2603762263617" fill="rgb(0, 0, 0)" stroke="rgb(60, 60, 60)" stroke-width="1px" opacity="0.25"></line><line x1="0" y1="65.75100176361025" x2="1406.7679986953735" y2="65.75100176361025" fill="rgb(0, 0, 0)" stroke="rgb(60, 60, 60)" stroke-width="1px" opacity="0.25"></line><line x1="0" y1="53.483500450920985" x2="1406.7679986953735" y2="53.483500450920985" fill="rgb(0, 0, 0)" stroke="rgb(60, 60, 60)" stroke-width="1px" opacity="0.25"></line><line x1="0" y1="42.85690745670115" x2="1406.7679986953735" y2="42.85690745670115" fill="rgb(0, 0, 0)" stroke="rgb(60, 60, 60)" stroke-width="1px" opacity="0.25"></line><line x1="0" y1="33.48358814246666" x2="1406.7679986953735" y2="33.48358814246666" fill="rgb(0, 0, 0)" stroke="rgb(60, 60, 60)" stroke-width="1px" opacity="0.25"></line><line x1="0" y1="25.098868298309014" x2="1406.7679986953735" y2="25.098868298309014" fill="rgb(0, 0, 0)" stroke="rgb(60, 60, 60)" stroke-width="1px" opacity="0.25"></line></g></g></g><g><g><line x1="117.23066655794779" y1="0" x2="117.23066655794779" y2="374.5999984741211" fill="rgb(0, 0, 0)" stroke="rgb(153, 153, 153)" stroke-width="1.5px"></line></g></g><g><g><g><g><g><path style="fill: none;" stroke="rgb(255, 112, 67)" stroke-width="2px" d="M118.29746562362511,415.50023331353407L118.44986549015044,368.29113692309005L118.47331162346204,436.19530967949527L118.55537309005261,382.05628264424087L118.73121908988954,341.1775891616089L118.82500362313588,381.83511153442197L119.18841868946552,395.7263577815532L119.29392628936768,328.29768795023364L119.31737242267927,348.0105558175906L119.52838762248356,321.5638521715816L119.77457202225527,321.3207400081995L119.78629508891106,361.97290605377805L119.84491042219003,402.62505906723925L120.22004855517545,473.6702767462946L120.41934068832397,296.93926395572134L120.86481722124418,339.1740332305845L121.12272468767165,323.26312042539485L121.19306308760643,342.77167043351716L121.31029375416438,336.09742207287934L121.42752442072232,320.7028420763677L121.76749335374038,312.53128373891326L122.00195468685627,287.7587156439456L122.02540082016785,333.93399345525063L122.10746228675842,335.1100993584048L122.1426314867258,341.17405160468365L122.1543545533816,381.8261850719702L122.21296988666057,377.25764146142035L122.25986215328376,345.07152933716804L122.29503135325115,373.5416021542999L122.3653697531859,364.5119304270228L122.5998310863018,309.2518141793759L122.70533868620396,308.785646183552L122.71706175285975,349.4377796489088L122.83429241941771,328.7930596981141L122.99841535259883,368.1595963567602L123.19770748574734,274.9034112821048L123.22115361905892,304.16575886964756L123.37355348558425,273.13685561063016L123.54939948542118,311.3657713342122L123.92453761840662,244.54009737749482L124.26450655142466,246.73862884649395L124.68653695103326,211.07042821937344L124.90927521749339,215.7761086209199L125.17890575057665,204.3749562118511L125.54232081690628,186.84461817687654L125.56576695021788,229.22075798036153L126.10502801638444,199.97795330248286L126.48016614936988,179.17532928796047L126.60911988258361,207.35279832910047L126.99598108222484,188.38858112768028L127.35939614855448,229.04071459298152L128.26207228105068,203.32981340363833L128.2855184143623,243.55277995768068L128.6489334806919,198.7125586175598L128.8482256138404,202.07405962531098L129.51644041322072,181.79437040469264L129.97364001279672,160.63725924199966L130.53634721227485,142.59680441523486L131.48591561139426,172.26117683865246L131.8258845444123,164.40497845528077L132.84579134346643,148.92907790072852L134.11188254229228,155.24036008167903L134.12360560894808,195.8924935469803L134.55735907521247,165.14158740266126L134.90905107488632,174.12355822691828L135.51865054098766,150.88684512704694L135.9055117406289,152.88871040154314L137.0074800062736,152.60628826453376L137.6170794723749,143.34922804228367L138.3087404050668,132.88107874691138L138.7659400046428,143.08953197979844L139.10590893766087,146.8723708828147L139.96169280353388,137.90366933594623L140.26649253658454,148.88910830914386L140.85264586937427,147.28267129741707L142.6462750677109,144.55337392903297L142.78695186758043,178.18369122713054L143.73652026669978,140.52104390430912L144.19371986627579,140.67911982484895L144.63919639919598,132.5332858434179L145.60048786497114,103.02158142905415L146.37421026425363,98.76776787674328L147.00725586366653,102.00517032552392L147.85131666288376,94.17260999110738L148.17956252924603,129.7722831930749L149.1056847950538,99.22100019228236L149.60977666125297,109.07651701512646L150.23109919401008,110.53640275321419L151.62614412604967,98.07520837648019L152.04817452565828,110.74572135178335L152.18885132552785,137.2300301530155L153.18531199127037,139.17976184138257L154.0410958571434,116.10885839954875L154.66241838990052,112.79329782647204L156.2567554550886,116.3232570507825L156.807739587911,114.80674220953517L157.93315398686727,113.75591300829149L157.94487705352307,154.40804647359272L158.91789158595404,176.65396710932376L159.39853731884162,153.4963139976019L159.72678318520386,149.55846601459103L159.8791830517292,182.7257687526426L160.5473978511095,133.89023046646153L162.30585784947874,117.3097651549823L163.17336478200755,91.07987574010525L164.21671771437326,75.85164554360193L165.17800918014845,69.36035751170459L166.6433925121228,81.07161144867592L166.69028477874596,119.5353783715237L167.65157624452115,93.04558136475231L168.6949291768869,74.16238881977637L170.07825104227067,62.104506178717315L170.6761274417162,76.86735825931362L171.66086504080295,66.40172053383219L172.6338795732339,62.5715383833483L174.6971393046538,57.816483138080514L175.86944597023327,58.645760458994175L178.99950476733048,58.91411415713554L181.0158722321272,70.37080126438377L182.18817889770668,65.87605713298751L184.55623836217723,63.307213344346735L185.7285450277567,61.335513491171014L188.07315835891563,59.476608534757645L188.1552198255062,97.69634862640032L188.36623502531052,130.71612835889457L188.50691182518005,160.62922872538203L189.53854169089,95.50730894778462L192.72721582126619,74.87952953895797L193.8526302202225,65.76657559565751L194.11053768665,96.8232361304618L194.41533741970062,118.82563303037722L197.73296528329055,86.61951671806008L198.90527194887002,71.3301599705801L200.0658555477937,64.8850666046315L200.10102474776107,104.66730522121486L200.21825541431906,135.50064921283152L201.30850061330796,88.08218437619155L202.72699167865912,114.53861561458808L202.73871474531492,155.19074907988934L203.9110214108944,108.56337178012438L205.32951247624555,89.34562801880344L205.45846620945932,122.77989491416136L206.39631154192287,91.02202580758052L207.34587994104228,76.73645770191405L208.26027914019423,68.36116501420662L209.43258580577375,62.16527955016437L209.46775500574114,102.0878762790249L211.81236833690005,85.55060744713529L212.98467500247958,74.03412265623342L215.3292883336385,68.71380140315745L215.66925726665656,109.36593486845862L216.84156393223606,87.85477015297795L219.186177263395,75.88059733631917L219.4089155298551,109.10619355488939L219.42063859651088,149.75832702019062L220.59294526209035,104.48414908135584L221.76525192766985,83.68201329887017L221.80042112763724,123.57590472881583L222.9610047265609,92.82199694833952L224.27398819200994,77.7701141567016L226.44275552333198,109.09125504157049L226.71238605641523,131.31350246182944L227.88469272199472,94.91786213907466L229.0569993875742,76.95765774828959L230.34653671971162,110.84490723408618L231.98776605152287,114.85936560361279L234.33237938268184,88.02272766455417L236.50114671400388,69.49837148185492L237.95480697932243,94.98376618098598L237.96653004597823,135.6358996462872L238.29477591234047,144.6151263663221L239.46708257791994,102.37890140050126L240.59249697687628,80.28290330611617L242.9253872413794,68.55467093187423L242.9605564413468,108.29609227970462L245.16449297263625,80.05922208339484L246.3367996382157,68.258224504221L246.5009225713968,102.95501559516293L248.72830523599785,76.22536763056792L254.4608848306815,65.23851039565938L255.68008376288412,106.00699991753123L256.8523904284636,83.70002447889198L258.13020469394525,71.64167011662767L258.259158427159,108.25195188767486L259.3962958927711,80.71734889332544L260.56860255835056,71.84273671041768L260.63894095828533,109.17640190223995L261.8112476238648,88.46611235148737L262.9483850894769,71.66271032760369L264.1206917550564,66.63086976044269L264.2848146882375,99.63450700821056L265.457121353817,77.59121826536449L269.79465601646103,68.71985644468504L270.9669626820405,62.435115477333284L272.03376174771785,57.69082336613474L273.3115760131995,91.40691256461895L274.48388267877897,76.96523985317356L276.78160374331475,65.13001695238631L277.9539104088942,61.131030416257545L279.1262170744737,56.78119039028735L280.2164622734626,53.29407827223292L281.3887689390421,52.3711170675038L282.63141400455635,51.32337805111996L282.6783062711795,90.51377729245462L283.85061293675903,76.15648332431766L284.9877504023711,62.312649844975965L286.16005706795056,58.5939829550594L287.3206406668742,55.41725434639437L290.8258375969569,54.293828479894785L291.99814426253636,55.41409981929252L293.4752506611665,51.668363647474166L295.81986399232545,52.029117183997926L297.2969703909556,51.9447611472001L299.64158372211455,53.04229714625211L300.813890387694,51.60256134505505L301.98619705327354,52.71835323852821L303.158503718853,53.45160988845845L304.3308103844325,53.17402575173361L305.4562247833888,52.275269618886625L306.62853144896826,53.98412910726171L306.92160811536314,82.47764264820898L308.0939147809426,69.18693326648372L309.2662214465221,63.53383250082868L310.43852811210155,60.342839471684556L312.7831414432605,57.87140411156366L313.95544810884,56.20943692729776L315.1277547744195,56.86886939931054L316.30006143999896,56.193333205241856L318.6446747711579,56.366418432535L320.98928810231683,57.924647147951305L321.094795702219,94.96400933821428L322.1850409012079,72.51235144241127L323.3573475667874,65.60719608195944L324.52965423236685,60.929033500932235L325.6902378312906,58.17299867961822L326.86254449687004,55.4620024760485L327.17906729657653,82.50033903655697L328.18725102897486,65.19614650756643L329.3595576945543,57.969559229743936L330.5318643601338,55.87531668121608L332.8764776912928,52.922030708357966L334.0487843568722,51.68768348441847L336.3933976880312,52.86800180073618L337.87050408666136,53.32834344440079L339.0428107522408,52.07441588668132L340.2151174178203,53.02431727145688L341.38742408339976,51.76439423863707L342.55973074897923,50.72014651322684L344.90434408013823,51.16179013892554L346.0766507457177,52.39055158707208L347.3661880778551,51.48367217587037L348.53849474343457,50.86989201755915L349.71080140901404,52.24637425362977L350.88310807459357,52.967502010795954L352.05541474017303,52.862751620234235L354.400028071332,54.68649358019991L355.57233473691144,55.06331405054539L356.7446414024909,55.090186498676644L357.91694806807044,55.928593949362266L360.57808419893587,85.65666506422355L361.937959931008,73.26867268774339L362.1958673974355,106.65441274748542L364.54048072859445,81.03754102430213L365.712787394174,70.55895343831122L366.8850940597534,64.67571130086588L368.2449697918256,60.6926015262888L369.4172764574051,57.17255569075223L371.761889788564,55.2070690285081L372.9928117874225,93.67378561643653L378.7019452487946,74.33338366048105L379.87425191437404,65.04298644239373L383.3911719111125,60.75625212911899L384.5634785766919,57.74952209941665L385.73578524227145,54.81319366365108L386.0523080419778,85.149723348323L387.22461470755735,74.9661471832348L388.3969213731369,66.14618795818302L388.5141520396948,106.7983214234842L389.6981817719301,82.02561575870487L392.042795103089,67.08737812224774L392.2303641695817,107.73951158754898L395.7472841663201,82.32309708011627L396.91959083189965,70.64855042365951L399.2642041630586,64.46942284668222L400.4365108286381,58.70557151921474L401.60881749421753,56.06468613761467L402.781124159797,55.03661261918012L403.95343082537653,54.46069369912658L405.2546912241698,55.302089282599184L406.4269978897492,53.7650088667487L407.69308908857505,91.5339136723423L408.8653957541546,72.86882936285002L410.037702419734,63.0691718969436L411.21000908531346,59.76278199432045L412.382315750893,57.97768452090281L413.5546224164724,54.80447574851024L415.89923574763145,54.786229206455005L416.06335868081254,88.37005703407954L418.4079720119715,71.80618104066929L419.58027867755095,65.66107018248778L420.7525853431304,58.99324559666286L421.9248920087099,55.56746051780891L422.1241841418584,86.60338827757028L422.1359072085142,127.25552174287151L423.30821387409367,88.75236845949604L423.56612134052114,113.02552631115941L424.73842800610066,83.28819194155386L425.91073467168013,71.58629211719028L427.0830413372596,62.44096613936233L428.25534800283907,58.24406095015104L428.31396333611804,97.69237989725337L429.48627000169756,74.46369740533868L430.658576667277,63.06422831329172L433.00318999843597,57.540902461186704L434.17549666401544,55.04391569471716L437.4814014609496,51.80687401964701L438.65370812652907,50.13704105452189L442.3933663897276,51.75594562691026L442.827119855992,84.55700009738905L443.9994265215715,70.89065417353879L445.17173318715095,63.52458406988114L446.3440398527304,59.50137830202573L447.5163465183099,56.74244251699315L449.0168990502516,53.14625716631673L450.1892057158311,53.82806360791801L451.36151238141065,55.67357960331731L454.87843237814906,54.69478398931034L456.05073904372847,55.78156082529233L458.3953523748874,55.71080577425971L463.08457903720534,53.523891022330645L464.25688570278487,55.24361040908093L465.67537676813606,55.288379380315575L466.8476834337155,53.32230203946921L466.8594065003713,94.73443582381378L468.03171316595075,78.57457935526287L469.2040198315303,68.72172449611287L469.3095274314324,105.75142844777139L470.4818340970119,78.90025957577888L470.57561863025825,119.55239304108011L471.7479252958377,89.96481537505213L472.9202319614172,73.88251582049486L474.0925386269967,67.68795666192892L475.2648452925761,62.30302992893519L476.43715195815565,57.94363176934053L477.6094586237351,57.321690225843554L480.0947487547636,91.56135937452098L480.38782542115854,112.38472674516288L481.56013208673795,84.2637061756908L486.5189892821391,70.84729523754561L488.86360261329804,63.923231601141936L489.0863408797582,93.09179173335974L490.2586475453376,76.25637154700092L491.43095421091715,65.43746528003072L492.6032608764967,60.02004932147173L493.7755675420761,57.51885326132532L494.94787420765556,57.480238445706846L496.1201808732351,54.619463418119096L497.2924875388145,54.01933404758245L498.464794204394,53.94193555304531L498.6289171375751,88.04118836269345L499.80122380315464,74.3123383037422L500.97353046873417,66.6540506354927L502.1458371343136,62.67492567213145L502.3802984674295,96.70684706578402L503.55260513300897,81.74238299966908L504.72491179858844,70.2059072734649L507.0695251297474,62.00186885836456L508.2418317953269,59.62734812258179L509.4141384609063,58.835480123506045L509.9299533937613,92.48351849549204L511.17259845927555,75.19349176491653L513.5172117904345,67.32691600241111L514.689518456014,64.01908708644254L515.8618251215935,59.73893824458031L517.3389315202237,58.99343851935208L517.4209929868142,97.62469795856651L517.43271605347,138.27683142386778L517.5265005867163,169.25375363210432L518.6988072522959,102.69402454818686L519.8711139178753,80.30628252273726L522.2157272490342,69.75630340525703L523.3880339146137,62.016486843173425L524.5603405801933,59.590129293672874L524.7948019133091,91.22291044445478L527.1394152444681,74.61553232920124L528.3117219100475,65.98073041311011L529.484028575627,60.55352613954142L529.7302129753987,93.30396862078675L530.9025196409782,74.30542938361253L532.0748263065576,65.26970733776977L533.2471329721371,60.09132177725178L534.4194396377167,57.065945845717636L534.7007932374556,86.76634934852018L534.7125163041114,127.41848281382144L534.7242393707672,168.07061627912267L535.8965460363468,101.72239691573577L537.0688527019262,79.25201277019607L538.2411593675057,66.30234674351829L540.5857726986646,60.69910687858578L541.7580793642442,58.61848566809903L542.9303860298237,56.82813397602854L545.2749993609825,58.36352351463921L545.591522160689,86.22847553986367L545.6032452273448,126.88060900516493L545.6149682940006,167.53274247046616L547.9595816251596,102.79541374650705L549.131888290739,81.95801300137128L550.3041949563185,69.37687989101727L551.476501621898,64.48688647934091L552.6488082874774,61.740471478937536L553.821114953057,60.21643985923566L554.9934216186365,57.99951418643974L556.2477897508064,60.92015250361112L558.5924030819655,59.57117844508724L558.6627414819002,97.60285011372196L559.8350481474797,82.8919370692264L563.3519681442182,74.3585626811385L565.1690434758663,65.9244868343427L566.3413501414458,62.69593384030958L566.3765193414132,102.50165046088551L566.5992576078733,129.80103175541907L566.8102728076775,152.84126905113348L569.1548861388366,98.58973264024888L570.327192804416,79.80137154492513L573.8441128011544,70.64019900343487L574.0082357343356,104.86669270124167L574.0316818676472,145.51882616654294L576.3762951988061,100.25005217486034L577.5486018643857,78.87255078734489L579.6470307957728,78.75701046236856L580.8193374613523,67.75730220667998L581.9916441269319,61.2426208778578L582.8825971927722,59.531154617184825L584.0549038583517,56.57499483479768L584.2541959915002,89.09888703347428L585.4265026570797,75.1865205004728L586.5988093226591,65.7186683406216L587.7711159882386,60.62817682474957L588.9434226538182,59.094999109969706L590.1157293193976,56.120183760143675L591.2880359849771,54.81370520100802L592.4603426505566,55.734925464265416L593.632649316136,56.58736081815613L594.8049559817156,56.9651195295196L594.8870174483061,94.80013311486715L596.2117239804109,135.45226658016844L596.434462246871,149.67980764951815L598.77907557803,98.29984072104565L601.06507357591,76.68349821581381L602.2373802414894,66.32778665178995L603.4096869070689,62.89894445015835L604.5819935726483,60.36566746646997L605.7543002382279,58.33067954058629L606.0825461045902,87.38730648695065L607.2548527701696,70.03746419781805L607.5244833032529,100.62102083985349L608.6967899688323,78.86369641742596L611.0414032999913,69.30342753560325L612.2137099655707,63.379495960274824L612.3074944988172,100.22014462066016L613.4798011643966,79.376640070841L614.6521078299761,66.61564928426452L614.9334614297152,107.26778274956575L616.1057680952946,81.09147222431613L617.2780747608741,65.96989616560711L618.4503814264535,61.01447236470318L619.6226880920331,57.62139624609114L620.7949947576126,55.73169756094933L621.967301423192,54.890714562367634L623.1396080887715,53.813577732524095L624.3119147543509,55.00814082383101L625.4842214199305,56.390976116253455L626.65652808551,57.01052559752367L627.8288347510894,58.30153759308422L629.0011414166689,58.6839342381154L629.4114487496217,92.15891260602638L630.8182167483171,122.11909068591882L633.1628300794761,87.50147357945042L635.448828077356,72.43863455100973L636.6211347429355,69.52079541234764L637.7465491418918,61.42533991623009L638.9188558074712,59.28925577149181L640.0911624730508,58.486772081462846L641.2634691386302,55.40728637342181L641.3103614052534,95.15945413344065L641.3220844719092,135.8115875987419L642.4943911374887,94.36570577027015L643.6666978030681,75.65565589606553L644.8390044686477,64.77322647995055L646.0113111342271,60.843099144563155L647.1836177998066,60.80321678710095L650.7005377965451,59.18724098636744L651.8728444621245,57.39511343058325L651.9197367287477,97.0621024052158L654.2643500599066,79.99094839825335L655.436656725486,67.88344033456195L657.7812700566451,64.35312083507097L658.9418536555687,60.581574544036584L659.2114841886521,92.98264769316035L659.5280069883585,117.98092064883508L660.6885905872822,88.45259784968806L661.8608972528616,73.00783542586686L664.3813565838575,109.73542202975631L665.553663249437,85.45547373347813L665.8467399158319,116.01121556398931L668.355476180172,87.8160551627875L669.5277828457514,75.31248792034688L671.8723961769105,67.69124381836713L673.0447028424899,63.13850418727077L674.2170095080694,62.37671456486811L675.3893161736489,60.48273252247844L676.5616228392283,61.38490896343097L676.6202381725072,100.97335739025311L676.631961239163,141.62549085555435L677.8042679047426,96.23006718566472L677.8746063046773,133.70309320956858L677.8863293713331,174.35522667486984L680.230942702492,104.39503602194344L681.4032493680716,82.9245073543014L682.5755560336511,72.62048544162081L682.7514020334879,104.97426500704199L683.7947549658537,79.24805171730884L683.9119856324116,111.61683185629437L685.084292297991,84.79991515432357L686.2565989635706,72.57320312219485L688.917735094436,64.66866458524862L690.0900417600154,62.03469779225156L692.4346550911745,58.44348335048096L693.6069617567539,58.15601466423311L694.7792684223334,57.116421932144135L695.9515750879129,55.93943894075068L697.1238817534924,59.063934647757094L698.2961884190719,61.476004588880755L699.6443410844882,59.008185732996026L700.7697554834446,55.85128013141497L701.942062149024,55.26215456434056L703.1143688146035,55.51215785385557L703.1260918812593,96.94559956352924L704.2983985468388,76.9749143806107L705.4355360124508,64.58430290686096L705.7403357455015,92.81018882069094L709.25725574224,75.16437012328242L710.4295624078194,66.5224321180645L712.7741757389783,62.40327256187953L713.9464824045579,60.12417320108398L715.1187890701374,63.10086071232905L716.2910957357169,60.95855375877437L718.6357090668757,59.704254983002784L720.9803223980348,59.784739431096455L722.1526290636142,57.62643302983906L723.3249357291937,56.7439495133209L724.4972423947731,58.844259837604454L725.6695490603527,61.214241606521455L725.7867797269106,98.680555378132L726.0564102599939,125.91938427503385L726.0681333266496,166.5715177403351L728.4127466578086,105.78566412554056L728.447915857776,144.98873458539322L729.6202225233556,95.53923838156192L731.9531127878587,76.28819498854006L734.2977261190175,65.27360076423895L735.470032784597,62.397451636453354L735.7044941177129,95.20198915683454L736.8768007832924,77.15802601204291L738.049107448872,67.40989760082789L739.2214141144515,63.84937169630945L740.6633513131142,93.55014047992546L741.8356579786936,76.13932557080699L743.0079646442731,67.53656222661505L744.3912865096569,62.10841462099569L745.5635931752364,61.588997823163766L747.9082065063952,61.97940373003854L751.4251265031338,60.558955734846165L753.7697398342927,59.226860275072966L754.0628165006875,89.738959490647L754.0745395673434,130.39109295594827L757.5914595640818,91.68931229146062L758.7637662296613,75.10214250694116L760.1705342283567,64.99785051465773L761.3428408939362,60.17821641050455L763.2537007588307,65.57936970460065L764.4260074244103,59.7149520992383L765.5983140899896,56.92573464147023L767.9429274211486,57.269187770360816L768.036711954395,95.07767693347887L770.5337251520792,75.97010929618062L771.7060318176588,67.40526834305177L772.9369538165173,105.46994459191632L773.1362459496656,131.29838802376514L774.3085526152452,91.4732186046848L775.4808592808247,74.70325245298409L776.9227964794874,101.05488286038616L776.9345195461432,141.7070163256874L778.1068262117227,94.22377866223758L779.2791328773022,74.95538482017213L781.6237462084611,66.5241055014643L783.9683595396201,63.74505515301911L786.2660806041558,58.52309626043399L786.3012498041232,99.05363185109303L786.4302035373371,131.3881112336858L787.6025102029164,89.81941371851309L788.7748168684959,75.0790234465644L793.4640435308139,66.29786754906291L794.6363501963933,64.88363641838924L795.8086568619727,61.05740855335705L796.9809635275523,57.75543321043665L798.1532701931318,57.61325509762776L799.6069304584504,56.96760904667491L800.7792371240298,56.18901659962626L801.9515437896093,56.90551845069274L803.1238504551887,57.10927443706112L804.1672033875545,53.41527104523453L804.4368339206377,82.29713044886938L804.5657876538515,115.02649532450067L805.7380943194311,83.73664609357246L805.8318788526774,119.52524098658267L807.0041855182569,87.02554844927533L809.3487988494157,75.27553995996726L810.5093824483396,64.92340985846363L811.6816891139189,61.51581529020655L812.8539957794984,59.5743204081698L814.0263024450779,58.725964064289144L814.3193791114728,87.3292562339193L815.4682396437407,70.16562946029688L816.9101768424034,64.0113414832071L818.0824835079829,60.1704144477452L819.2313440402509,55.77958110781577L820.4036507058304,54.777490571073145L821.5759573714097,55.80489318388874L822.7482640369892,55.35252026418311L825.0928773681482,55.6758946505264L826.2651840337277,58.21021090509163L828.867704831314,58.27099569174396L829.9462269636472,54.22770566419007L831.4233333622773,55.58427289280593L832.5956400278568,56.04095542622554L833.7679466934363,55.90447420825819L834.9402533590159,57.36476140142963L836.1125600245953,58.96588942666688L837.2379744235515,56.316550021970386L838.410281089131,55.19973237566688L840.75489442029,56.53249128134348L841.9272010858696,59.32235873790279L843.099507751449,58.94155045866859L844.2718144170284,59.937062412793125L845.7137516156912,59.554930272330466L846.8860582812707,57.26591899872699L848.0583649468502,58.05614301512384L849.2189485457739,58.138850925814154L849.3244561456759,96.68051064908116L849.3361792123318,137.33264411438242L855.1742664069176,95.74879612922098L856.3465730724971,74.36305694715418L856.4520806723991,110.41700132625328L856.463803739055,151.06913479155457L857.6361104046346,104.71871596974171L858.808417070214,80.7960037039748L860.0979544023514,117.12524081811682L862.3487832002639,90.32525679290296L864.8457963979482,75.24848168894687L866.0181030635277,64.32487081910728L867.1904097291073,61.17388500750246L868.3627163946867,57.978086796155935L871.0355755922079,55.419042286881506L871.3403753252586,83.20977288258479L873.6849886564175,70.79458678211978L874.857295321997,63.90272399958741L876.0296019875765,60.94943260812056L877.2019086531559,59.563370012777966L879.546521984315,57.28859373649078L880.7188286498945,57.867877167826464L881.8911353154738,57.24231579843672L883.0634419810533,55.654415372963285L884.2357486466328,55.661756751054384L885.4080553122124,54.083919854618046L886.5803619777919,54.55460969154626L887.7526686433713,54.767921971147814L888.9249753089507,53.95818819512709L890.2848510410229,55.65097570716972L890.3669125076135,95.30436614319746L892.7115258387726,75.44238761577071L895.0561391699314,65.31222481973356L896.2284458355109,64.3783327525843L898.5730591666699,59.856400682327546L900.9176724978288,59.706366382542114L902.0899791634083,57.70181748264923L903.2622858289877,56.29658998127155L904.1766850281398,57.721829509955114L907.5763743583202,59.58351040243417L908.7486810238997,56.50697235436894L909.9209876894793,58.33586535847968L911.0932943550586,62.05361924437733L913.4379076862176,59.087150986739516L914.6102143517971,57.30383608937609L915.7825210173767,55.739690110989784L916.9548276829561,57.689677212319L918.1271343485355,57.63179249020436L920.5303630129736,56.23068056751572L921.7143927452088,97.67124370973329L922.8866994107882,78.68729742236252L923.179776077183,108.45969225738742L924.3051904761394,80.70504603111914L925.7822968747695,107.36102260527088L926.7670344738563,79.394072097417L927.9393411394358,68.73110259060212L929.1116478050153,64.52325459162955L931.4562611361741,58.92203277654323L932.6285678017537,59.004558642388986L933.8008744673332,57.255382966683555L936.1454877984921,56.22028680054632L936.4620105981985,81.92736645633198L937.634317263778,70.55806188306593L937.7749940636476,106.69486384796642L940.1196073948065,80.58757483539284L941.291914060386,67.58638198802436L942.6166205924908,102.98900810626048L944.9612339236498,82.2691499245895L946.1335405892294,71.39238950468439L948.4781539203882,66.14202369642766L948.6891691201924,99.22336880446983L949.861475785772,76.10956595337512L951.0337824513515,68.92714121168797L953.3783957825104,64.82306295666223L955.7230091136694,60.12725328365599L955.9340243134737,94.6558106059311L955.9457473801294,135.30794407123233L957.118054045709,94.86225919966762L958.2903607112885,77.357820075208L959.462667376868,69.09596455575843L960.6349740424473,64.06533757209218L961.8072807080268,60.31198983434052L962.9795873736064,58.38238314126687L966.4378920370658,56.49316080829425L967.6101987026453,55.34493287066158L968.7825053682249,55.782569564455684L972.545609764735,55.09078750455757L973.7179164303144,53.34078590875731L974.8316077626149,51.10932051634478L976.0039144281944,54.50835244896297L977.0003750939369,54.2113640718963L978.4892045592228,82.79870076891683L979.6615112248023,70.45537674414072L979.849080291295,103.31361564694663L981.0213869568745,78.7000665938296L981.2324021566787,107.23772121896735L986.5546744184096,80.74804202862447L987.7269810839891,71.29851783426108L987.9262732171377,102.37770097129237L989.0985798827171,79.87756988928822L990.2708865482965,67.98758755753937L990.2826096149524,109.55439679741596L992.416207746307,80.93739571070319L993.4126684120497,65.08553183547485L994.584975077629,59.12488432814564L995.7572817432085,56.88556106958373L996.929588408788,55.68697077477435L998.0901720077117,55.087797972234284L999.1335249400776,51.28200666429905L1000.3058316056569,52.00728296694166L1001.4781382712364,52.64451634240521L1003.6820748025259,52.20936493372881L1003.8696438690185,85.13328003486049L1005.0419505345981,69.83332629934091L1006.2142572001776,63.46230139197456L1007.3865638657569,59.20728879412201L1008.5588705313364,56.98956507562423L1009.6491157303253,51.90452115781994L1010.9269299958071,87.51837313977455L1013.271543326966,72.54113400080922L1014.3148962593317,59.77340920160316L1015.4872029249112,56.032337725756804L1016.6595095904906,55.0457732902392L1017.83181625607,54.929462871484475L1020.1764295872291,54.59812586780595L1021.5363053193013,85.94579063599252L1022.6734427849134,72.13555483132535L1025.0180561160723,63.41117625837029L1027.3626694472312,59.81198990903073L1028.5349761128107,57.61300662566663L1028.8397758458614,86.91516630873781L1030.176205444622,120.10941434869216L1031.2195583769878,80.70202830613391L1032.3918650425674,68.51288073735464L1035.7446621061247,60.94731803771816L1036.916968771704,57.34121638676169L1037.9603217040699,53.440671015771215L1041.3951802342176,50.751934499847835L1041.4420725008408,89.97285687746722L1043.7866858319999,73.43740626855703L1044.9589924975792,65.69472082022497L1046.1312991631587,59.85807990804955L1047.3036058287382,57.27383477695173L1048.4759124943178,54.989255866516544L1049.5192654266834,53.03166335395002L1050.691572092263,52.7417759526341L1051.8638787578425,53.940118409708475L1053.036185423422,53.976369884338226L1053.2354775565702,84.16751886136922L1055.5683678210735,70.8471933910485L1056.740674486653,63.937841095786325L1057.9129811522325,60.25476478327295L1060.2693175500472,60.824604750227024L1061.3830088823477,55.76391916379407L1062.5553155479272,56.48067087865627L1063.7276222135067,56.150939403340374L1064.8999288790862,55.83035822460596L1066.0722355446658,55.96974591981888L1067.2210960769337,56.28055161559553L1068.4402950091362,56.63895790384288L1069.542263274781,56.08299084178816L1071.88687660594,54.86315103298068L1073.0591832715195,56.00492865747299L1074.1845976704756,55.20792497269389L1075.356904336055,55.81931481338876L1076.5292110016346,55.717808963393566L1077.7015176672141,55.43978834489485L1078.8738243327937,55.32828600042842L1080.0461309983732,56.066344299635944L1080.280592331489,85.47503927828649L1081.4528989970684,72.68770154376836L1082.6252056626479,66.09828810719364L1083.6216663283906,59.16207027428612L1084.7939729939699,56.86945050621591L1085.9662796595494,57.754618703684L1087.642678191328,72.07167009241505L1088.8149848569076,64.61627708878422L1089.987291522487,60.043628903415936L1091.1595981880664,60.106066920798355L1091.3940595211825,90.83496871648373L1091.405782587838,131.487102181785L1094.0317495187362,93.00018793021502L1096.44670124983,76.93966230267824L1098.791314580989,67.25699015196392L1099.9636212465684,60.80335988978811L1100.2332517796517,91.93193322714336L1101.3821123119196,74.84146793196072L1102.554418977499,65.7454018432361L1104.7583555087883,57.46117591595009L1105.9306621743679,57.06776902068884L1107.1029688399474,56.8686717904738L1108.275275505527,56.19905619239154L1109.4475821711062,57.2754824570801L1111.7921955022653,56.221477634340204L1112.096995235316,82.9330304567955L1113.2693019008955,73.6893828326306L1114.195424166703,67.036022865625L1114.8753620327393,74.67960726467959L1116.0476686983188,64.29470346629921L1117.2199753638981,60.28731276115741L1118.2750513629198,53.91421404074555L1119.4473580284994,56.74291116631275L1120.619664694079,56.50286891152166L1121.7919713596584,56.59689436313448L1124.1131385575056,56.09830453705291L1125.2854452230852,55.93284441610621L1127.6066124209326,55.53496416970631L1127.7003969541788,92.5611348028653L1128.8727036197583,78.46592027143294L1131.1587016176384,65.66613795177L1131.2055938842616,104.57100680335452L1132.3779005498411,83.26826748699654L1133.5502072154204,71.60687695606873L1134.722513881,67.76619991215199L1135.0390366807064,91.6770471154241L1137.3836500118653,75.62416130480881L1139.7282633430243,69.63251602711938L1142.0377074742157,62.00446810800389L1144.5464437385558,59.68612935099003L1145.7187504041353,58.57915931342421L1146.8910570697149,56.64386181071808L1148.0633637352944,57.66896397386279L1149.2356704008737,58.16399415803676L1150.4079770664532,56.4242811735067L1152.7525903976123,54.18985059265867L1153.9248970631918,54.435846928615206L1154.1007430630286,89.31814345150207L1155.2730497286082,72.82869963505766L1156.2929565276622,61.86762697024369L1157.4652631932418,60.70648504239432L1158.6375698588213,58.18319128730542L1159.8098765244008,56.443266245020766L1160.8649525234223,52.27904300946875L1162.0372591890016,53.725847665857316L1163.279904254516,92.61207447633103L1164.4522109200955,77.45477033737023L1165.624517585675,69.36311753074699L1167.969130916834,66.8122929099996L1169.1414375824133,62.74360233949335L1169.1531606490692,104.2517672744275L1170.3254673146487,78.32935533051705L1171.4977739802282,69.70599727071908L1172.6700806458075,64.7595687888861L1175.0146939769666,61.65008471951802L1175.9877085093974,57.60758548263891L1175.9994315760534,97.54869514784815L1177.1717382416327,75.61366241534756L1178.191645040687,65.33479985183698L1179.3639517062666,60.833835051509425L1180.5362583718459,59.67712383280593L1182.880871703005,59.24424705010239L1184.0531783685842,57.51296613662646L1185.2254850341637,55.20615412574233L1186.3977916997433,55.92205762357395L1187.5700983653228,56.21384754788056L1188.6837896976233,53.111499369238345L1189.8560963632028,56.061146977465L1190.0319423630397,94.32957728790245L1191.2042490286192,75.8191451885051L1193.5488623597782,67.40097998835813L1194.7211690253575,61.909064184852525L1197.0306131565492,56.76489492980818L1199.5627955542006,56.324669965741975L1200.7351022197802,56.987669720886686L1201.9074088853597,56.0677398924264L1202.2239316850662,96.71987335772764L1203.3962383506457,77.39277238009004L1204.568545016225,68.08509643197334L1206.913158347384,62.39399598519401L1208.003403546373,57.80279062959755L1209.1757102119525,56.45407191489244L1210.348016877532,55.6709644013315L1211.5086004764557,51.971651666265586L1212.680907142035,51.79265899295024L1213.8532138076146,55.261616485229354L1213.9821675408284,90.18820066969158L1216.3267808719872,70.91258423625612L1217.4990875375668,62.8679783866325L1218.6362250031789,57.08699069651203L1219.8085316687584,57.619082855367424L1220.8284384678125,54.44960882708767L1223.1730517989715,55.89846909149958L1224.345358464551,57.24512324027148L1224.5329275310437,89.86014706227905L1226.8775408622027,72.72195443879167L1228.049847527782,63.24705403062842L1231.5667675245206,61.15998282764775L1232.7390741901002,59.540463800148586L1233.9113808556797,57.69050523074668L1235.083687521259,58.072298662193646L1237.428300852418,56.14086874355735L1237.6393160522223,91.81146705299301L1238.8116227178018,75.57007667331084L1239.9839293833813,65.5044830793907L1241.1562360489606,62.062598819866764L1242.3285427145402,59.474705709609L1243.5008493801197,57.546806348695554L1244.673156045699,59.586463064014254L1247.017769376858,57.61331480676347L1248.1900760424376,56.91552705641777L1249.362382708017,56.99090899076958L1250.5346893735964,57.42926983724681L1251.706996039176,54.89043763524677L1252.8793027047554,55.670454509356716L1254.051609370335,55.58786199058267L1256.2086536350012,53.9378973268972L1257.3809603005807,53.01635479123928L1258.5532669661602,51.96263906336759L1259.7255736317397,52.954879650504154L1260.8978802973193,51.77028157131116L1262.0701869628986,52.91168733728216L1265.587106959637,54.32652022110864L1267.931720290796,55.49140220391638L1269.1040269563753,56.402566385936325L1270.2763336219548,54.884903774957365L1271.4486402875343,57.031827034392734L1272.6209469531138,56.183574007793595L1273.7932536186934,54.121871161937804L1274.965560284273,54.937348953103594L1276.1378669498522,55.14808390408871L1277.3101736154317,53.90932720273935L1278.4824802810112,55.37498957843678L1281.9994002777498,58.321629503019494L1283.1717069433291,56.02199251737704L1286.6886269400677,55.140255344411855L1286.8058576066255,92.00798724847368L1287.978164272205,75.84257228821525L1289.1504709377846,69.13651328900238L1289.3028708043098,103.59002096931744L1290.4751774698893,80.82235499046476" fill="none"></path></g></g></g></g><g opacity="0.2"><g><g><g><path style="fill: none;" stroke="rgb(255, 112, 67)" stroke-width="2px" d="M117.85198909070492,340.3177199152195L117.98094282391867,377.102662964571M118.1098965571324,355.36355894862265ZM118.29746562362511,391.5839941834094L118.44986549015044,327.465481655746M118.55537309005261,337.97954629717367L118.73121908988954,303.65540513445325M119.07118802290758,373.35875597980396L119.10635722287496,377.1668344438589L119.18841868946552,377.8561235540992L119.29392628936768,279.034191445228L119.31737242267927,391.5839941834094L119.52838762248356,293.4278185738925L119.77457202225527,320.95745926283894M120.41934068832397,229.37812977810705ZM121.12272468767165,304.127799531542L121.19306308760643,385.6702846756725L121.31029375416438,327.03100491120574L121.42752442072232,302.069335587268L121.76749335374038,301.6598197161624L122.00195468685627,260.9111528686831M122.10746228675842,336.9075045971106L122.1426314867258,351.23556243015616M122.21296988666057,370.86185063593075L122.25986215328376,312.85836289510183L122.29503135325115,455.9945652140411L122.3653697531859,352.63899491976133L122.5998310863018,264.6746759120897L122.70533868620396,308.09147460668066M122.83429241941771,305.33901289608406L122.99841535259883,624.1987605119867L123.19770748574734,218.3494004132921L123.22115361905892,391.5839941834094L123.37355348558425,241.70595505180114L123.54939948542118,517.5271214452373L123.92453761840662,195.48611043810195L124.26450655142466,250.15468105849573L124.68653695103326,176.61396816063933L124.90927521749339,223.40141785860712L125.17890575057665,189.85148922960158L125.54232081690628,166.17611175803773M126.10502801638444,169.79275834299366L126.48016614936988,155.58544326269623L126.60911988258361,288.059402087799L126.99598108222484,166.41191053914775M128.26207228105068,175.75413831932127L128.2855184143623,586.4756495836131L128.6489334806919,159.04667209260126L128.8482256138404,207.39853155243594L129.51644041322072,158.65627555769026L129.97364001279672,136.74423790055198L130.53634721227485,121.45772769022571L131.48591561139426,262.3428566733252L131.8258845444123,153.9075011354695L132.84579134346643,130.2161105384823L134.11188254229228,165.75821056622536M134.55735907521247,133.90147534751333L134.90905107488632,189.84105218432248L135.51865054098766,125.26467280909594L135.9055117406289,155.98921613644825L137.0074800062736,152.18452547800422L137.6170794723749,131.2148025655072L138.3087404050668,119.3805130281844L138.7659400046428,161.3767561969563L139.10590893766087,152.9067623447293L139.96169280353388,126.10112147808937L140.26649253658454,168.86968128748376L140.85264586937427,144.93222835712535L142.6462750677109,140.6272922292678L142.78695186758043,301.95308962160846L143.73652026669978,104.84986265237796L144.19371986627579,140.9168240074373L144.63919639919598,121.69220731259455L145.60048786497114,72.6457900885888L146.37421026425363,92.7851962488889L147.00725586366653,107.122458603707L147.85131666288376,83.70329598051649L148.17956252924603,278.76334420405135L149.1056847950538,68.11858444773657L149.60977666125297,126.6116350150968L150.23109919401008,112.7777080570711L151.62614412604967,82.4194589440861L152.04817452565828,134.58818982901087L152.18885132552785,208.63100193372267L153.18531199127037,142.1969600612824L154.0410958571434,90.62154712054661L154.66241838990052,108.06539878999689L156.2567554550886,121.93035728624457L156.807739587911,112.58481621069933L157.93315398686727,112.20523671714795M158.91789158595404,229.2743171963788L159.39853731884162,127.93838145237862L159.72678318520386,143.99456537156314L159.8791830517292,301.64137872901375L160.5473978511095,92.22835575257722L162.30585784947874,97.5331706671285L163.17336478200755,63.1079648178312L164.21671771437326,57.38118597449619L165.17800918014845,60.51970849491494L166.6433925121228,102.6827184424846L166.69028477874596,333.69245315659373L167.65157624452115,64.87693994983533L168.6949291768869,52.25844653213136L170.07825104227067,46.87588362101502L170.6761274417162,105.90752163330495L171.66086504080295,52.90394252630034L172.6338795732339,57.151187085236074L174.6971393046538,51.17758961549788L175.86944597023327,59.90610786919808L178.99950476733048,59.31834907365459L181.0158722321272,91.40451651200942L182.18817889770668,59.57682120143045L184.55623836217723,59.60303499561945L185.7285450277567,58.46663900098804L188.07315835891563,56.76721447495049L188.1552198255062,303.56149409043843L188.36623502531052,248.15107547759243L188.50691182518005,252.4115417703057L189.53854169089,47.057854867409844L192.72721582126619,51.44008589377012L193.8526302202225,53.797681523121526L194.11053768665,197.0062815821664L194.41533741970062,170.51702792263836L197.73296528329055,54.39299421527289L198.90527194887002,52.79970905922994L200.0658555477937,56.101604283361894L200.10102474776107,391.5839941834094L200.21825541431906,233.96220378137392L201.30850061330796,47.111142392374404L202.72699167865912,185.7966768807929M203.9110214108944,67.98604903115188L205.32951247624555,67.1422947863087L205.45846620945932,244.45438702902666L206.39631154192287,59.09613011630512L207.34587994104228,59.20285608687635L208.26027914019423,57.24980526978874L209.43258580577375,53.69161071347514L209.46775500574114,402.93782580949863L211.81236833690005,65.81506738985888L212.98467500247958,59.38594303779587L215.3292883336385,61.34606687961241M216.84156393223606,63.66146966683033L219.186177263395,60.741188225705116L219.4089155298551,228.61533385253745M220.59294526209035,64.59409567937058L221.76525192766985,60.09254651011776L221.80042112763724,421.36891255632725L222.9610047265609,61.57981887016928L224.27398819200994,59.47323994282476L226.44275552333198,211.36897781573367L226.71238605641523,183.84294507252872L227.88469272199472,60.012664723698606L229.0569993875742,55.89222651901065L230.34653671971162,237.4542265971944L231.98776605152287,121.28835043057745L234.33237938268184,59.59330332257156L236.50114671400388,47.918220304336955L237.95480697932243,161.44689133248852M238.29477591234047,160.32700648224508L239.46708257791994,64.09804539579551L240.59249697687628,55.59895649876114L242.9253872413794,53.678497655778415L242.9605564413468,391.5839941834094L245.16449297263625,50.596907342859936L246.3367996382157,53.303993366333486L246.5009225713968,239.3080940177814L248.72830523599785,47.87617473826367L254.4608848306815,51.166156425335316M256.8523904284636,58.840696422106646L258.13020469394525,56.4125453727051L258.259158427159,274.5028536597564L259.3962958927711,51.7691186865747L260.56860255835056,60.14903966724404L260.63894095828533,290.7617881657594L261.8112476238648,64.95559748245L262.9483850894769,51.6749231797092L264.1206917550564,59.633614617013905L264.2848146882375,216.90925908195663L265.457121353817,52.95122085771254L269.79465601646103,57.02992466881079L270.9669626820405,53.85073949350573L272.03376174771785,51.06592307322654L273.3115760131995,216.11212709382224L274.48388267877897,59.27496009070825L276.78160374331475,50.139122184215296L277.9539104088942,55.485815962292804L279.1262170744737,50.67214145686546L280.2164622734626,48.33417840962005L281.3887689390421,51.00644055845862L282.63141400455635,49.777188173840614L282.6783062711795,336.4224862553567L283.85061293675903,58.550815844354815L284.9877504023711,45.22576458941944L286.16005706795056,53.32279234275302L287.3206406668742,50.87797152037888L290.8258375969569,52.63787712572491L291.99814426253636,57.12464258462887L293.4752506611665,46.36092075438137L295.81986399232545,52.573332426175L297.2969703909556,51.81839451289761L299.64158372211455,54.71751486487216L300.813890387694,49.4906478392553L301.98619705327354,54.421934023553604L303.158503718853,54.56432046952949L304.3308103844325,52.759456578152594L305.4562247833888,50.94588506948418L306.62853144896826,56.61825485897333L306.92160811536314,165.07246170762272L308.0939147809426,52.666511790262575L309.2662214465221,55.74251163670954L310.43852811210155,55.78414129190969L312.7831414432605,54.302460771610924L313.95544810884,53.779806054365054L315.1277547744195,57.868378153989L316.30006143999896,55.190660683936756L318.6446747711579,56.626754174003395L320.98928810231683,60.32073556292437L321.094795702219,269.9333159451628L322.1850409012079,47.53324254798508L323.3573475667874,56.2574932768257L324.52965423236685,54.39020433515202L325.6902378312906,54.21004319910725L326.86254449687004,51.5611770218772L327.17906729657653,156.80682855594605L328.18725102897486,44.738119723524505L329.3595576945543,48.22853960956894L330.5318643601338,52.8337960107653L332.8764776912928,48.687952765714215L334.0487843568722,49.871334362631444L336.3933976880312,54.67196666153404L337.87050408666136,54.02388762885215L339.0428107522408,50.22980935100793L340.2151174178203,54.47077296955956L341.38742408339976,49.91113871214179L342.55973074897923,49.179025900439854L344.90434408013823,51.82888538011747L346.0766507457177,54.27001656543797L347.3661880778551,50.14244062103364L348.53849474343457,49.95800750515241L349.71080140901404,54.356794785831084L350.88310807459357,54.06159590381782L352.05541474017303,52.70588410616739L354.400028071332,57.50294872924877L355.57233473691144,55.63191151420608L356.7446414024909,55.13051219248416L357.91694806807044,57.20300297090307L360.57808419893587,176.1699201158867L361.937959931008,57.690117240369716L362.1958673974355,227.8195539012891L364.54048072859445,53.53414475149634L365.712787394174,57.04680375169494L366.8850940597534,56.59379056073868L368.2449697918256,55.068489056406804L369.4172764574051,52.1682516790591L371.761889788564,52.346965165133554L372.9928117874225,307.93673098209877L378.7019452487946,52.02087869738631L379.87425191437404,52.870359160326245L383.3911719111125,54.73028043576687L384.5634785766919,53.44225918272667L385.73578524227145,50.60236130761626L386.0523080419778,179.92633248849145L387.22461470755735,61.782628342724195L388.3969213731369,54.515845868220595M389.6981817719301,55.17794510018388L392.042795103089,48.90277455079098M395.7472841663201,54.9742943519318L396.91959083189965,55.830062704319175L399.2642041630586,56.01666419680589L400.4365108286381,50.77416837160513L401.60881749421753,52.260744139574285L402.781124159797,53.51898365484618L403.95343082537653,53.60455542384733L405.2546912241698,56.58110131529526L406.4269978897492,51.513659383072934L407.69308908857505,284.0916246880522L408.8653957541546,51.16136289401453L410.037702419734,50.31720742192152L411.21000908531346,55.04731825454587L412.382315750893,55.37294263393284L413.5546224164724,50.26998504838298L415.89923574763145,54.758867235230696L416.06335868081254,211.63720879011748L418.4079720119715,52.04534809092621L419.58027867755095,57.250787431037566L420.7525853431304,49.93473556566755L421.9248920087099,50.69036232347872L422.1241841418584,186.6248273016139M423.30821387409367,52.58370031379155L423.56612134052114,173.95546184137237L424.73842800610066,52.75331990655263L425.91073467168013,56.738403202621214L427.0830413372596,50.43483097159702L428.25534800283907,52.336610972551114L428.31396333611804,358.9214566343087L429.48627000169756,48.84804503883305L430.658576667277,48.54258434368188L433.00318999843597,49.914290083881724L434.17549666401544,51.43946031601615L437.4814014609496,47.18555489483202L438.65370812652907,47.69620414079861L442.3933663897276,54.24777850349352L442.827119855992,199.85099371120478L443.9994265215715,53.98466971743346L445.17173318715095,53.61484134279709L446.3440398527304,53.82399267023112L447.5163465183099,52.77548807209405L449.0168990502516,48.03946009795095L450.1892057158311,54.86185246739211L451.36151238141065,58.524669083361346L454.87843237814906,53.248799203080466L456.05073904372847,57.4400704693868L458.3953523748874,55.60479101011822L463.08457903720534,50.352231902613255L464.25688570278487,57.89494273245208L465.67537676813606,55.35558009466655L466.8476834337155,50.46136429492077M468.03171316595075,59.1995941632764L469.2040198315303,55.909697606843395L469.3095274314324,280.51306216410876L470.4818340970119,50.45995308048049M471.7479252958377,59.53544364668511L472.9202319614172,54.582038865419975L474.0925386269967,59.21594240447058L475.2648452925761,54.85274537887733L476.43715195815565,51.82201306874833L477.6094586237351,56.39779761692694L480.0947487547636,222.2546127286133L480.38782542115854,159.76344181527654L481.56013208673795,54.885657600296724L486.5189892821391,54.197439566733976L488.86360261329804,54.55041231417317L489.0863408797582,179.90318169667168L490.2586475453376,56.23834736630397L491.43095421091715,51.549392304091214L492.6032608764967,52.52830910267568L493.7755675420761,53.90855030540848L494.94787420765556,57.42235133121528L496.1201808732351,50.512343448822946L497.2924875388145,53.12754116250733L498.464794204394,53.825978770265976L498.6289171375751,217.07987958339902L499.80122380315464,57.34255474001674L500.97353046873417,56.39293928429203L502.1458371343136,57.056110999703435L502.3802984674295,224.9652080219503L503.55260513300897,63.53184190181315L504.72491179858844,55.53614902355707L507.0695251297474,51.09207008011134L508.2418317953269,56.19334747190027L509.4141384609063,57.662258871278766L509.9299533937613,216.44528081174323L511.17259845927555,54.74868795892388L513.5172117904345,56.817080450232936L514.689518456014,59.30167184202344L515.8618251215935,53.72164497372211L517.3389315202237,57.88812199459443L517.4209929868142,318.0350744789973M517.5265005867163,268.81727695567577L518.6988072522959,53.733251167416086L519.8711139178753,55.380039718828925L522.2157272490342,56.16501230236736L523.3880339146137,51.65784876896765L524.5603405801933,56.08390282119444L524.7948019133091,196.05109110588805L527.1394152444681,54.813381565581665L528.3117219100475,54.5657272451258L529.484028575627,53.04930375429535L529.7302129753987,208.11147687333764L530.9025196409782,52.29799342478509L532.0748263065576,53.38979331164347L533.2471329721371,52.90548386168308L534.4194396377167,52.73317707269712L534.7007932374556,177.0918190914057M535.8965460363468,52.83605866934653L537.0688527019262,54.257429707273616L538.2411593675057,50.135196793503326L540.5857726986646,52.97099668090436L541.7580793642442,55.596124020009086L542.9303860298237,54.21593433125497L545.2749993609825,60.723621182209115L545.591522160689,165.118089561563M547.9595816251596,54.48486923250914L549.131888290739,58.3382770844251L550.3041949563185,53.59496569702628L551.476501621898,57.67292746525851L552.6488082874774,57.79077935645489L553.821114953057,57.9837573462795L554.9934216186365,54.78578910287558L556.2477897508064,65.51248390214863L558.5924030819655,57.589646221329474L558.6627414819002,297.6347309626086L559.8350481474797,64.93286843425483L563.3519681442182,63.06198092314469L565.1690434758663,54.74415837925051L566.3413501414458,58.08615193347748L566.3765193414132,391.5839941834094L566.5992576078733,205.52147404957248L566.8102728076775,208.59004758174487L569.1548861388366,54.4480134344754L570.327192804416,57.98272938457592L573.8441128011544,58.61584566977683L574.0082357343356,235.40310039250943M576.3762951988061,60.362778885587204L577.5486018643857,54.79232259917012L579.6470307957728,78.58401389422079L580.8193374613523,53.6708812482413L581.9916441269319,52.37304044150841L582.8825971927722,57.03104922502666L584.0549038583517,52.33697860454663L584.2541959915002,201.76818384685313L585.4265026570797,58.030001820514315L586.5988093226591,53.34326681374654L587.7711159882386,53.555350832208376L588.9434226538182,56.84923186017278L590.1157293193976,51.85661001148179L591.2880359849771,52.89334342499495L592.4603426505566,57.137064635628406L593.632649316136,57.88338265942872L594.8049559817156,57.53514119488199L594.8870174483061,289.1709282555069M596.434462246871,177.3442755077962L598.77907557803,55.44226178987901L601.06507357591,52.40146871968801L602.2373802414894,52.95220307020264L603.4096869070689,58.01771508039883L604.5819935726483,56.71082175511191L605.7543002382279,55.37256070613449L606.0825461045902,173.48136936210514L607.2548527701696,49.53685686646588L607.5244833032529,197.20566687964586L608.6967899688323,54.46307158035529L611.0414032999913,56.82280596060724L612.2137099655707,55.24639396676463L612.3074944988172,271.0269633293131L613.4798011643966,55.75166757862809L614.6521078299761,50.64526994331328M616.1057680952946,53.16025710087058L617.2780747608741,47.60432901841506L618.4503814264535,54.11587057478374L619.6226880920331,52.78852195061978L620.7949947576126,52.97871015321573L621.967301423192,53.645672313371904L623.1396080887715,52.22472460417896L624.3119147543509,56.834294403955084L625.4842214199305,58.51135408076266L626.65652808551,57.94898840647164L627.8288347510894,60.27819486664089L629.0011414166689,59.26099666980184L629.4114487496217,214.26349443626714L630.8182167483171,214.22802765386146L633.1628300794761,53.70495207565875L635.448828077356,54.13095344370862L636.6211347429355,65.33532178513235L637.7465491418918,50.64383035505682L638.9188558074712,56.18893233612613L640.0911624730508,57.298018227802686L641.2634691386302,51.00058050521574L641.3103614052534,379.38663681280923M642.4943911374887,56.519208251421105L643.6666978030681,53.907599818347705L644.8390044686477,50.81535800734673L646.0113111342271,55.289477261183436L647.1836177998066,60.743430701799525L650.7005377965451,56.82318586686364L651.8728444621245,54.78039342128659L651.9197367287477,374.1351269911774L654.2643500599066,59.751029934123096L655.436656725486,52.602021074753964L657.7812700566451,59.33497378816929L658.9418536555687,55.239592539566104L659.2114841886521,204.5188099245913L659.5280069883585,182.16396744775506L660.6885905872822,58.065063435112734L661.8608972528616,54.32527513685062L664.3813565838575,278.271989682403L665.553663249437,58.99633274121629L665.8467399158319,212.38993246387827L668.355476180172,58.38405469246811L669.5277828457514,59.612121462417406L671.8723961769105,57.4745174076603L673.0447028424899,56.76337297183039L674.2170095080694,61.24753093940245L675.3893161736489,57.7236845786029L676.5616228392283,62.75764508820453L676.6202381725072,371.98118693602777M677.8042679047426,56.27771283833249L677.8746063046773,318.6335336504962M680.230942702492,54.27338040534454L681.4032493680716,58.765545795745936L682.5755560336511,59.30248369123075L682.7514020334879,216.07882138653372L683.7947549658537,51.660620780201555L683.9119856324116,222.85800387100025L685.084292297991,56.38526552235169L686.2565989635706,57.16523936645075L688.917735094436,54.113649918413614L690.0900417600154,58.240327354605654L692.4346550911745,53.343370714558716L693.6069617567539,57.726749332499026L694.7792684223334,55.58206109797686L695.9515750879129,54.20597305793484L697.1238817534924,63.99347104368144L698.2961884190719,65.2369869875235L699.6443410844882,55.4442709107675L700.7697554834446,51.33899212062482L701.942062149024,54.38656360096127L703.1143688146035,55.888641575579015M704.2983985468388,54.10640261674422L705.4355360124508,49.00298301529591L705.7403357455015,173.8026880679784L709.25725574224,54.388826977570204L710.4295624078194,55.09910953858997L712.7741757389783,56.598652151025476L713.9464824045579,56.823421047836064L715.1187890701374,67.78567599079531L716.2910957357169,57.84949134793345L718.6357090668757,57.859112886993614L720.9803223980348,59.90561893043491L722.1526290636142,54.49490940202935L723.3249357291937,55.438305925768645L724.4972423947731,62.1024645655649L725.6695490603527,64.90704693749689L725.7867797269106,283.44648177412887L726.0564102599939,201.30918341127813M728.4127466578086,58.95690035822315L728.447915857776,391.5839941834094L729.6202225233556,53.583674927574464L731.9531127878587,54.05519201161093L734.2977261190175,51.17089126871531L735.470032784597,58.269208654858744L735.7044941177129,210.52958309386986L736.8768007832924,56.015732965426025L738.049107448872,54.71619349415579L739.2214141144515,58.79054794231462L740.6633513131142,183.87808614366332L741.8356579786936,55.58191861116774L743.0079646442731,56.15893025953676L744.3912865096569,54.60298947291761L745.5635931752364,60.81617439967607L747.9082065063952,62.568627315888705L751.4251265031338,58.47471929239197L753.7697398342927,57.269614531327136L754.0628165006875,185.79577929564746M757.5914595640818,55.4042936092747L758.7637662296613,55.319179905993224L760.1705342283567,51.90309146377598L761.3428408939362,53.45545475702477L763.2537007588307,74.43756669054L764.4260074244103,51.65672981931044L765.5983140899896,52.91705774692855L767.9429274211486,57.787162795273844L768.036711954395,288.71586883899346L770.5337251520792,53.86510982157523L771.7060318176588,56.07191287764158L772.9369538165173,306.4941002516485L773.1362459496656,199.4160485962382L774.3085526152452,54.5387214976372L775.4808592808247,54.7470664455231L776.9227964794874,171.77842543329538M778.1068262117227,53.2207582795553L779.2791328773022,52.70693201076955L781.6237462084611,55.347055630745444L783.9683595396201,59.75038241367838L786.2660806041558,51.281338504679525L786.3012498041232,542.1848025174861L786.4302035373371,242.31727593434357L787.6025102029164,51.90497917755073L788.7748168684959,57.09063715253734L793.4640435308139,54.71256424214198L794.6363501963933,62.80832435578077L795.8086568619727,55.64233808328174L796.9809635275523,53.04595675380085L798.1532701931318,57.40046306999551L799.6069304584504,56.00885651718494L800.7792371240298,55.035226972141515L801.9515437896093,57.99251391550894L803.1238504551887,57.415889931763274L804.1672033875545,48.17713591904902L804.4368339206377,167.28594021869552L804.5657876538515,229.63236902097537L805.7380943194311,52.12767770939723L805.8318788526774,271.45558565484055L807.0041855182569,54.60365801299531L809.3487988494157,60.3759911447429L810.5093824483396,51.55181344705977L811.6816891139189,56.66330615941109L812.8539957794984,56.74809918216147L814.0263024450779,57.47014916995289L814.3193791114728,170.59236904354015L815.4682396437407,49.83901471372292L816.9101768424034,55.58959545140084L818.0824835079829,54.73571677672288L819.2313440402509,49.61664707946943L820.4036507058304,53.2976241863289L821.5759573714097,57.37130326320357L822.7482640369892,54.67874616177227L825.0928773681482,56.16343343831903L826.2651840337277,62.169752584824096L828.867704831314,58.36226001280647L829.9462269636472,48.52365875163173L831.4233333622773,57.66349295424192L832.5956400278568,56.730930965718244L833.7679466934363,55.70019025077488L834.9402533590159,59.60669756000078L836.1125600245953,61.42965201455138L837.2379744235515,52.500914949945525L838.410281089131,53.553354112082275L840.75489442029,58.574437571784074L841.9272010858696,63.69958116873727L843.099507751449,58.373733065441456L844.2718144170284,61.45407691969325L845.7137516156912,58.98515065832203L846.8860582812707,53.95130780256153L848.0583649468502,59.25638937177399L849.2189485457739,58.26307418571224L849.3244561456759,313.6830730263724M855.1742664069176,57.82599219311908L856.3465730724971,50.27584986471368L856.4520806723991,266.6807893724109M857.6361104046346,64.28062683469284L858.808417070214,54.62124439324822L860.0979544023514,278.16576853795164L862.3487832002639,61.92329785534281L864.8457963979482,56.92705873672264L866.0181030635277,50.32181699990997L867.1904097291073,56.669661600384245L868.3627163946867,53.412850115538845L871.0355755922079,51.72845069414535L871.3403753252586,161.67491845415796L873.6849886564175,55.18733760009701L874.857295321997,54.56927946418034L876.0296019875765,56.715347239462346L877.2019086531559,57.52851549057999L879.546521984315,53.99388750673677L880.7188286498945,58.744786170823375L881.8911353154738,56.313098202729066L883.0634419810533,53.330436106209106L884.2357486466328,55.672770088177856L885.4080553122124,51.774314008878264L886.5803619777919,55.26590584912174L887.7526686433713,55.088966305135784L888.9249753089507,52.75882913762962L890.2848510410229,58.25964793128537L890.3669125076135,371.2931811270842L892.7115258387726,52.66918179398999L895.0561391699314,52.18848242142178L896.2284458355109,62.99772725530681L898.5730591666699,53.52156960210573L900.9176724978288,59.481843964523705L902.0899791634083,54.78660025004035L903.2622858289877,54.23420574193733L904.1766850281398,59.908721862007496L907.5763743583202,62.460328061572625L908.7486810238997,52.10429118760163L909.9209876894793,61.16051167188658L911.0932943550586,67.97768703887425L913.4379076862176,54.835010726664905L914.6102143517971,54.70162463432092L915.7825210173767,53.449645660378394L916.9548276829561,60.70728322709783L918.1271343485355,57.54504427444016L920.5303630129736,54.17420685117287M922.8866994107882,56.692939125246085L923.179776077183,199.27484415701676L924.3051904761394,51.59488993427874L925.7822968747695,179.64884477238405L926.7670344738563,50.128419297090375L927.9393411394358,55.01486080877339L929.1116478050153,58.60134992204274L931.4562611361741,51.1964828335216L932.6285678017537,59.12850812483691L933.8008744673332,54.70165986413855L936.1454877984921,54.692456604428344L936.4620105981985,149.45492758816633L937.634317263778,56.069099355868104L937.7749940636476,264.3647190554602L940.1196073948065,52.708856068260786L941.291914060386,51.36565975422599L942.6166205924908,249.03283719031117L944.9612339236498,58.75040185644997L946.1335405892294,57.440745041283776L948.4781539203882,58.86384753993599L948.6891691201924,217.27255779083853L949.861475785772,50.587313621742055L951.0337824513515,59.23967849670828L953.3783957825104,59.038416736966894L955.7230091136694,53.56543937553232L955.9340243134737,228.87500241693567M957.118054045709,57.57515355354792L958.2903607112885,56.71335996913382L959.462667376868,58.11801121648284L960.6349740424473,57.069647458965505L961.8072807080268,54.994358417431556L962.9795873736064,55.572960265296445L966.4378920370658,53.74084744147427L967.6101987026453,53.65306900404664L968.7825053682249,56.44357047068485L972.545609764735,54.064260703837704L973.7179164303144,50.78588914743102L974.8316077626149,47.87522896851215L976.0039144281944,59.89565275649022L977.0003750939369,53.76794933692861L978.4892045592228,165.96427557275416L979.6615112248023,54.92399733033244L979.849080291295,219.16124769087793L981.0213869568745,51.97741787234878L981.2324021566787,190.10047074197715L986.5546744184096,52.57948953649225L987.7269810839891,58.94401448958354L987.9262732171377,202.73672464155993L989.0985798827171,54.85841953741897L990.2708865482965,52.938100006159004M992.416207746307,51.20006479231415L993.4126684120497,46.00727509149033L994.584975077629,50.94564982919911L995.7572817432085,53.640466359308334L996.929588408788,53.922268231473026L998.0901720077117,54.19741331124999L999.1335249400776,45.89423836637974L1000.3058316056569,53.107743670411026L1001.4781382712364,53.61003702769068L1003.6820748025259,51.56106695537636L1003.8696438690185,201.62204999256443L1005.0419505345981,51.29248448290622L1006.2142572001776,54.77068740528705L1007.3865638657569,53.22313571117422L1008.5588705313364,53.774721900449435L1009.6491157303253,44.8387089444135L1010.9269299958071,236.72606339347112L1013.271543326966,54.31796471265261L1014.3148962593317,43.79599049688636L1015.4872029249112,50.731139925993716L1016.6595095904906,53.588486336533606L1017.83181625607,54.755315357159645L1020.1764295872291,54.10369269759934L1021.5363053193013,188.43704656472974L1022.6734427849134,55.08285089642635L1025.0180561160723,51.891859642364466L1027.3626694472312,54.701157840709755L1028.5349761128107,54.42442660356494L1028.8397758458614,174.59262661845202L1030.176205444622,239.2987708758033L1031.2195583769878,44.00738173541163L1032.3918650425674,53.14475249147921L1035.7446621061247,50.79739361893087L1036.916968771704,52.22108769105927L1037.9603217040699,47.9264541332106L1041.3951802342176,46.8818468320045L1041.4420725008408,337.5457178820743L1043.7866858319999,53.703595224797084L1044.9589924975792,55.33265491296788L1046.1312991631587,51.83484922643771L1047.3036058287382,53.54831044652275L1048.4759124943178,51.68084158116034L1049.5192654266834,50.18270536452411L1050.691572092263,52.30891521303522L1051.8638787578425,55.77216071604346L1053.036185423422,54.030778078024696L1053.2354775565702,177.90150636793035L1055.5683678210735,54.296239010338695L1056.740674486653,54.58300623632908L1057.9129811522325,55.03128244495622L1060.2693175500472,61.68708913655553L1061.3830088823477,48.72948172675382L1062.5553155479272,57.5680497314159L1063.7276222135067,55.65888972510572L1064.8999288790862,55.35189492790431L1066.0722355446658,56.17928629615653L1067.2210960769337,56.74904806002178L1068.4402950091362,57.17961213920387L1069.542263274781,55.256255738467814L1071.88687660594,53.0677492875252L1073.0591832715195,57.7489105577709L1074.1845976704756,54.027188682147994L1075.356904336055,56.74529779924893L1076.5292110016346,55.56579253387417L1077.7015176672141,55.02457012280155L1078.8738243327937,55.1613248640802L1080.0461309983732,57.186426939861406L1080.280592331489,173.85100018158334L1081.4528989970684,56.68978750246799L1082.6252056626479,57.1364107951278L1083.6216663283906,49.774398209017875L1084.7939729939699,53.54979486566941L1085.9662796595494,59.10110977503854L1087.642678191328,99.96388091129052L1088.8149848569076,54.598828816834214L1089.987291522487,53.64247395734412L1091.1595981880664,60.199815895111385L1091.3940595211825,188.5056321302515M1094.0317495187362,56.84105255441062L1096.44670124983,57.66012898051457L1098.791314580989,54.637408991499285L1099.9636212465684,52.009323719151155L1100.2332517796517,192.6784057743881L1101.3821123119196,54.5834283655019L1102.554418977499,53.79594865459302L1104.7583555087883,46.456881358965234L1105.9306621743679,56.48128130184193L1107.1029688399474,56.57095678558818L1108.275275505527,55.20508004429519L1109.4475821711062,58.91792397621521L1111.7921955022653,54.666191335091355L1112.096995235316,155.51050897308446L1113.2693019008955,61.57033692266731L1114.195424166703,57.99532283049655L1114.8753620327393,87.72710133307021L1116.0476686983188,50.886634893565656L1117.2199753638981,54.630932198630376L1118.2750513629198,45.2200258223732L1119.4473580284994,61.18390816012993L1120.619664694079,56.14415767531932L1121.7919713596584,56.73814116551489L1124.1131385575056,55.356228346469265L1125.2854452230852,55.685297478086L1127.6066124209326,54.941849001293406L1127.7003969541788,267.24693605004035L1128.8727036197583,61.124207713294766L1131.1587016176384,49.655224788587816L1131.2055938842616,336.4224862553567L1132.3779005498411,59.25143729015343L1133.5502072154204,56.80253787779179L1134.722513881,62.33183597385431L1135.0390366807064,151.04067306836956L1137.3836500118653,56.35197913917534L1139.7282633430243,61.414371089542726L1142.0377074742157,51.779586079689295L1144.5464437385558,56.33053608847905L1145.7187504041353,56.94705053836424L1146.8910570697149,53.82639690290523L1148.0633637352944,59.231809188336456L1149.2356704008737,58.9123614593546L1150.4079770664532,53.884006961517116L1152.7525903976123,50.95160666340587L1153.9248970631918,54.806273100440535L1154.1007430630286,228.09794600750797L1155.2730497286082,53.138663763469424L1156.2929565276622,47.82351167051763L1157.4652631932418,58.995933022064605L1158.6375698588213,54.54220219278767L1159.8098765244008,53.90269060261892L1160.8649525234223,46.41479110235025L1162.0372591890016,55.94660156739309L1163.279904254516,323.6282643796684L1164.4522109200955,59.054034202801404L1165.624517585675,58.586107720859104L1167.969130916834,63.133101318849754L1169.1414375824133,57.00585934728525M1170.3254673146487,50.59164612677489L1171.4977739802282,58.30433897886371L1172.6700806458075,57.87259416173782L1175.0146939769666,57.202439474562766L1175.9877085093974,51.90458802597357L1175.9994315760534,400.43494402311615L1177.1717382416327,51.06409722726028L1178.191645040687,52.044854029446526L1179.3639517062666,54.52645238242121L1180.5362583718459,57.97298276468166L1182.880871703005,58.59931499332197L1184.0531783685842,54.984679304959684L1185.2254850341637,51.86666395721136L1186.3977916997433,57.00813499492631L1187.5700983653228,56.65354829549699L1188.6837896976233,48.67358931267796L1189.8560963632028,60.70132355808573L1190.0319423630397,301.7796707037502L1191.2042490286192,54.251614322739215L1193.5488623597782,56.23930814415553L1194.7211690253575,54.322408739415835L1197.0306131565492,49.623017558456354L1199.5627955542006,55.66886515556348L1200.7351022197802,57.99264242579517L1201.9074088853597,54.70748180574276M1203.3962383506457,55.09209056649212L1204.568545016225,55.892682471022965L1206.913158347384,54.55456164846265L1208.003403546373,51.37739195212106L1209.1757102119525,54.47290700972627L1210.348016877532,54.51056510701204L1211.5086004764557,46.726398617457505L1212.680907142035,51.524922577487075L1213.8532138076146,60.766186856148636L1213.9821675408284,229.55932571266933L1216.3267808719872,48.657701895051275L1217.4990875375668,52.14667845632869L1218.6362250031789,49.13395210961852L1219.8085316687584,58.423951742385725L1220.8284384678125,49.92020338920196L1223.1730517989715,58.122451938849906L1224.345358464551,59.30882013226176L1224.5329275310437,203.3819318249749L1226.8775408622027,52.41916559574497L1228.049847527782,50.863618588206066L1231.5667675245206,58.12854799236027L1232.7390741901002,57.17135338299454L1233.9113808556797,54.99378382537611L1235.083687521259,58.64844530738878L1237.428300852418,53.32886920472521L1237.6393160522223,241.8924937346093L1238.8116227178018,56.11691586266386L1239.9839293833813,52.453115590159655L1241.1562360489606,57.16374954355092L1242.3285427145402,55.74412678970572L1243.5008493801197,54.739796479082486L1244.673156045699,62.747446843950684L1247.017769376858,54.74239596656008L1248.1900760424376,55.8801849673016L1249.362382708017,57.104115944538535L1250.5346893735964,58.09137208476602L1251.706996039176,51.22788313627075L1252.8793027047554,56.85500492936359L1254.051609370335,55.46413371113454L1256.2086536350012,51.52537110733806L1257.3809603005807,51.65374603047235L1258.5532669661602,50.407772420690264L1259.7255736317397,54.46682997593507L1260.8978802973193,50.02580454783964L1262.0701869628986,54.655090855661L1265.587106959637,56.49708049950573L1267.931720290796,57.27133374936443L1269.1040269563753,57.78917706223626L1270.2763336219548,52.66133515721913L1271.4486402875343,60.36487832492202L1272.6209469531138,54.92791004567056L1273.7932536186934,51.12613213880371L1274.965560284273,56.176451031403246L1276.1378669498522,55.46523635737742L1277.3101736154317,52.08661304916723L1278.4824802810112,57.625373196944395L1281.9994002777498,62.95684334718021L1283.1717069433291,52.692528825818385L1286.6886269400677,53.835700922424394L1286.8058576066255,263.3688705480255L1287.978164272205,56.462252567283315L1289.1504709377846,60.03096074637216L1289.3028708043098,236.876846044304L1290.4751774698893,55.58300507953112" fill="none"></path></g></g></g></g></g></g><g transform="translate(39, 374)" clip-path="url(#clip_1)"><clipPath id="clip_1"><rect width="1406" height="25"></rect></clipPath><g><g><line x1="0" y1="0" x2="0" y2="5" style="visibility: inherit;" fill="rgb(0, 0, 0)" stroke="rgb(204, 204, 204)" stroke-width="1px"></line><line x1="117.23066655794779" y1="0" x2="117.23066655794779" y2="5" style="visibility: inherit;" fill="rgb(0, 0, 0)" stroke="rgb(204, 204, 204)" stroke-width="1px"></line><line x1="234.46133311589557" y1="0" x2="234.46133311589557" y2="5" style="visibility: inherit;" fill="rgb(0, 0, 0)" stroke="rgb(204, 204, 204)" stroke-width="1px"></line><line x1="351.6919996738434" y1="0" x2="351.6919996738434" y2="5" style="visibility: inherit;" fill="rgb(0, 0, 0)" stroke="rgb(204, 204, 204)" stroke-width="1px"></line><line x1="468.92266623179114" y1="0" x2="468.92266623179114" y2="5" style="visibility: inherit;" fill="rgb(0, 0, 0)" stroke="rgb(204, 204, 204)" stroke-width="1px"></line><line x1="586.153332789739" y1="0" x2="586.153332789739" y2="5" style="visibility: inherit;" fill="rgb(0, 0, 0)" stroke="rgb(204, 204, 204)" stroke-width="1px"></line><line x1="703.3839993476868" y1="0" x2="703.3839993476868" y2="5" style="visibility: inherit;" fill="rgb(0, 0, 0)" stroke="rgb(204, 204, 204)" stroke-width="1px"></line><line x1="820.6146659056346" y1="0" x2="820.6146659056346" y2="5" style="visibility: inherit;" fill="rgb(0, 0, 0)" stroke="rgb(204, 204, 204)" stroke-width="1px"></line><line x1="937.8453324635823" y1="0" x2="937.8453324635823" y2="5" style="visibility: inherit;" fill="rgb(0, 0, 0)" stroke="rgb(204, 204, 204)" stroke-width="1px"></line><line x1="1055.0759990215302" y1="0" x2="1055.0759990215302" y2="5" style="visibility: inherit;" fill="rgb(0, 0, 0)" stroke="rgb(204, 204, 204)" stroke-width="1px"></line><line x1="1172.306665579478" y1="0" x2="1172.306665579478" y2="5" style="visibility: inherit;" fill="rgb(0, 0, 0)" stroke="rgb(204, 204, 204)" stroke-width="1px"></line><line x1="1289.5373321374257" y1="0" x2="1289.5373321374257" y2="5" style="visibility: inherit;" fill="rgb(0, 0, 0)" stroke="rgb(204, 204, 204)" stroke-width="1px"></line><line x1="1406.7679986953735" y1="0" x2="1406.7679986953735" y2="5" style="visibility: inherit;" fill="rgb(0, 0, 0)" stroke="rgb(204, 204, 204)" stroke-width="1px"></line></g><g transform="translate(0, 8)"><text style="text-anchor: middle; visibility: hidden; font-family: &quot;Helvetica Neue&quot;, sans-serif; font-size: 12px; font-weight: 200;" x="0" y="0" dx="0em" dy="0.95em" fill="rgb(50, 49, 63)" stroke="none" stroke-width="1px">-10k</text><text style="text-anchor: middle; visibility: inherit; font-family: &quot;Helvetica Neue&quot;, sans-serif; font-size: 12px; font-weight: 200;" x="117.23066655794779" y="0" dx="0em" dy="0.95em" fill="rgb(50, 49, 63)" stroke="none" stroke-width="1px">0</text><text style="text-anchor: middle; visibility: inherit; font-family: &quot;Helvetica Neue&quot;, sans-serif; font-size: 12px; font-weight: 200;" x="234.46133311589557" y="0" dx="0em" dy="0.95em" fill="rgb(50, 49, 63)" stroke="none" stroke-width="1px">10k</text><text style="text-anchor: middle; visibility: inherit; font-family: &quot;Helvetica Neue&quot;, sans-serif; font-size: 12px; font-weight: 200;" x="351.6919996738434" y="0" dx="0em" dy="0.95em" fill="rgb(50, 49, 63)" stroke="none" stroke-width="1px">20k</text><text style="text-anchor: middle; visibility: inherit; font-family: &quot;Helvetica Neue&quot;, sans-serif; font-size: 12px; font-weight: 200;" x="468.92266623179114" y="0" dx="0em" dy="0.95em" fill="rgb(50, 49, 63)" stroke="none" stroke-width="1px">30k</text><text style="text-anchor: middle; visibility: inherit; font-family: &quot;Helvetica Neue&quot;, sans-serif; font-size: 12px; font-weight: 200;" x="586.153332789739" y="0" dx="0em" dy="0.95em" fill="rgb(50, 49, 63)" stroke="none" stroke-width="1px">40k</text><text style="text-anchor: middle; visibility: inherit; font-family: &quot;Helvetica Neue&quot;, sans-serif; font-size: 12px; font-weight: 200;" x="703.3839993476868" y="0" dx="0em" dy="0.95em" fill="rgb(50, 49, 63)" stroke="none" stroke-width="1px">50k</text><text style="text-anchor: middle; visibility: inherit; font-family: &quot;Helvetica Neue&quot;, sans-serif; font-size: 12px; font-weight: 200;" x="820.6146659056346" y="0" dx="0em" dy="0.95em" fill="rgb(50, 49, 63)" stroke="none" stroke-width="1px">60k</text><text style="text-anchor: middle; visibility: inherit; font-family: &quot;Helvetica Neue&quot;, sans-serif; font-size: 12px; font-weight: 200;" x="937.8453324635823" y="0" dx="0em" dy="0.95em" fill="rgb(50, 49, 63)" stroke="none" stroke-width="1px">70k</text><text style="text-anchor: middle; visibility: inherit; font-family: &quot;Helvetica Neue&quot;, sans-serif; font-size: 12px; font-weight: 200;" x="1055.0759990215302" y="0" dx="0em" dy="0.95em" fill="rgb(50, 49, 63)" stroke="none" stroke-width="1px">80k</text><text style="text-anchor: middle; visibility: inherit; font-family: &quot;Helvetica Neue&quot;, sans-serif; font-size: 12px; font-weight: 200;" x="1172.306665579478" y="0" dx="0em" dy="0.95em" fill="rgb(50, 49, 63)" stroke="none" stroke-width="1px">90k</text><text style="text-anchor: middle; visibility: inherit; font-family: &quot;Helvetica Neue&quot;, sans-serif; font-size: 12px; font-weight: 200;" x="1289.5373321374257" y="0" dx="0em" dy="0.95em" fill="rgb(50, 49, 63)" stroke="none" stroke-width="1px">100k</text><text style="text-anchor: middle; visibility: hidden; font-family: &quot;Helvetica Neue&quot;, sans-serif; font-size: 12px; font-weight: 200;" x="1406.7679986953735" y="0" dx="0em" dy="0.95em" fill="rgb(50, 49, 63)" stroke="none" stroke-width="1px">110k</text></g><line x1="0" y1="0" x2="1406.7679986953735" y2="0" fill="rgb(0, 0, 0)" stroke="rgb(204, 204, 204)" stroke-width="1px"></line></g></g></g></g></svg>