<svg viewBox="0 0 1434 400" xmlns="http://www.w3.org/2000/svg"><g><g><g><g><g><line x1="39.232001304626465" y1="374.5999984741211" x2="34.232001304626465" y2="374.5999984741211" style="visibility: inherit;" fill="rgb(0, 0, 0)" stroke="rgb(204, 204, 204)" stroke-width="1px"></line><line x1="39.232001304626465" y1="332.977776421441" x2="34.232001304626465" y2="332.977776421441" style="visibility: inherit;" fill="rgb(0, 0, 0)" stroke="rgb(204, 204, 204)" stroke-width="1px"></line><line x1="39.232001304626465" y1="291.35555436876086" x2="34.232001304626465" y2="291.35555436876086" style="visibility: inherit;" fill="rgb(0, 0, 0)" stroke="rgb(204, 204, 204)" stroke-width="1px"></line><line x1="39.232001304626465" y1="249.73333231608075" x2="34.232001304626465" y2="249.73333231608075" style="visibility: inherit;" fill="rgb(0, 0, 0)" stroke="rgb(204, 204, 204)" stroke-width="1px"></line><line x1="39.232001304626465" y1="208.1111102634006" x2="34.232001304626465" y2="208.1111102634006" style="visibility: inherit;" fill="rgb(0, 0, 0)" stroke="rgb(204, 204, 204)" stroke-width="1px"></line><line x1="39.232001304626465" y1="166.4888882107205" x2="34.232001304626465" y2="166.4888882107205" style="visibility: inherit;" fill="rgb(0, 0, 0)" stroke="rgb(204, 204, 204)" stroke-width="1px"></line><line x1="39.232001304626465" y1="124.86666615804037" x2="34.232001304626465" y2="124.86666615804037" style="visibility: inherit;" fill="rgb(0, 0, 0)" stroke="rgb(204, 204, 204)" stroke-width="1px"></line><line x1="39.232001304626465" y1="83.24444410536023" x2="34.232001304626465" y2="83.24444410536023" style="visibility: inherit;" fill="rgb(0, 0, 0)" stroke="rgb(204, 204, 204)" stroke-width="1px"></line><line x1="39.232001304626465" y1="41.622222052680115" x2="34.232001304626465" y2="41.622222052680115" style="visibility: inherit;" fill="rgb(0, 0, 0)" stroke="rgb(204, 204, 204)" stroke-width="1px"></line><line x1="39.232001304626465" y1="0" x2="34.232001304626465" y2="0" style="visibility: inherit;" fill="rgb(0, 0, 0)" stroke="rgb(204, 204, 204)" stroke-width="1px"></line></g><g transform="translate(29.232001304626465, 0)"><text style="text-anchor: end; visibility: hidden; font-family: &quot;Helvetica Neue&quot;, sans-serif; font-size: 12px; font-weight: 200;" x="0" y="374.5999984741211" dx="0em" dy="0.3em" fill="rgb(50, 49, 63)" stroke="none" stroke-width="1px">-20</text><text style="text-anchor: end; visibility: inherit; font-family: &quot;Helvetica Neue&quot;, sans-serif; font-size: 12px; font-weight: 200;" x="0" y="332.977776421441" dx="0em" dy="0.3em" fill="rgb(50, 49, 63)" stroke="none" stroke-width="1px">-10</text><text style="text-anchor: end; visibility: inherit; font-family: &quot;Helvetica Neue&quot;, sans-serif; font-size: 12px; font-weight: 200;" x="0" y="291.35555436876086" dx="0em" dy="0.3em" fill="rgb(50, 49, 63)" stroke="none" stroke-width="1px">0</text><text style="text-anchor: end; visibility: inherit; font-family: &quot;Helvetica Neue&quot;, sans-serif; font-size: 12px; font-weight: 200;" x="0" y="249.73333231608075" dx="0em" dy="0.3em" fill="rgb(50, 49, 63)" stroke="none" stroke-width="1px">10</text><text style="text-anchor: end; visibility: inherit; font-family: &quot;Helvetica Neue&quot;, sans-serif; font-size: 12px; font-weight: 200;" x="0" y="208.1111102634006" dx="0em" dy="0.3em" fill="rgb(50, 49, 63)" stroke="none" stroke-width="1px">20</text><text style="text-anchor: end; visibility: inherit; font-family: &quot;Helvetica Neue&quot;, sans-serif; font-size: 12px; font-weight: 200;" x="0" y="166.4888882107205" dx="0em" dy="0.3em" fill="rgb(50, 49, 63)" stroke="none" stroke-width="1px">30</text><text style="text-anchor: end; visibility: inherit; font-family: &quot;Helvetica Neue&quot;, sans-serif; font-size: 12px; font-weight: 200;" x="0" y="124.86666615804037" dx="0em" dy="0.3em" fill="rgb(50, 49, 63)" stroke="none" stroke-width="1px">40</text><text style="text-anchor: end; visibility: inherit; font-family: &quot;Helvetica Neue&quot;, sans-serif; font-size: 12px; font-weight: 200;" x="0" y="83.24444410536023" dx="0em" dy="0.3em" fill="rgb(50, 49, 63)" stroke="none" stroke-width="1px">50</text><text style="text-anchor: end; visibility: inherit; font-family: &quot;Helvetica Neue&quot;, sans-serif; font-size: 12px; font-weight: 200;" x="0" y="41.622222052680115" dx="0em" dy="0.3em" fill="rgb(50, 49, 63)" stroke="none" stroke-width="1px">60</text><text style="text-anchor: end; visibility: hidden; font-family: &quot;Helvetica Neue&quot;, sans-serif; font-size: 12px; font-weight: 200;" x="0" y="0" dx="0em" dy="0.3em" fill="rgb(50, 49, 63)" stroke="none" stroke-width="1px">70</text></g><line x1="39.232001304626465" y1="0" x2="39.232001304626465" y2="374.5999984741211" fill="rgb(0, 0, 0)" stroke="rgb(204, 204, 204)" stroke-width="1px"></line></g></g><g transform="translate(39, 0)" clip-path="url(#clip_0)"><clipPath id="clip_0"><rect width="1394" height="374"></rect></clipPath><g><g><g><line x1="0" y1="0" x2="0" y2="374.5999984741211" fill="rgb(0, 0, 0)" stroke="rgb(60, 60, 60)" stroke-width="1px" opacity="0.25"></line><line x1="116.23066655794779" y1="0" x2="116.23066655794779" y2="374.5999984741211" fill="rgb(0, 0, 0)" stroke="rgb(60, 60, 60)" stroke-width="1px" opacity="0.25"></line><line x1="232.46133311589557" y1="0" x2="232.46133311589557" y2="374.5999984741211" fill="rgb(0, 0, 0)" stroke="rgb(60, 60, 60)" stroke-width="1px" opacity="0.25"></line><line x1="348.6919996738434" y1="0" x2="348.6919996738434" y2="374.5999984741211" fill="rgb(0, 0, 0)" stroke="rgb(60, 60, 60)" stroke-width="1px" opacity="0.25"></line><line x1="464.92266623179114" y1="0" x2="464.92266623179114" y2="374.5999984741211" fill="rgb(0, 0, 0)" stroke="rgb(60, 60, 60)" stroke-width="1px" opacity="0.25"></line><line x1="581.153332789739" y1="0" x2="581.153332789739" y2="374.5999984741211" fill="rgb(0, 0, 0)" stroke="rgb(60, 60, 60)" stroke-width="1px" opacity="0.25"></line><line x1="697.3839993476868" y1="0" x2="697.3839993476868" y2="374.5999984741211" fill="rgb(0, 0, 0)" stroke="rgb(60, 60, 60)" stroke-width="1px" opacity="0.25"></line><line x1="813.6146659056346" y1="0" x2="813.6146659056346" y2="374.5999984741211" fill="rgb(0, 0, 0)" stroke="rgb(60, 60, 60)" stroke-width="1px" opacity="0.25"></line><line x1="929.8453324635823" y1="0" x2="929.8453324635823" y2="374.5999984741211" fill="rgb(0, 0, 0)" stroke="rgb(60, 60, 60)" stroke-width="1px" opacity="0.25"></line><line x1="1046.0759990215302" y1="0" x2="1046.0759990215302" y2="374.5999984741211" fill="rgb(0, 0, 0)" stroke="rgb(60, 60, 60)" stroke-width="1px" opacity="0.25"></line><line x1="1162.306665579478" y1="0" x2="1162.306665579478" y2="374.5999984741211" fill="rgb(0, 0, 0)" stroke="rgb(60, 60, 60)" stroke-width="1px" opacity="0.25"></line><line x1="1278.5373321374257" y1="0" x2="1278.5373321374257" y2="374.5999984741211" fill="rgb(0, 0, 0)" stroke="rgb(60, 60, 60)" stroke-width="1px" opacity="0.25"></line><line x1="1394.7679986953735" y1="0" x2="1394.7679986953735" y2="374.5999984741211" fill="rgb(0, 0, 0)" stroke="rgb(60, 60, 60)" stroke-width="1px" opacity="0.25"></line></g><g><line x1="0" y1="374.5999984741211" x2="1394.7679986953735" y2="374.5999984741211" fill="rgb(0, 0, 0)" stroke="rgb(60, 60, 60)" stroke-width="1px" opacity="0.25"></line><line x1="0" y1="332.977776421441" x2="1394.7679986953735" y2="332.977776421441" fill="rgb(0, 0, 0)" stroke="rgb(60, 60, 60)" stroke-width="1px" opacity="0.25"></line><line x1="0" y1="291.35555436876086" x2="1394.7679986953735" y2="291.35555436876086" fill="rgb(0, 0, 0)" stroke="rgb(60, 60, 60)" stroke-width="1px" opacity="0.25"></line><line x1="0" y1="249.73333231608075" x2="1394.7679986953735" y2="249.73333231608075" fill="rgb(0, 0, 0)" stroke="rgb(60, 60, 60)" stroke-width="1px" opacity="0.25"></line><line x1="0" y1="208.1111102634006" x2="1394.7679986953735" y2="208.1111102634006" fill="rgb(0, 0, 0)" stroke="rgb(60, 60, 60)" stroke-width="1px" opacity="0.25"></line><line x1="0" y1="166.4888882107205" x2="1394.7679986953735" y2="166.4888882107205" fill="rgb(0, 0, 0)" stroke="rgb(60, 60, 60)" stroke-width="1px" opacity="0.25"></line><line x1="0" y1="124.86666615804037" x2="1394.7679986953735" y2="124.86666615804037" fill="rgb(0, 0, 0)" stroke="rgb(60, 60, 60)" stroke-width="1px" opacity="0.25"></line><line x1="0" y1="83.24444410536023" x2="1394.7679986953735" y2="83.24444410536023" fill="rgb(0, 0, 0)" stroke="rgb(60, 60, 60)" stroke-width="1px" opacity="0.25"></line><line x1="0" y1="41.622222052680115" x2="1394.7679986953735" y2="41.622222052680115" fill="rgb(0, 0, 0)" stroke="rgb(60, 60, 60)" stroke-width="1px" opacity="0.25"></line><line x1="0" y1="0" x2="1394.7679986953735" y2="0" fill="rgb(0, 0, 0)" stroke="rgb(60, 60, 60)" stroke-width="1px" opacity="0.25"></line></g></g></g><g><g><line x1="0" y1="291.35555436876086" x2="1394.7679986953735" y2="291.35555436876086" fill="rgb(0, 0, 0)" stroke="rgb(153, 153, 153)" stroke-width="1.5px"></line></g></g><g><g><line x1="116.23066655794779" y1="0" x2="116.23066655794779" y2="374.5999984741211" fill="rgb(0, 0, 0)" stroke="rgb(153, 153, 153)" stroke-width="1.5px"></line></g></g><g><g><g><g><g><path style="fill: none;" stroke="rgb(0, 119, 187)" stroke-width="2px" d="M116.46312789106369,295.51777657402886L116.69558922417959,293.28002270022887L116.92805055729548,292.2623134201788L117.27674255696932,290.4728308257127L117.50920389008523,291.61588159007397L117.74166522320111,290.4064745849607L117.974126556317,290.45540712802284L118.20658788943291,291.3226783432875L118.4390492225488,291.9775431668905L118.6715105556647,291.8657175494534L118.9039718887806,292.3724910100377L119.1364332218965,292.7782856874286L119.95004788780211,289.8337912507064L120.18250922091802,290.6242768557262L120.41497055403391,290.738552517189L120.6474318871498,291.36254739793696L120.99612388682364,290.73016579365697L121.46104655305544,288.8437068974993L121.69350788617133,290.4523978248641L121.92596921928724,291.81078830187283L122.15843055240313,291.74425322873094L122.39089188551903,290.9784210856352L122.73958388519286,290.3272610693161L123.20450655142466,289.17393956614194L123.43696788454055,289.38322368959564L123.66942921765646,290.85391157821164L124.13435188388824,289.7397342687142L124.36681321700415,290.5606904964184L124.59927455012004,291.16128794596017L124.94796654979388,289.90852184367986L125.18042788290977,290.0110988747258L125.64535054914157,289.51164433741053L125.99404254881541,290.3583396672433L126.22650388193131,291.08496867926823L126.45896521504721,291.7087421180901L126.6914265481631,290.97239238216383L126.92388788127899,290.9248923234597L127.15634921439488,290.98538117251894L127.38881054751079,291.5204451891905L127.62127188062668,291.98021072400815L127.96996388030053,291.3086625216799L128.2024252134164,291.21409600666976L128.4348865465323,291.81753187243237L128.66734787964822,291.06819715333313L128.8998092127641,291.1084726068856L129.36473187899588,290.55982055987135L129.71342387866974,289.4038728676504L129.94588521178562,290.15939800290334L130.17834654490153,290.32696331500387L130.41080787801744,291.6370836785203L130.64326921113332,292.7636060266733L130.87573054424922,293.04833807872444L131.22442254392305,293.39417622718713L131.45688387703896,294.2744469678769L131.68934521015484,294.3475677683987L132.0380372098287,294.5114321894587L132.2704985429446,295.2351651685359L132.5029598760605,294.0081500338722L132.73542120917637,293.53575849851137L133.20034387540818,291.3811799396695L133.43280520852406,292.54313195711325L133.66526654163997,291.6931225026985L133.89772787475587,292.2286140814431L134.13018920787175,292.00540775993215L134.82757320721944,290.0652241795476L135.17626520689328,288.97943302151543L135.40872654000918,290.4775734554195L135.75741853968302,290.0177635133707L135.98987987279892,290.10409322278895L136.2223412059148,289.59560981922857L136.4548025390307,291.00745583657243L136.80349453870454,289.7897804348861L137.03595587182045,289.9080271209468L137.26841720493636,290.11068381732474L137.6171092046102,289.6012847192694L137.84957053772607,290.3286376258907L138.19826253739993,291.0551236492751L138.43072387051583,291.09718427715916L138.77941587018967,290.44967701272657L139.12810786986353,289.9937861112038L139.3605692029794,291.3498625937514L139.70926120265324,291.93337303367537L139.94172253576914,291.75151413533877L140.17418386888505,291.01240269626123L140.40664520200093,292.22586943183387L140.63910653511684,292.0030611846318L140.87156786823275,292.39415851949923L141.10402920134862,291.56507776535904L141.3364905344645,292.7011683891134L141.5689518675804,291.82910657013036L141.80141320069632,292.24455722309006L142.15010520037015,290.8537097286993L142.498797200044,290.82300433363093L142.7312585331599,291.37930923224667L143.07995053283372,290.69230839399853L143.31241186594963,291.26691063270613L143.54487319906553,292.44474349494396L143.7773345321814,292.2922569591912L144.00979586529732,292.06015490068086L144.24225719841323,292.5442220713296L144.4747185315291,291.6941336410815L144.70717986464498,291.54576889222835L144.9396411977609,291.418175216265L145.28833319743475,290.8266970977225L145.52079453055063,291.382484695621L145.75325586366654,291.860462010632L145.98571719678245,291.789774933841L146.21817852989832,291.72898404960506L146.56687052957216,292.25941504148L146.79933186268806,293.2982968295476L147.03179319580397,293.5080604025757L147.26425452891985,293.1057459194766L147.49671586203576,294.02614135635196L147.72917719515166,293.5512955420814L147.96163852826754,293.14292814602584L148.31033052794137,292.791732188537L148.54279186105728,291.9069925286591L148.8914838607311,291.14611642616177L149.24017586040497,291.0744741171632L149.5888678600788,290.5311142361521L149.82132919319469,291.1282833680941L150.17002119286855,289.89371551039915L150.40248252598445,290.68108406621747L150.63494385910033,291.2572574192129L150.86740519221624,292.4364412172787L151.09986652533215,292.76686456662134L151.33232785844802,291.88560638877357L151.5647891915639,291.12772435692614L151.79725052467984,290.47594581035213L152.02971185779572,290.49812738878404L152.2621731909116,290.5172035462179L152.4946345240275,291.1163201690176L152.7270958571434,291.63156046427304L152.9595571902593,292.0746671179321L153.1920185233752,292.4557388398862L153.54071052304906,291.6180382669771L153.77317185616494,292.0630380279903L154.00563318928081,292.44573782233846L154.35432518895468,291.026726352533L154.7030171886285,289.80637648879065L155.16793985486032,289.33958664579853L155.4004011879762,290.10356963368577L155.74909318765003,289.01246171093766L156.0977851873239,289.92320579210707L156.33024652043977,289.44005984676835L156.56270785355568,290.189976586343L156.7951691866716,290.8349049823238L157.02763051978746,290.8068322766063L157.26009185290337,290.1999786234858L157.49255318601925,290.84350673421113L157.72501451913516,291.39694090941L158.18993718536694,290.80843568491645L158.42239851848282,292.0504545182479L158.65485985159876,291.9531684973117L158.88732118471464,291.18582777334393L159.11978251783052,290.52591475074576L159.35224385094642,291.1238118035896L159.58470518406233,291.63800326902725L159.8171665171782,292.08020792929767L160.04962785029412,292.46050393712574L160.28208918341002,292.7875585038546L160.5145505165259,293.75250014244017L160.7470118496418,293.9996388428678L160.9794731827577,292.94579227055704L161.2119345158736,293.8885811817953L161.4443958489895,293.4329938081514L161.67685718210538,294.3075745041218L162.1417798483372,292.0451947912218L162.37424118145307,292.4303926383712L162.60670251456895,291.59624053470293L162.9553945142428,290.97983336272966L163.18785584735872,291.615145412315L163.76900918014846,290.3124168810217L164.00147051326434,290.3574925094924L164.23393184638022,290.9789686760828L164.46639317949612,290.93072705324454L164.69885451261203,291.4719503837089L164.9313158457279,290.77198019569795L165.28000784540177,290.8536805799269L165.51246917851768,290.240268164446L165.74493051163356,290.87815573934165L165.97739184474943,290.9449915474604L166.20985317786534,291.4842178487337L166.44231451098125,291.46620496153747L166.67477584409713,291.93246138483977L166.90723717721303,292.33344190887965L167.13969851032894,292.67828515955387L167.37215984344482,292.97485035513364L167.72085184311865,293.33086002577915L167.95331317623456,292.37064248787954L168.18577450935047,292.7102776574937L168.41823584246634,293.00236390336187L168.7669278421402,292.6708469487046L168.9993891752561,292.9684534938032L169.231850508372,293.9080698337725L169.58054250804582,294.1334287774084L169.81300384116173,294.22627386648844L170.16169584083556,293.7234095169935L170.39415717395147,293.8736573025316L170.7428491736253,292.25473710661396L170.9753105067412,292.71156263205205L171.2077718398571,293.003468981482L171.440233172973,293.9381831531761L171.78892517264683,292.3102293381683L172.02138650576273,292.65832234874193L172.25384783887864,291.7922600856279L172.71877050511043,291.04744653934983L172.9512318382263,291.572329141758L173.1836931713422,292.7074028910135L173.41615450445812,292.9998916041888L173.648615837574,293.2514318975195L173.8810771706899,293.467756549784L174.1135385038058,293.65379575073143L174.3459998369217,293.2310783374425L174.5784611700376,293.45025248811777L174.81092250315348,292.47332000549113L175.04338383626938,291.6331580704322L175.39207583594322,290.91061880628155L175.74076783561708,291.55562089376616L176.0894598352909,290.2612257950758L176.32192116840682,290.3134681755787L176.5543825015227,290.9411077489149L176.90307450119653,290.8981666558803L177.13553583431244,291.44394844197427L177.36799716742834,291.9133207780151L177.60045850054422,293.00065569819446L177.83291983366013,293.2520890183645L178.06538116677604,292.8856105476069L178.41407316644987,291.9877279366518L178.64653449956575,293.06464585462214L178.87899583268165,292.72440942678855L179.11145716579756,293.01451722495534L179.34391849891344,293.3649735338256L179.57637983202935,292.9826912309035L179.80884116514525,293.2366395764942L180.1575331648191,292.87232402759855L180.38999449793496,291.97630152944464L180.85491716416678,290.62301114175926L181.08737849728266,291.8909894110145L181.55230116351447,291.13235375918237L181.78476249663035,291.7463129532609L182.01722382974626,292.1733542577215L182.24968516286214,291.37518752735036L182.48214649597804,291.8541863914385L182.71460782909395,292.94980012573865L182.9470691622098,293.20835322605245L183.29576116188366,292.9489613860316L183.52822249499957,292.042209657697L183.76068382811548,292.42782542353666L183.99314516123135,292.7594549821587L184.22560649434726,293.04465640257365L184.45806782746317,293.28992962413054L184.69052916057902,293.50086459466945L184.92299049369493,293.09955754322925L185.15545182681083,293.3371446050943L185.3879131599267,292.376047226091L185.62037449304262,291.5495034801481L185.85283582615853,292.00409811084455L186.0852971592744,292.39504949324345L186.3177584923903,292.1485565560029L186.55021982550622,292.5192837560797L186.7826811586221,293.52178385933007L187.015142491738,293.70025923694106L187.2476038248539,293.2710369355828L187.4800651579698,293.4846168825184L187.7125264910857,292.5028733846757L187.9449878242016,292.8239962287383L188.17744915731745,293.1001618746321L188.40991049043336,293.3376643301008L188.75860249010722,292.95920531570016L188.99106382322313,292.051019437212L189.223525156339,292.4354018339195L189.45598648945492,293.44964540627234L189.68844782257082,293.6382201673114L189.92090915568667,293.800394461805L190.26960115536053,293.3571532289658L190.50206248847644,293.5586768948278L190.73452382159235,293.7319872474691L190.96698515470823,293.88103415074056L191.19944648782413,294.69288919873844L191.43190782094004,294.7074098288323L191.6643691540559,294.71989757071293L191.8968304871718,293.56521477652296L192.12929182028773,293.73760982572696L192.36175315340358,293.8858695680424L192.5942144865195,294.0133729464336L192.8266758196354,294.12302585185006L193.05913715275128,293.63461622440457L193.29159848586718,293.7972950709051L193.5240598189831,292.7717766266883L193.75652115209897,293.73892772805345L193.98898248521488,294.57067767522756L194.22144381833078,294.60230791861284L194.45390515144666,294.62950992792423L194.68636648456257,294.0701925298284L194.91882781767848,294.1718906935696L195.15128915079433,294.259351114387L195.38375048391026,294.33456707629L195.61621181702617,294.39925280352657L195.9649038167,293.39042391392184L196.19736514981588,294.2709643950744L196.4298264829318,293.1791322454738L196.66228781604764,294.08925356020904L196.89474914916354,294.18828317969695L197.12721048227948,294.2734486524566L197.35967181539533,294.34669095902984L197.59213314851124,294.4096793426828L197.9408251481851,293.88113822652076L198.173286481301,294.00930399272505L198.40574781441686,294.8032012628451L198.63820914753276,294.80227820396397L198.98690114720662,294.21877324722254L199.21936248032253,294.29967011052855L199.4518238134384,294.36924141297175L199.68428514655432,294.42907273307287L199.91674647967022,295.16420237954424L200.14920781278607,293.9473169121179L200.381669145902,294.06621766233854L200.61413047901792,294.16847230752836L200.84659181213377,294.9400860135759L201.07905314524967,294.91999908959247L201.42774514492353,295.0036879374136L201.66020647803944,294.97469674409285L201.8926678111553,294.94976431783704L202.12512914427123,294.928322431257L202.35759047738713,294.90988240879824L202.70628247706097,293.72860173727634L203.0549744767348,293.29541148587117L203.40366647640866,292.9228678696627L203.6361278095245,293.1851914858271L203.86858914264045,293.41078979572853L204.10105047575635,293.6048043422437L204.3335118088722,293.8726204546936L204.5659731419881,294.0019787089537L204.79843447510402,294.11322680761737L205.0308958082199,293.0434779202608L205.2633571413358,293.28891612934143L205.4958184744517,293.4999929891508L205.7282798075676,293.6815190885869L205.9607411406835,293.8376315341019L206.1932024737994,293.9718882372448L206.54189447347323,293.5046378758441L206.7743558065891,293.1028025650394L207.00681713970502,292.7572241977474L207.35550913937888,292.46002680187627L207.5879704724948,292.2044370414271L207.82043180561064,292.5673409735445L208.05289313872655,292.87943835516546L208.28535447184245,293.1478421033595L208.51781580495833,293.37866932680635L208.75027713807424,293.57718073897064L208.98273847119015,293.7479005534319L209.44766113742193,292.7292973416613L209.68012247053784,291.85329857953855L209.91258380365372,292.2653618963203L210.14504513676962,292.61973634875267L210.37750646988553,292.9244983778445L210.6099678030014,293.18659372286345L210.84242913611732,293.41199571957975L211.07489046923317,293.6058414367558L211.30735180234907,293.77254875352713L211.65604380202294,293.3332059198468L211.88850513513884,293.5380822089855L212.1209664682547,293.7142758176447L212.35342780137063,293.8658023210916L212.58588913448654,293.99611511405595L212.8183504676024,294.1081841160053L213.0508118007183,294.20456345768173L213.2832731338342,294.2874496915235L213.51573446695008,294.3587318526274L213.748195800066,294.4200345111767L213.9806571331819,294.47275479752915L214.21311846629777,294.51809424379223L214.44557979941368,294.5570861675785L214.6780411325296,294.5906192220347L214.91050246564546,294.61945764886707L215.14296379876137,295.3279334071272L215.37542513187728,295.2535478480466L215.60788646499316,295.18957626723727L215.84034779810906,295.13456070774123L216.07280913122497,295.770922037759L216.30527046434082,295.63451807038996L216.53773179745673,296.2008853696369L216.77019313057264,296.0042865358049L217.00265446368851,295.8352115387094L217.35134646336238,295.1070959151036L217.7000384630362,294.4809164788026L217.93249979615211,294.52511328968745L218.16496112926802,294.56312254704835L218.3974224623839,294.5958105083788L218.6298837954998,294.62392215512295L218.86234512861571,294.6480981713229L219.0948064617316,294.6688895452549L219.3272677948475,294.6867701268364L219.5597291279634,294.7021474269965L219.79219046107926,294.71537190513413L220.02465179419517,294.72674495633254L220.25711312731107,294.7365257803632L220.48957446042695,294.7449372890295L220.72203579354286,294.75217118648254L220.95449712665877,294.7583923382922L221.18695845977464,294.76374252884847L221.41941979289055,294.76834369272683L221.65188112600646,294.77230069366226L221.88434245912234,294.7757037144668L222.11680379223824,294.7786303123586L222.46549579191208,294.1984360604419L222.69795712502798,294.2821801298972L222.93041845814386,293.1887777774215L223.16287979125977,293.4138740064996L223.39534112437568,293.6074567635069L223.62780245749155,293.7739379345331L223.86026379060746,293.9171117416156L224.09272512372337,294.723915926891L224.32518645683925,294.7340928150435L224.55764778995515,294.74284493885455L224.79010912307106,294.7503717653321L225.0225704561869,294.7568448361028L225.25503178930282,294.7624116769656L225.4874931224187,294.76719916010757L225.7199544555346,294.7713163956097L225.9524157886505,294.7748572181415L226.1848771217664,294.7779023255189L226.4173384548823,294.78052111786343L226.6497997879982,294.7827732792797L226.88226112111408,294.78471013809775L227.11472245423,294.78637583668126L227.3471837873459,295.4714830486474L227.57964512046178,295.37700053975396L227.81210645357768,295.2957455821056L228.0445677866936,295.225866318528L228.27702911980944,295.16577015185123L228.50949045292535,295.1140874485093L228.74195178604126,295.06964032363516L228.97441311915713,295.03141579624344L229.20687445227304,294.9985427026865L229.43933578538895,294.9702718422276L229.67179711850483,294.9459589022329L229.90425845162073,294.9250497738375L230.13671978473664,294.9070679234174L230.36918111785252,294.89160353205614L230.60164245096843,294.87830415548547L230.83410378408433,294.8668666916347L231.0665651172002,294.857030472723L231.29902645031612,294.848571324459L231.53148778343203,294.8412964569519L231.76394911654788,294.83504007089584L231.99641044966378,294.8296595788876L232.22887178277972,294.8250323557605L232.46133311589557,294.8210529438712L232.69379444901148,294.81763064964645L232.92625578212738,295.4983621877975L233.15871711524326,295.40011659942303L233.39117844835917,294.7329142673173L233.62363978147508,294.1591202617064L243.50324643890065,254.04368151445834L253.3828530963262,219.64060985278294L263.2624597537518,190.05396822374212L270.00383841411275,172.2584310944027L278.02375440661115,152.26296948898175L279.53475307186443,165.3261091760381L281.8593664030234,171.79775673036264L291.738973060449,148.8129088775027L295.4583543903033,150.7000779411631L296.7368917224407,165.1474446623891L298.59658238736785,174.65862449895585L308.47618904479344,151.95692886244083L313.5903383733432,146.65162255738008L323.4699450307687,127.8709071926857L333.34955168819425,111.13202393605849L337.3013943511645,117.15050087818253L341.9506210134824,119.51748583541101L351.83022767090796,104.53554961179236L361.3611423286597,91.23486160384874L371.24074898608524,80.21249277264877L381.12035564351083,70.1457875348267L381.93397030941645,97.61413130489979L389.2565023025672,91.13571608568537L399.1361089599927,79.30084589550398L399.36857029310863,108.40103717769898L402.15810629049935,121.19502519222218L412.03771294792494,105.29455975470188L421.9173196053505,91.7163651393924L422.61470360469815,116.74753915356382L429.0073902653853,111.23417400405737L438.7707662562529,96.67590145610222L445.16345291694006,93.97256558424044L447.0231435818672,113.44822849174795L456.9027502392928,99.3159882962421L464.45774356555944,91.20080554812307L467.0148182298342,107.56824820826193L469.5718928941091,121.6442488959814L474.6860422226588,121.17018582921503L483.7520342141787,106.6918001655497L493.63164087160425,93.5054599357116L503.51124752902984,81.57773929506072L506.6494755260945,95.79138764395071L508.16047419134776,116.0768739739301L510.1363955228329,131.1915477827623L520.0160021802585,114.57524288651445L521.4107701789538,132.9099073636637L531.2903768363794,116.05303212608965L533.1500675013065,131.84996167474822L533.7312208340962,151.74893651031618L535.1259888327917,165.46675192312327L539.4265234954357,162.0697027439153L540.7050608275731,174.22975539745997L543.3783661584059,178.39043396995416L544.4244421574274,189.44289824924317L554.304048814853,163.98773058373996L564.1836554722786,142.1924920523651L574.0632621297042,123.4485869153828L575.2255687952836,141.70640544596546L576.6203367939789,156.14650039240038L580.4559487903913,156.3375615199183L590.3355554478169,135.51714099652054L591.3816314468384,152.66807306448146L601.261238104264,133.04505462879288L602.4235447698434,149.95936767949817L612.303151427269,130.03189429375928L615.5576100908916,136.87924983409388L617.8822234220505,147.33345769629062L627.761830079476,127.77361170820072L633.4571327408155,122.57782472767866L642.1744327326616,108.54692087224896L645.1964300631682,119.17408641449441L647.2885820612113,133.27243937291013L657.1681887186369,116.36480965404155L662.5147993803024,114.95784348010835L672.394406037728,99.89490647538997L682.2740126951536,87.07266331918419L682.5064740282695,115.08480016206397L687.2719313571454,116.49838085525971L694.9431553499699,106.17744994175206L695.9892313489914,129.18882901784565L700.8709193444251,128.75734987195773L710.7505260018509,111.77437430801172L713.6562926657995,122.92591597256356L720.1652099930445,115.37870818502228L720.3976713261603,140.01546665074565L720.6301326592765,160.51940418535116L722.2573619910877,171.160257090797L724.5819753222465,176.8151239370553L734.461581979672,153.8115183792064L741.7841139728229,138.87800092659896L743.2951126380761,153.81503621238886L748.17680063351,149.93588805926493L758.0564072909355,129.98791714909592L767.936013948361,112.9526524985713L777.8156206057866,98.3023248991201L787.6952272632121,85.7030431635921L795.0177592563629,80.30471224117059L799.5507552521229,88.38903404505561L800.5968312511443,112.0298025339157L804.3162125809987,118.97039971328715L814.1958192384243,103.38138184281775L819.1937379004161,105.42368622234761L819.7748912332058,129.70601443663296L825.9351165607769,123.37026131048705L835.8147232182025,107.84893652035771L841.5100258795421,106.03827670927609L848.0189432067871,100.80776907606963L857.8985498642127,88.44519319875872L863.3613911924363,90.41182933948659L868.5917711875439,93.76564715304579L878.4713778449694,81.66961763411615L888.350984502395,71.39891491568869L898.2305911598206,62.566110577841016L908.1101978172461,54.969898847292086L917.9898044746717,48.437156759019956L927.8694111320973,42.81899856310599L932.867329794089,53.34003660179553L940.8872457865874,50.06450201626126L950.7668524440129,44.80598352732352L954.6024644404253,60.68092489977664L964.4820710978508,53.252433503198745L974.3616777552763,46.96013656309964L974.5941390883922,80.58802715183128L984.4737457458178,71.05621514391379L988.3093577422301,83.25612409004424L998.1889643996557,72.66710480682889L1002.7219603954156,81.23322360853155L1003.5355750613213,107.04122749812183L1005.7439577259222,122.25546959609218L1010.1607230551242,124.34431657094117L1011.0905683875878,144.22962321021078L1020.9701750450134,125.10431405017212L1023.875941708962,134.3896641508215L1025.6194017073312,148.10596955236397L1030.501089702765,144.34241702769546L1034.917855031967,144.02276506606802L1037.2424683631261,154.16055561116963L1047.1220750205516,133.6449159149967L1056.5367590117453,116.37594764528671L1066.416365669171,100.73393020870589L1073.041513662974,95.9117453110145L1082.8048896538417,83.48672044445402L1084.8970416518848,103.26497945405657L1092.916957644383,93.02373754046852L1098.3797989726065,94.03911421676764L1099.89079763786,114.53424293109185L1109.7704042952855,100.24996071407782L1110.932710960865,121.75558691284323L1117.2091669549943,116.03342665784339L1118.8363962868054,133.5859912325216L1128.7160029442311,115.9507905493594L1129.6458482766946,136.4237227886604L1135.9223042708238,127.96434980709813L1145.8019109282493,111.04482490970707L1152.1945975889364,105.74237393421697L1155.332825586001,117.16044147661506L1165.2124322434267,101.82481775927977L1175.0920389008522,88.73238702332941L1175.3245002339681,116.51216254762892L1185.2041068913936,101.26729788035169L1188.5747962215742,111.5589858098258L1198.4544028789996,97.00756588584107L1198.6868642121158,123.62881636938886L1201.2439388763903,135.45633751455054L1204.0334748737812,144.46258348191452L1213.7968508646488,125.3355799564788L1223.6764575220743,109.53911055591061L1233.5560641794998,95.36667882843193L1234.3696788454056,119.30409781740028L1236.8105228431225,132.31979066857784L1246.690129500548,114.86185806436777L1256.5697361579737,99.94424168570504L1266.4493428153992,87.11509160005511L1266.681804148515,115.12128848361306L1267.7278801475366,135.0314331309898L1270.4011854783694,143.99620200540855L1273.1907214757603,151.8068669440524" fill="none"></path></g></g></g></g><g opacity="0.2"><g><g><g><path style="fill: none;" stroke="rgb(0, 119, 187)" stroke-width="2px" d="M116.46312789106369,295.51777657402886L116.69558922417959,291.35555436876086L116.92805055729548,290.63438565581083L117.27674255696932,286.47216332649896L117.50920389008523,294.7966079851227L117.74166522320111,286.47216332649896L117.974126556317,290.63438565581083L118.20658788943291,294.7966079851227L118.4390492225488,294.7966079851227L118.6715105556647,291.35555436876086L118.9039718887806,294.7966079851227L119.1364332218965,294.7966079851227L119.95004788780211,274.7066655476888L120.18250922091802,294.7966079851227L120.41497055403391,291.35555436876086L120.6474318871498,294.7966079851227L120.99612388682364,287.19333216349287L121.46104655305544,278.1477194121385L121.69350788617133,299.67999877929685L121.92596921928724,299.67999877929685L122.15843055240313,291.35555436876086L122.39089188551903,286.47216332649896L122.73958388519286,286.47216332649896L123.20450655142466,282.3099416174065L123.43696788454055,290.63438565581083L123.66942921765646,299.67999877929685L124.13435188388824,283.0311099582248L124.36681321700415,295.51777657402886L124.59927455012004,294.7966079851227L124.94796654979388,282.3099416174065L125.18042788290977,290.63438565581083L125.64535054914157,286.47216332649896L125.99404254881541,295.51777657402886L126.22650388193131,295.51777657402886L126.45896521504721,295.51777657402886L126.6914265481631,286.47216332649896L126.92388788127899,290.63438565581083L127.15634921439488,291.35555436876086L127.38881054751079,294.7966079851227L127.62127188062668,294.7966079851227L127.96996388030053,287.19333216349287L128.2024252134164,290.63438565581083L128.4348865465323,295.51777657402886L128.66734787964822,286.47216332649896L128.8998092127641,291.35555436876086L129.36473187899588,287.19333216349287L129.71342387866974,282.3099416174065L129.94588521178562,294.7966079851227L130.17834654490153,291.35555436876086L130.41080787801744,299.67999877929685L130.64326921113332,299.67999877929685L130.87573054424922,294.7966079851227L131.22442254392305,295.51777657402886L131.45688387703896,299.67999877929685L131.68934521015484,294.7966079851227L132.0380372098287,295.51777657402886L132.2704985429446,299.67999877929685L132.5029598760605,286.47216332649896L132.73542120917637,290.63438565581083L133.20034387540818,278.1477194121385L133.43280520852406,299.67999877929685L133.66526654163997,286.47216332649896L133.89772787475587,295.51777657402886L134.13018920787175,290.63438565581083L134.82757320721944,278.1477194121385L135.17626520689328,282.3099416174065L135.40872654000918,299.67999877929685L135.75741853968302,287.19333216349287L135.98987987279892,290.63438565581083L136.2223412059148,286.47216332649896L136.4548025390307,299.67999877929685L136.80349453870454,282.3099416174065L137.03595587182045,290.63438565581083L137.26841720493636,291.35555436876086L137.6171092046102,286.47216332649896L137.84957053772607,294.7966079851227L138.19826253739993,295.51777657402886L138.43072387051583,291.35555436876086L138.77941587018967,286.47216332649896L139.12810786986353,287.19333216349287L139.3605692029794,299.67999877929685L139.70926120265324,295.51777657402886L139.94172253576914,290.63438565581083L140.17418386888505,286.47216332649896L140.40664520200093,299.67999877929685L140.63910653511684,290.63438565581083L140.87156786823275,294.7966079851227L141.10402920134862,286.47216332649896L141.3364905344645,299.67999877929685L141.5689518675804,286.47216332649896L141.80141320069632,294.7966079851227L142.15010520037015,282.3099416174065L142.498797200044,290.63438565581083L142.7312585331599,294.7966079851227L143.07995053283372,286.47216332649896L143.31241186594963,294.7966079851227L143.54487319906553,299.67999877929685L143.7773345321814,291.35555436876086L144.00979586529732,290.63438565581083L144.24225719841323,295.51777657402886L144.4747185315291,286.47216332649896L144.70717986464498,290.63438565581083L144.9396411977609,290.63438565581083L145.28833319743475,287.19333216349287L145.52079453055063,294.7966079851227L145.75325586366654,294.7966079851227L145.98571719678245,291.35555436876086L146.21817852989832,291.35555436876086L146.56687052957216,295.51777657402886L146.79933186268806,299.67999877929685L147.03179319580397,294.7966079851227L147.26425452891985,290.63438565581083L147.49671586203576,299.67999877929685L147.72917719515166,290.63438565581083L147.96163852826754,290.63438565581083L148.31033052794137,290.63438565581083L148.54279186105728,286.47216332649896L148.8914838607311,286.47216332649896L149.24017586040497,290.63438565581083L149.5888678600788,287.19333216349287L149.82132919319469,294.7966079851227L150.17002119286855,282.3099416174065L150.40248252598445,295.51777657402886L150.63494385910033,294.7966079851227L150.86740519221624,299.67999877929685L151.09986652533215,294.7966079851227L151.33232785844802,286.47216332649896L151.5647891915639,286.47216332649896L151.79725052467984,286.47216332649896L152.02971185779572,290.63438565581083L152.2621731909116,290.63438565581083L152.4946345240275,294.7966079851227L152.7270958571434,294.7966079851227L152.9595571902593,294.7966079851227L153.1920185233752,294.7966079851227L153.54071052304906,286.47216332649896L153.77317185616494,294.7966079851227L154.00563318928081,294.7966079851227L154.35432518895468,282.3099416174065L154.7030171886285,282.3099416174065L155.16793985486032,286.47216332649896L155.4004011879762,294.7966079851227L155.74909318765003,282.3099416174065L156.0977851873239,295.51777657402886L156.33024652043977,286.47216332649896L156.56270785355568,294.7966079851227L156.7951691866716,294.7966079851227L157.02763051978746,290.63438565581083L157.26009185290337,286.47216332649896L157.49255318601925,294.7966079851227L157.72501451913516,294.7966079851227L158.18993718536694,287.19333216349287L158.42239851848282,299.67999877929685L158.65485985159876,291.35555436876086L158.88732118471464,286.47216332649896L159.11978251783052,286.47216332649896L159.35224385094642,294.7966079851227L159.58470518406233,294.7966079851227L159.8171665171782,294.7966079851227L160.04962785029412,294.7966079851227L160.28208918341002,294.7966079851227L160.5145505165259,299.67999877929685L160.7470118496418,295.51777657402886L160.9794731827577,286.47216332649896L161.2119345158736,299.67999877929685L161.4443958489895,290.63438565581083L161.67685718210538,299.67999877929685L162.1417798483372,278.1477194121385L162.37424118145307,294.7966079851227L162.60670251456895,286.47216332649896L162.9553945142428,287.19333216349287L163.18785584735872,295.51777657402886L163.76900918014846,282.3099416174065L164.00147051326434,290.63438565581083L164.23393184638022,294.7966079851227L164.46639317949612,290.63438565581083L164.69885451261203,294.7966079851227L164.9313158457279,286.47216332649896L165.28000784540177,291.35555436876086L165.51246917851768,286.47216332649896L165.74493051163356,294.7966079851227L165.97739184474943,291.35555436876086L166.20985317786534,294.7966079851227L166.44231451098125,291.35555436876086L166.67477584409713,294.7966079851227L166.90723717721303,294.7966079851227L167.13969851032894,294.7966079851227L167.37215984344482,294.7966079851227L167.72085184311865,295.51777657402886L167.95331317623456,286.47216332649896L168.18577450935047,294.7966079851227L168.41823584246634,294.7966079851227L168.7669278421402,290.63438565581083L168.9993891752561,294.7966079851227L169.231850508372,299.67999877929685L169.58054250804582,295.51777657402886L169.81300384116173,294.7966079851227L170.16169584083556,290.63438565581083L170.39415717395147,294.7966079851227L170.7428491736253,282.3099416174065L170.9753105067412,295.51777657402886L171.2077718398571,294.7966079851227L171.440233172973,299.67999877929685L171.78892517264683,282.3099416174065L172.02138650576273,294.7966079851227L172.25384783887864,286.47216332649896L172.71877050511043,286.47216332649896L172.9512318382263,294.7966079851227L173.1836931713422,299.67999877929685L173.41615450445812,294.7966079851227L173.648615837574,294.7966079851227L173.8810771706899,294.7966079851227L174.1135385038058,294.7966079851227L174.3459998369217,290.63438565581083L174.5784611700376,294.7966079851227L174.81092250315348,286.47216332649896L175.04338383626938,286.47216332649896L175.39207583594322,286.47216332649896L175.74076783561708,295.51777657402886L176.0894598352909,282.3099416174065L176.32192116840682,290.63438565581083L176.5543825015227,294.7966079851227L176.90307450119653,290.63438565581083L177.13553583431244,294.7966079851227L177.36799716742834,294.7966079851227L177.60045850054422,299.67999877929685L177.83291983366013,294.7966079851227L178.06538116677604,290.63438565581083L178.41407316644987,286.47216332649896L178.64653449956575,299.67999877929685L178.87899583268165,290.63438565581083L179.11145716579756,294.7966079851227L179.34391849891344,295.51777657402886L179.57637983202935,290.63438565581083L179.80884116514525,294.7966079851227L180.1575331648191,290.63438565581083L180.38999449793496,286.47216332649896L180.85491716416678,282.3099416174065L181.08737849728266,299.67999877929685L181.55230116351447,286.47216332649896L181.78476249663035,295.51777657402886L182.01722382974626,294.7966079851227L182.24968516286214,286.47216332649896L182.48214649597804,294.7966079851227L182.71460782909395,299.67999877929685L182.9470691622098,294.7966079851227L183.29576116188366,291.35555436876086L183.52822249499957,286.47216332649896L183.76068382811548,294.7966079851227L183.99314516123135,294.7966079851227L184.22560649434726,294.7966079851227L184.45806782746317,294.7966079851227L184.69052916057902,294.7966079851227L184.92299049369493,290.63438565581083L185.15545182681083,294.7966079851227L185.3879131599267,286.47216332649896L185.62037449304262,286.47216332649896L185.85283582615853,294.7966079851227L186.0852971592744,294.7966079851227L186.3177584923903,290.63438565581083L186.55021982550622,294.7966079851227L186.7826811586221,299.67999877929685L187.015142491738,294.7966079851227L187.2476038248539,290.63438565581083L187.4800651579698,294.7966079851227L187.7125264910857,286.47216332649896L187.9449878242016,294.7966079851227L188.17744915731745,294.7966079851227L188.40991049043336,294.7966079851227L188.75860249010722,290.63438565581083L188.99106382322313,286.47216332649896L189.223525156339,294.7966079851227L189.45598648945492,299.67999877929685L189.68844782257082,294.7966079851227L189.92090915568667,294.7966079851227L190.26960115536053,290.63438565581083L190.50206248847644,294.7966079851227L190.73452382159235,294.7966079851227L190.96698515470823,294.7966079851227L191.19944648782413,299.67999877929685L191.43190782094004,294.7966079851227L191.6643691540559,294.7966079851227L191.8968304871718,286.47216332649896L192.12929182028773,294.7966079851227L192.36175315340358,294.7966079851227L192.5942144865195,294.7966079851227L192.8266758196354,294.7966079851227L193.05913715275128,290.63438565581083L193.29159848586718,294.7966079851227L193.5240598189831,286.47216332649896L193.75652115209897,299.67999877929685L193.98898248521488,299.67999877929685L194.22144381833078,294.7966079851227L194.45390515144666,294.7966079851227L194.68636648456257,290.63438565581083L194.91882781767848,294.7966079851227L195.15128915079433,294.7966079851227L195.38375048391026,294.7966079851227L195.61621181702617,294.7966079851227L195.9649038167,287.19333216349287L196.19736514981588,299.67999877929685L196.4298264829318,286.47216332649896L196.66228781604764,299.67999877929685L196.89474914916354,294.7966079851227L197.12721048227948,294.7966079851227L197.35967181539533,294.7966079851227L197.59213314851124,294.7966079851227L197.9408251481851,290.63438565581083L198.173286481301,294.7966079851227L198.40574781441686,299.67999877929685L198.63820914753276,294.7966079851227L198.98690114720662,290.63438565581083L199.21936248032253,294.7966079851227L199.4518238134384,294.7966079851227L199.68428514655432,294.7966079851227L199.91674647967022,299.67999877929685L200.14920781278607,286.47216332649896L200.381669145902,294.7966079851227L200.61413047901792,294.7966079851227L200.84659181213377,299.67999877929685L201.07905314524967,294.7966079851227L201.42774514492353,295.51777657402886L201.66020647803944,294.7966079851227L201.8926678111553,294.7966079851227L202.12512914427123,294.7966079851227L202.35759047738713,294.7966079851227L202.70628247706097,286.47216332649896L203.0549744767348,290.63438565581083L203.40366647640866,290.63438565581083L203.6361278095245,294.7966079851227L203.86858914264045,294.7966079851227L204.10105047575635,294.7966079851227L204.3335118088722,295.51777657402886L204.5659731419881,294.7966079851227L204.79843447510402,294.7966079851227L205.0308958082199,286.47216332649896L205.2633571413358,294.7966079851227L205.4958184744517,294.7966079851227L205.7282798075676,294.7966079851227L205.9607411406835,294.7966079851227L206.1932024737994,294.7966079851227L206.54189447347323,290.63438565581083L206.7743558065891,290.63438565581083L207.00681713970502,290.63438565581083L207.35550913937888,290.63438565581083L207.5879704724948,290.63438565581083L207.82043180561064,294.7966079851227L208.05289313872655,294.7966079851227L208.28535447184245,294.7966079851227L208.51781580495833,294.7966079851227L208.75027713807424,294.7966079851227L208.98273847119015,294.7966079851227L209.44766113742193,286.47216332649896L209.68012247053784,286.47216332649896L209.91258380365372,294.7966079851227L210.14504513676962,294.7966079851227L210.37750646988553,294.7966079851227L210.6099678030014,294.7966079851227L210.84242913611732,294.7966079851227L211.07489046923317,294.7966079851227L211.30735180234907,294.7966079851227L211.65604380202294,290.63438565581083L211.88850513513884,294.7966079851227L212.1209664682547,294.7966079851227L212.35342780137063,294.7966079851227L212.58588913448654,294.7966079851227L212.8183504676024,294.7966079851227L213.0508118007183,294.7966079851227L213.2832731338342,294.7966079851227L213.51573446695008,294.7966079851227L213.748195800066,294.7966079851227L213.9806571331819,294.7966079851227L214.21311846629777,294.7966079851227L214.44557979941368,294.7966079851227L214.6780411325296,294.7966079851227L214.91050246564546,294.7966079851227L215.14296379876137,299.67999877929685L215.37542513187728,294.7966079851227L215.60788646499316,294.7966079851227L215.84034779810906,294.7966079851227L216.07280913122497,299.67999877929685L216.30527046434082,294.7966079851227L216.53773179745673,299.67999877929685L216.77019313057264,294.7966079851227L217.00265446368851,294.7966079851227L217.35134646336238,290.63438565581083L217.7000384630362,290.63438565581083L217.93249979615211,294.7966079851227L218.16496112926802,294.7966079851227L218.3974224623839,294.7966079851227L218.6298837954998,294.7966079851227L218.86234512861571,294.7966079851227L219.0948064617316,294.7966079851227L219.3272677948475,294.7966079851227L219.5597291279634,294.7966079851227L219.79219046107926,294.7966079851227L220.02465179419517,294.7966079851227L220.25711312731107,294.7966079851227L220.48957446042695,294.7966079851227L220.72203579354286,294.7966079851227L220.95449712665877,294.7966079851227L221.18695845977464,294.7966079851227L221.41941979289055,294.7966079851227L221.65188112600646,294.7966079851227L221.88434245912234,294.7966079851227L222.11680379223824,294.7966079851227L222.46549579191208,290.63438565581083L222.69795712502798,294.7966079851227L222.93041845814386,286.47216332649896L223.16287979125977,294.7966079851227L223.39534112437568,294.7966079851227L223.62780245749155,294.7966079851227L223.86026379060746,294.7966079851227L224.09272512372337,299.67999877929685L224.32518645683925,294.7966079851227L224.55764778995515,294.7966079851227L224.79010912307106,294.7966079851227L225.0225704561869,294.7966079851227L225.25503178930282,294.7966079851227L225.4874931224187,294.7966079851227L225.7199544555346,294.7966079851227L225.9524157886505,294.7966079851227L226.1848771217664,294.7966079851227L226.4173384548823,294.7966079851227L226.6497997879982,294.7966079851227L226.88226112111408,294.7966079851227L227.11472245423,294.7966079851227L227.3471837873459,299.67999877929685L227.57964512046178,294.7966079851227L227.81210645357768,294.7966079851227L228.0445677866936,294.7966079851227L228.27702911980944,294.7966079851227L228.50949045292535,294.7966079851227L228.74195178604126,294.7966079851227L228.97441311915713,294.7966079851227L229.20687445227304,294.7966079851227L229.43933578538895,294.7966079851227L229.67179711850483,294.7966079851227L229.90425845162073,294.7966079851227L230.13671978473664,294.7966079851227L230.36918111785252,294.7966079851227L230.60164245096843,294.7966079851227L230.83410378408433,294.7966079851227L231.0665651172002,294.7966079851227L231.29902645031612,294.7966079851227L231.53148778343203,294.7966079851227L231.76394911654788,294.7966079851227L231.99641044966378,294.7966079851227L232.22887178277972,294.7966079851227L232.46133311589557,294.7966079851227L232.69379444901148,294.7966079851227L232.92625578212738,299.67999877929685L233.15871711524326,294.7966079851227L233.39117844835917,290.63438565581083L233.62363978147508,290.63438565581083L243.50324643890065,7.620272067077337L253.3828530963262,8.307455359634105L263.2624597537518,8.307455359634105L270.00383841411275,62.942988728460534L278.02375440661115,29.433705341396205L279.53475307186443,245.57111011081273L281.8593664030234,211.55216313549917L291.738973060449,7.620272067077337L295.4583543903033,162.2926879036486L296.7368917224407,253.89555452134874L298.59658238736785,233.08444349500868L308.47618904479344,12.503655666705981L313.5903383733432,114.06188382629256L323.4699450307687,12.503655666705981L333.34955168819425,8.307455359634105L337.3013943511645,154.12114495122998L341.9506210134824,134.05753628695737L351.83022767090796,12.503655666705981L361.3611423286597,9.530635269338063L371.24074898608524,12.503655666705981L381.12035564351083,8.307455359634105L381.93397030941645,266.3482430353489L389.2565023025672,51.33973688193947L399.1361089599927,6.600929012961217L399.36857029310863,287.1593550540401L402.15810629049935,199.7866658528646L412.03771294792494,7.620272067077337L421.9173196053505,8.307455359634105L422.61470360469815,270.5104652406169L429.0073902653853,77.36635951423216L438.7707662562529,7.2465129472347485L445.16345291694006,77.36635951423216L447.0231435818672,233.08444349500868L456.9027502392928,12.503655666705981L464.45774356555944,41.35039723824917L467.0148182298342,208.1111102634006L469.5718928941091,208.1111102634006L474.6860422226588,118.25808413336438L483.7520342141787,17.753145374462463L493.63164087160425,12.503655666705981L503.51124752902984,8.307455359634105L506.6494755260945,183.10379892998867L508.16047419134776,240.68771857237525L510.1363955228329,224.03882975130318L520.0160021802585,12.503655666705981L521.4107701789538,245.53713200900884L531.2903768363794,12.503655666705981L533.1500675013065,228.88824318793678L533.7312208340962,273.98549621451934L535.1259888327917,249.73333231608075L539.4265234954357,141.20211492878056L540.7050608275731,248.927221697806L543.3783661584059,203.9488880581326L544.4244421574274,257.3366073934473L554.304048814853,7.620272067077337L564.1836554722786,8.307455359634105L574.0632621297042,8.307455359634105L575.2255687952836,253.86157641954486L576.6203367939789,244.84994077764327L580.4559487903913,157.5112227318139L590.3355554478169,7.620272067077337L591.3816314468384,258.0237986248129L601.261238104264,12.503655666705981L602.4235447698434,253.86157641954486L612.303151427269,7.620272067077337L615.5576100908916,178.94157672472065L617.8822234220505,211.55216313549917L627.761830079476,7.620272067077337L633.4571327408155,90.66084756161439L642.1744327326616,22.35708290318081L645.1964300631682,184.45524617400224L647.2885820612113,219.8766075460352L657.1681887186369,12.503655666705981L662.5147993803024,106.31505126880461L672.394406037728,7.365436303548279L682.2740126951536,8.307455359634105L682.5064740282695,287.1593550540401L687.2719313571454,125.18180511346242L694.9431553499699,42.777445758776366L695.9892313489914,270.5444433424208L700.8709193444251,126.10683511864627L710.7505260018509,7.450381558057984L713.6562926657995,191.4282433405247L720.1652099930445,69.01728891869715L720.3976713261603,291.35555436876086L720.6301326592765,286.47216332649896L722.2573619910877,236.52549636710722L724.5819753222465,211.55216313549917L734.461581979672,12.503655666705981L741.7841139728229,47.143536574867596L743.2951126380761,245.57111011081273L748.17680063351,126.10683511864627L758.0564072909355,7.450381558057984L767.936013948361,8.307455359634105L777.8156206057866,8.307455359634105L787.6952272632121,8.307455359634105L795.0177592563629,47.143536574867596L799.5507552521229,138.04986798320604L800.5968312511443,257.251666108342L804.3162125809987,161.605496672283L814.1958192384243,7.620272067077337L819.1937379004161,117.96927026803155L819.7748912332058,278.8688877529568L825.9351165607769,84.45063496416225L835.8147232182025,12.503655666705981L841.5100258795421,94.91565215548911L848.0189432067871,68.67750790065844L857.8985498642127,12.503655666705981L863.3613911924363,102.49259420395765L868.5917711875439,114.36767086490966L878.4713778449694,7.365436303548279L888.350984502395,8.307455359634105L898.2305911598206,8.307455359634105L908.1101978172461,8.307455359634105L917.9898044746717,8.307455359634105L927.8694111320973,8.307455359634105L932.867329794089,117.96927026803155L940.8872457865874,29.943360990836595L950.7668524440129,12.503655666705981L954.6024644404253,158.19842190198833L964.4820710978508,7.620272067077337L974.3616777552763,8.307455359634105L974.5941390883922,287.1593550540401L984.4737457458178,12.503655666705981L988.3093577422301,158.19842190198833L998.1889643996557,7.620272067077337L1002.7219603954156,133.85366767613417L1003.5355750613213,265.57610853417583L1005.7439577259222,215.71438534076717L1010.1607230551242,137.175805130728L1011.0905683875878,266.3822211371528L1020.9701750450134,7.620272067077337L1023.875941708962,191.4282433405247L1025.6194017073312,232.3632741618392L1030.501089702765,121.22345151901763L1034.917855031967,142.05918873035668L1037.2424683631261,216.43555467393662L1047.1220750205516,7.620272067077337L1056.5367590117453,10.295142559925125L1066.416365669171,4.647251669709419L1073.041513662974,66.28975236805337L1082.8048896538417,7.1615676927251L1084.8970416518848,224.75999908447264L1092.916957644383,30.113251499855892L1098.3797989726065,100.2764280854621L1099.89079763786,240.43289074765505L1109.7704042952855,12.503655666705981L1110.932710960865,253.86157641954486L1117.2091669549943,80.88301366284435L1118.8363962868054,241.4088879055447L1128.7160029442311,7.620272067077337L1129.6458482766946,262.1860208300809L1135.9223042708238,75.99963006321565L1145.8019109282493,7.110600540019277L1152.1945975889364,73.17017508477795L1155.332825586001,187.29999923706055L1165.2124322434267,7.620272067077337L1175.0920389008522,8.307455359634105L1175.3245002339681,287.1593550540401L1185.2041068913936,7.620272067077337L1188.5747962215742,174.77935451945265L1198.4544028789996,7.620272067077337L1198.6868642121158,287.1593550540401L1201.2439388763903,208.1111102634006L1204.0334748737812,199.7866658528646L1213.7968508646488,7.841129728802514L1223.6764575220743,12.503655666705981L1233.5560641794998,8.307455359634105L1234.3696788454056,266.3482430353489L1236.8105228431225,212.27333246866863L1246.690129500548,7.620272067077337L1256.5697361579737,8.307455359634105L1266.4493428153992,8.307455359634105L1266.681804148515,287.1593550540401L1267.7278801475366,257.3366073934473L1270.4011854783694,199.06549651969513L1273.1907214757603,199.7866658528646" fill="none"></path></g></g></g></g></g></g><g transform="translate(39, 374)" clip-path="url(#clip_1)"><clipPath id="clip_1"><rect width="1394" height="25"></rect></clipPath><g><g><line x1="0" y1="0" x2="0" y2="5" style="visibility: inherit;" fill="rgb(0, 0, 0)" stroke="rgb(204, 204, 204)" stroke-width="1px"></line><line x1="116.23066655794779" y1="0" x2="116.23066655794779" y2="5" style="visibility: inherit;" fill="rgb(0, 0, 0)" stroke="rgb(204, 204, 204)" stroke-width="1px"></line><line x1="232.46133311589557" y1="0" x2="232.46133311589557" y2="5" style="visibility: inherit;" fill="rgb(0, 0, 0)" stroke="rgb(204, 204, 204)" stroke-width="1px"></line><line x1="348.6919996738434" y1="0" x2="348.6919996738434" y2="5" style="visibility: inherit;" fill="rgb(0, 0, 0)" stroke="rgb(204, 204, 204)" stroke-width="1px"></line><line x1="464.92266623179114" y1="0" x2="464.92266623179114" y2="5" style="visibility: inherit;" fill="rgb(0, 0, 0)" stroke="rgb(204, 204, 204)" stroke-width="1px"></line><line x1="581.153332789739" y1="0" x2="581.153332789739" y2="5" style="visibility: inherit;" fill="rgb(0, 0, 0)" stroke="rgb(204, 204, 204)" stroke-width="1px"></line><line x1="697.3839993476868" y1="0" x2="697.3839993476868" y2="5" style="visibility: inherit;" fill="rgb(0, 0, 0)" stroke="rgb(204, 204, 204)" stroke-width="1px"></line><line x1="813.6146659056346" y1="0" x2="813.6146659056346" y2="5" style="visibility: inherit;" fill="rgb(0, 0, 0)" stroke="rgb(204, 204, 204)" stroke-width="1px"></line><line x1="929.8453324635823" y1="0" x2="929.8453324635823" y2="5" style="visibility: inherit;" fill="rgb(0, 0, 0)" stroke="rgb(204, 204, 204)" stroke-width="1px"></line><line x1="1046.0759990215302" y1="0" x2="1046.0759990215302" y2="5" style="visibility: inherit;" fill="rgb(0, 0, 0)" stroke="rgb(204, 204, 204)" stroke-width="1px"></line><line x1="1162.306665579478" y1="0" x2="1162.306665579478" y2="5" style="visibility: inherit;" fill="rgb(0, 0, 0)" stroke="rgb(204, 204, 204)" stroke-width="1px"></line><line x1="1278.5373321374257" y1="0" x2="1278.5373321374257" y2="5" style="visibility: inherit;" fill="rgb(0, 0, 0)" stroke="rgb(204, 204, 204)" stroke-width="1px"></line><line x1="1394.7679986953735" y1="0" x2="1394.7679986953735" y2="5" style="visibility: inherit;" fill="rgb(0, 0, 0)" stroke="rgb(204, 204, 204)" stroke-width="1px"></line></g><g transform="translate(0, 8)"><text style="text-anchor: middle; visibility: hidden; font-family: &quot;Helvetica Neue&quot;, sans-serif; font-size: 12px; font-weight: 200;" x="0" y="0" dx="0em" dy="0.95em" fill="rgb(50, 49, 63)" stroke="none" stroke-width="1px">-1k</text><text style="text-anchor: middle; visibility: inherit; font-family: &quot;Helvetica Neue&quot;, sans-serif; font-size: 12px; font-weight: 200;" x="116.23066655794779" y="0" dx="0em" dy="0.95em" fill="rgb(50, 49, 63)" stroke="none" stroke-width="1px">0</text><text style="text-anchor: middle; visibility: inherit; font-family: &quot;Helvetica Neue&quot;, sans-serif; font-size: 12px; font-weight: 200;" x="232.46133311589557" y="0" dx="0em" dy="0.95em" fill="rgb(50, 49, 63)" stroke="none" stroke-width="1px">1k</text><text style="text-anchor: middle; visibility: inherit; font-family: &quot;Helvetica Neue&quot;, sans-serif; font-size: 12px; font-weight: 200;" x="348.6919996738434" y="0" dx="0em" dy="0.95em" fill="rgb(50, 49, 63)" stroke="none" stroke-width="1px">2k</text><text style="text-anchor: middle; visibility: inherit; font-family: &quot;Helvetica Neue&quot;, sans-serif; font-size: 12px; font-weight: 200;" x="464.92266623179114" y="0" dx="0em" dy="0.95em" fill="rgb(50, 49, 63)" stroke="none" stroke-width="1px">3k</text><text style="text-anchor: middle; visibility: inherit; font-family: &quot;Helvetica Neue&quot;, sans-serif; font-size: 12px; font-weight: 200;" x="581.153332789739" y="0" dx="0em" dy="0.95em" fill="rgb(50, 49, 63)" stroke="none" stroke-width="1px">4k</text><text style="text-anchor: middle; visibility: inherit; font-family: &quot;Helvetica Neue&quot;, sans-serif; font-size: 12px; font-weight: 200;" x="697.3839993476868" y="0" dx="0em" dy="0.95em" fill="rgb(50, 49, 63)" stroke="none" stroke-width="1px">5k</text><text style="text-anchor: middle; visibility: inherit; font-family: &quot;Helvetica Neue&quot;, sans-serif; font-size: 12px; font-weight: 200;" x="813.6146659056346" y="0" dx="0em" dy="0.95em" fill="rgb(50, 49, 63)" stroke="none" stroke-width="1px">6k</text><text style="text-anchor: middle; visibility: inherit; font-family: &quot;Helvetica Neue&quot;, sans-serif; font-size: 12px; font-weight: 200;" x="929.8453324635823" y="0" dx="0em" dy="0.95em" fill="rgb(50, 49, 63)" stroke="none" stroke-width="1px">7k</text><text style="text-anchor: middle; visibility: inherit; font-family: &quot;Helvetica Neue&quot;, sans-serif; font-size: 12px; font-weight: 200;" x="1046.0759990215302" y="0" dx="0em" dy="0.95em" fill="rgb(50, 49, 63)" stroke="none" stroke-width="1px">8k</text><text style="text-anchor: middle; visibility: inherit; font-family: &quot;Helvetica Neue&quot;, sans-serif; font-size: 12px; font-weight: 200;" x="1162.306665579478" y="0" dx="0em" dy="0.95em" fill="rgb(50, 49, 63)" stroke="none" stroke-width="1px">9k</text><text style="text-anchor: middle; visibility: inherit; font-family: &quot;Helvetica Neue&quot;, sans-serif; font-size: 12px; font-weight: 200;" x="1278.5373321374257" y="0" dx="0em" dy="0.95em" fill="rgb(50, 49, 63)" stroke="none" stroke-width="1px">10k</text><text style="text-anchor: middle; visibility: hidden; font-family: &quot;Helvetica Neue&quot;, sans-serif; font-size: 12px; font-weight: 200;" x="1394.7679986953735" y="0" dx="0em" dy="0.95em" fill="rgb(50, 49, 63)" stroke="none" stroke-width="1px">11k</text></g><line x1="0" y1="0" x2="1394.7679986953735" y2="0" fill="rgb(0, 0, 0)" stroke="rgb(204, 204, 204)" stroke-width="1px"></line></g></g></g></g></svg>