<svg viewBox="0 0 1434 400" xmlns="http://www.w3.org/2000/svg"><g><g><g><g><g><line x1="29.488000869750977" y1="364.0018501730964" x2="24.488000869750977" y2="364.0018501730964" style="visibility: inherit;" fill="rgb(0, 0, 0)" stroke="rgb(204, 204, 204)" stroke-width="1px"></line><line x1="29.488000869750977" y1="338.7331056263369" x2="24.488000869750977" y2="338.7331056263369" style="visibility: inherit;" fill="rgb(0, 0, 0)" stroke="rgb(204, 204, 204)" stroke-width="1px"></line><line x1="29.488000869750977" y1="313.4643610795775" x2="24.488000869750977" y2="313.4643610795775" style="visibility: inherit;" fill="rgb(0, 0, 0)" stroke="rgb(204, 204, 204)" stroke-width="1px"></line><line x1="29.488000869750977" y1="288.195616532818" x2="24.488000869750977" y2="288.195616532818" style="visibility: inherit;" fill="rgb(0, 0, 0)" stroke="rgb(204, 204, 204)" stroke-width="1px"></line><line x1="29.488000869750977" y1="262.9268719860586" x2="24.488000869750977" y2="262.9268719860586" style="visibility: inherit;" fill="rgb(0, 0, 0)" stroke="rgb(204, 204, 204)" stroke-width="1px"></line><line x1="29.488000869750977" y1="237.6581274392991" x2="24.488000869750977" y2="237.6581274392991" style="visibility: inherit;" fill="rgb(0, 0, 0)" stroke="rgb(204, 204, 204)" stroke-width="1px"></line><line x1="29.488000869750977" y1="212.38938289253963" x2="24.488000869750977" y2="212.38938289253963" style="visibility: inherit;" fill="rgb(0, 0, 0)" stroke="rgb(204, 204, 204)" stroke-width="1px"></line><line x1="29.488000869750977" y1="187.12063834578018" x2="24.488000869750977" y2="187.12063834578018" style="visibility: inherit;" fill="rgb(0, 0, 0)" stroke="rgb(204, 204, 204)" stroke-width="1px"></line><line x1="29.488000869750977" y1="161.85189379902076" x2="24.488000869750977" y2="161.85189379902076" style="visibility: inherit;" fill="rgb(0, 0, 0)" stroke="rgb(204, 204, 204)" stroke-width="1px"></line><line x1="29.488000869750977" y1="136.58314925226128" x2="24.488000869750977" y2="136.58314925226128" style="visibility: inherit;" fill="rgb(0, 0, 0)" stroke="rgb(204, 204, 204)" stroke-width="1px"></line><line x1="29.488000869750977" y1="111.31440470550183" x2="24.488000869750977" y2="111.31440470550183" style="visibility: inherit;" fill="rgb(0, 0, 0)" stroke="rgb(204, 204, 204)" stroke-width="1px"></line><line x1="29.488000869750977" y1="86.04566015874235" x2="24.488000869750977" y2="86.04566015874235" style="visibility: inherit;" fill="rgb(0, 0, 0)" stroke="rgb(204, 204, 204)" stroke-width="1px"></line><line x1="29.488000869750977" y1="60.77691561198293" x2="24.488000869750977" y2="60.77691561198293" style="visibility: inherit;" fill="rgb(0, 0, 0)" stroke="rgb(204, 204, 204)" stroke-width="1px"></line><line x1="29.488000869750977" y1="35.50817106522345" x2="24.488000869750977" y2="35.50817106522345" style="visibility: inherit;" fill="rgb(0, 0, 0)" stroke="rgb(204, 204, 204)" stroke-width="1px"></line><line x1="29.488000869750977" y1="10.239426518464029" x2="24.488000869750977" y2="10.239426518464029" style="visibility: inherit;" fill="rgb(0, 0, 0)" stroke="rgb(204, 204, 204)" stroke-width="1px"></line></g><g transform="translate(19.488000869750977, 0)"><text style="text-anchor: end; visibility: inherit; font-family: &quot;Helvetica Neue&quot;, sans-serif; font-size: 12px; font-weight: 200;" x="0" y="364.0018501730964" dx="0em" dy="0.3em" fill="rgb(50, 49, 63)" stroke="none" stroke-width="1px">-6</text><text style="text-anchor: end; visibility: hidden; font-family: &quot;Helvetica Neue&quot;, sans-serif; font-size: 12px; font-weight: 200;" x="0" y="338.7331056263369" dx="0em" dy="0.3em" fill="rgb(50, 49, 63)" stroke="none" stroke-width="1px">-4</text><text style="text-anchor: end; visibility: inherit; font-family: &quot;Helvetica Neue&quot;, sans-serif; font-size: 12px; font-weight: 200;" x="0" y="313.4643610795775" dx="0em" dy="0.3em" fill="rgb(50, 49, 63)" stroke="none" stroke-width="1px">-2</text><text style="text-anchor: end; visibility: hidden; font-family: &quot;Helvetica Neue&quot;, sans-serif; font-size: 12px; font-weight: 200;" x="0" y="288.195616532818" dx="0em" dy="0.3em" fill="rgb(50, 49, 63)" stroke="none" stroke-width="1px">0</text><text style="text-anchor: end; visibility: inherit; font-family: &quot;Helvetica Neue&quot;, sans-serif; font-size: 12px; font-weight: 200;" x="0" y="262.9268719860586" dx="0em" dy="0.3em" fill="rgb(50, 49, 63)" stroke="none" stroke-width="1px">2</text><text style="text-anchor: end; visibility: hidden; font-family: &quot;Helvetica Neue&quot;, sans-serif; font-size: 12px; font-weight: 200;" x="0" y="237.6581274392991" dx="0em" dy="0.3em" fill="rgb(50, 49, 63)" stroke="none" stroke-width="1px">4</text><text style="text-anchor: end; visibility: inherit; font-family: &quot;Helvetica Neue&quot;, sans-serif; font-size: 12px; font-weight: 200;" x="0" y="212.38938289253963" dx="0em" dy="0.3em" fill="rgb(50, 49, 63)" stroke="none" stroke-width="1px">6</text><text style="text-anchor: end; visibility: hidden; font-family: &quot;Helvetica Neue&quot;, sans-serif; font-size: 12px; font-weight: 200;" x="0" y="187.12063834578018" dx="0em" dy="0.3em" fill="rgb(50, 49, 63)" stroke="none" stroke-width="1px">8</text><text style="text-anchor: end; visibility: inherit; font-family: &quot;Helvetica Neue&quot;, sans-serif; font-size: 12px; font-weight: 200;" x="0" y="161.85189379902076" dx="0em" dy="0.3em" fill="rgb(50, 49, 63)" stroke="none" stroke-width="1px">10</text><text style="text-anchor: end; visibility: hidden; font-family: &quot;Helvetica Neue&quot;, sans-serif; font-size: 12px; font-weight: 200;" x="0" y="136.58314925226128" dx="0em" dy="0.3em" fill="rgb(50, 49, 63)" stroke="none" stroke-width="1px">12</text><text style="text-anchor: end; visibility: inherit; font-family: &quot;Helvetica Neue&quot;, sans-serif; font-size: 12px; font-weight: 200;" x="0" y="111.31440470550183" dx="0em" dy="0.3em" fill="rgb(50, 49, 63)" stroke="none" stroke-width="1px">14</text><text style="text-anchor: end; visibility: hidden; font-family: &quot;Helvetica Neue&quot;, sans-serif; font-size: 12px; font-weight: 200;" x="0" y="86.04566015874235" dx="0em" dy="0.3em" fill="rgb(50, 49, 63)" stroke="none" stroke-width="1px">16</text><text style="text-anchor: end; visibility: inherit; font-family: &quot;Helvetica Neue&quot;, sans-serif; font-size: 12px; font-weight: 200;" x="0" y="60.77691561198293" dx="0em" dy="0.3em" fill="rgb(50, 49, 63)" stroke="none" stroke-width="1px">18</text><text style="text-anchor: end; visibility: hidden; font-family: &quot;Helvetica Neue&quot;, sans-serif; font-size: 12px; font-weight: 200;" x="0" y="35.50817106522345" dx="0em" dy="0.3em" fill="rgb(50, 49, 63)" stroke="none" stroke-width="1px">20</text><text style="text-anchor: end; visibility: hidden; font-family: &quot;Helvetica Neue&quot;, sans-serif; font-size: 12px; font-weight: 200;" x="0" y="10.239426518464029" dx="0em" dy="0.3em" fill="rgb(50, 49, 63)" stroke="none" stroke-width="1px">22</text></g><line x1="29.488000869750977" y1="0" x2="29.488000869750977" y2="374.5999984741211" fill="rgb(0, 0, 0)" stroke="rgb(204, 204, 204)" stroke-width="1px"></line></g></g><g transform="translate(29, 0)" clip-path="url(#clip_0)"><clipPath id="clip_0"><rect width="1404" height="374"></rect></clipPath><g><g><g><line x1="131.76446318675758" y1="0" x2="131.76446318675758" y2="374.5999984741211" fill="rgb(0, 0, 0)" stroke="rgb(60, 60, 60)" stroke-width="1px" opacity="0.25"></line><line x1="273.877070221375" y1="0" x2="273.877070221375" y2="374.5999984741211" fill="rgb(0, 0, 0)" stroke="rgb(60, 60, 60)" stroke-width="1px" opacity="0.25"></line><line x1="415.9896772559925" y1="0" x2="415.9896772559925" y2="374.5999984741211" fill="rgb(0, 0, 0)" stroke="rgb(60, 60, 60)" stroke-width="1px" opacity="0.25"></line><line x1="558.1022842906099" y1="0" x2="558.1022842906099" y2="374.5999984741211" fill="rgb(0, 0, 0)" stroke="rgb(60, 60, 60)" stroke-width="1px" opacity="0.25"></line><line x1="700.2148913252273" y1="0" x2="700.2148913252273" y2="374.5999984741211" fill="rgb(0, 0, 0)" stroke="rgb(60, 60, 60)" stroke-width="1px" opacity="0.25"></line><line x1="842.3274983598448" y1="0" x2="842.3274983598448" y2="374.5999984741211" fill="rgb(0, 0, 0)" stroke="rgb(60, 60, 60)" stroke-width="1px" opacity="0.25"></line><line x1="984.4401053944621" y1="0" x2="984.4401053944621" y2="374.5999984741211" fill="rgb(0, 0, 0)" stroke="rgb(60, 60, 60)" stroke-width="1px" opacity="0.25"></line><line x1="1126.5527124290795" y1="0" x2="1126.5527124290795" y2="374.5999984741211" fill="rgb(0, 0, 0)" stroke="rgb(60, 60, 60)" stroke-width="1px" opacity="0.25"></line><line x1="1268.665319463697" y1="0" x2="1268.665319463697" y2="374.5999984741211" fill="rgb(0, 0, 0)" stroke="rgb(60, 60, 60)" stroke-width="1px" opacity="0.25"></line></g><g><line x1="0" y1="364.0018501730964" x2="1404.511999130249" y2="364.0018501730964" fill="rgb(0, 0, 0)" stroke="rgb(60, 60, 60)" stroke-width="1px" opacity="0.25"></line><line x1="0" y1="338.7331056263369" x2="1404.511999130249" y2="338.7331056263369" fill="rgb(0, 0, 0)" stroke="rgb(60, 60, 60)" stroke-width="1px" opacity="0.25"></line><line x1="0" y1="313.4643610795775" x2="1404.511999130249" y2="313.4643610795775" fill="rgb(0, 0, 0)" stroke="rgb(60, 60, 60)" stroke-width="1px" opacity="0.25"></line><line x1="0" y1="288.195616532818" x2="1404.511999130249" y2="288.195616532818" fill="rgb(0, 0, 0)" stroke="rgb(60, 60, 60)" stroke-width="1px" opacity="0.25"></line><line x1="0" y1="262.9268719860586" x2="1404.511999130249" y2="262.9268719860586" fill="rgb(0, 0, 0)" stroke="rgb(60, 60, 60)" stroke-width="1px" opacity="0.25"></line><line x1="0" y1="237.6581274392991" x2="1404.511999130249" y2="237.6581274392991" fill="rgb(0, 0, 0)" stroke="rgb(60, 60, 60)" stroke-width="1px" opacity="0.25"></line><line x1="0" y1="212.38938289253963" x2="1404.511999130249" y2="212.38938289253963" fill="rgb(0, 0, 0)" stroke="rgb(60, 60, 60)" stroke-width="1px" opacity="0.25"></line><line x1="0" y1="187.12063834578018" x2="1404.511999130249" y2="187.12063834578018" fill="rgb(0, 0, 0)" stroke="rgb(60, 60, 60)" stroke-width="1px" opacity="0.25"></line><line x1="0" y1="161.85189379902076" x2="1404.511999130249" y2="161.85189379902076" fill="rgb(0, 0, 0)" stroke="rgb(60, 60, 60)" stroke-width="1px" opacity="0.25"></line><line x1="0" y1="136.58314925226128" x2="1404.511999130249" y2="136.58314925226128" fill="rgb(0, 0, 0)" stroke="rgb(60, 60, 60)" stroke-width="1px" opacity="0.25"></line><line x1="0" y1="111.31440470550183" x2="1404.511999130249" y2="111.31440470550183" fill="rgb(0, 0, 0)" stroke="rgb(60, 60, 60)" stroke-width="1px" opacity="0.25"></line><line x1="0" y1="86.04566015874235" x2="1404.511999130249" y2="86.04566015874235" fill="rgb(0, 0, 0)" stroke="rgb(60, 60, 60)" stroke-width="1px" opacity="0.25"></line><line x1="0" y1="60.77691561198293" x2="1404.511999130249" y2="60.77691561198293" fill="rgb(0, 0, 0)" stroke="rgb(60, 60, 60)" stroke-width="1px" opacity="0.25"></line><line x1="0" y1="35.50817106522345" x2="1404.511999130249" y2="35.50817106522345" fill="rgb(0, 0, 0)" stroke="rgb(60, 60, 60)" stroke-width="1px" opacity="0.25"></line><line x1="0" y1="10.239426518464029" x2="1404.511999130249" y2="10.239426518464029" fill="rgb(0, 0, 0)" stroke="rgb(60, 60, 60)" stroke-width="1px" opacity="0.25"></line></g></g></g><g><g><line x1="0" y1="288.195616532818" x2="1404.511999130249" y2="288.195616532818" fill="rgb(0, 0, 0)" stroke="rgb(153, 153, 153)" stroke-width="1.5px"></line></g></g><g><g><line x1="131.76446318675758" y1="0" x2="131.76446318675758" y2="374.5999984741211" fill="rgb(0, 0, 0)" stroke="rgb(153, 153, 153)" stroke-width="1.5px"></line></g></g><g><g><g><g><g><path style="fill: none;" stroke="rgb(0, 119, 187)" stroke-width="2px" d="M134.60671532744993,266.8035297589476L137.44896746814229,269.44143215962276L141.7123456791808,279.40455139738094L142.4229087143539,282.9114241979793L144.55459781987315,290.76002705412986L145.9757238902193,292.7569762490689L148.1074129957386,288.06788082053293L150.23910210125786,285.1201041236263L155.21304334746947,287.89256192741857L157.3447324529887,281.5951268506731L161.60811066402724,278.0216233318459L162.31867369920033,281.5552103931599L170.84543012127736,261.9870164868467L182.21443868404677,250.94383672550515L185.76725385991222,264.0793082539067L188.60950600060457,266.4031446960855L195.71513635233543,270.9411510827788L196.42569938750853,277.7930956580247L203.53132973923937,258.9889970848635L211.34752312614333,246.96801175889885L212.7686491964895,258.6722346839241L216.32146437235494,271.87920590047486L219.8742795482204,276.9501817711102L221.29540561856655,278.7664323723609L222.71653168891274,281.3764977776908L224.848220794432,278.36692846705273L231.24328811098977,268.1881308459717L232.66441418133596,271.086840550542L236.2172293572014,263.3669693095562L240.48060756823992,264.52303253686904L248.29680095514388,267.08680106965113L251.84961613100933,268.24552929071154L253.2707422013555,275.24988830610874L254.69186827170162,281.61135118066727L257.534120412394,291.28406161632256L261.7974986234325,285.4213291340162L280.9827005731059,257.4469786287865L288.0883309248367,255.96064454690497L291.6411461007022,267.68157475554506L295.9045243117407,263.7116335559428L299.45733948760613,273.1633782675321L304.43128073381774,269.9514013205226L306.56296983933703,276.9815680535823L307.2735328745101,281.2610238150463L313.66860019106787,279.8866208643459L315.08972626141406,284.19064765424287L331.4326760703951,258.53202170078737L337.8277433869528,258.02258349773484L341.3805585628183,264.24855858322155L347.7756258793761,263.96473262222645L350.6178780200684,264.6729237550377L353.4601301607608,274.0073048012958L375.4875842511265,271.74168814115524L378.3298363918189,263.908788013406L382.5932146028574,261.3651494191803L396.80447530631915,255.08923121317576L397.5150383414922,267.4561459789858L406.04179476356927,254.67230166450705L410.3051729746078,270.39739908613114L418.8319293966848,269.4257511827751L420.253055467031,272.973753321965L420.96361850220404,278.79327814875876L423.8058706428964,278.0161792180917L427.3586858187619,285.8144840403849L440.85938348705054,254.40670861008095L441.56994652222363,267.54885459946064L450.09670294430066,240.02489684272658L462.17627454224316,235.87159972231376L469.99246792914704,236.680871967566L474.2558461401856,249.1777739486547L478.5192243512241,261.9661578949973L486.3354177381281,252.81055721571454L494.15161112503205,241.75578537022366L514.7579391450515,184.42566964657388L526.1269477078209,186.42520663204797L531.1008889540326,218.44643116138494L533.2325780595518,246.90215888708798L565.9184776775138,201.72223690183642L588.6564948030526,165.58822905063417L600.7360664009951,169.15187791943413L621.3423944210147,155.3041142530504L624.1846465617069,199.8438820797691L642.6592854762073,175.47535877445523L661.1339243907075,152.59172082042494L703.0571434659197,61.21910228744281L705.8993956066121,139.6945181543025L712.2944629231698,179.24898290485993L724.3740345211123,181.47290738983662L730.058538802497,203.13378637865813L755.6388080687282,133.03450702629308L775.5345730535746,138.62342629373296L797.5620271439402,159.53425331197792L818.8789181991328,118.54477066785023L847.3014396060564,67.57902671221802L852.2753808522679,140.87854004805894L853.6965069226142,198.5408152603401" fill="none"></path></g></g></g></g><g opacity="0.2"><g><g><g><path style="fill: none;" stroke="rgb(0, 119, 187)" stroke-width="2px" d="M134.60671532744993,266.8035297589476L137.44896746814229,271.0241736000279L141.7123456791808,288.9691458656288L142.4229087143539,287.03550661148296L144.55459781987315,301.00716294311997L145.9757238902193,295.51947588737977L148.1074129957386,281.36239933219963L150.23910210125786,280.82221740088005L155.21304334746947,291.9813986658084L157.3447324529887,272.2441696899797L161.60811066402724,272.6937794675109L162.31867369920033,286.8363613603865L170.84543012127736,232.698619175641L182.21443868404677,234.4007018222668L185.76725385991222,283.76707529281407L188.60950600060457,269.88726040985114L195.71513635233543,277.746240330602L196.42569938750853,288.0692728129082L203.53132973923937,230.78571384027606L211.34752312614333,228.93763253562588L212.7686491964895,276.2279271840606L216.32146437235494,291.6892281442873L219.8742795482204,284.5565454594906L221.29540561856655,281.490786759017L222.71653168891274,285.2915773344579L224.848220794432,273.8525873355339L231.24328811098977,252.91996045910355L232.66441418133596,275.43490065719527L236.2172293572014,251.78716955917002L240.48060756823992,266.25712673889973L248.29680095514388,270.9324530186508L251.84961613100933,269.983621391754L253.2707422013555,285.75642599302466L254.69186827170162,291.1535450368466L257.534120412394,305.79312685410355L261.7974986234325,276.6272305617335L280.9827005731059,215.48545330375094L288.0883309248367,253.7311434378803L291.6411461007022,285.262970003222L295.9045243117407,257.7567217698064L299.45733948760613,287.3409953159641L304.43128073381774,265.13343590387274L306.56296983933703,287.52681814809716L307.2735328745101,287.6802074553889L313.66860019106787,277.8250164386524L315.08972626141406,290.6466878384172L331.4326760703951,220.04408277300453L337.8277433869528,257.2584261931846L341.3805585628183,273.58752121124195L347.7756258793761,263.53899368073957L350.6178780200684,265.7352104542459L353.4601301607608,288.0088763706151L375.4875842511265,268.3432631509543L378.3298363918189,252.15943782180273L382.5932146028574,257.54969152784565L396.80447530631915,245.67535390417495L397.5150383414922,286.0065181276938L406.04179476356927,235.49653519279332L410.3051729746078,293.9850452185641L418.8319293966848,267.96827932774124L420.253055467031,278.2957565307495L420.96361850220404,287.5225653889492L423.8058706428964,276.85053082209106L427.3586858187619,297.5119412738246L440.85938348705054,207.29504546462533L441.56994652222363,287.2620735835301L450.09670294430066,198.73896020762558L462.17627454224316,229.64165404169455L469.99246792914704,237.89478033544432L474.2558461401856,267.9231269202877L478.5192243512241,281.1487338145113L486.3354177381281,239.07715619679036L494.15161112503205,225.17362760198736L514.7579391450515,98.43049606109923L526.1269477078209,189.42451211025912L531.1008889540326,266.4782679553904L533.2325780595518,289.5857504756425L565.9184776775138,133.95235392395915L588.6564948030526,111.38721727383069L600.7360664009951,174.49735122263422L621.3423944210147,134.53246875347477L624.1846465617069,266.6535338198471L642.6592854762073,138.92257381648446L661.1339243907075,118.2662638893795L703.0571434659197,-75.83982551203025L705.8993956066121,257.40764195459207L712.2944629231698,238.58068003069604L724.3740345211123,184.80879411730166L730.058538802497,235.62510486189035L755.6388080687282,27.885587997745574L775.5345730535746,147.00680519489282L797.5620271439402,190.90049383934536L818.8789181991328,57.06054670165872L847.3014396060564,-8.869589221230228L852.2753808522679,250.82781005182028L853.6965069226142,285.03422807876194" fill="none"></path></g></g></g></g></g></g><g transform="translate(29, 374)" clip-path="url(#clip_1)"><clipPath id="clip_1"><rect width="1404" height="25"></rect></clipPath><g><g><line x1="131.76446318675758" y1="0" x2="131.76446318675758" y2="5" style="visibility: inherit;" fill="rgb(0, 0, 0)" stroke="rgb(204, 204, 204)" stroke-width="1px"></line><line x1="273.877070221375" y1="0" x2="273.877070221375" y2="5" style="visibility: inherit;" fill="rgb(0, 0, 0)" stroke="rgb(204, 204, 204)" stroke-width="1px"></line><line x1="415.9896772559925" y1="0" x2="415.9896772559925" y2="5" style="visibility: inherit;" fill="rgb(0, 0, 0)" stroke="rgb(204, 204, 204)" stroke-width="1px"></line><line x1="558.1022842906099" y1="0" x2="558.1022842906099" y2="5" style="visibility: inherit;" fill="rgb(0, 0, 0)" stroke="rgb(204, 204, 204)" stroke-width="1px"></line><line x1="700.2148913252273" y1="0" x2="700.2148913252273" y2="5" style="visibility: inherit;" fill="rgb(0, 0, 0)" stroke="rgb(204, 204, 204)" stroke-width="1px"></line><line x1="842.3274983598448" y1="0" x2="842.3274983598448" y2="5" style="visibility: inherit;" fill="rgb(0, 0, 0)" stroke="rgb(204, 204, 204)" stroke-width="1px"></line><line x1="984.4401053944621" y1="0" x2="984.4401053944621" y2="5" style="visibility: inherit;" fill="rgb(0, 0, 0)" stroke="rgb(204, 204, 204)" stroke-width="1px"></line><line x1="1126.5527124290795" y1="0" x2="1126.5527124290795" y2="5" style="visibility: inherit;" fill="rgb(0, 0, 0)" stroke="rgb(204, 204, 204)" stroke-width="1px"></line><line x1="1268.665319463697" y1="0" x2="1268.665319463697" y2="5" style="visibility: inherit;" fill="rgb(0, 0, 0)" stroke="rgb(204, 204, 204)" stroke-width="1px"></line></g><g transform="translate(0, 8)"><text style="text-anchor: middle; visibility: inherit; font-family: &quot;Helvetica Neue&quot;, sans-serif; font-size: 12px; font-weight: 200;" x="131.76446318675758" y="0" dx="0em" dy="0.95em" fill="rgb(50, 49, 63)" stroke="none" stroke-width="1px">0</text><text style="text-anchor: middle; visibility: inherit; font-family: &quot;Helvetica Neue&quot;, sans-serif; font-size: 12px; font-weight: 200;" x="273.877070221375" y="0" dx="0em" dy="0.95em" fill="rgb(50, 49, 63)" stroke="none" stroke-width="1px">200</text><text style="text-anchor: middle; visibility: inherit; font-family: &quot;Helvetica Neue&quot;, sans-serif; font-size: 12px; font-weight: 200;" x="415.9896772559925" y="0" dx="0em" dy="0.95em" fill="rgb(50, 49, 63)" stroke="none" stroke-width="1px">400</text><text style="text-anchor: middle; visibility: inherit; font-family: &quot;Helvetica Neue&quot;, sans-serif; font-size: 12px; font-weight: 200;" x="558.1022842906099" y="0" dx="0em" dy="0.95em" fill="rgb(50, 49, 63)" stroke="none" stroke-width="1px">600</text><text style="text-anchor: middle; visibility: inherit; font-family: &quot;Helvetica Neue&quot;, sans-serif; font-size: 12px; font-weight: 200;" x="700.2148913252273" y="0" dx="0em" dy="0.95em" fill="rgb(50, 49, 63)" stroke="none" stroke-width="1px">800</text><text style="text-anchor: middle; visibility: inherit; font-family: &quot;Helvetica Neue&quot;, sans-serif; font-size: 12px; font-weight: 200;" x="842.3274983598448" y="0" dx="0em" dy="0.95em" fill="rgb(50, 49, 63)" stroke="none" stroke-width="1px">1k</text><text style="text-anchor: middle; visibility: inherit; font-family: &quot;Helvetica Neue&quot;, sans-serif; font-size: 12px; font-weight: 200;" x="984.4401053944621" y="0" dx="0em" dy="0.95em" fill="rgb(50, 49, 63)" stroke="none" stroke-width="1px">1.2k</text><text style="text-anchor: middle; visibility: inherit; font-family: &quot;Helvetica Neue&quot;, sans-serif; font-size: 12px; font-weight: 200;" x="1126.5527124290795" y="0" dx="0em" dy="0.95em" fill="rgb(50, 49, 63)" stroke="none" stroke-width="1px">1.4k</text><text style="text-anchor: middle; visibility: inherit; font-family: &quot;Helvetica Neue&quot;, sans-serif; font-size: 12px; font-weight: 200;" x="1268.665319463697" y="0" dx="0em" dy="0.95em" fill="rgb(50, 49, 63)" stroke="none" stroke-width="1px">1.6k</text></g><line x1="0" y1="0" x2="1404.511999130249" y2="0" fill="rgb(0, 0, 0)" stroke="rgb(204, 204, 204)" stroke-width="1px"></line></g></g></g></g></svg>