<svg viewBox="0 0 1434 400" xmlns="http://www.w3.org/2000/svg"><g><g><g><g><g><line x1="48.97600173950195" y1="374.5999984741211" x2="43.97600173950195" y2="374.5999984741211" style="visibility: inherit;" fill="rgb(0, 0, 0)" stroke="rgb(204, 204, 204)" stroke-width="1px"></line><line x1="48.97600173950195" y1="332.9777764214409" x2="43.97600173950195" y2="332.9777764214409" style="visibility: inherit;" fill="rgb(0, 0, 0)" stroke="rgb(204, 204, 204)" stroke-width="1px"></line><line x1="48.97600173950195" y1="291.35555436876086" x2="43.97600173950195" y2="291.35555436876086" style="visibility: inherit;" fill="rgb(0, 0, 0)" stroke="rgb(204, 204, 204)" stroke-width="1px"></line><line x1="48.97600173950195" y1="249.73333231608075" x2="43.97600173950195" y2="249.73333231608075" style="visibility: inherit;" fill="rgb(0, 0, 0)" stroke="rgb(204, 204, 204)" stroke-width="1px"></line><line x1="48.97600173950195" y1="208.11111026340058" x2="43.97600173950195" y2="208.11111026340058" style="visibility: inherit;" fill="rgb(0, 0, 0)" stroke="rgb(204, 204, 204)" stroke-width="1px"></line><line x1="48.97600173950195" y1="166.48888821072052" x2="43.97600173950195" y2="166.48888821072052" style="visibility: inherit;" fill="rgb(0, 0, 0)" stroke="rgb(204, 204, 204)" stroke-width="1px"></line><line x1="48.97600173950195" y1="124.86666615804037" x2="43.97600173950195" y2="124.86666615804037" style="visibility: inherit;" fill="rgb(0, 0, 0)" stroke="rgb(204, 204, 204)" stroke-width="1px"></line><line x1="48.97600173950195" y1="83.24444410536034" x2="43.97600173950195" y2="83.24444410536034" style="visibility: inherit;" fill="rgb(0, 0, 0)" stroke="rgb(204, 204, 204)" stroke-width="1px"></line><line x1="48.97600173950195" y1="41.622222052680115" x2="43.97600173950195" y2="41.622222052680115" style="visibility: inherit;" fill="rgb(0, 0, 0)" stroke="rgb(204, 204, 204)" stroke-width="1px"></line><line x1="48.97600173950195" y1="0" x2="43.97600173950195" y2="0" style="visibility: inherit;" fill="rgb(0, 0, 0)" stroke="rgb(204, 204, 204)" stroke-width="1px"></line></g><g transform="translate(38.97600173950195, 0)"><text style="text-anchor: end; visibility: hidden; font-family: &quot;Helvetica Neue&quot;, sans-serif; font-size: 12px; font-weight: 200;" x="0" y="374.5999984741211" dx="0em" dy="0.3em" fill="rgb(50, 49, 63)" stroke="none" stroke-width="1px">0.35</text><text style="text-anchor: end; visibility: inherit; font-family: &quot;Helvetica Neue&quot;, sans-serif; font-size: 12px; font-weight: 200;" x="0" y="332.9777764214409" dx="0em" dy="0.3em" fill="rgb(50, 49, 63)" stroke="none" stroke-width="1px">0.4</text><text style="text-anchor: end; visibility: inherit; font-family: &quot;Helvetica Neue&quot;, sans-serif; font-size: 12px; font-weight: 200;" x="0" y="291.35555436876086" dx="0em" dy="0.3em" fill="rgb(50, 49, 63)" stroke="none" stroke-width="1px">0.45</text><text style="text-anchor: end; visibility: inherit; font-family: &quot;Helvetica Neue&quot;, sans-serif; font-size: 12px; font-weight: 200;" x="0" y="249.73333231608075" dx="0em" dy="0.3em" fill="rgb(50, 49, 63)" stroke="none" stroke-width="1px">0.5</text><text style="text-anchor: end; visibility: inherit; font-family: &quot;Helvetica Neue&quot;, sans-serif; font-size: 12px; font-weight: 200;" x="0" y="208.11111026340058" dx="0em" dy="0.3em" fill="rgb(50, 49, 63)" stroke="none" stroke-width="1px">0.55</text><text style="text-anchor: end; visibility: inherit; font-family: &quot;Helvetica Neue&quot;, sans-serif; font-size: 12px; font-weight: 200;" x="0" y="166.48888821072052" dx="0em" dy="0.3em" fill="rgb(50, 49, 63)" stroke="none" stroke-width="1px">0.6</text><text style="text-anchor: end; visibility: inherit; font-family: &quot;Helvetica Neue&quot;, sans-serif; font-size: 12px; font-weight: 200;" x="0" y="124.86666615804037" dx="0em" dy="0.3em" fill="rgb(50, 49, 63)" stroke="none" stroke-width="1px">0.65</text><text style="text-anchor: end; visibility: inherit; font-family: &quot;Helvetica Neue&quot;, sans-serif; font-size: 12px; font-weight: 200;" x="0" y="83.24444410536034" dx="0em" dy="0.3em" fill="rgb(50, 49, 63)" stroke="none" stroke-width="1px">0.7</text><text style="text-anchor: end; visibility: inherit; font-family: &quot;Helvetica Neue&quot;, sans-serif; font-size: 12px; font-weight: 200;" x="0" y="41.622222052680115" dx="0em" dy="0.3em" fill="rgb(50, 49, 63)" stroke="none" stroke-width="1px">0.75</text><text style="text-anchor: end; visibility: hidden; font-family: &quot;Helvetica Neue&quot;, sans-serif; font-size: 12px; font-weight: 200;" x="0" y="0" dx="0em" dy="0.3em" fill="rgb(50, 49, 63)" stroke="none" stroke-width="1px">0.8</text></g><line x1="48.97600173950195" y1="0" x2="48.97600173950195" y2="374.5999984741211" fill="rgb(0, 0, 0)" stroke="rgb(204, 204, 204)" stroke-width="1px"></line></g></g><g transform="translate(48, 0)" clip-path="url(#clip_0)"><clipPath id="clip_0"><rect width="1385" height="374"></rect></clipPath><g><g><g><line x1="0" y1="0" x2="0" y2="374.5999984741211" fill="rgb(0, 0, 0)" stroke="rgb(60, 60, 60)" stroke-width="1px" opacity="0.25"></line><line x1="125.91127256913619" y1="0" x2="125.91127256913619" y2="374.5999984741211" fill="rgb(0, 0, 0)" stroke="rgb(60, 60, 60)" stroke-width="1px" opacity="0.25"></line><line x1="251.82254513827237" y1="0" x2="251.82254513827237" y2="374.5999984741211" fill="rgb(0, 0, 0)" stroke="rgb(60, 60, 60)" stroke-width="1px" opacity="0.25"></line><line x1="377.73381770740855" y1="0" x2="377.73381770740855" y2="374.5999984741211" fill="rgb(0, 0, 0)" stroke="rgb(60, 60, 60)" stroke-width="1px" opacity="0.25"></line><line x1="503.64509027654475" y1="0" x2="503.64509027654475" y2="374.5999984741211" fill="rgb(0, 0, 0)" stroke="rgb(60, 60, 60)" stroke-width="1px" opacity="0.25"></line><line x1="629.556362845681" y1="0" x2="629.556362845681" y2="374.5999984741211" fill="rgb(0, 0, 0)" stroke="rgb(60, 60, 60)" stroke-width="1px" opacity="0.25"></line><line x1="755.4676354148171" y1="0" x2="755.4676354148171" y2="374.5999984741211" fill="rgb(0, 0, 0)" stroke="rgb(60, 60, 60)" stroke-width="1px" opacity="0.25"></line><line x1="881.3789079839532" y1="0" x2="881.3789079839532" y2="374.5999984741211" fill="rgb(0, 0, 0)" stroke="rgb(60, 60, 60)" stroke-width="1px" opacity="0.25"></line><line x1="1007.2901805530895" y1="0" x2="1007.2901805530895" y2="374.5999984741211" fill="rgb(0, 0, 0)" stroke="rgb(60, 60, 60)" stroke-width="1px" opacity="0.25"></line><line x1="1133.2014531222258" y1="0" x2="1133.2014531222258" y2="374.5999984741211" fill="rgb(0, 0, 0)" stroke="rgb(60, 60, 60)" stroke-width="1px" opacity="0.25"></line><line x1="1259.112725691362" y1="0" x2="1259.112725691362" y2="374.5999984741211" fill="rgb(0, 0, 0)" stroke="rgb(60, 60, 60)" stroke-width="1px" opacity="0.25"></line><line x1="1385.023998260498" y1="0" x2="1385.023998260498" y2="374.5999984741211" fill="rgb(0, 0, 0)" stroke="rgb(60, 60, 60)" stroke-width="1px" opacity="0.25"></line></g><g><line x1="0" y1="374.5999984741211" x2="1385.023998260498" y2="374.5999984741211" fill="rgb(0, 0, 0)" stroke="rgb(60, 60, 60)" stroke-width="1px" opacity="0.25"></line><line x1="0" y1="332.9777764214409" x2="1385.023998260498" y2="332.9777764214409" fill="rgb(0, 0, 0)" stroke="rgb(60, 60, 60)" stroke-width="1px" opacity="0.25"></line><line x1="0" y1="291.35555436876086" x2="1385.023998260498" y2="291.35555436876086" fill="rgb(0, 0, 0)" stroke="rgb(60, 60, 60)" stroke-width="1px" opacity="0.25"></line><line x1="0" y1="249.73333231608075" x2="1385.023998260498" y2="249.73333231608075" fill="rgb(0, 0, 0)" stroke="rgb(60, 60, 60)" stroke-width="1px" opacity="0.25"></line><line x1="0" y1="208.11111026340058" x2="1385.023998260498" y2="208.11111026340058" fill="rgb(0, 0, 0)" stroke="rgb(60, 60, 60)" stroke-width="1px" opacity="0.25"></line><line x1="0" y1="166.48888821072052" x2="1385.023998260498" y2="166.48888821072052" fill="rgb(0, 0, 0)" stroke="rgb(60, 60, 60)" stroke-width="1px" opacity="0.25"></line><line x1="0" y1="124.86666615804037" x2="1385.023998260498" y2="124.86666615804037" fill="rgb(0, 0, 0)" stroke="rgb(60, 60, 60)" stroke-width="1px" opacity="0.25"></line><line x1="0" y1="83.24444410536034" x2="1385.023998260498" y2="83.24444410536034" fill="rgb(0, 0, 0)" stroke="rgb(60, 60, 60)" stroke-width="1px" opacity="0.25"></line><line x1="0" y1="41.622222052680115" x2="1385.023998260498" y2="41.622222052680115" fill="rgb(0, 0, 0)" stroke="rgb(60, 60, 60)" stroke-width="1px" opacity="0.25"></line><line x1="0" y1="0" x2="1385.023998260498" y2="0" fill="rgb(0, 0, 0)" stroke="rgb(60, 60, 60)" stroke-width="1px" opacity="0.25"></line></g></g></g><g><g><line x1="0" y1="665.9555528428818" x2="1385.023998260498" y2="665.9555528428818" fill="rgb(0, 0, 0)" stroke="rgb(153, 153, 153)" stroke-width="1.5px"></line></g></g><g><g><line x1="0" y1="0" x2="0" y2="374.5999984741211" fill="rgb(0, 0, 0)" stroke="rgb(153, 153, 153)" stroke-width="1.5px"></line></g></g><g><g><g><g><g><path style="fill: none;" stroke="rgb(0, 119, 187)" stroke-width="2px" d="M159.6554936176647,415.19823069684094L160.4109612530795,355.5169175438274L162.8032754318931,378.52173211968875L165.06967833813755,378.24282102574983L166.07696851869062,364.1606310141354L167.58790378952025,347.8945865089109L168.7211052426425,350.6767951238995L169.72839542319556,334.6278236036408L171.74297578430176,312.77957882192993L172.2466208745783,271.1743248434466L179.04582959331165,228.14651080092563L179.17174086588082,224.91916674564797L181.31223249955613,274.52065781017166L181.6899663172635,266.52922298168204L182.06770013497095,298.96923567373824L183.95636922350795,289.69533706633797L184.33410304121537,284.4003221526218L184.4600143137845,284.97525990922196L185.71912703947586,286.3823371667918L187.8596186731512,289.5118072172947L188.11144121828946,302.8996697030229L190.75557794224133,277.96636758896483L192.89606957591664,248.99395233721555L193.52562593876232,231.45847788900036L196.925230298129,300.0333198770743L198.18434302382036,349.2910986249168L198.93981065923518,324.7864271558261L199.82118956721914,287.6400195013856L199.94710083978825,345.6730045256914L201.8357699283253,376.8463276923794L204.10217283456976,342.8444618898344L204.353995379708,348.3443737068007L205.86493065053767,359.68966646378567L206.74630955852163,333.22178696053396L206.87222083109074,370.3331352592358L207.12404337622903,283.3011658435462L207.50177719393645,302.7532810895653L207.7535997390747,274.4848060798333L209.26453500990434,265.8794816492259L210.5236477355957,244.06534478784943L212.664139369271,253.4249143686423L215.93783245606858,204.2133714126785L216.4414775463451,262.59143860812776L216.94512263662165,227.9008807668551L217.95241281717475,251.26630641704148L219.08561427029696,213.33752884557202L219.58925936057352,188.92190688097511L220.72246081369576,160.81992984738184L221.22610590397227,159.18001169334633L222.3593073570945,187.60842623193702L222.86295244737107,250.40175032957893L223.11477499250933,260.76434917829573L223.36659753764758,246.53364044925294L224.24797644563156,224.27183888460928L224.87753280847724,310.9623690671004L225.1293553536155,274.35188814975226L225.7589117164612,236.00601411539992L226.01073426159945,219.51399272477647L226.51437935187602,224.2561051553095L227.01802444215255,170.0231694219256L227.77349207756737,176.42351063952339L227.8994033501365,209.0005747498349L230.79536261922664,206.50154328512363L231.2990077095032,174.18217769644477L235.45407970428468,193.06644469780437L236.33545861226864,201.77056647821587L237.09092624768346,214.8600316607658L238.85368406365134,203.32737281630781L239.35732915392788,204.3278179101124L240.23870806191184,200.70350687904818L240.49053060705012,159.89179028402864L241.24599824246494,157.68967367632268L241.4978207876032,156.8246141286316L243.26057860357113,146.67658570832972L243.38648987614025,140.5454712383119L244.64560260183163,154.52180229645316L245.02333641953902,159.89390942435614L246.15653787266126,209.014986079764L246.66018296293777,186.96696908519306L247.16382805321433,186.99226373119762L248.29702950633657,146.4802063108601L248.42294077890568,190.59897757676686L249.1784084143205,224.48381401313932L249.30431968688964,211.41707346085946L249.93387604973532,220.47942761127487L252.20027895597977,210.3496648798886L252.5780127736872,226.48804560640588L253.71121422680943,207.1992238080601L257.4885524038835,186.5752689437728L259.12539894728224,205.73149499277685L259.8808665826971,228.57345097275774L260.25860040040453,220.8135069462742L260.51042294554276,298.86300583373406L261.0140680358193,332.97496885083115L261.7695356712341,343.9960324447166L262.39909203407984,293.3806167013042L263.6582047597712,251.59667362903787L264.413672395186,216.31658229390123L265.04322875803166,215.4625431281514L266.302341483723,196.58963442543907L266.9318978465687,170.53010019180283L271.59061493162676,163.7522443812368L272.0942600219033,207.77636586177533L272.22017129447244,212.98069327686653L272.34608256704155,215.78963344720728L274.61248547328603,255.26200727943012L276.12342074411566,258.87386305941044L276.24933201668483,233.46849765978683L277.0047996520996,177.32841965508257L277.8861785600836,197.35185404581316L281.15987164688113,157.13023838678535L282.67080691771076,138.81095911479298L284.0558309159712,177.59944993191112L284.4335647336786,172.29059436615245L284.8112985513861,195.20431482600918L287.3295240027688,186.81147711301895L288.08499163818357,145.49815451931428L288.9663705461676,205.04722485805382L289.72183818158237,216.39358926463834L291.73641854268857,175.09110436788055L292.11415236039596,140.0351349611993L293.4991763586564,146.6723440351267L293.8769101763639,140.94797925399797L294.2546439940713,155.7997026775599L294.3805552666404,182.4830117683323L300.4242963499589,166.5098333767913L300.8020301676663,159.65324441987482L301.17976398537377,149.7763769948096L301.3056752579429,149.55345052817225L304.07572325446387,152.92833360491795L305.5866585252935,175.7243229857084L305.83848107043184,152.66061064806925L306.34212616070835,159.01015631525354L306.8457712509849,199.37422227905563L307.3494163412614,184.24176235567592L310.49719815548985,190.05585901045376L310.62310942805897,176.46201816796633L312.00813342631943,231.38275216147727L313.01542360687256,197.99555652066945L313.51906869714907,197.82123589804004L313.7708912422874,170.02086320756797L315.9113828759627,144.59232872816645L317.80005196449974,143.7162836361746L318.30369705477625,156.08021445195354L321.4514788690047,178.62991905683307L323.4660592301109,220.79088006818407L323.59197050268,240.1389101871631L325.480639591217,250.2677652249686L325.9842846814936,234.53775410324505L327.9988650425998,188.5438267206515L328.1247763151689,206.4974486626543L329.7616228585677,221.97927673561392L330.8948243116899,203.07597482013034L331.52438067453556,177.04635179143992L332.15393703738124,221.0131994592406L332.53167085508863,200.7871356067812L333.1612272179343,230.70376962534334L333.53896103564176,191.51340526648426L335.0498963064714,211.89994497341206L336.0571864870245,155.09791372494456L336.9385653950084,182.28634311169375L337.8199443029924,146.907429453505L338.9531457561146,136.27491501043284L339.45679084639113,123.62471245830912L339.70861339152947,115.62202800348575L339.9604359366677,101.43946115468378L340.33816975437514,154.00645185511834L341.21954866235905,152.72096724024152L342.3527501154813,134.69190510125202L343.61186284117264,140.07172320582322L344.1155079314492,122.86175393172306L344.3673304765875,142.53589656323376L344.7450642942949,174.0796614046823L345.37462065714055,164.44896210551335L345.75235447484795,121.71754829474943L345.87826574741706,163.30571340067738L346.00417701998623,141.67741713501218L348.3964911987999,125.51113584564669L349.529692651922,177.24144688339732L350.2851602873369,170.19802235101307L351.1665391953208,180.75819874040525L351.29245046789,187.6742414576656L352.42565192101216,175.6068769847235L353.3070308289961,101.11263561398187L355.951167552948,116.48646947875841L356.4548126432245,120.46655979938055L357.7139253689159,149.83100943363593L358.2175704591924,168.71123501165607L359.35077191231466,114.33183240091836L360.9876184557134,119.4446120808513L361.36535227342085,132.10481943537943L362.12081990883564,132.8557261655143L362.3726424539739,141.70967759338322L366.65362572132454,131.7588698868932L367.4090933567394,115.03856987971301L369.54958499041476,123.62737098654657L369.801407535553,126.41542469399351L370.80869771610605,119.8724144318656L371.1864315338135,106.24140428572895L371.43825407895173,140.4111831185117L373.70465698519627,218.2850408652413L375.4674148011641,154.36709909496403L375.7192373463024,161.6314195059646L377.9856402525469,168.73304934766153L378.4892853428234,134.16824174198794L379.4965755233765,146.60305159958207L381.6370671570518,132.1540916671963L382.3925347924666,140.18305679769293L385.4144053341259,118.58316308160823L387.05125187752463,152.25240520110015L387.42898569523203,169.0931187802287L387.55489696780114,134.46045962058525L387.8067195129395,94.6188474997196L388.05854205807776,111.0670029248426L388.56218714835427,144.50365445113792L389.0658322386308,159.55846209101665L389.9472111466148,200.8707593613736L391.83588023515176,161.49135213801125L396.1168635025024,159.90952598186163L396.620508592779,116.65318292169638L397.5018875007629,157.47300942990702L398.63508895388514,136.2475156943652L400.1460242247148,118.88707897787543L401.40513695040613,90.01657232779041L401.6569594955444,84.75596081988994L401.90878204068275,98.73515949869011L402.03469331325186,83.11719737354179L402.53833840352837,79.53403364417323L402.91607222123577,77.95505984716863L403.9233624017889,88.8172990358944L404.4270074920654,135.74624718970344L406.94523294344816,147.3184643715127L407.5747893062939,148.94321426245244L407.700700578863,97.48465277790729L407.95252312400123,144.1454035894374L408.3302569417086,162.39917100494043L408.83390203198513,144.03667813062097L408.95981330455436,162.090540220899L409.84119221253826,99.17632852642726L410.21892603024565,99.0474829119741L410.8484823930914,103.25384415450497L413.240796571905,139.18427624966034L414.4999092975963,142.4894287250155L415.2553769330111,134.73661100159342L416.01084456842597,138.94217521301414L416.51448965870253,111.03036938687279L418.02542492953216,167.417073561674L418.1513362021013,174.3532800013433L421.29911801632966,207.9158404231442L422.4323194694519,154.2850839702067L424.57281110312726,143.67160483072243L426.83921400937163,136.26571961647875L426.9651252819408,157.84325743689564L427.21694782707914,138.3683484196676L428.979705643047,120.71779008034352L432.75704382012105,103.39085010340125L433.7643340006741,110.60531488455172L434.64571290865814,100.79975588261738L434.89753545379637,151.43148375443621L435.14935799893465,203.1739973318788L435.7789143617804,163.12616629746086L438.92669617600876,138.39158860672288L439.0526074485779,144.56748258421695L440.3117201742693,107.59276425618395L440.5635427194075,62.96293296831925L441.1930990822532,61.19485417622553L442.9558568982211,78.53607759006121L443.7113245336359,152.55207563593575L444.84452598675813,173.01008012351033L446.73319507529516,160.545079037584L447.2368401655718,127.66273896648374L447.48866271071,120.67033039993709L449.12550925410875,110.98293533377574L450.6364445249384,134.09555319191094L452.147379795768,131.6871289000768L453.40649252145937,92.14466968193494L454.1619601568743,109.45136480982916L456.3024517905495,88.73506847112213L457.05791942596437,76.58713793253992L457.1838306985335,93.63490114685379L458.1911208790866,121.03560610768645L458.9465885145014,102.59993600884042L459.70205614991625,137.24301342940723L460.33161251276186,135.60488374274442L463.227571781852,124.76779828368458L464.108950689836,94.5235766094824L464.73850705268165,66.91891714573558L466.3753535960804,48.92991952005258L467.2567325040644,75.33707002948194L469.1454015926014,92.39671429142135L470.656336863431,130.04419762035195L471.0340706811385,87.18659873850163L472.7968284971064,70.0125293097928L472.9227397696755,89.25507873917093L473.1745623148138,127.93930156601593L477.2037230370261,105.65086366383463L477.3296343095953,99.86541809238025L477.4555455821644,95.0190514486402L478.33692449014836,81.85302148029723L479.7219484884089,77.6566363521689L481.6106175769459,97.61240289719103L482.24017393979165,116.96782567400123L486.01751211686565,96.33295106603225L487.6543586602644,104.727230854987L488.78756011338663,95.79892434787365L489.9207615665089,84.33159230309553L490.6762292019238,101.25453101984539L491.1798742922003,120.83277960341269L493.32036592587554,119.27210069372413L493.5721884710139,98.29634573820715L493.698099743583,112.10517855584607L495.2090350144126,75.452171754392L499.6159295543324,135.0434888044357L500.6232197348855,127.1110885745619L503.51917900397564,81.29212138784504L504.6523804570979,74.56388993704832L504.9042030022361,116.04135192092434L505.1560255473744,112.43493483646722L505.6596706376509,97.59348248731033L505.78558191022006,89.44578534234319L507.1706059084805,109.97333194110223L507.548339726188,84.41328103722446L508.55562990674105,113.87172748223111L508.9333637244485,97.60689848099048L511.95523426610777,111.5481362021589L512.4588793563843,152.4280151314551L512.7107019015225,118.84552667673591L514.5993709900596,159.53095775509678L516.2362175334583,107.84154604665412L519.1321768025485,83.38967488958565L521.0208458910855,90.21254660098441L522.0281360716386,83.96282413398808L522.6576924344843,99.37231490540546L523.28724879733,96.15422332954893L523.7908938876066,135.92436753843475L524.0427164327448,153.34643735302862L526.057296793851,165.20199956124156L528.3236997000954,141.0937581948359L528.4496109726646,125.7932166322959L529.3309898806485,103.80733015239258L529.7087236983559,86.02406419941354L532.7305942400152,79.95845195030796L533.1083280577226,43.83267609513746L533.9897069657065,23.337455940604457L534.367440783414,24.396974458141017L534.4933520559831,48.6856892178011L534.7451746011213,91.1108481208741L534.8710858736905,68.04323195057276L538.0188676879189,104.95061119295559L539.1520691410411,100.34952586747272L542.1739396827004,55.54346464988521L543.1812298632535,59.0395750148939L544.9439876792214,87.22765489138129L545.0698989517905,83.74535339049015L545.6994553146362,73.66045902217934L547.2103905854659,74.88599170519291L550.8618174899708,103.34332986778094L551.1136400351091,115.04900662017837L551.3654625802474,90.49468754467676L552.3727527608004,111.44859041810554L554.5132443944758,97.85022549884712L555.1428007573214,95.32794371591967L557.9128487538425,98.72487147517296L558.2905825715499,112.03683779021969L558.9201389343955,126.64119497044794L560.305162932656,161.26871986028405L560.5569854777942,189.77555653798524L561.4383643857783,130.24405769834237L562.1938320211931,122.68751935184127L563.075210929177,140.90782614685355L563.8306785645918,120.23544316462113L564.2084123822992,94.6717559470776L566.3489040159745,94.9435543542208L567.8598392868041,75.6304791717194L568.2375731045116,69.87205689262504L569.1189520124956,80.95999946840249L571.1335323736017,108.79630120247492L571.3853549187401,92.15570374914927L572.1408225541547,101.13180572677294L572.6444676444314,100.71310710022277L574.6590480055376,84.65013193448306L576.7995396392129,66.25608568516844L579.3177650905956,75.47069828731082L581.58416799684,74.98300979058723L581.8359905419783,58.158366126323415L582.0878130871166,71.34164557840853L582.465546904824,143.3628088309752L582.8432807225314,141.69753922386255L584.9837723562067,133.24128951462032L586.3687963544672,123.8710010754391L588.1315541704352,84.97746963228144L591.9088923475092,121.90741582416382L592.1607148926475,127.19161950197537L595.1825854343068,99.38178386422305L595.6862305245833,154.00575455089728L595.9380530697215,153.95294285460432L596.6935207051364,159.70300194642405L597.0712545228438,135.603604440634L597.323077067982,121.21334833621728L598.4562785211043,127.86028937393473L599.3376574290883,148.7437871689027L600.974503972487,171.11277060354323L601.9817941530401,173.25348511105278L603.6186406964389,106.28152373627148L603.8704632415771,106.393372069181L604.2481970592845,78.96409272739373L605.7591323301142,62.85814408565824L606.2627774203908,81.63204922507765L606.8923337832364,96.54418071028891L607.1441563283746,137.57908543093035L608.4032690540661,115.77741965480516L608.9069141443426,118.8042798140491L612.5583410488475,115.91739947212562L613.1878974116933,128.33146837113634L614.0692763196772,117.47600441199302L617.3429694064747,97.16033987038031L619.6093723127192,91.70517963022763L620.6166624932723,84.44196541364454L621.4980414012563,114.49654148090349L622.0016864915327,104.1144547197585L623.3867104897932,107.02496432969838L624.142178125208,87.46196924260994L624.8976457606229,70.89236689312003L627.6676937571439,71.56781680961404L629.0527177554044,100.3051945302642L629.68227411825,122.38668368560346L630.8154755713723,112.8571771467603L630.9413868439414,102.83947725385786L632.452322114771,54.2587164470192L633.8373461130316,58.92091983484585L634.215079930739,53.65517178730573L635.4741926564303,56.63118136074115L641.3920224671798,83.1090529180654L642.0215788300254,108.43114177538001L642.1474901025946,86.90643738348064L643.4066028282859,147.00521571054597L652.5981257258329,85.97278511326846L653.9831497240933,105.82641923206921L654.1090609966625,87.51015692000396L654.3608835418007,99.07279678964687L654.612706086939,119.81340219667226L654.9904399046465,99.68144130106896L655.1163511772155,101.27294536512682L658.2641329914441,104.54311086797492L658.8936893542897,128.1384195205912L659.2714231719971,112.30229846595938L660.2787133525502,119.59307493519103L661.6637373508106,81.98317859011695L662.7969388039329,95.75842275608755L663.1746726216403,104.71681219232283L663.3005838942094,104.08207472054085L665.1892529827466,115.8464145771664L667.2038333438527,67.67279351876363L667.9593009792675,43.34291284628392L668.462946069544,39.83512946543618L669.5961475226662,68.69813426238119L669.8479700678046,104.14581423125571L670.9811715209268,85.98716205661447L671.4848166112033,88.2040266408764L672.2402842466181,95.767772163899L672.8698406094637,91.93799361176269L676.1435336962613,77.37252708707189L677.2767351493835,73.84661063123866L679.1654042379206,69.09957281252866L680.0467831459046,89.29816175105674L680.8022507813193,126.47338707204725L681.3058958715959,90.36122479867379L681.4318071441651,87.45324979224381L683.8241213229786,109.40910630975867L684.201855140686,107.48141509964125L684.9573227761009,84.70196512063285L688.734660953175,112.21803963339323L689.4901285885898,97.52182099299239L689.9937736788663,55.539189139444716L691.3787976771267,51.889007258348386L691.6306202222651,71.89012145596098L693.7711118559403,82.15069758125719L693.8970231285095,63.07651653035691L696.2893373073231,45.262090972478234L696.4152485798922,43.50350836886895L696.7929823975998,17.337964285852024L697.9261838507218,36.965207513920404L699.3112078489823,54.49787178576787L702.4589896632108,48.68703814464499L702.8367234809183,55.70819091854543L704.2217474791787,71.80494974789463L704.5994812968861,55.530417856291535L704.8513038420243,74.5792856441393L705.1031263871625,44.68425071697368L706.6140616579922,76.10169982968762L708.7545532916675,84.93768604615263L711.3986900156195,53.64235452436304L712.2800689236035,60.61856630095161L713.2873591041565,44.81579041840854L713.7910041944331,55.112734968768336L714.672383102417,68.30094078151791L714.7982943749861,78.44371466482534L714.9242056475553,91.23650421613291L716.1833183732466,112.59618956185903L719.4570114600442,101.12157940417893L720.0865678228898,105.18115176105567L722.101148183996,100.84825414759894L723.4861721822565,102.2761917137596L723.9898172725331,86.16639149285362L724.1157285451022,100.16831628573095L725.1230187256552,96.65376469591416L725.5007525433628,105.7638752810314L725.87848636107,110.82851461095885L726.2562201787775,145.45693898960158L727.3894216318997,129.91163243214896L727.8930667221763,98.61199695588897L728.7744456301602,106.8380939565065L728.9003569027293,116.07839186381807L729.6558245381442,128.44949215436176L730.411292173559,121.53224830348654L730.6631147186973,111.0465523532315L731.0408485364047,68.68160089872879L735.4477430763245,55.93916993125163L736.9586783471541,49.71849331108922L739.3509925259677,65.36802104535053L739.602815071106,60.18629526964361L741.9951292499195,42.08521856149906L742.2469517950578,59.51949450399309L744.7651772464405,72.1365076484609L747.7870477880998,70.88987752253587L748.1647816058072,62.170921801511895L749.8016281492061,103.08530648521776L750.8089183297591,61.808336343173835L751.9421197828813,80.07884213894584L752.3198536005888,115.40552631871111L752.571676145727,104.37643399884644L752.697587418296,95.18484092480514L754.4603452342641,83.06659769795675L755.4676354148171,50.37384550469085L758.237683411338,62.86868210044065L758.993151046753,76.29654268624603L759.3708848644603,74.60117829679433L760.2522637724443,59.141478332187376L761.889110315843,48.95600677785569L762.1409328609813,60.4322226765143L762.2668441335505,72.58515634583449L763.1482230415345,53.18264877987059L765.4146259477789,28.90689329344616L768.3105852168691,63.2734120499573L768.9401415797147,62.5766199318378L771.4583670310975,55.121218847052205L771.7101895762357,71.66299176234992L772.4656572116505,99.29887308882047L775.739350298448,71.60490623846897L776.3689066612937,68.53289847765433L778.0057532046925,100.84906624166126L778.5093982949691,66.22286963649054L780.7758012012135,124.12015677451524L781.7830913817666,126.81092103911584L784.6790506508568,80.74425941491927L785.056784468564,91.52290923578965L785.1826957411332,88.20816244655776L785.6863408314098,106.7131980335663L785.812252103979,85.07168650718972L789.0859451907766,85.15792223363673L791.9819044598665,86.04138728873818L793.6187510032653,127.71980460833049L795.6333313643715,111.42285982738309L797.0183553626321,79.0429017421755L799.0329357237382,82.63779897411109L800.7956935397061,83.32727611468766L800.9216048122753,63.955357325117745L801.2993386299828,66.44842949541146L803.439830263658,83.23962273206672L806.4617008053173,80.94036311787522L806.7135233504555,86.78752771061846L808.4762811664235,94.82623532786761L810.868595345237,65.863857582543L810.9945066178062,43.74597842352199L811.2463291629444,23.62901043290458L811.8758855257901,54.33718666296471L815.401401157726,76.65738409435585L816.5346026108482,95.65377021053285L817.415981518832,108.51711342869226L817.9196266091087,103.63640471785004L818.6750942445235,84.07023411806205L819.4305618799383,56.29795237580021L820.060118242784,24.34608575551397L820.4378520604913,52.320292971019796L820.6896746056298,19.521445315588437L822.5783436941667,52.09705225649691L823.711545147289,39.58284678467169L824.718835327842,63.927871457645495L826.8593269615174,95.1320851947109L827.488883324363,117.68225757490194L827.7407058695013,104.75780660212348L829.251641140331,96.22418535633307L829.5034636854692,57.49198451445096L830.258931320884,44.268180212553716L831.7698665917136,27.24914470075356L832.3994229545593,54.67469354655708L833.6585356802508,38.41246984532813L834.917648405942,45.36790874720077L838.4431640378779,26.125034443991183L838.6949865830161,35.408025679674836L839.1986316732928,92.90427396516867L841.0873007618297,96.9616918249207L846.2496629371643,103.1279380290926L846.6273967548717,158.90028348537672L848.8937996611162,124.54568364300627L850.2788236593767,79.87482699654424L851.1602025673606,81.08093258090531L853.300694201036,98.77998043168412L853.6784280187433,81.08319686262189L854.307984381589,81.05942522958708L854.9375407444347,80.9002068370554L855.6930083798495,74.47563172152758L857.2039436506792,64.69664431417135L857.3298549232483,87.14335205534451L859.4703465569236,87.13708490702248L859.848080374631,79.28517874950421L860.729459282615,82.5749358350352L864.1290636419816,71.864533459739L864.38088618712,92.02478893998273L865.2622650951038,86.87789914151853L867.5286680013483,49.62035106916068L867.7804905464866,78.53098073766336L868.6618694544705,80.60867880214363L869.7950709075927,110.92493463801316L871.0541836332841,73.94457239317569L871.1800949058533,103.75654145534764L872.4392076315446,109.8290486905089L872.9428527218213,130.0058361751157L873.0687639943903,105.93182286070493L875.4610781732039,105.72287734771317L876.0906345360496,111.26044604479785L876.3424570811878,89.78559875284702L876.8461021714643,100.57890784148066L877.9793036245866,94.03144205863072L880.2457065308311,114.16336894400519L882.7639319822138,102.77131261116114L883.3934883450595,102.1153101330205L884.5266897981818,101.83061881366291L885.2821574335966,110.96629482294588L885.4080687061657,90.44093588298824L885.5339799787348,89.19645238590772L885.9117137964422,73.42874460898031L886.2894476141496,71.78715073105485L889.0594956106705,85.65731979607L891.325898516915,97.51472607585293L891.8295436071916,72.92500211661007L892.4590999700373,82.27379959050751L893.3404788780213,139.0761192666835L894.4736803311436,114.06536631623788L894.7255028762818,104.44268215580792L895.984615601973,152.15232385895226L896.740083237388,164.93807350761966L896.9919057825263,145.1382391195943L897.747373417941,93.22782817948166L897.9991959630793,118.11701603082201L898.2510185082175,147.70723728646996L899.7619537790472,130.93897160486438L900.0137763241855,117.85231830903211L900.2655988693238,108.2382458039819L903.1615581384139,122.1508710792778L904.294759591536,134.20361159864404L904.6724934092435,119.45173513238728L906.6870737703497,111.71806811164782L907.946186496041,101.2482211759189L908.0720977686102,103.20058025783692L908.3239203137485,69.45324404507426L909.0793879491632,66.5383602163621L909.834855584578,70.36604373241227L910.7162344925621,30.384195459188447L911.3457908554077,26.21490695260468L912.2271697633918,73.78465587253038L912.9826373988066,60.008364912015395L914.6194839422053,79.16137582340434L917.8931770290028,97.08807153701912L920.4114024803855,91.69483341268631L920.789136298093,91.39876016109997L921.2927813883695,63.97756887092328L921.4186926609385,88.79048962707668L922.3000715689226,64.24369924909655L924.4405632025978,66.32539370404811L925.8255872008583,81.44417985200647L927.2106111991188,98.02240022242L928.0919901071028,129.8859934061126L928.8474577425176,150.60264949491219L931.869328284177,86.33233080258174L938.7944482754793,123.04635347966894L939.298093365756,109.25535912252121L940.9349399091548,92.25464608106529L942.3199639074153,100.86481003222201L942.8236089976917,76.5126826629915L943.8308991782449,88.20701455462722L943.956810450814,145.18143920456353L944.4604555410905,152.7998716480591L945.5936569942128,97.0150235184147L945.7195682667818,67.55105129997531L946.9786809924733,67.03157639709963L947.1045922650424,46.444669342588895L947.2305035376115,64.318949431779L948.2377937181645,95.35061410767645L950.7560191695474,78.91751066133196L953.7778897112065,71.318450593906L954.5333573466215,130.76353542617068L954.6592686191906,145.37089176952378L955.037002436898,125.69206143296452L956.2961151625893,120.17376887484542L957.4293166157115,88.86351775821953L957.807050433419,106.9200922445117L959.0661631591103,117.20040743146563L959.695719521956,108.14417025551472L964.228525334445,110.4669414484141L965.361726787567,118.77963431332586L965.6135493327055,99.92751597683304L966.117194422982,109.00695055719524L966.8726620583968,97.81987066098395L967.2503958761042,71.3760005186715L968.1317747840881,92.72083957632935L969.1390649646413,100.81738181234994L969.5167987823486,67.29093235930111L970.5240889629017,84.52665996776636L971.0277340531783,111.71485057485665L971.5313791434548,97.9669836247831L974.427338412545,109.60576649075381L974.9309835028215,91.26761139036665L975.8123624108055,60.73992470561018L976.316007501082,63.206591301005574L977.7010314993425,47.37345337373324L979.211966770172,61.83053392522288L981.2265471312783,43.47026390589724L984.3743289455067,57.365862639135344L986.2629980340438,41.218009196083074L988.0257558500116,77.83398151216636L988.5294009402883,90.08488535000225L989.0330460305647,87.9691534932831L990.0403362111178,55.45427521577767L990.7958038465325,39.601292567194776L990.9217151191018,73.37203100688737L993.0622067527771,47.379539711456175L994.1954082058993,97.58993336217662L994.9508758413141,63.13672019303749L995.9581660218672,73.20901531296522L996.3358998395746,78.71773612340616L999.1059478360955,59.692614787221146L1001.246439469771,57.5487428859571L1001.7500845600475,75.86040688436736L1002.7573747406005,88.33375353333929L1003.135108558308,91.09959881119818L1003.8905761937228,66.63579321119022L1006.1569790999673,38.31814446024703L1006.4088016451055,59.65525678862343L1008.67520455135,74.54634402949443L1009.1788496416266,77.30669038756486L1009.556583459334,102.56233299364192L1011.8229863655783,86.35324174861682L1012.326631455855,100.45427255389154L1013.2080103638389,93.91321021169131L1014.8448569072377,60.735819975770596L1015.6003245426525,56.85014490348652L1017.3630823586203,102.7794406579876L1018.87401762945,70.9099206465371L1019.755396537434,96.15431178644087L1020.7626867179871,145.30309728073962L1021.7699768985401,98.53050562191152L1021.8958881711093,118.37421790940454L1023.0290896242316,99.49881879663354L1024.6659361676302,88.03716408857741L1025.1695812579069,49.43968015871957L1026.9323390738748,68.57561035160336L1028.4432743447044,75.45448962420238L1028.5691856172734,54.56077532220553L1029.4505645252575,76.23046489169928L1031.2133223412254,92.22297073588226L1031.9687899766402,80.10087078315337L1032.850168884624,92.37571970053199L1033.1019914297624,114.30173466402726L1034.2351928828846,118.63096563665903L1034.487015428023,92.71948726959363L1034.612926700592,64.3407710839158L1037.0052408794056,60.068176106980275L1037.382974697113,48.03026493721336L1038.5161761502352,58.77582282085922L1040.153022693634,80.27243161876186L1041.915780509602,123.47370871926117L1043.1748932352932,127.30989834533256L1045.1894735963995,108.74005266790937L1046.57449759466,102.45558110918188L1048.8409005009046,76.11455266652194L1050.1000132265958,106.88493736443672L1050.225924499165,124.69365996714865L1050.9813921345797,94.213564759365L1051.8627710425637,82.96474745450723L1052.3664161328402,87.88838065757778L1052.4923274054092,56.985831297652396L1052.6182386779785,63.61242950777648L1055.3882866744996,71.62401246688631L1055.5141979470686,63.16612476089102L1056.0178430373453,80.22861232742713L1056.2696655824834,56.110539738393925L1057.4028670356058,62.57845931757879L1057.9065121258823,79.12824867964343L1061.5579390303872,56.93945801583783L1061.6838503029562,66.14096442335591L1062.8170517560786,78.26568105696475L1063.194785573786,76.75104100004035L1064.0761644817699,90.49963835446391L1065.3352772074613,104.81986028938707L1065.4611884800304,123.71361467857687L1065.5870997525994,108.9707780716929L1065.7130110251687,75.80028185569711L1066.3425673880142,92.90369860422834L1067.0980350234292,74.0773833421128L1067.6016801137057,102.20554100540534L1067.853502658844,50.455101782029374L1069.8680830199503,46.46900184693919L1070.623550655365,70.35701674605326L1070.7494619279341,98.4092091817435L1071.7567521084873,101.97305327878934L1074.1490662873007,130.844624104188L1076.289557920976,114.69579791219718L1079.5632510077735,113.30823358121188L1082.4592102768638,113.2127269469454L1083.3405891848477,114.75124211022415L1084.0960568202624,90.57475981783801L1084.47379063797,93.96305163784825L1088.3770400876133,78.26933018024755L1088.5029513601824,70.8583265183226L1090.5175317212886,98.40497664303496L1090.6434429938577,90.27410112501093L1091.9025557195491,100.80396234722923L1092.2802895372565,131.5918184611824L1092.5321120823949,114.33629794930408L1093.9171360806552,88.84659858417058L1094.67260371607,65.36907383593808L1095.0503375337773,66.78208352797157L1095.553982624054,73.34562847020862L1097.8203855302984,54.416102725375026L1097.9462968028674,65.96699636713487L1098.4499418931441,59.56604800831951L1098.8276757108515,63.545382724690285L1099.0794982559898,56.21620853549507L1100.8422560719578,71.45322764219117L1101.3459011622342,79.48709533798132L1102.7309251604947,55.47894912771159L1103.1086589782021,34.127636752628746L1105.6268844295848,38.4967836160547L1106.634174610138,56.23487384604135L1107.8932873358292,86.77601321600565L1108.0191986083985,101.50408740911155L1109.404222606659,72.91411142490932L1112.300181875749,93.07861339267464L1112.9297382385948,64.89030522771526L1115.0702298722701,70.57940453526754L1117.9661891413602,60.97340226353259L1120.610325865312,64.26357978076197L1120.7362371378813,30.579266132390728L1121.2398822281577,102.02020488393475L1121.7435273184342,84.50886889266212L1124.0099302246788,86.74315311637616L1124.7653978600936,75.13905440660818L1124.8913091326629,58.46105131587592L1130.1795825805664,70.06553327602688L1131.1868727611195,74.76941854197361L1132.1941629416726,84.30535664200141L1132.3200742142417,114.22312814959429L1134.460565847917,111.28447971793224L1135.4678560284701,94.07522713559979L1136.0974123913159,115.35440326270401L1136.6010574815923,120.53422615104114L1137.9860814798528,90.277919274878L1139.4970167506824,128.97566647726842L1139.8747505683898,115.24389434612681L1140.1265731135281,119.22961565720553L1140.6302182038048,93.53598274816045L1141.6375083843577,110.54411726279221L1149.192184738506,99.08155554874378L1149.9476523739208,98.4697833168284L1150.07356364649,72.66439161281306L1150.3253861916282,111.5218430155877L1152.2140552801652,93.49334250338899L1153.0954341881493,77.81524731616292L1155.9913934572394,84.15732424309493L1156.4950385475158,70.09768164445723L1157.8800625457764,99.62337604870078L1158.2577963634837,95.22943081826162L1160.398287997159,85.32294374698768L1161.1537556325738,65.14799327657897L1162.7906021759727,98.38080811635405L1165.3088276273554,81.98498000414929L1166.4420290804776,57.478517856155065L1168.2047868964455,33.001636510701644L1168.4566094415839,66.22544193481741L1168.708431986722,23.590690329172617L1169.8416334398444,46.75910995871237L1170.9748348929666,56.41856763273029L1171.9821250735197,93.80609083021534L1174.5003505249024,56.465643851049606L1174.7521730700405,56.382886285921984L1175.1299068877481,45.14480284748754L1175.3817294328862,51.93790857291498L1176.137197068301,80.22857080833279L1177.6481323391308,124.08799571506472L1177.7740436116999,118.85183589747885L1178.6554225196837,103.99066575918414L1179.0331563373913,99.2234316930747L1179.662712700237,90.56723471283817L1180.544091608221,85.77873621461879L1180.795914153359,116.40111292995965L1187.217389054385,154.52481931413112L1188.6024130526455,170.02436456846766L1188.980146870353,177.38224396065652L1189.6097032331988,157.72610912346374L1191.6242835943049,133.21104502063983L1192.1279286845813,129.3410192999287L1192.2538399571506,76.64871345387468L1192.5056625022887,112.53930443421058L1192.8833963199963,123.00672879708281L1193.7647752279802,96.79272853279656L1194.2684203182569,87.65359983459126L1194.7720654085333,94.12248724936745L1195.9052668616555,96.13235485135436L1196.0311781342245,88.89692960705986L1196.6607344970703,78.38766901032824L1197.1643795873467,101.33574321885106L1197.290290859916,121.65955625637832L1199.178959948453,127.43504503249898L1203.0822093980962,107.49538774004372L1204.5931446689258,104.2384938013252L1205.4745235769099,76.02606451361015L1206.1040799397556,69.35664625115646L1207.8668377557235,103.06152732420856L1209.0000392088457,129.07025377823794L1210.8887082973827,143.6756587871265L1212.2737322956432,154.90782401395168L1213.155111203627,125.84039024321996L1213.2810224761963,131.2336175287785L1213.6587562939037,145.7717929258011L1214.4142239293185,131.2796747159252L1219.1988522869458,151.7540581673602L1219.576586104653,118.54911107805032L1219.8284086497913,131.8682253524155L1220.2061424674987,105.600507254035L1220.3320537400677,113.1332719413603L1220.8356988303444,113.8353770789937L1224.8648595525567,69.25000773835336L1226.6276173685249,79.37479567265211L1230.0272217278914,56.80569316912403L1230.7826893633062,46.01039859122403L1231.2863344535829,51.28729189142035L1233.5527373598272,61.1974042378132L1234.1822937226727,91.13844150342106L1235.3154951757951,124.69073050117018L1236.07096281121,110.93522041843147L1236.4486966289173,95.68935936832935L1236.8264304466247,71.40143261930507L1239.4705671705765,103.82753472588308L1240.855591168837,102.96898344237269L1242.4924377122359,130.8151761745591L1242.618348984805,155.83149109147706L1243.8774617104964,148.73797476795244L1244.2551955282038,144.12247164326382L1244.7588406184802,149.15714986779705L1246.8993322521555,117.22177999987122L1247.1511547972939,162.5769408004469L1247.5288886150013,119.24242267624305L1250.1730253389533,114.009421198972L1250.4248478840916,85.72246160802831L1251.054404246937,98.78967741578913L1252.4394282451976,80.97899398081171L1253.3208071531815,98.12389445952579L1253.4467184257508,81.55931757452709L1253.9503635160272,102.39176708440914L1256.0908551497025,101.53217736634491L1256.8463227851173,112.65047333458608L1258.1054355108088,83.58237294628611L1258.357258055947,75.42018060011111L1259.112725691362,82.51965566922587" fill="none"></path></g></g></g></g><g opacity="0.2"><g><g><g><path style="fill: none;" stroke="rgb(0, 119, 187)" stroke-width="2px" d="M148.44939035901157,676.6053098370618L149.07894672185725,275.82688208388623L149.3307692669955,457.8285153442607L158.14455834683505,540.9083730572529L158.77411470968073,285.55817471587466L159.6554936176647,355.7797422327963L160.4109612530795,243.20862380672204L162.8032754318931,421.81254612182005L164.81785579299927,544.0937456750329L165.06967833813755,269.5994323477562L166.07696851869062,337.6602545706432L167.58790378952025,317.2845078206873L168.7211052426425,355.91246919296765L169.72839542319556,304.42619281583904L171.74297578430176,271.6646142304674L172.2466208745783,192.87975133106536L179.04582959331165,147.17488767755822L179.17174086588082,218.84580879077356L181.31223249955613,367.86293179024375L181.6899663172635,251.4905876511944L182.06770013497095,360.01628756635586L183.95636922350795,272.24330377681457L184.33410304121537,274.4359283500679L184.4600143137845,286.0572032773414L185.71912703947586,289.0302375676248L187.8596186731512,295.40098280318466L188.11144121828946,328.0935433692672L190.75557794224133,231.0457732643942L192.89606957591664,194.47237561801134L193.52562593876232,198.45944388400395L196.925230298129,429.0805007993608L198.18434302382036,441.98657270109305L198.93981065923518,278.67244887484986L199.82118956721914,217.73626102129614L199.94710083978825,454.88205125478925L201.8357699283253,435.50967070617367L204.10217283456976,278.85824181031217L204.353995379708,358.69435185182664L205.86493065053767,381.03974188194803L206.74630955852163,283.4133566570606L206.87222083109074,440.170917503504L207.12404337622903,119.5205432844703L207.50177719393645,339.35913485205907L207.7535997390747,221.28793524037144L209.26453500990434,249.68560022797425L210.5236477355957,203.01453392197476L212.664139369271,271.0381677872362L215.93783245606858,111.6049058500709L216.4414775463451,372.4498762986557L216.94512263662165,162.6186494402118L217.95241281717475,295.2364013725722L219.08561427029696,141.96147191713743L219.58925936057352,142.97550589284663L220.72246081369576,107.9363822884896L221.22610590397227,156.09394093085314L222.3593073570945,241.10627837516284L222.86295244737107,368.5690144095778L223.11477499250933,280.2651475881286L223.36659753764758,219.7536611983457L224.24797644563156,182.37859271252782L224.87753280847724,474.10045612521725L225.1293553536155,205.4566603715727L225.7589117164612,163.84504655219524L226.01073426159945,188.4785749493381L226.51437935187602,233.1800227839497L227.01802444215255,67.965224079275L227.77349207756737,188.4679567925244L227.8994033501365,270.3055397758678L230.79536261922664,201.79875496680506L231.2990077095032,113.36216118518456L235.45407970428468,228.60369643235146L236.33545861226864,218.1503691370308L237.09092624768346,239.49236815703424L238.85368406365134,181.62470357875443L239.35732915392788,206.21049988779083L240.23870806191184,193.8831175324057L240.49053060705012,83.0904907550725L241.24599824246494,153.54563291311814L241.4978207876032,155.1967066800947L243.26057860357113,127.57957545340997L243.38648987614025,129.00766792729866L244.64560260183163,180.82308235687458L245.02333641953902,170.00337903392574L246.15653787266126,301.4532081431109L246.66018296293777,145.47603220491996L247.16382805321433,187.03986431863572L248.29702950633657,70.24281871581564L248.42294077890568,273.62363935381916L249.1784084143205,288.24980304181713L249.30431968688964,186.82750118236152L249.93387604973532,237.5333678424601L252.20027895597977,191.287027809009L252.5780127736872,256.857966685414L253.71121422680943,170.9006629022394L257.4885524038835,147.7641953807191L259.12539894728224,241.78053133283336L259.8808665826971,271.55845747110794L260.25860040040453,206.21049988779083L260.51042294554276,445.7400167084064L261.0140680358193,397.16837475908585L261.7695356712341,364.7359590349392L262.39909203407984,198.13028102277895L263.6582047597712,172.9657951673954L264.413672395186,149.9249406747537L265.04322875803166,213.85537432344063L266.302341483723,161.07375724137236L266.9318978465687,121.49011213830292L271.59061493162676,150.99737451293834L272.0942600219033,290.62291147212596L272.22017129447244,222.77442757673555L272.34608256704155,221.07562172165248L274.61248547328603,329.54287215678335L276.12342074411566,265.6708135617942L276.24933201668483,185.65955355040873L277.0047996520996,71.68152934651806L277.8861785600836,235.03284153038678L281.15987164688113,81.43941698809596L282.67080691771076,104.33692636375258L284.0558309159712,250.59335340043594L284.4335647336786,162.30015435335574L284.8112985513861,238.3243709075262L287.3295240027688,171.01746262719018L288.08499163818357,67.75291056055602L288.9663705461676,317.10930823326106L289.72183818158237,237.74568136117907L291.73641854268857,97.36625526821814L292.11415236039596,74.06525593364057L293.4991763586564,159.1625386324599L293.8769101763639,130.17561555925144L294.2546439940713,183.74833494149627L294.3805552666404,232.69684703137074L300.4242963499589,136.45079738348795L300.8020301676663,146.75021102256505L301.17976398537377,131.1896495349607L301.3056752579429,149.13393760968756L304.07572325446387,159.27933835741067L305.5866585252935,218.62282749768565L305.83848107043184,109.25829319424116L306.34212616070835,170.95901314715957L306.8457712509849,275.3331129832711L307.3494163412614,155.76482768718336L310.49719815548985,200.99708412737002L310.62310942805897,150.88052517043235L312.00813342631943,334.7350267947991L313.01542360687256,135.16605002658434L313.51906869714907,197.4931916139564L313.7708912422874,117.70488808688123L315.9113828759627,96.73978401620928L317.80005196449974,142.06770310282974L318.30369705477625,179.3472081773242L321.4514788690047,221.06495394728356L323.4660592301109,300.1312476198041L323.59197050268,276.5488919384408L325.480639591217,269.3286941577842L325.9842846814936,204.93632107014574L327.9988650425998,101.99041294303328L328.1247763151689,240.28337122210036L329.7616228585677,251.11366789308533L330.8948243116899,167.50290233940765L331.52438067453556,128.0626519708785L332.15393703738124,303.75196466694615L332.53167085508863,162.7248310083489L333.1612272179343,287.00221923376154L333.53896103564176,117.7632383318014L335.0498963064714,250.26424015676616L336.0571864870245,48.205330424514216L336.9385653950084,233.45073616514412L337.8199443029924,80.32981960106332L338.9531457561146,116.26617745617881L339.45679084639113,99.8189998746297L339.70861339152947,100.56222123403415L339.9604359366677,74.75007743056955L340.33816975437514,252.929347899452L341.21954866235905,150.3018852416404L342.3527501154813,100.76401583104985L343.61186284117264,150.1957036735033L344.1155079314492,90.47526996634167L344.3673304765875,179.5595713135984L344.7450642942949,233.4401180083304L345.37462065714055,146.3254847500167L345.75235447484795,41.30367734826888L345.87826574741706,241.56816819655916L346.00417701998623,100.97632934976883L348.3964911987999,95.08871024923269L349.529692651922,274.58984200631147L350.2851602873369,156.94339347594985L351.1665391953208,200.63080733485225L351.29245046789,200.68915757977246L352.42565192101216,152.89797496503706L353.3070308289961,-39.07393388196721L355.951167552948,145.41763234244456L356.4548126432245,127.95647040274145L357.7139253689159,205.0903339614997L358.2175704591924,204.24088141640297L359.35077191231466,11.998259188204372L360.9876184557134,129.06606778977402L361.36535227342085,155.92935950024065L362.12081990883564,134.2688157758259L362.3726424539739,158.37143633228334L366.65362572132454,113.03299832395959L367.4090933567394,83.57356727254108L369.54958499041476,139.7901580838443L369.801407535553,131.66210789561555L370.80869771610605,107.55948733915812L371.1864315338135,80.58996444299925L371.43825407895173,204.71338939461305L373.70465698519627,364.83152244626257L375.4674148011641,34.083479567612244L375.7192373463024,175.30174004885623L377.9856402525469,182.0972115569645L378.4892853428234,69.12265278952452L379.4965755233765,170.00342865148093L381.6370671570518,104.96339761576144L382.3925347924666,155.29231970897328L385.4144053341259,77.93552447468232L387.05125187752463,215.6126792761095L387.42898569523203,200.78472099109584L387.55489696780114,69.28718460258182L387.8067195129395,19.64313362385417L388.05854205807776,142.0198717796128L388.56218714835427,207.42622922540534L389.0658322386308,187.88926724617724L389.9472111466148,278.6140738211521L391.83588023515176,87.38543595110747L396.1168635025024,156.93277531913617L396.620508592779,35.25147681712025L397.5018875007629,234.28957055342715L398.63508895388514,96.3044395868472L400.1460242247148,86.21743870159946L401.40513695040613,35.68677162892715L401.6569594955444,74.85630861626186L401.90878204068275,125.04183597493346L402.03469331325186,53.72662311497737L402.53833840352837,72.79107711599539L402.91607222123577,74.98367688047114L403.9233624017889,109.25834281179635L404.4270074920654,224.05922455119435L406.94523294344816,169.0955762439088L407.5747893062939,152.00074071427863L407.700700578863,0.64764802457006L407.95252312400123,231.95367528952153L408.3302569417086,196.74992063699676L408.83390203198513,109.48132410488427L408.95981330455436,196.06509914006773L409.84119221253826,-19.218427198327845L410.21892603024565,98.80501551647569L410.8484823930914,111.16956142070882L413.240796571905,206.79975797339648L414.4999092975963,148.7092113371392L415.2553769330111,120.14701453647916L416.01084456842597,146.85639259070214L416.51448965870253,58.504694446036126L418.02542492953216,273.5280759424958L418.1513362021013,187.4061411111535L421.29911801632966,271.07535614486176L422.4323194694519,53.360346322459634L424.57281110312726,123.69868875555446L426.83921400937163,122.32899614414117L426.9651252819408,198.44882572719024L427.21694782707914,101.71960032672848L428.979705643047,87.50218605850307L432.75704382012105,70.78424547820435L433.7643340006741,124.18181489057824L434.64571290865814,82.3472197781129L434.89753545379637,246.71251632013565L435.14935799893465,300.54535573553875L435.7789143617804,87.76238051799413L438.92669617600876,91.84496257775493L439.0526074485779,156.1895539597317L440.3117201742693,38.01209835357423L440.5635427194075,-21.023464239103134L441.1930990822532,57.86760503721359L442.9558568982211,111.16956142070882L443.7113245336359,291.83866561851806L444.84452598675813,211.50886090272132L446.73319507529516,137.0878867923105L447.2368401655718,65.78329208916819L447.48866271071,107.51170563349643L449.12550925410875,92.75276536777187L450.6364445249384,177.58990322465536L452.147379795768,127.15484918086162L453.40649252145937,17.731915014941706L454.1619601568743,142.0198717796128L456.3024517905495,49.75022262335375L457.05791942596437,53.72662311497737L457.1838306985335,125.7161385501592L458.1911208790866,172.59946875732246L458.9465885145014,67.90687383435483L459.70205614991625,202.43589399318282L460.33161251276186,132.522178597526L463.227571781852,104.3740899126006L464.108950689836,37.60865801220848L464.73850705268165,14.971243860932532L466.3753535960804,15.077425429069592L467.2567325040644,125.03121781811976L469.1454015926014,124.50030997743428L470.656336863431,200.89090255923293L471.0340706811385,6.535267125106145L472.7968284971064,37.693603266718185L472.9227397696755,125.46656224748185L473.1745623148138,200.73698890298937L477.2037230370261,63.707492049643236L477.3296343095953,88.9781098556087L477.4555455821644,85.89894361474342L478.33692449014836,57.076601972147444L479.7219484884089,69.75969258079186L481.6106175769459,135.16605002658434L482.24017393979165,153.39171925687455L486.01751211686565,57.5013282446958L487.6543586602644,120.52395910336583L488.78756011338663,78.99724092094283L489.9207615665089,62.75185793640941L490.6762292019238,133.10086814387313L491.1798742922003,157.6759966785406L493.32036592587554,116.33514585791272L493.5721884710139,58.82323915044742L493.698099743583,138.09125299365084L495.2090350144126,6.476916880186025L499.6159295543324,247.18507391590094L500.6232197348855,112.18354577886288L503.51917900397564,-4.932044528368465L504.6523804570979,61.9024053913127L504.9042030022361,194.09548066867987L505.1560255473744,105.64821911269047L505.6596706376509,69.66417878702367L505.78558191022006,74.11308725685745L507.1706059084805,148.6029801514469L507.548339726188,36.313242880936L508.55562990674105,169.307939380183L508.9333637244485,66.99902142678269L511.95523426610777,137.7833760636085L512.4588793563843,229.35758556612484L512.7107019015225,55.64850949825876L514.5993709900596,236.0946075942025L516.2362175334583,10.570117096760498L519.1321768025485,37.37505856230689L521.0208458910855,103.05212938929378L522.0281360716386,72.2018190303898L522.6576924344843,128.3705785184761L523.28724879733,90.09827578189976L523.7908938876066,210.76558992576167L524.0427164327448,186.13206152861878L526.057296793851,187.51232267929058L528.3236997000954,95.72579965805522L528.4496109726646,96.99997847570035L529.3309898806485,62.43331323199817L529.7087236983559,52.55872510057981L532.7305942400152,68.54391362562217L533.1083280577226,-24.15041218563016L533.9897069657065,-15.231358932335183L534.367440783414,26.390823426300756L534.4933520559831,94.39327059548992L534.7451746011213,170.9483949903459L534.8710858736905,24.6335680911871L538.0188676879189,174.404555415653L539.1520691410411,91.69099930395618L542.1739396827004,-28.77456986044524L543.1812298632535,65.6187106585557L544.9439876792214,140.27323460131285L545.0698989517905,77.19220388016748L545.6994553146362,54.6822572282112L547.2103905854659,77.19225349772267L550.8618174899708,156.89561177028816L551.1136400351091,137.0772686354968L551.3654625802474,44.287280177810715L552.3727527608004,150.88057478798754L554.5132443944758,72.26021889286517L555.1428007573214,90.58140191692354L557.9128487538425,105.11736088956019L558.2905825715499,137.0878867923105L558.9201389343955,154.1243224594653L560.305162932656,226.43233298150315L560.5569854777942,243.42098694299622L561.4383643857783,18.215041149965487L562.1938320211931,108.46729012917507L563.075210929177,175.19560809827433L563.8306785645918,81.33323541995884L564.2084123822992,46.56487481435141L566.3489040159745,95.45503665930568L567.8598392868041,39.2862771712193L568.2375731045116,59.0356022867216L569.1189520124956,101.82578189486554L571.1335323736017,161.1798891919542L571.3853549187401,60.840688945052136L572.1408225541547,118.02343279129252L572.6444676444314,99.92518144276681L574.6590480055376,54.42211238627539L576.7995396392129,31.641353118014365L579.3177650905956,92.81116523024724L581.58416799684,74.06525593364057L581.8359905419783,26.497004994437873L582.0878130871166,96.15052593060358L582.465546904824,278.8954301679378L582.8432807225314,138.5637609718609L584.9837723562067,117.32794351999456L586.3687963544672,106.23757643340656L588.1315541704352,11.785896051930138L591.9088923475092,191.4038275339598L592.1607148926475,137.1356684979722L595.1825854343068,47.04800094937514L595.6862305245833,256.7995668229386L595.9380530697215,153.8535594607157L596.6935207051364,170.52371833535273L597.0712545228438,90.25228867325376L597.323077067982,94.13312575355405L598.4562785211043,140.36879801263623L599.3376574290883,188.04328013753124L600.974503972487,213.20771637535958L601.9817941530401,177.2819766770578L603.6186406964389,-19.749285421458012L603.8704632415771,106.6038532259243L604.2481970592845,27.346457539534583L605.7591323301142,32.54925514314169L606.2627774203908,116.96161710992158L606.8923337832364,124.6064915455714L607.1441563283746,214.80039027986075L608.4032690540661,74.75007743056955L608.9069141443426,124.50035959498948L612.5583410488475,110.48473992377978L613.1878974116933,151.6928141666811L614.0692763196772,97.04771056380685L617.3429694064747,58.92942071858448L619.6093723127192,81.43941698809596L620.6166624932723,70.77372655650112L621.4980414012563,171.05457655848295L622.0016864915327,84.5769830914366L623.3867104897932,112.50209048327412L624.142178125208,50.64745687411215L624.8976457606229,39.71095382621246L627.6676937571439,72.83890843921233L629.0527177554044,154.38446730140114L629.68227411825,163.94060996351863L630.8154755713723,94.9241288186202L630.9413868439414,83.98772500583095L632.452322114771,-37.16271527305469L633.8373461130316,67.6944610805254L634.215079930739,43.745853415422005L635.4741926564303,62.23156825253767L641.3920224671798,132.9362867132606L642.0215788300254,156.08337239159465L642.1474901025946,46.40029338373887L643.4066028282859,260.10176397444695L652.5981257258329,-28.880751428582357L653.9831497240933,143.18786902912083L654.1090609966625,53.041801618048396L654.3608835418007,120.83188565096336L654.612706086939,158.84399392804863L654.9904399046465,61.79622382317558L655.1163511772155,104.26790834446348L658.2641329914441,110.69705344249877L658.8936893542897,172.54111851240225L659.2714231719971,82.50118305191165L660.2787133525502,133.3131816625921L661.6637373508106,11.20720650558303L662.7969388039329,121.6812885785049L663.1746726216403,121.57510701036784L663.3005838942094,102.88759757623649L665.1892529827466,137.98507142551372L667.2038333438527,-22.982464553677346L667.9593009792675,-2.4421363731089514L668.462946069544,33.23402702251548L669.5961475226662,123.0138176410702L669.8479700678046,170.8528315790225L670.9811715209268,51.815404506064965L671.4848166112033,92.37582080088521L672.2402842466181,110.00156417120081L672.8698406094637,84.73094636523541L676.1435336962613,49.96258575962787L677.2767351493835,67.21138456305687L679.1654042379206,60.1663863698264L680.0467831459046,127.30876283710515L680.8022507813193,196.43137593258547L681.3058958715959,22.40375516030815L681.4318071441651,81.98089336803992L683.8241213229786,150.72661151418876L684.201855140686,103.8538002287288L684.9573227761009,41.83458518895435L688.734660953175,163.999009825994L689.4901285885898,69.86582453137379L689.9937736788663,-23.46559068870107L691.3787976771267,45.01993299795669L691.6306202222651,109.52910581054596L693.7711118559403,101.4595051023478L693.8970231285095,27.18187610892204L696.2893373073231,11.738114346268446L696.4152485798922,40.19412957879143L696.7929823975998,-31.90151780697221L697.9261838507218,73.90062488547284L699.3112078489823,87.49161751924458L702.4589896632108,37.75195351163836L702.8367234809183,68.92090781006408L704.2217474791787,102.09654489361515L704.5994812968861,24.904281472381456L704.8513038420243,110.42629044374917L705.1031263871625,-11.573552762678048L706.6140616579922,135.22444988905974L708.7545532916675,101.56563705292967L711.3986900156195,-5.25058923277976L712.2800689236035,73.74671122922922L713.2873591041565,15.077425429069592L713.7910041944331,74.48998220618893L714.672383102417,93.11909177784486L714.7982943749861,97.53083669883057L714.9242056475553,115.31054334294498L716.1833183732466,152.7917933969L719.4570114600442,79.5281487616283L720.0865678228898,112.82063518768541L722.101148183996,92.6944151228517L723.4861721822565,104.96334799820619L723.9898172725331,55.85025447771926L724.1157285451022,126.51775977203906L725.1230187256552,90.03992553697958L725.5007525433628,122.90768569048834L725.87848636107,120.35937767275331L726.2562201787775,210.6222448087766L727.3894216318997,100.65778464535754L727.8930667221763,39.71095382621246L728.7744456301602,122.31832836977227L728.9003569027293,133.4671945539461L729.6558245381442,151.7299777155291L730.411292173559,108.51507183483676L730.6631147186973,91.3141043546247L731.0408485364047,-11.042644921992519L735.4477430763245,31.959897822425603L736.9586783471541,38.01214797112942L739.3509925259677,94.81799686803828L739.602815071106,50.435093737837974L741.9951292499195,8.021809079025445L742.2469517950578,92.32808871277871L744.7651772464405,95.87976293185403L747.7870477880998,68.54391362562217L748.1647816058072,45.76320397491634L749.8016281492061,180.07981137991496L750.8089183297591,-15.868497958712965L751.9421197828813,114.46109079784827L752.3198536005888,181.8848484206903L752.571676145727,83.62139859575797L752.697587418296,77.88769315146544L754.4603452342641,60.26194978114978L755.4676354148171,-11.148826490129636L758.237683411338,86.38202013221195L758.993151046753,101.56568667048492L759.3708848644603,71.4107663477684L760.2522637724443,30.04872883106833L761.889110315843,29.78853437157727L762.1409328609813,82.0286750737016L762.2668441335505,95.45508627686087L763.1482230415345,16.67014895112601L765.4146259477789,-16.77630074872991L768.3105852168691,127.94585224592774L768.9401415797147,61.2653656000453L771.4583670310975,41.0913142119947L771.7101895762357,102.7920341649131L772.4656572116505,151.30530106053592L775.739350298448,19.489170350055417L776.3689066612937,62.75185793640941L778.0057532046925,161.66306494453318L778.5093982949691,1.0617561403046807L780.7758012012135,233.07384121581265L781.7830913817666,131.87452064944495L784.6790506508568,-5.946028886522583L785.056784468564,111.8066508295314L785.1826957411332,81.97032482878143L785.6863408314098,141.53679526214427L785.812252103979,44.34572965784133L789.0859451907766,85.32020445084106L791.9819044598665,87.70393103796357L793.6187510032653,206.15210002531543L795.6333313643715,80.75454587361168L797.0183553626321,18.108859581828426L799.0329357237382,89.40283612815705L800.7956935397061,84.6247647970983L800.9216048122753,27.500420813333392L801.2993386299828,71.14000334901885L803.439830263658,114.83803536473494L806.4617008053173,76.61351433382032L806.7135233504555,97.7909815407665L808.4762811664235,109.95383208309431L810.868595345237,11.361169779381783L810.9945066178062,2.1235718216756254L811.2463291629444,-14.227992730994913L811.8758855257901,112.12519553394264L815.401401157726,118.66052220011505L816.5346026108482,131.40201267123484L817.415981518832,132.72392357698646L817.9196266091087,94.45167045796535L818.6750942445235,47.24974592883558L819.4305618799383,4.0348400481432805L820.060118242784,-35.78235488727256L820.4378520604913,104.96339761576144L820.6896746056298,-42.20088182849406L822.5783436941667,113.39927511647733L823.711545147289,16.03305954230342L824.718835327842,109.74141932926494L826.8593269615174,153.8535594607157L827.488883324363,160.11817274569373L827.7407058695013,80.43600116920044L829.251641140331,80.16523817045083L829.5034636854692,-15.395989980502918L830.258931320884,19.38303839947349L831.7698665917136,-4.7780316370145215L832.3994229545593,106.285308521513L833.6585356802508,7.809495560306516L834.917648405942,58.456962357929626L838.4431640378779,-10.08706042631394L838.6949865830161,52.87717056988066L839.1986316732928,201.1032656955071L841.0873007618297,104.59712082324364L846.2496629371643,114.73185379659787L846.6273967548717,263.8551583642051L848.8937996611162,59.89567298863204L850.2788236593767,-4.188773551408872L851.1602025673606,83.35063559700842L853.300694201036,132.0868341681639L853.6784280187433,47.78060415196586L854.307984381589,81.0146907155476L854.9375407444347,80.60058259981292L855.6930083798495,62.38558114389167L857.2039436506792,46.29411181560175L857.3298549232483,129.38456287663013L859.4703465569236,87.1252911091716L859.848080374631,64.50911327152306L860.729459282615,88.76574671933446L864.1290636419816,51.709222937927905L864.38088618712,129.9632524229773L865.2622650951038,77.19225349772267L867.5286680013483,-20.49255639841772L867.7804905464866,132.9362867132606L868.6618694544705,84.51858322896118L869.7950709075927,167.9754103176177L871.0541836332841,4.353285517444135L871.1800949058533,159.85802790375783L872.4392076315446,121.25656230595652L872.9428527218213,167.9754103176177L873.0687639943903,60.62827619122277L875.4610781732039,105.32967440827917L876.0906345360496,121.6812885785049L876.3424570811878,49.373278056467086L876.8461021714643,120.89023589588359L877.9793036245866,81.71013036929031L880.2457065308311,152.04852241994033L882.7639319822138,81.33323541995884L883.3934883450595,100.88081555600064L884.5266897981818,101.29487405418007L885.2821574335966,128.1582153822019L885.4080687061657,51.815404506064965L885.5339799787348,86.854528110422L885.9117137964422,43.7563723371253L886.2894476141496,68.69792651697611L889.0594956106705,111.75881950631447L891.325898516915,119.82851944962306L891.8295436071916,26.650968268236625L892.4590999700373,99.86678158029139L893.3404788780213,245.96924534317603L894.4736803311436,66.99902142678269L894.7255028762818,86.33428804410545L895.984615601973,241.93444498907695L896.740083237388,188.99886463320988L896.9919057825263,107.87803204356936L897.747373417941,-4.459486932603227L897.9991959630793,164.95459432167263L898.2510185082175,203.39142887130623L899.7619537790472,99.38370506282286L900.0137763241855,93.22527334598192L900.2655988693238,90.14605748756145L903.1615581384139,148.33226677025252L904.294759591536,156.88499361347448L904.6724934092435,91.69099930395618L906.6870737703497,97.16451028875764L907.946186496041,81.54559855623307L908.0720977686102,106.87461622467384L908.3239203137485,5.946009039500552L909.0793879491632,61.05300246377118L909.834855584578,77.56914844705415L910.7162344925621,-44.85542103192142L911.3457908554077,18.368954806209047L912.2271697633918,163.30352055469606L912.9826373988066,34.083529185167436L914.6194839422053,115.20436177480792L917.8931770290028,130.82332312488774L920.4114024803855,81.54559855623307L920.789136298093,90.84159637641466L921.2927813883695,12.375154137535844L921.4186926609385,135.48454511344045L922.3000715689226,18.050459719353L924.4405632025978,70.24281871581564L925.8255872008583,109.89538260306375L927.2106111991188,129.2200310635728L928.0919901071028,189.8483171783066L928.8474577425176,189.58817233637072L931.869328284177,-34.61440725531969L938.7944482754793,192.13643073655052L939.298093365756,83.30285389134673L940.9349399091548,60.26194978114978L942.3199639074153,117.0677986780587L942.8236089976917,30.68576862233573L943.8308991782449,110.21392730747499L943.956810450814,252.39844005876654L944.4604555410905,167.1365759293347L945.5936569942128,-7.963379446016916L945.7195682667818,12.10444075634149L946.9786809924733,66.0540054703626L947.1045922650424,7.703313992169399L947.2305035376115,97.95556297137898L948.2377937181645,153.74737789257858L950.7560191695474,47.992967288240095L953.7778897112065,57.01820210967202L954.5333573466215,242.6299342603749L954.6592686191906,172.85966321681352L955.037002436898,88.6595651511974L956.2961151625893,109.78920103492663L957.4293166157115,29.942497645376022L957.807050433419,140.8997554708769L959.0661631591103,136.54636079481133L959.695719521956,91.10174121835047L964.228525334445,114.83803536473494L965.361726787567,134.4228286671799L965.6135493327055,64.45076302660289L966.117194422982,126.09303349949067L966.8726620583968,76.76752722517432L967.2503958761042,21.612752095242L968.1317747840881,132.88850500759892L969.1390649646413,116.05381431990463L969.5167987823486,4.199371861200575L970.5240889629017,116.96161710992158L971.0277340531783,162.8787942821477L971.5313791434548,72.09563746225268L974.427338412545,131.50814462181674L974.9309835028215,56.758057267736206L975.8123624108055,3.2915690711836305L976.316007501082,67.8484739718794L977.7010314993425,17.577951741142954L979.211966770172,89.03650971808406L981.2265471312783,8.919092947339095L984.3743289455067,83.5152170276209L986.2629980340438,10.83026193869631L988.0257558500116,146.73954324819613L988.5294009402883,113.1391798920967L989.0330460305647,83.98767538827576L990.0403362111178,-5.733665750248349L990.7958038465325,9.768446257325422L990.9217151191018,136.92330536169806L993.0622067527771,-1.5342839655368152L994.1954082058993,192.07808049163032L994.9508758413141,-1.6988653961492446L995.9581660218672,92.16350728216622L996.3358998395746,89.08429142374575L999.1059478360955,23.890297114227394L1001.246439469771,53.51430959625844L1001.7500845600475,110.3201088756121L1002.7573747406005,111.8066508295314L1003.135108558308,96.30448920440239L1003.8905761937228,20.598718119532748L1006.1569790999673,-14.971263707954506L1006.4088016451055,99.80838171781602L1008.67520455135,102.56905287182519L1009.1788496416266,82.5012326694669L1009.556583459334,150.0895221053662L1011.8229863655783,55.85025447771926L1012.326631455855,126.99021813269391L1013.2080103638389,81.60394880115325L1014.8448569072377,-1.6988653961492446L1015.6003245426525,49.53790910463471L1017.3630823586203,189.21122776948405L1018.87401762945,10.936443506833427L1019.755396537434,143.6603273897757L1020.7626867179871,237.79346306684076L1021.7699768985401,10.511766851840264L1021.8958881711093,155.71699636396644L1023.0290896242316,63.97825504839278L1024.6659361676302,66.46811358609722L1025.1695812579069,-23.194778072396332L1026.9323390738748,104.58645304887472L1028.4432743447044,88.39946992681672L1028.5691856172734,15.242056477237327L1029.4505645252575,117.00944843313846L1031.2133223412254,122.31837798732747L1031.9687899766402,57.28896510842168L1032.850168884624,115.47507515600228L1033.1019914297624,155.56308270772286L1034.2351928828846,126.7779046139749L1034.487015428023,43.95811731658574L1034.612926700592,10.936443506833427L1037.0052408794056,52.027817259894334L1037.382974697113,25.376789450591502L1038.5161761502352,78.99729053849802L1040.153022693634,120.72570408282627L1041.915780509602,204.77178925708844L1043.1748932352932,134.52901023531703L1045.1894735963995,73.79449293489091L1046.57449759466,90.62918362258523L1048.8409005009046,26.544836317654756L1050.1000132265958,164.79001289106017L1050.225924499165,158.20690451922607L1050.9813921345797,36.854768878435095L1051.8627710425637,61.79622382317558L1052.3664161328402,97.1538921319439L1052.4923274054092,-1.167957555463829L1052.6182386779785,76.08265611069004L1055.3882866744996,86.70056483662324L1055.5141979470686,47.24969631128039L1056.0178430373453,112.33755867021682L1056.2696655824834,10.72408037055925L1057.4028670356058,74.75007743056955L1057.9065121258823,110.2723767875056L1061.5579390303872,15.18360699720671L1061.6838503029562,83.45676754759029L1062.8170517560786,101.08251091790595L1063.194785573786,73.90072412058322L1064.0761644817699,116.37235902431593L1065.3352772074613,131.76828946375264L1065.4611884800304,159.268720200597L1065.5870997525994,81.22705385182178L1065.7130110251687,13.378569956431363L1066.3425673880142,125.08966729815037L1067.0980350234292,38.64918776239682L1067.6016801137057,155.1383564351745L1067.853502658844,-46.931171453891125L1069.8680830199503,38.96778208436325L1070.623550655365,115.31054334294498L1070.7494619279341,151.19906987484362L1071.7567521084873,108.67965326544925L1074.1490662873007,185.17642741538495L1076.289557920976,84.30622009268706L1079.5632510077735,110.69705344249877L1082.4592102768638,113.03299832395959L1083.3405891848477,117.6464882244058L1084.0960568202624,45.078382477987304L1084.47379063797,100.33928955850149L1088.3770400876133,48.7361886476445L1088.5029513601824,56.911970923979766L1090.5175317212886,150.24348537916498L1090.6434429938577,74.97305872365746L1091.9025557195491,120.61952251468921L1092.2802895372565,189.52977247389532L1092.5321120823949,81.86409364308912L1093.9171360806552,40.87895107572052L1094.67260371607,21.188025822693646L1095.0503375337773,69.44114787638063L1095.553982624054,85.69719863528292L1097.8203855302984,18.793681078757402L1097.9462968028674,87.70398065551876L1098.4499418931441,47.52045931002999L1098.8276757108515,71.03387139843693L1099.0794982559898,42.42384327456L1100.8422560719578,100.12692642222731L1101.3459011622342,94.60558411420891L1102.7309251604947,10.299354098010895L1103.1086589782021,-6.052210454659644L1105.6268844295848,46.718838088150164L1106.634174610138,89.61519926443123L1107.8932873358292,144.24968471049178L1108.0191986083985,129.2200310635728L1109.404222606659,19.112225783168697L1112.300181875749,131.02506810434818L1112.9297382385948,11.844295914405564L1115.0702298722701,81.28540409674196L1117.9661891413602,42.896400870325294L1120.610325865312,70.45518185208982L1120.7362371378813,-32.809370214544344L1121.2398822281577,236.46093400427546L1121.7435273184342,51.555259664129096L1124.0099302246788,90.94772832699653L1124.7653978600936,53.30194645998421L1124.8913091326629,27.075644923229788L1130.1795825805664,91.90336244023035L1131.1868727611195,83.62139859575797L1132.1941629416726,102.2505081674139L1132.3200742142417,170.52371833535273L1134.460565847917,105.75440068082759L1135.4678560284701,61.690091872593655L1136.0974123913159,155.3985012771104L1136.6010574815923,130.28184674494375L1137.9860814798528,33.340258208207786L1139.4970167506824,201.79880458436028L1139.8747505683898,89.40283612815705L1140.1265731135281,126.7301229083132L1140.6302182038048,45.18456404612442L1141.6375083843577,142.55077962029827L1149.192184738506,77.51079820213397L1149.9476523739208,97.31852318011164L1150.07356364649,24.10266025050163L1150.3253861916282,184.6455195746995L1152.2140552801652,59.56651012740707L1153.0954341881493,48.31151199265133L1155.9913934572394,96.09212606812821L1156.4950385475158,43.639622229729696L1157.8800625457764,155.1861381408362L1158.2577963634837,86.96070967855911L1160.398287997159,66.6804767223714L1161.1537556325738,27.18187610892204L1162.7906021759727,160.91979396757355L1165.3088276273554,51.13058300913593L1166.4420290804776,11.361169779381783L1168.2047868964455,-13.0600450990421L1168.4566094415839,128.74747346780757L1168.708431986722,-56.641277389807385L1169.8416334398444,90.35847024139088L1170.9748348929666,74.59616377432599L1171.9821250735197,164.1635912566065L1174.5003505249024,-13.803266458446501L1174.7521730700405,56.22714942705073L1175.1299068877481,23.99647868236451L1175.3817294328862,64.7214764077973L1176.137197068301,133.4671945539461L1177.6481323391308,206.62460800352548L1177.7740436116999,108.99819796986054L1178.6554225196837,76.02425624821467L1179.0331563373913,90.25223905569857L1179.662712700237,74.27761906991469L1180.544091608221,76.76752722517432L1180.795914153359,174.02766046632152L1187.217389054385,226.26770193333545L1188.6024130526455,199.19209670414986L1188.980146870353,191.22862794653358L1189.6097032331988,120.73632223963997L1191.6242835943049,87.07750940350991L1192.1279286845813,122.05823314539157L1192.2538399571506,-22.51000619302249L1192.5056625022887,180.07981137991496L1192.8833963199963,142.70479251165227L1193.7647752279802,47.46205944755462L1194.2684203182569,70.45518185208982L1194.7720654085333,106.29592667832674L1195.9052668616555,99.91461290350833L1196.0311781342245,75.28098527125502L1196.6607344970703,58.61087601417324L1197.1643795873467,144.52044770924132L1197.290290859916,159.90580960941952L1199.178959948453,138.30361612992505L1203.0822093980962,69.97205571706604L1204.5931446689258,98.10952624517773L1205.4745235769099,22.934663000993567L1206.1040799397556,56.8058389733979L1207.8668377557235,166.4888683636984L1209.0000392088457,178.0146294972037L1210.8887082973827,171.16075812662004L1212.2737322956432,176.04501102581588L1213.155111203627,71.14000334901885L1213.2810224761963,141.3828319883455L1213.6587562939037,173.13037659800793L1214.4142239293185,104.00776350252761L1219.1988522869458,190.28366160766868L1219.576586104653,56.06256799643819L1219.8284086497913,156.93272570158098L1220.2061424674987,56.16874956457531L1220.3320537400677,127.30876283710515L1220.8356988303444,115.15662968670142L1224.8648595525567,-14.652719003543211L1226.6276173685249,98.42807094958903L1230.0272217278914,14.334154452109999L1230.7826893633062,25.695334155002797L1231.2863344535829,61.21758389438361L1233.5527373598272,79.84669346603954L1234.1822937226727,147.4828142251558L1235.3154951757951,187.83091700125706L1236.07096281121,85.04949106964665L1236.4486966289173,66.99902142678269L1236.8264304466247,25.695334155002797L1239.4705671705765,164.84841275353557L1240.855591168837,101.35332353421069L1242.4924377122359,183.2173774832556L1242.618348984805,202.90830273628248L1243.8774617104964,135.38908093722748L1244.2551955282038,135.43681302533395L1244.7588406184802,158.63163079177443L1246.8993322521555,57.124383677809135L1247.1511547972939,247.92829527530535L1247.5288886150013,37.693603266718185L1250.1730253389533,104.16172677632636L1250.4248478840916,32.490805663111075L1251.054404246937,123.38014405114319L1252.4394282451976,47.46205944755462L1253.3208071531815,130.38792907797045L1253.4467184257508,50.387361649731474L1253.9503635160272,141.59519512461964L1256.0908551497025,99.91456328595308L1256.8463227851173,133.5733761220832L1258.1054355108088,28.880731581560383L1258.357258055947,60.06020480168934L1259.112725691362,95.87976293185403" fill="none"></path></g></g></g></g></g></g><g transform="translate(48, 374)" clip-path="url(#clip_1)"><clipPath id="clip_1"><rect width="1385" height="25"></rect></clipPath><g><g><line x1="0" y1="0" x2="0" y2="5" style="visibility: inherit;" fill="rgb(0, 0, 0)" stroke="rgb(204, 204, 204)" stroke-width="1px"></line><line x1="125.91127256913619" y1="0" x2="125.91127256913619" y2="5" style="visibility: inherit;" fill="rgb(0, 0, 0)" stroke="rgb(204, 204, 204)" stroke-width="1px"></line><line x1="251.82254513827237" y1="0" x2="251.82254513827237" y2="5" style="visibility: inherit;" fill="rgb(0, 0, 0)" stroke="rgb(204, 204, 204)" stroke-width="1px"></line><line x1="377.73381770740855" y1="0" x2="377.73381770740855" y2="5" style="visibility: inherit;" fill="rgb(0, 0, 0)" stroke="rgb(204, 204, 204)" stroke-width="1px"></line><line x1="503.64509027654475" y1="0" x2="503.64509027654475" y2="5" style="visibility: inherit;" fill="rgb(0, 0, 0)" stroke="rgb(204, 204, 204)" stroke-width="1px"></line><line x1="629.556362845681" y1="0" x2="629.556362845681" y2="5" style="visibility: inherit;" fill="rgb(0, 0, 0)" stroke="rgb(204, 204, 204)" stroke-width="1px"></line><line x1="755.4676354148171" y1="0" x2="755.4676354148171" y2="5" style="visibility: inherit;" fill="rgb(0, 0, 0)" stroke="rgb(204, 204, 204)" stroke-width="1px"></line><line x1="881.3789079839532" y1="0" x2="881.3789079839532" y2="5" style="visibility: inherit;" fill="rgb(0, 0, 0)" stroke="rgb(204, 204, 204)" stroke-width="1px"></line><line x1="1007.2901805530895" y1="0" x2="1007.2901805530895" y2="5" style="visibility: inherit;" fill="rgb(0, 0, 0)" stroke="rgb(204, 204, 204)" stroke-width="1px"></line><line x1="1133.2014531222258" y1="0" x2="1133.2014531222258" y2="5" style="visibility: inherit;" fill="rgb(0, 0, 0)" stroke="rgb(204, 204, 204)" stroke-width="1px"></line><line x1="1259.112725691362" y1="0" x2="1259.112725691362" y2="5" style="visibility: inherit;" fill="rgb(0, 0, 0)" stroke="rgb(204, 204, 204)" stroke-width="1px"></line><line x1="1385.023998260498" y1="0" x2="1385.023998260498" y2="5" style="visibility: inherit;" fill="rgb(0, 0, 0)" stroke="rgb(204, 204, 204)" stroke-width="1px"></line></g><g transform="translate(0, 8)"><text style="text-anchor: middle; visibility: hidden; font-family: &quot;Helvetica Neue&quot;, sans-serif; font-size: 12px; font-weight: 200;" x="0" y="0" dx="0em" dy="0.95em" fill="rgb(50, 49, 63)" stroke="none" stroke-width="1px">0</text><text style="text-anchor: middle; visibility: inherit; font-family: &quot;Helvetica Neue&quot;, sans-serif; font-size: 12px; font-weight: 200;" x="125.91127256913619" y="0" dx="0em" dy="0.95em" fill="rgb(50, 49, 63)" stroke="none" stroke-width="1px">1k</text><text style="text-anchor: middle; visibility: inherit; font-family: &quot;Helvetica Neue&quot;, sans-serif; font-size: 12px; font-weight: 200;" x="251.82254513827237" y="0" dx="0em" dy="0.95em" fill="rgb(50, 49, 63)" stroke="none" stroke-width="1px">2k</text><text style="text-anchor: middle; visibility: inherit; font-family: &quot;Helvetica Neue&quot;, sans-serif; font-size: 12px; font-weight: 200;" x="377.73381770740855" y="0" dx="0em" dy="0.95em" fill="rgb(50, 49, 63)" stroke="none" stroke-width="1px">3k</text><text style="text-anchor: middle; visibility: inherit; font-family: &quot;Helvetica Neue&quot;, sans-serif; font-size: 12px; font-weight: 200;" x="503.64509027654475" y="0" dx="0em" dy="0.95em" fill="rgb(50, 49, 63)" stroke="none" stroke-width="1px">4k</text><text style="text-anchor: middle; visibility: inherit; font-family: &quot;Helvetica Neue&quot;, sans-serif; font-size: 12px; font-weight: 200;" x="629.556362845681" y="0" dx="0em" dy="0.95em" fill="rgb(50, 49, 63)" stroke="none" stroke-width="1px">5k</text><text style="text-anchor: middle; visibility: inherit; font-family: &quot;Helvetica Neue&quot;, sans-serif; font-size: 12px; font-weight: 200;" x="755.4676354148171" y="0" dx="0em" dy="0.95em" fill="rgb(50, 49, 63)" stroke="none" stroke-width="1px">6k</text><text style="text-anchor: middle; visibility: inherit; font-family: &quot;Helvetica Neue&quot;, sans-serif; font-size: 12px; font-weight: 200;" x="881.3789079839532" y="0" dx="0em" dy="0.95em" fill="rgb(50, 49, 63)" stroke="none" stroke-width="1px">7k</text><text style="text-anchor: middle; visibility: inherit; font-family: &quot;Helvetica Neue&quot;, sans-serif; font-size: 12px; font-weight: 200;" x="1007.2901805530895" y="0" dx="0em" dy="0.95em" fill="rgb(50, 49, 63)" stroke="none" stroke-width="1px">8k</text><text style="text-anchor: middle; visibility: inherit; font-family: &quot;Helvetica Neue&quot;, sans-serif; font-size: 12px; font-weight: 200;" x="1133.2014531222258" y="0" dx="0em" dy="0.95em" fill="rgb(50, 49, 63)" stroke="none" stroke-width="1px">9k</text><text style="text-anchor: middle; visibility: inherit; font-family: &quot;Helvetica Neue&quot;, sans-serif; font-size: 12px; font-weight: 200;" x="1259.112725691362" y="0" dx="0em" dy="0.95em" fill="rgb(50, 49, 63)" stroke="none" stroke-width="1px">10k</text><text style="text-anchor: middle; visibility: hidden; font-family: &quot;Helvetica Neue&quot;, sans-serif; font-size: 12px; font-weight: 200;" x="1385.023998260498" y="0" dx="0em" dy="0.95em" fill="rgb(50, 49, 63)" stroke="none" stroke-width="1px">11k</text></g><line x1="0" y1="0" x2="1385.023998260498" y2="0" fill="rgb(0, 0, 0)" stroke="rgb(204, 204, 204)" stroke-width="1px"></line></g></g></g></g></svg>