<svg viewBox="0 0 1434 400" xmlns="http://www.w3.org/2000/svg"><g><g><g><g><g><line x1="48.97600173950195" y1="368.9512295383972" x2="43.97600173950195" y2="368.9512295383972" style="visibility: inherit;" fill="rgb(0, 0, 0)" stroke="rgb(204, 204, 204)" stroke-width="1px"></line><line x1="48.97600173950195" y1="338.2700491746366" x2="43.97600173950195" y2="338.2700491746366" style="visibility: inherit;" fill="rgb(0, 0, 0)" stroke="rgb(204, 204, 204)" stroke-width="1px"></line><line x1="48.97600173950195" y1="307.588868810876" x2="43.97600173950195" y2="307.588868810876" style="visibility: inherit;" fill="rgb(0, 0, 0)" stroke="rgb(204, 204, 204)" stroke-width="1px"></line><line x1="48.97600173950195" y1="276.90768844711545" x2="43.97600173950195" y2="276.90768844711545" style="visibility: inherit;" fill="rgb(0, 0, 0)" stroke="rgb(204, 204, 204)" stroke-width="1px"></line><line x1="48.97600173950195" y1="246.2265080833549" x2="43.97600173950195" y2="246.2265080833549" style="visibility: inherit;" fill="rgb(0, 0, 0)" stroke="rgb(204, 204, 204)" stroke-width="1px"></line><line x1="48.97600173950195" y1="215.5453277195943" x2="43.97600173950195" y2="215.5453277195943" style="visibility: inherit;" fill="rgb(0, 0, 0)" stroke="rgb(204, 204, 204)" stroke-width="1px"></line><line x1="48.97600173950195" y1="184.86414735583375" x2="43.97600173950195" y2="184.86414735583375" style="visibility: inherit;" fill="rgb(0, 0, 0)" stroke="rgb(204, 204, 204)" stroke-width="1px"></line><line x1="48.97600173950195" y1="154.1829669920732" x2="43.97600173950195" y2="154.1829669920732" style="visibility: inherit;" fill="rgb(0, 0, 0)" stroke="rgb(204, 204, 204)" stroke-width="1px"></line><line x1="48.97600173950195" y1="123.50178662831263" x2="43.97600173950195" y2="123.50178662831263" style="visibility: inherit;" fill="rgb(0, 0, 0)" stroke="rgb(204, 204, 204)" stroke-width="1px"></line><line x1="48.97600173950195" y1="92.82060626455205" x2="43.97600173950195" y2="92.82060626455205" style="visibility: inherit;" fill="rgb(0, 0, 0)" stroke="rgb(204, 204, 204)" stroke-width="1px"></line><line x1="48.97600173950195" y1="62.13942590079148" x2="43.97600173950195" y2="62.13942590079148" style="visibility: inherit;" fill="rgb(0, 0, 0)" stroke="rgb(204, 204, 204)" stroke-width="1px"></line><line x1="48.97600173950195" y1="31.458245537030905" x2="43.97600173950195" y2="31.458245537030905" style="visibility: inherit;" fill="rgb(0, 0, 0)" stroke="rgb(204, 204, 204)" stroke-width="1px"></line><line x1="48.97600173950195" y1="0.7770651732702731" x2="43.97600173950195" y2="0.7770651732702731" style="visibility: inherit;" fill="rgb(0, 0, 0)" stroke="rgb(204, 204, 204)" stroke-width="1px"></line></g><g transform="translate(38.97600173950195, 0)"><text style="text-anchor: end; visibility: hidden; font-family: &quot;Helvetica Neue&quot;, sans-serif; font-size: 12px; font-weight: 200;" x="0" y="368.9512295383972" dx="0em" dy="0.3em" fill="rgb(50, 49, 63)" stroke="none" stroke-width="1px">-0.1</text><text style="text-anchor: end; visibility: inherit; font-family: &quot;Helvetica Neue&quot;, sans-serif; font-size: 12px; font-weight: 200;" x="0" y="338.2700491746366" dx="0em" dy="0.3em" fill="rgb(50, 49, 63)" stroke="none" stroke-width="1px">0</text><text style="text-anchor: end; visibility: inherit; font-family: &quot;Helvetica Neue&quot;, sans-serif; font-size: 12px; font-weight: 200;" x="0" y="307.588868810876" dx="0em" dy="0.3em" fill="rgb(50, 49, 63)" stroke="none" stroke-width="1px">0.1</text><text style="text-anchor: end; visibility: inherit; font-family: &quot;Helvetica Neue&quot;, sans-serif; font-size: 12px; font-weight: 200;" x="0" y="276.90768844711545" dx="0em" dy="0.3em" fill="rgb(50, 49, 63)" stroke="none" stroke-width="1px">0.2</text><text style="text-anchor: end; visibility: inherit; font-family: &quot;Helvetica Neue&quot;, sans-serif; font-size: 12px; font-weight: 200;" x="0" y="246.2265080833549" dx="0em" dy="0.3em" fill="rgb(50, 49, 63)" stroke="none" stroke-width="1px">0.3</text><text style="text-anchor: end; visibility: inherit; font-family: &quot;Helvetica Neue&quot;, sans-serif; font-size: 12px; font-weight: 200;" x="0" y="215.5453277195943" dx="0em" dy="0.3em" fill="rgb(50, 49, 63)" stroke="none" stroke-width="1px">0.4</text><text style="text-anchor: end; visibility: inherit; font-family: &quot;Helvetica Neue&quot;, sans-serif; font-size: 12px; font-weight: 200;" x="0" y="184.86414735583375" dx="0em" dy="0.3em" fill="rgb(50, 49, 63)" stroke="none" stroke-width="1px">0.5</text><text style="text-anchor: end; visibility: inherit; font-family: &quot;Helvetica Neue&quot;, sans-serif; font-size: 12px; font-weight: 200;" x="0" y="154.1829669920732" dx="0em" dy="0.3em" fill="rgb(50, 49, 63)" stroke="none" stroke-width="1px">0.6</text><text style="text-anchor: end; visibility: inherit; font-family: &quot;Helvetica Neue&quot;, sans-serif; font-size: 12px; font-weight: 200;" x="0" y="123.50178662831263" dx="0em" dy="0.3em" fill="rgb(50, 49, 63)" stroke="none" stroke-width="1px">0.7</text><text style="text-anchor: end; visibility: inherit; font-family: &quot;Helvetica Neue&quot;, sans-serif; font-size: 12px; font-weight: 200;" x="0" y="92.82060626455205" dx="0em" dy="0.3em" fill="rgb(50, 49, 63)" stroke="none" stroke-width="1px">0.8</text><text style="text-anchor: end; visibility: inherit; font-family: &quot;Helvetica Neue&quot;, sans-serif; font-size: 12px; font-weight: 200;" x="0" y="62.13942590079148" dx="0em" dy="0.3em" fill="rgb(50, 49, 63)" stroke="none" stroke-width="1px">0.9</text><text style="text-anchor: end; visibility: inherit; font-family: &quot;Helvetica Neue&quot;, sans-serif; font-size: 12px; font-weight: 200;" x="0" y="31.458245537030905" dx="0em" dy="0.3em" fill="rgb(50, 49, 63)" stroke="none" stroke-width="1px">1</text><text style="text-anchor: end; visibility: hidden; font-family: &quot;Helvetica Neue&quot;, sans-serif; font-size: 12px; font-weight: 200;" x="0" y="0.7770651732702731" dx="0em" dy="0.3em" fill="rgb(50, 49, 63)" stroke="none" stroke-width="1px">1.1</text></g><line x1="48.97600173950195" y1="0" x2="48.97600173950195" y2="374.5999984741211" fill="rgb(0, 0, 0)" stroke="rgb(204, 204, 204)" stroke-width="1px"></line></g></g><g transform="translate(48, 0)" clip-path="url(#clip_0)"><clipPath id="clip_0"><rect width="1385" height="374"></rect></clipPath><g><g><g><line x1="32.57222294780852" y1="0" x2="32.57222294780852" y2="374.5999984741211" fill="rgb(0, 0, 0)" stroke="rgb(60, 60, 60)" stroke-width="1px" opacity="0.25"></line><line x1="125.38577957712197" y1="0" x2="125.38577957712197" y2="374.5999984741211" fill="rgb(0, 0, 0)" stroke="rgb(60, 60, 60)" stroke-width="1px" opacity="0.25"></line><line x1="218.19933620643542" y1="0" x2="218.19933620643542" y2="374.5999984741211" fill="rgb(0, 0, 0)" stroke="rgb(60, 60, 60)" stroke-width="1px" opacity="0.25"></line><line x1="311.01289283574886" y1="0" x2="311.01289283574886" y2="374.5999984741211" fill="rgb(0, 0, 0)" stroke="rgb(60, 60, 60)" stroke-width="1px" opacity="0.25"></line><line x1="403.82644946506235" y1="0" x2="403.82644946506235" y2="374.5999984741211" fill="rgb(0, 0, 0)" stroke="rgb(60, 60, 60)" stroke-width="1px" opacity="0.25"></line><line x1="496.64000609437574" y1="0" x2="496.64000609437574" y2="374.5999984741211" fill="rgb(0, 0, 0)" stroke="rgb(60, 60, 60)" stroke-width="1px" opacity="0.25"></line><line x1="589.4535627236893" y1="0" x2="589.4535627236893" y2="374.5999984741211" fill="rgb(0, 0, 0)" stroke="rgb(60, 60, 60)" stroke-width="1px" opacity="0.25"></line><line x1="682.2671193530026" y1="0" x2="682.2671193530026" y2="374.5999984741211" fill="rgb(0, 0, 0)" stroke="rgb(60, 60, 60)" stroke-width="1px" opacity="0.25"></line><line x1="775.0806759823162" y1="0" x2="775.0806759823162" y2="374.5999984741211" fill="rgb(0, 0, 0)" stroke="rgb(60, 60, 60)" stroke-width="1px" opacity="0.25"></line><line x1="867.8942326116295" y1="0" x2="867.8942326116295" y2="374.5999984741211" fill="rgb(0, 0, 0)" stroke="rgb(60, 60, 60)" stroke-width="1px" opacity="0.25"></line><line x1="960.7077892409432" y1="0" x2="960.7077892409432" y2="374.5999984741211" fill="rgb(0, 0, 0)" stroke="rgb(60, 60, 60)" stroke-width="1px" opacity="0.25"></line><line x1="1053.5213458702565" y1="0" x2="1053.5213458702565" y2="374.5999984741211" fill="rgb(0, 0, 0)" stroke="rgb(60, 60, 60)" stroke-width="1px" opacity="0.25"></line><line x1="1146.33490249957" y1="0" x2="1146.33490249957" y2="374.5999984741211" fill="rgb(0, 0, 0)" stroke="rgb(60, 60, 60)" stroke-width="1px" opacity="0.25"></line><line x1="1239.1484591288834" y1="0" x2="1239.1484591288834" y2="374.5999984741211" fill="rgb(0, 0, 0)" stroke="rgb(60, 60, 60)" stroke-width="1px" opacity="0.25"></line><line x1="1331.962015758197" y1="0" x2="1331.962015758197" y2="374.5999984741211" fill="rgb(0, 0, 0)" stroke="rgb(60, 60, 60)" stroke-width="1px" opacity="0.25"></line></g><g><line x1="0" y1="368.9512295383972" x2="1385.023998260498" y2="368.9512295383972" fill="rgb(0, 0, 0)" stroke="rgb(60, 60, 60)" stroke-width="1px" opacity="0.25"></line><line x1="0" y1="338.2700491746366" x2="1385.023998260498" y2="338.2700491746366" fill="rgb(0, 0, 0)" stroke="rgb(60, 60, 60)" stroke-width="1px" opacity="0.25"></line><line x1="0" y1="307.588868810876" x2="1385.023998260498" y2="307.588868810876" fill="rgb(0, 0, 0)" stroke="rgb(60, 60, 60)" stroke-width="1px" opacity="0.25"></line><line x1="0" y1="276.90768844711545" x2="1385.023998260498" y2="276.90768844711545" fill="rgb(0, 0, 0)" stroke="rgb(60, 60, 60)" stroke-width="1px" opacity="0.25"></line><line x1="0" y1="246.2265080833549" x2="1385.023998260498" y2="246.2265080833549" fill="rgb(0, 0, 0)" stroke="rgb(60, 60, 60)" stroke-width="1px" opacity="0.25"></line><line x1="0" y1="215.5453277195943" x2="1385.023998260498" y2="215.5453277195943" fill="rgb(0, 0, 0)" stroke="rgb(60, 60, 60)" stroke-width="1px" opacity="0.25"></line><line x1="0" y1="184.86414735583375" x2="1385.023998260498" y2="184.86414735583375" fill="rgb(0, 0, 0)" stroke="rgb(60, 60, 60)" stroke-width="1px" opacity="0.25"></line><line x1="0" y1="154.1829669920732" x2="1385.023998260498" y2="154.1829669920732" fill="rgb(0, 0, 0)" stroke="rgb(60, 60, 60)" stroke-width="1px" opacity="0.25"></line><line x1="0" y1="123.50178662831263" x2="1385.023998260498" y2="123.50178662831263" fill="rgb(0, 0, 0)" stroke="rgb(60, 60, 60)" stroke-width="1px" opacity="0.25"></line><line x1="0" y1="92.82060626455205" x2="1385.023998260498" y2="92.82060626455205" fill="rgb(0, 0, 0)" stroke="rgb(60, 60, 60)" stroke-width="1px" opacity="0.25"></line><line x1="0" y1="62.13942590079148" x2="1385.023998260498" y2="62.13942590079148" fill="rgb(0, 0, 0)" stroke="rgb(60, 60, 60)" stroke-width="1px" opacity="0.25"></line><line x1="0" y1="31.458245537030905" x2="1385.023998260498" y2="31.458245537030905" fill="rgb(0, 0, 0)" stroke="rgb(60, 60, 60)" stroke-width="1px" opacity="0.25"></line><line x1="0" y1="0.7770651732702731" x2="1385.023998260498" y2="0.7770651732702731" fill="rgb(0, 0, 0)" stroke="rgb(60, 60, 60)" stroke-width="1px" opacity="0.25"></line></g></g></g><g><g><line x1="0" y1="338.2700491746366" x2="1385.023998260498" y2="338.2700491746366" fill="rgb(0, 0, 0)" stroke="rgb(153, 153, 153)" stroke-width="1.5px"></line></g></g><g><g><line x1="218.19933620643542" y1="0" x2="218.19933620643542" y2="374.5999984741211" fill="rgb(0, 0, 0)" stroke="rgb(153, 153, 153)" stroke-width="1.5px"></line></g></g><g><g><g><g><g><path style="fill: none;" stroke="rgb(0, 119, 187)" stroke-width="2px" d="M265.4878433090706,364.61320294528895L265.76628397895854,371.41847676948254L266.5087924319931,392.9804493151803L266.6016059886224,362.0268383870831L266.74082632356635,364.5799680698381L267.25130088502755,354.73168395650754L267.94740255974745,359.01141285812884L268.0866228946914,362.00687129312047L269.0147584609845,373.91312727771384L269.3860126875018,358.98596457428977L269.5716398007604,344.760025656711L270.49977536705353,331.6838999896522L271.8455719381786,321.19593545841633L271.98479227312254,310.33088085987305L272.40245327795446,328.51287154244557L272.9129278394157,333.26583488174316L273.14496173098894,285.0732321520648L273.2377752876183,276.91076255318757L273.4698091791916,280.2146041330572L275.2796735334632,265.2761362846893L275.5117074250365,253.41180361614641L276.20780909975633,287.40625064201873L276.4862497696443,289.0634396516144L276.7182836612175,257.48688559706375L277.04313110942013,245.8490989120725L277.3215717793081,223.8525182048229L278.2033005672866,232.3313406994934L278.94580902032106,253.50695727994497L279.0386225769504,232.22854318945463L279.4098768034677,227.03830837791278L279.9667581432435,221.0431762026279L280.38441914807544,222.06860733191786L280.7556733745927,216.1534811615431L281.4981818276272,208.10093247816383L281.6838089408858,192.76659617364973L284.18977496987725,176.90795074109616L284.23618174819194,175.71845724252034L285.0250969795411,193.99994509456207L285.16431731448506,191.05456350215448L285.3035376494291,203.01089153226226L285.9996393241489,199.59283572197L286.1388596590929,197.64126634887273L286.18526643740756,197.85316960797624L286.64933422055407,198.37177227977264L287.43824945190323,199.52519262024535L287.53106300853256,204.45952100725424L288.50560535314037,195.26992105921047L289.29452058448953,184.59163607015319L289.5265544760628,178.1286335227536L290.77953749055854,203.4030781786583L291.2436052737051,221.5578849086783L291.522045943593,212.52626420200033L291.8468933917956,198.83531286752824L291.8933001701103,220.22437371974064L292.58940184483015,231.71384140606958L293.42472385449395,219.1818653852808L293.51753741112327,221.20895305767303L294.07441875089916,225.3904570258677L294.39926619910176,215.63526202621415L294.44567297741645,229.31329162845034L294.5384865340457,197.23615327100737L294.67770686898973,204.4055669506086L294.770520425619,193.98673131895595L295.3274017653949,190.81509009074406L295.79146954854144,182.77511247161846L296.5803847798906,186.22474380163274L297.7869610160717,168.0869780727887L297.97258812933035,189.60322493058922L298.15821524258894,176.81741954157803L298.52946946910623,185.42915148782149L298.9471304739381,171.44984418204686L299.13275758719675,162.45104421119146L299.5504185920287,152.0935742897794L299.73604570528727,151.48915407643653L300.1537067101192,161.96693818909534L300.33933382337784,185.1105043812296L300.43214738000717,188.92981950467944L300.52496093663643,183.68484554981353L300.84980838483904,175.47987335776426L301.0818422764123,207.4311683774372L301.17465583304164,193.93774211576982L301.4066897246149,179.80470669102786L301.49950328124424,173.7262868242522L301.68513039450283,175.4740744195693L301.8707575077615,155.4855874908057L302.14919817764945,157.84454400012166L302.1956049559641,169.85138470200943L303.2629608572012,168.93032341164297L303.4485879704598,157.01846195920135L304.9800116548435,163.97858534200398L305.3048591030461,167.18664004310742L305.583299772934,172.0109889404667L306.23299466933923,167.7604279584906L306.4186217825978,168.1291593098371L306.74346923080043,166.79335676309043L306.83628278742975,151.751492392879L307.1147234573177,150.9398642109724L307.20753701394705,150.62103154540125L307.8572319103522,146.88080006633965L307.9036386886669,144.62107173363083L308.36770647181345,149.77229039605263L308.5069268067574,151.752273438717L308.92458781158933,169.85669624703309L309.110214924848,161.73051805768134L309.29584203810657,161.73984083717303L309.7135030429385,146.80842104118975L309.75990982125313,163.0691576366981L310.0383504911411,175.55800045947007L310.08475726945574,170.74202711783119L310.316791161029,174.0821145578681L311.15211317069287,170.34861521453175L311.2913335056368,176.29669469503887L311.7089945104687,169.1874656412602L313.10119785990844,161.5861501924552L313.70448597799896,168.64650878833436L313.9829266478869,177.0653069293354L314.1221469828309,174.20524527779875L314.21496053946015,202.9717386864933L314.4005876527188,215.54429294086296L314.67902832260677,219.6062966404312L314.91106221418005,200.95110930270516L315.3751299973266,185.55091404058362L315.6535706672145,172.54782588093104L315.88560455878786,172.23305496782453L316.3496723419344,165.277117882536L316.5817062335077,155.6724255981376L318.29875703115,153.17432955294882L318.4843841444086,169.40018133220929L318.53079092272327,171.31832625840258L318.5771977010379,172.35360976498902L319.41251971070176,186.90183618355226L319.96940105047764,188.23304813198226L320.0158078287923,178.86946109130784L320.29424849868025,158.17806387664368L320.61909594688285,165.5580471133192L321.8256721830639,150.7336746543646L322.38255352283977,143.98178727595027L322.89302808430097,158.27795677516423L323.032248419245,156.32128619025363L323.17146875418894,164.7665343721486L324.09960432048206,161.6732088006533L324.37804499037003,146.44646885967438L324.70289243857263,168.3943091893509L324.98133310846055,172.57620813254965L325.7238415614951,157.3534626123195L325.86306189643904,144.43297846767732L326.37353645790023,146.87923672428138L326.51275679284424,144.76942302794055L326.6519771277882,150.2432826947102L326.69838390610283,160.07787799670757L328.92590926520637,154.19068669547048L329.0651296001503,151.6635721867705L329.2043499350943,148.02328178476077L329.250756713409,147.94111837789004L330.2717058363314,149.18498993589077L330.8285871761073,157.58684629133927L330.92140073273663,149.08631600737968L331.1070278459952,151.42655093760817L331.29265495925387,166.3034259213934L331.4782820725125,160.7260959596609L332.6384515303789,162.86898189078445L332.68485830869355,157.858736616076L333.1953328701548,178.10072349549256L333.56658709667204,165.7952947992629L333.7522142099306,165.7310459172925L333.84502776656,155.48473749559668L334.6339429979091,146.11261108964496L335.330044672629,145.7897295116243L335.5156717858876,150.34667016322922L336.67584124375406,158.65775400272457L337.41834969678854,174.19690575033582L337.4647564751032,181.3279570552438L338.160858149823,185.06112185240397L338.34648526308166,179.263554056303L339.0889937161162,162.31169622568305L339.1354004944309,168.92881426767724L339.7386886125214,174.6349099065166L340.1563496173533,167.6677708767273L340.38838350892655,158.07410288450484L340.6204174004999,174.2788454089962L340.75963773544385,166.8241795778349L340.9916716270171,177.8504727324674L341.1308919619611,163.40618578529538L341.68777330173697,170.91999776954697L342.0590275282542,149.98462623224125L342.3838749764568,160.00539236008555L342.7087224246594,146.96588152321868L343.12638342949134,143.0470843367626L343.31201054274993,138.38463328298926L343.40482409937925,135.43510544612926L343.4976376560086,130.20787501428876L343.63685799095254,149.58234907310833L343.96170543915514,149.10856147385473L344.37936644398707,142.46363864181956L344.8434342271336,144.4464636983682L345.0290613403923,138.10343171553535L345.12187489702154,145.35467743009303L345.26109523196556,156.98067780589724L345.49312912353884,153.43111692645934L345.6323494584828,137.68171492832508L345.6787562367974,153.00975283314745L345.7251630151121,145.03826998141687L346.6068918030906,139.0799072656717L347.0245528079225,158.14600855663417L347.3029934778104,155.5500325635324L347.62784092601305,159.4421683085437L347.6742477043277,161.99119552942548L348.09190870915955,157.54355953535278L348.4167561573622,130.08741780576835L349.39129850197,135.75371031041527L349.5769256152286,137.22064147084814L350.0409933983752,148.04341751546755L350.22662051163377,155.0020513617644L350.6442815164657,134.9595815308419L351.24756963455627,136.84398495507105L351.3867899695002,141.51012345189682L351.66523063938814,141.78688312122048L351.75804419601747,145.05016013159488L353.3358746587158,141.3826177593796L353.61431532860377,135.22006185826513L354.40323055995293,138.38561312957518L354.49604411658225,139.413198568836L354.86729834309943,137.00165891436728L355.0065186780435,131.97771424960933L355.0993322346727,144.57157752331347L355.93465424433657,173.2733353502409L356.5843491407418,149.71527185410966L356.6771626973711,152.39266284572906L357.5124847070349,155.0100914127815L357.69811182029355,142.270633449123L358.06936604681084,146.8536977981028L358.85828127815995,141.52828358555553L359.1367219480479,144.48749762020424L360.2504846275997,136.52648301960843L360.85377274569015,148.93586482618045L360.9929930806341,155.14280123291178L361.03939985894885,142.37833540491255L361.1322134155782,127.69401982565148L361.22502697220744,133.75627213177108L361.4106540854661,146.0799286503978L361.5962811987247,151.62863851932576L361.92112864692734,166.85500055964238L362.6172303216471,152.34103859349895L364.19506078434546,151.7580291912196L364.3806878976041,135.81515543467333L364.70553534580665,150.86000885372786L365.12319635063864,143.03698584469927L365.68007769041446,136.6384964822365L366.1441454735611,125.99777167178189L366.23695903019035,124.05888226922565L366.3297725868197,129.21115784286354L366.37617936513436,123.45488764338239L366.56180647839295,122.1342506467019L366.7010268133369,121.55229253074361L367.0722810398542,125.55575874744147L367.2579081531128,142.85223466319417L368.186043719406,147.1173755549313L368.41807761097925,147.7162052424337L368.4644843892939,128.7502619517471L368.55729794592327,145.94788909602948L368.6965182808672,152.67563094609636L368.8821453941258,145.90781644676224L368.9285521724405,152.56187972999118L369.25339962064305,129.37375832216733L369.392619955587,129.32627004137447L369.6246538471603,130.87659726554188L370.5063826351388,144.11937976600584L370.9704504182854,145.33755090422324L371.2488910881733,142.4801157749957L371.5273317580612,144.0301492395554L371.71295887131987,133.74277020743372L372.26984021109575,154.525065764786L372.3162469894104,157.0815246744812L373.4764164472768,169.4515870953146L373.8940774521087,149.68504376066417L374.68299268345794,145.77326236473843L375.51831469312174,143.04369521520073L375.5647214714363,150.99647016359452L375.6575350280657,143.81865544518348L376.30722992447085,137.31323673826694L377.6994332739106,130.92709317880278L378.0706875004278,133.586109015323L378.3955349486305,129.97210056660214L378.4883485052597,148.63330002152273L378.5811620618891,167.70389876964535L378.81319595346235,152.94357764131598L379.97336541132876,143.8272210182784L380.0197721896434,146.10345361334666L380.48383997279,132.47578135108964L380.57665352941933,116.02668474094105L380.8086874209926,115.3750287067088L381.4583823173978,121.76643667400526L381.73682298728573,149.04631355053303L382.1544839921176,156.5864651163416L382.8505856668375,151.9922732677213L383.0362127800961,139.87291782789111L383.1290263367255,137.29574465179553L383.73231445481593,133.7252875663507L384.2891957945919,142.243842826166L384.8460771343677,141.35617637725917L385.3101449175143,126.78211877693539L385.58858558740224,133.16080074695947L386.3775008187514,125.52545124985039L386.6559414886393,121.04812123814483L386.702348266954,127.33136937077751L387.0736024934713,137.43037333473526L387.3520431633592,130.6355881030196L387.6304838332471,143.40389376136315L387.8625177248204,142.8001327186187L388.9298736260575,138.80593734425747L389.25472107426015,127.65890609045633L389.48675496583337,117.48473116515498L390.09004308392394,110.85457480278814L390.41489053212655,120.58738708089436L391.1109922068464,126.87501417922289L391.6678735466223,140.75064562430344L391.80709388156623,124.9547359346731L392.45678877797144,118.62493546108166L392.5031955562861,125.7171100325653L392.5960091129154,139.97484975967717L394.0810260189844,131.76006028450462L394.1274327972991,129.62773420592757L394.1738395756137,127.84152191628448L394.49868702381633,122.98895374221942L395.0091615852776,121.44230338764496L395.70526325999737,128.79734646883844L395.9372971515707,135.931122465715L397.3295005010104,128.32578235641736L397.93278861910096,131.4196394299636L398.35044962393283,128.12895756846933L398.7681106287647,123.9024739089513L399.0465512986527,130.13971581300328L399.2321784119113,137.3556181168099L400.0210936432605,136.78040289815257L400.1139071998898,129.0494254380626L400.16031397820444,134.13890972550365L400.71719531798027,120.62980981336736L402.3414325589933,142.59322089954583L402.7126867855106,139.66959753001186L403.78004268674766,122.78222430714993L404.1977036915796,120.30241817847005L404.29051724820886,135.58965453201765L404.3833308048382,134.26044710893567L404.5689579180969,128.79037302437197L404.6153646964115,125.78739825121309L405.1258392578727,133.35318076547784L405.26505959281667,123.93258170548273L405.63631381933396,134.7900019012557L405.7755341542779,128.7953177209975L406.8892968338297,133.93360212681154L407.0749239470883,149.00058890482367L407.1677375037176,136.62318166261707L407.86383917843744,151.6185013203786L408.467127296528,132.56747418496778L409.53448319776504,123.55531394695927L410.23058487248494,126.0700013813696L410.60183909900223,123.7665580189433L410.8338729905755,129.44599249355124L411.06590688214874,128.25990915637402L411.2515339954074,142.91788399997105L411.34434755203677,149.33908930725914L412.0868560050712,153.70866191157117L412.92217801473504,144.8231523791922L412.9685847930497,139.18387302080825L413.29343224125233,131.08059410776374L413.4326525761963,124.52626371341927L414.54641525574806,122.2906773576992L414.685635590692,108.97589753419021L415.01048303889456,101.42202949033219L415.1497033738385,101.81253337422072L415.19611015215327,110.7645594986534L415.2889237087825,126.40108595102444L415.3353304870972,117.89911684198398L416.4954999449636,131.5019701189674L416.9131609497955,129.8061605035951L418.02692362934727,113.29211130330759L418.39817785586456,114.58066327615376L419.0478727522697,124.96986789026582L419.09427953058434,123.6864054132432L419.3263134221577,119.96944308153493L419.8831947619335,120.4211343588727L421.2289913330586,130.9095787736594L421.32180488968794,135.22390849956435L421.4146184463172,126.1739893084254L421.78587267283444,133.89691280552628L422.5747879041836,128.88500010403783L422.8068217957569,127.95536950656182L423.82777091867933,129.20736601376902L423.9669912536233,134.11372155374139L424.19902514519663,139.49641011102509L424.7094997066578,152.25898361504176L424.80231326328715,162.76567156411173L425.12716071148975,140.8243075144901L425.4056013813777,138.03921454610852L425.73044882958027,144.75462390548014L426.0088894994682,137.13545943579072L426.1481098344122,127.71352014947013L426.9370250657614,127.81369615571012L427.49390640553725,120.69552809751247L427.6331267404812,118.57316192095448L427.95797418868386,122.65981502659452L428.7004826417183,132.91936571903696L428.7932961983476,126.78618557334428L429.0717368682356,130.09448328256337L429.2573639814942,129.94016465845212L429.99987243452875,124.01987720221175L430.7887876658779,117.24043316051336L431.716923232171,120.6366380876637L432.55224524183484,120.45689205307704L432.6450587984641,114.25587849154806L432.7378723550935,119.11480426133696L432.87709269003744,145.65945025552597L433.0163130249814,145.04568632546182L433.80522825633057,141.92898916544613L434.31570281779176,138.47540721469022L434.96539771419697,124.14052317509254L436.35760106363665,137.75169389181974L436.450414620266,139.69927859684324L437.5641772998178,129.4494824421774L437.7498044130764,149.58209206957127L437.8426179697057,149.56262740503186L438.1210586395936,151.6819111842005L438.2602789745376,142.79966120968842L438.3530925311669,137.4958833087692L438.77075353599884,139.94572844903317L439.09560098420144,147.64270293615516L439.698889102292,155.8871788611014L440.0701433288092,156.67617623645887L440.67343144689977,131.99250096734673L440.7662450035291,132.03372460590015L440.90546533847305,121.92418905938123L441.4623466782489,115.98806298493571L441.6479737915076,122.90751059378303L441.88000768308086,128.40363469699415L441.97282123971013,143.52775891302284L442.43688902285675,135.49237772817025L442.62251613611534,136.60797941762485L443.9683127072404,135.5439697120997L444.20034659881367,140.1193896218853L444.52519404701627,136.1184205332908L445.73177028319736,128.6307308176628L446.56709229286116,126.62013711330093L446.9383465193784,123.94315382877605L447.26319396758106,135.02028791244948L447.44882108083965,131.1937901816491L447.95929564230084,132.26650886279015L448.23773631218876,125.05622849906229L448.5161769820768,118.94921482741046L449.53712610499923,119.19816358233771L450.0476006664605,129.7898214221431L450.27963455803365,137.92833635555908L450.69729556286563,134.41607181901142L450.74370234118027,130.72387517396982L451.30058368095615,112.81859512144376L451.81105824241735,114.53693085629953L451.9502785773613,112.59614829317474L452.4143463605079,113.69300811929463L454.59546494129677,123.45188586338227L454.82749883287005,132.7847798933445L454.8739056111847,124.85147761927757L455.3379733943313,147.00192234037607L458.7256682113012,124.50736391887062L459.23614277276243,131.8247643270477L459.2825495510771,125.07398890142096L459.37536310770645,129.33559990903032L459.4681766643357,136.97990893392003L459.6073969992797,129.559926375896L459.65380377759436,130.14650273860454L460.8139732354608,131.35177882267863L461.0460071270341,140.04823812743723L461.18522746197806,134.21156167940245L461.5564816884953,136.89870350908708L462.06695624995655,123.03692539732413L462.4846172547884,128.11403000596397L462.6238375897324,131.4157994515508L462.670244368047,131.18185597262348L463.3663460427669,135.51780700071694L464.10885449580144,117.76258534775457L464.38729516568935,108.79538681380387L464.57292227894794,107.5025325489766L464.9905832837799,118.14049242164197L465.0833968404092,131.20534827226646L465.5010578452411,124.5126627901241L465.68668495849977,125.32972659399417L465.9651256283877,128.11747589199803L466.19715951996096,126.70594473488399L467.403735756142,121.33759000167507L467.821396760974,120.03805247828129L468.51749843569377,118.28844954592103L468.8423458838964,125.7329890221182L469.12078655378434,139.43456160626747L469.30641366704293,126.12479930390353L469.3528204453576,125.05301479474565L470.2345492333361,133.14522564550373L470.37376956828007,132.43474169262407L470.65221023816804,124.03898121990545L472.0444135876077,134.18050662861813L472.32285425749564,128.7639609405875L472.5084813707542,113.29053548994995L473.0189559322155,111.94519779374644L473.1117694888448,119.31695453701249L473.90068472019396,123.09866742031156L473.94709149850866,116.06854792821667L474.82882028648714,109.50273312229058L474.8752270648018,108.85457707264936L475.01444739974573,99.21081302383305L475.4321084045776,106.44477315168967L475.94258296603886,112.90673995996076L477.10275242390526,110.76505666898396L477.2419727588492,113.35282402009886L477.75244732031047,119.28556303016592L477.8916676552545,113.28730268176275L477.98448121188375,120.30809253273074L478.07729476851307,109.28976009699005L478.63417610828895,120.86920462516102L479.4230913396382,124.12586024599673L480.39763368424593,112.59142426912314L480.72248113244854,115.16262783800516L481.09373535896583,109.33824133015935L481.2793624722244,113.13335842584655L481.604209920427,117.99409989110558L481.65061669874166,121.73239471963169L481.6970234770563,126.44739867932569L482.1610912602029,134.31988032838265L483.36766749638394,130.09071419441176L483.5997013879572,131.58693983468908L484.34220984099176,129.98997544139075L484.85268440245295,130.51626654089182L485.03831151571154,124.578720900294L485.0847182940263,129.73937257653503L485.4559725205435,128.44402377117297L485.5951928554875,131.80171267161202L485.73441319043144,133.66837313681046L485.8736335253754,146.4312781629919L486.2912945302073,140.70178643024042L486.47692164346597,129.16576415646978L486.8017690916685,132.19763455308504L486.8481758699832,135.60330624392228L487.1266165398712,140.16288932951466L487.4050572097591,137.6134194100543L487.4978707663884,133.74873471972055L487.6370911013324,118.13439876436922L489.2613283423454,113.43795533216712L489.8182096821212,111.14521731921013L490.6999384700997,116.91312157015136L490.7927520267291,115.00330686925918L491.67448081470747,108.33184182159857L491.7672943713368,114.75754590854302L492.6954299376299,119.40776443180454L493.8091926171817,118.9482973268048L493.9484129521257,115.73477532019734L494.5517010702162,130.81447979109586L494.9229552967335,115.60113817523103L495.3406163015654,122.3350492449924L495.47983663650933,135.35531000379052L495.57265019313866,131.29034717833093L495.6190569714533,127.90262649659968L496.2687518678585,123.43623825735241L496.64000609437574,111.38675871058791L497.6609552172982,115.99194695263697L497.93939588718615,120.9410173315693L498.07861622213017,120.31616144870426L498.4034636703327,114.6182215071102L499.0067517884233,110.86418971307381L499.0995653450526,115.09394767066857L499.14597212336724,119.57312167278346L499.4708195715698,112.42199176209391L500.30614158123365,103.47474200206358L501.3734974824707,116.14111717910902L501.605531374044,115.88430238646038L502.5336669403371,113.13648530599585L502.6264804969665,119.23324195810659L502.9049211668544,129.41892424118802L504.1114974030355,119.21183353314964L504.3435312946088,118.07959191388755L504.9468194126993,129.99027475271015L505.13244652595796,117.22819081099192L505.96776853562176,138.56723785905538L506.339022762139,139.55896559062728L507.4063786633762,122.58030029664769L507.54559899832014,126.55295820536509L507.5920057766348,125.33125091674532L507.77763288989337,132.15160199944606L507.82403966820806,124.17524843469917L509.0306159043891,124.20703210393208L510.09797180562623,124.5326484377542L510.70125992371675,139.893950357676L511.4437683767513,133.8874293510651L511.9542429382125,121.9532354855157L512.696751391247,123.27819706760758L513.3464462876522,123.53231579870209L513.3928530659668,116.39245991087057L513.5320734009108,117.31132480015788L514.32098863226,123.50000962775471L515.4347513118117,122.6525777098139L515.527564868441,124.80765140169285L516.1772597648462,127.77045619842133L517.0589885528248,117.09587070604908L517.1053953311393,108.94394360707184L517.1982088877687,101.52948694362237L517.4302427793419,112.84751667740443L518.7296325721524,121.07401167664437L519.1472935769842,128.07545849935835L519.4721410251868,132.81646623385402L519.6577681384455,131.0175965811142L519.9362088083335,123.80614582723081L520.2146494782214,113.57019081059275L520.4466833697948,101.79377746227294L520.5859037047387,112.10415560625864L520.678717261368,100.01557274100298L521.3748189360878,112.02187637789189L521.7924799409197,107.40954940139994L522.1637341674369,116.38232951878933L522.9526493987861,127.88318245937126L523.1846832903594,136.19443870555216L523.2774968469887,131.43090865066335L523.8343781867646,128.28569487199078L523.9271917433939,114.01027201721001L524.2056324132818,109.1364101127678L524.7625137530578,102.86375007201002L524.994547644631,112.97191067968043L525.4586154277777,106.97818672782455L525.9226832109242,109.54173409426949L527.2220730037346,102.44943978491352L527.3148865603638,105.8708468407014L527.5005136736225,127.06208407995888L528.1966153483423,128.55751564303876L530.0992932592433,130.83019238430094L530.2385135941872,151.38605540488214L531.0738356038511,138.72407314989204L531.5843101653123,122.25985593391638L531.9091576135148,122.70438701787299L532.6980728448641,129.22767737331435L532.8372931798081,122.70522155808152L533.0693270713813,122.6964601113745L533.3013609629546,122.63777741764054L533.5798016328425,120.26988908589124L534.1366829726185,116.66567405815556L534.183089750933,124.93879662124095L534.9720049822822,124.93648675527811L535.1112253172262,122.04253086900621L535.4360727654288,123.25502776989711L536.6890557799245,119.30752363822194L536.7818693365539,126.73793465503383L537.1067167847565,124.84095935636748L537.9420387944203,111.1090452976623L538.0348523510495,121.7645581408564L538.3596997992522,122.53032971567856L538.7773608040841,133.7039104062646L539.2414285872306,120.07415798080513L539.2878353655453,131.06187505460383L539.7519031486919,133.30000267674774L539.9375302619504,140.73650684984278L539.9839370402652,131.8636126583198L540.8656658282436,131.7866021738461L541.0976997198169,133.8275689410328L541.1905132764463,125.91264236389523L541.3761403897048,129.89070319941544L541.7938013945368,127.47752138568478L542.6291234042005,134.89749140865047L543.5572589704938,130.69875191536096L543.789292862067,130.4569708503636L544.206953866899,130.35204293822386L544.4853945367869,133.71915441813155L544.5318013151015,126.15417820337396L544.5782080934162,125.69550227558085L544.7174284283602,119.88404072488942L544.8566487633042,119.27900289450969L545.8775978862266,124.39109371730348L546.7129198958903,128.761345986103L546.8985470091491,119.69837771240367L547.1305809007223,123.14403879601764L547.4554283489249,144.07951663834635L547.8730893537568,134.86137084431778L547.9659029103861,131.3147640829586L548.4299706935327,148.898978115692L548.7084113634206,153.6113873974472L548.80122492005,146.31381581101527L549.0796655899379,127.1813355845305L549.1724791465672,136.35467645768213L549.2652927031965,147.26066454019085L549.8221740429724,141.08043005975333L549.9149875996017,136.2571175319017L550.007801156231,132.7136847451516L551.0751570574681,137.8414235389203L551.4928180623001,142.283669621845L551.6320383972441,136.8466102789742L552.3745468502785,133.99623347261027L552.8386146334251,130.1373902108366L552.8850214117398,130.85696593472923L552.977834968369,118.41880119871695L553.256275638257,117.34447032355439L553.534716308145,118.75522931886573L553.8595637563475,104.01922727896141L554.0915976479208,102.4825638531459L554.4164450961234,120.0152179798742L554.6948857660113,114.93772755699098L555.2981738841019,121.99690115826633L556.504750120283,128.60409507284797L557.4328856865761,126.6163238357918L557.5721060215201,126.50720091557253L557.7577331347787,116.40064636043297L557.8041399130933,125.54587767590306L558.1289873612959,116.49873331651469L558.9179025926451,117.2659778301998L559.4283771541063,122.83826808538538L559.9388517155676,128.9484580777776L560.2636991637701,140.6923367235287L560.5421398336581,148.32781881275963L561.6559025132099,124.6398807043617L564.2082753205159,138.17146907330095L564.3939024337747,133.08855945915644L564.9971905518651,126.822652481902L565.5076651133263,129.99607739915695L565.693292226585,121.02067946015475L566.0645464531023,125.33082784131082L566.1109532314168,146.32973794987893L566.2965803446756,149.13764305874327L566.7142413495075,128.5771719615448L566.760648127822,117.71771514635344L567.2247159109687,117.52625368173722L567.2711226892833,109.93859284431267L567.317529467598,116.52646807349572L567.6887836941152,127.96372507173956L568.6169192604084,121.90702043286305L569.73068193996,119.10625534842501L570.0091226098481,141.0157700202915L570.0555293881628,146.39956397104334L570.1947497231067,139.14659052167244L570.6588175062533,137.11272830906208L571.0764785110852,125.57279345733812L571.2156988460291,132.2278564410542L571.6797666291757,136.01684449709833L571.911800520749,132.67901157385035L573.5824445400766,133.53510909097588L574.0001055449086,136.5988958918596L574.0929191015379,129.65062145580444L574.2785462147965,132.9970041838635L574.5569868846844,128.87381230327344L574.6962072196284,119.12746636905982L575.021054667831,126.99447616174425L575.3923088943483,129.97859690800988L575.5315292292922,117.62184380958587L575.9027834558095,123.97436947227953L576.0884105690681,133.99504759374864L576.2740376823267,128.92803333177184L577.3413935835638,133.21770815828074L577.5270206968224,126.45886376667809L577.851868145025,115.2073565780671L578.0374952582837,116.11648923579509L578.5479698197448,110.28091227096957L579.1048511595208,115.60931947820939L579.8473596125554,108.84232425054824L581.0075290704217,113.96378761760877L581.7036307451416,108.01221680350375L582.3533256415467,121.50766701519993L582.5389527548055,126.02294961822867L582.724579868064,125.24316003112784L583.0958340945813,113.25923899400453L583.3742747644692,107.4163479137406L583.4206815427839,119.86313794544759L584.209596774133,110.2831554960573L584.6272577789649,128.78906493288875L584.9056984488528,116.09073702988121L585.2769526753701,119.80305569057643L585.4161730103141,121.8333900699474L586.4371221332365,114.821352384656L587.2260373645856,114.03119129719374L587.4116644778444,120.78027193475225L587.7829187043616,125.37753968504731L587.9221390393055,126.39693982328166L588.2005797091934,117.38038093981032L589.0359017188573,106.94342147491602L589.1287152754866,114.80758344781793L589.9640372851504,120.29595133062102L590.1496643984091,121.31332474681227L590.288884733353,130.6217288610735L591.1242067430169,124.64758779537269L591.3098338562754,129.84476670744522L591.6346813044781,127.43394499257326L592.2379694225687,115.20584370885524L592.5164100924566,113.77371092198922L593.1661049888618,130.7017476476692L593.7229863286376,118.95568456698814L594.0478337768402,128.25994175869224L594.4190880033575,146.37457713906423L594.7903422298748,129.13572911518006L594.8367490081894,136.44947266073808L595.2544100130212,129.49261769172756L595.8576981311119,125.26822651290087L596.0433252443704,111.04245590723156L596.6930201407757,118.0953341141315L597.2499014805516,120.63066410439512L597.2963082588662,112.92992414681794L597.6211557070689,120.91666321695763L598.2708506034741,126.8109779853144L598.549291273362,122.34316828300584L598.8741387215646,126.86727625945343L598.9669522781938,134.9484884890897L599.3846132830258,136.54410147846326L599.4774268396551,126.99397774569604L599.5238336179698,116.53451082099969L600.4055624059482,114.95977200788752L600.5447827408922,110.52299153836952L600.962443745724,114.48345284098923L601.5657318638147,122.40639999771341L602.2154267602199,138.3289782419457L602.6794945433663,139.74287231129782L603.4220029964009,132.89863434828004L603.9324775578621,130.5823836067867L604.7677995675259,120.87394176058598L605.2318673506725,132.2148995016712L605.2782741289872,138.77861238478482L605.5567147988751,127.54464585855044L605.8815622470777,123.39869958767963L606.0671893603363,125.21338980480945L606.113596138651,113.8237204905202L606.1600029169657,116.26606792965583L607.1809520398881,119.21887546425319L607.2273588182028,116.10157459218976L607.4129859314613,122.39024963962888L607.5057994880907,113.50111664002787L607.9234604929226,115.88498032390453L608.1090876061812,121.98469157619044L609.4548841773062,113.80662881504924L609.5012909556209,117.19800322737689L609.9189519604529,121.66677735270363L610.0581722953968,121.10853054990372L610.3830197435994,126.17581401504285L610.847087526746,131.45377961090134L610.8934943050607,138.41739973466164L610.9399010833753,132.98367218839127L610.98630786169,120.75811181501291L611.2183417532632,127.06187202072809L611.4967824231511,120.12310775423941L611.6824095364099,130.49022699976516L611.7752230930391,111.41670711768592L612.5177315460736,109.94756100984847L612.7961722159616,118.75190226683728L612.8425789942762,129.09102321320339L613.2138332207935,130.4045396250782L614.0955620087719,141.04565665575947L614.8844772401211,135.09372731820034L616.0910534763021,134.5823164731547L617.1584093775393,134.54711585041815L617.4832568257418,135.1141622368075L617.7616974956298,126.20350133029541L617.9009178305738,127.45231491265551L619.3395279583282,121.66812230023513L619.3859347366428,118.93666865823323L620.1284431896773,129.0894632378211L620.1748499679919,126.09268836635891L620.6389177511386,129.97365093192488L620.7781380860825,141.32104806572207L620.8709516427118,134.96122738597273L621.3814262041731,125.56655760296749L621.659866874061,116.91350959434021L621.7990872090049,117.43429876751492L621.9847143222636,119.85340683367662L622.8200363319274,112.87660255779474L622.866443110242,117.13388428985729L623.0520702235007,114.7747040081394L623.1912905584446,116.24135667755019L623.284104115074,113.54006270372645L623.9337990114792,119.15592976179607L624.1194261247377,122.11695072171926L624.629900686199,113.26833299121313L624.769121021143,105.39893734537532L625.6972565874362,107.00926202701851L626.0685108139534,113.54694212691885L626.5325785970999,124.80340753545278L626.5789853754146,130.23169413867166L627.0894599368758,119.69436375952134L628.156815838113,127.12633989279195L628.3888497296863,116.73705113901315L629.1777649610355,118.83386713482224L630.2451208622725,115.29340877221046L631.2196632068803,116.50606063047911L631.2660699851949,104.09112395113607L631.4516970984536,130.42191816508114L631.6373242117122,123.96781226368739L632.4726462213761,124.79129637711256L632.751086891264,120.51440499655797L632.7974936695786,114.36743835591989L634.7465783587942,118.64447099003499L635.1178325853115,120.3781693023486L635.4890868118287,123.89280430206469L635.5354935901433,134.91951669796293L636.3244088214925,133.83642696715287L636.6956630480098,127.49365913347285L636.927696939583,135.33646771684923L637.1133240528417,137.24558107567307L637.6237986143029,126.09409561156295L638.1806799540788,140.35681998131219L638.3199002890227,135.29573774336274L638.4127138456521,136.76474430276886L638.5983409589107,127.29491128322314L638.9695951854279,133.56355357284016L641.7540018843073,129.33882810125988L642.0324425541953,129.11334885888328L642.07884933251,119.60232520154102L642.1716628891393,133.92391131791493L642.8677645638592,127.27919548315211L643.1926120120618,121.50076220308028L644.2599679132989,123.8382443998473L644.4455950265574,118.65631982752572L644.9560695880186,129.53852542235583L645.0952899229626,127.91906087343096L645.8842051543119,124.26785363826309L646.1626458241998,116.83202652853902L646.7659339422903,129.08055550909287L647.6940695085834,123.03758933963798L648.1117305134153,114.00530864726358L648.7614254098205,104.98393047154144L648.8542389664499,117.22913887605222L648.9470525230792,101.51536340628854L649.364713527911,110.05448537456692L649.782374532743,113.61464565069969L650.1536287592602,127.39446429090194L651.0817643255533,113.63199640558332L651.1745778821827,113.60149467289187L651.3137982171266,109.45950455423366L651.406611773756,111.9632212194341L651.6850524436439,122.39023433704818L652.2419337834198,138.55538434406955L652.2883405617345,136.62550703509868L652.6131880099371,131.1481656181453L652.752408344881,129.3911190093236L652.9844422364542,126.20072782263088L653.3092896846568,124.43584383938853L653.4021032412861,135.7222506773182L655.7688489353337,149.77340237012527L656.2793234967949,155.48602798274496L656.4185438317389,158.19790175585612L656.6505777233122,150.95329312550697L657.3930861763467,141.91784203382915L657.5787132896053,140.4914770862868L657.62512006792,121.07081596205546L657.7179336245492,134.29891433022922L657.8571539594932,138.15686471085553L658.1820014076958,128.49524129793107L658.3676285209544,125.1268572697746L658.5532556342131,127.5110776662062L658.970916639045,128.25184915031616L659.0173234173596,125.5851079723976L659.2493573089329,121.71173812383466L659.4349844221916,130.16964797426894L659.4813912005062,137.66034095907042L660.177492875226,139.7889972884317L661.6161030029805,132.43989155103145L662.1729843427563,131.2395069315728L662.4978317909589,120.84132792060277L662.7298656825321,118.3831984102091L663.3795605789375,130.80571556982366L663.7972215837693,140.39168176785373L664.4933232584891,145.77475652052215L665.0037978199504,149.9145653798811L665.328645268153,139.20125967142172L665.3750520464677,141.18902691366003L665.5142723814116,146.54732302951237L665.7927130512995,141.2060020869714L667.5561706272565,148.75219040333764L667.6953909622005,136.51393256445033L667.7882045188297,141.42292260852008L667.9274248537737,131.7415005582894L667.9738316320885,134.51783133319472L668.159458745347,134.77660433112342L669.6444756514161,118.34389494100833L670.2941705478213,122.07556073679254L671.547153562317,113.75732746608276L671.8255942322049,109.77853484413589L672.0112213454636,111.7234251829882L672.8465433551274,115.37596857603404L673.0785772467007,126.4112559696469L673.4962382515325,138.777532679406L673.7746789214206,133.70770140862624L673.9138992563645,128.0885754993105L674.0531195913085,119.13683980983359L675.0276619359163,131.08804085295012L675.5381364973774,130.77160692076384L676.1414246154679,141.03480311171825L676.1878313937826,150.2549988647363L676.6518991769292,147.64056067520525L676.7911195118733,145.9394371304454L676.9767466251318,147.7950549117942L677.765661856481,136.02472172702204L677.8584754131103,152.7411510804162L677.9976957480543,136.76946455125193L678.9722380926621,134.84075130325704L679.0650516492914,124.41510285933563L679.2970855408646,129.23125136460598L679.8075601023259,122.66681578283007L680.1324075505285,128.98586553515196L680.1788143288431,122.88070408540068L680.3644414421018,130.5588638436982L681.153356673451,130.24204717848767L681.4317973433389,134.3398875521651L681.8958651264854,123.62633615026559L681.9886786831147,120.61801891987187L682.2671193530026,123.23465330820224" fill="none"></path></g></g></g></g><g opacity="0.2"><g><g><g><path style="fill: none;" stroke="rgb(0, 119, 187)" stroke-width="2px" d="M265.4878433090706,364.61320294528895L265.76628397895854,375.862320576681L266.5087924319931,416.25463653875937L266.6016059886224,319.9963515904946L266.74082632356635,368.51096749206874L267.25130088502755,338.3991891391337L267.94740255974745,366.4407734080122L268.0866228946914,367.35846757295536L269.0147584609845,395.5781106242523L269.3860126875018,331.50179582705306L269.5716398007604,318.3664177240256L270.49977536705353,307.30318702888246L271.8455719381786,301.57785887715767L271.98479227312254,289.9647966700614L272.40245327795446,362.640846497075L272.9129278394157,342.1952014016741L273.14496173098894,194.481376653966L273.2377752876183,261.5612280070846L273.4698091791916,286.42902223219505L275.2796735334632,237.1728199101945L275.5117074250365,231.08941286906386L276.20780909975633,351.37020801468674L276.4862497696443,292.18174720788187L276.7182836612175,198.06801294691408L277.04313110942013,223.94938679194564L277.3215717793081,182.45935312904757L278.2033005672866,248.2869193181976L278.94580902032106,293.35577140688065L279.0386225769504,192.18614229191496L279.4098768034677,217.2711360685961L279.9667581432435,209.7613020154013L280.38441914807544,223.99830560986697L280.7556733745927,205.0221475159313L281.4981818276272,192.94730081136208L281.6838089408858,163.90977627109004L284.18977496987725,147.06445787987693L284.23618174819194,173.48001607290496L285.0250969795411,228.40285539475514L285.16431731448506,185.51181421770343L285.3035376494291,225.51083888517692L285.9996393241489,193.16058685749903L286.1388596590929,193.9687165858549L286.18526643740756,198.25193855859396L286.64933422055407,199.34770179262284L287.43824945190323,201.69575019062034L287.53106300853256,213.74515910987043L288.50560535314037,177.97652409178096L289.29452058448953,164.4967655113287L289.5265544760628,165.9662685142765L290.77953749055854,250.9656497816389L291.2436052737051,255.72240591185627L291.522045943593,195.5301595353819L291.8468933917956,173.07107304249135L291.8933001701103,260.47525768034427L292.58940184483015,253.33523160322602L293.42472385449395,195.59863673676745L293.51753741112327,225.0236166023849L294.07441875089916,233.25939676982773L294.39926619910176,197.2775031367142L294.44567297741645,255.05321477010125L294.5384865340457,136.87197071410284L294.67770686898973,217.89728779428467L294.770520425619,174.38010403524862L295.3274017653949,184.84655486879063L295.79146954854144,167.64512577051892L296.5803847798906,192.71641313447776L297.7869610160717,133.95452556290982L297.97258812933035,230.0934531672987L298.15821524258894,152.7565235213413L298.52946946910623,201.6350908563979L298.9471304739381,145.14296328674476L299.13275758719675,145.5167030556636L299.5504185920287,132.6024277229732L299.73604570528727,150.35172929455513L300.1537067101192,181.68449734058248L300.33933382337784,228.6630943623923L300.43214738000717,196.1171762067334L300.52496093663643,173.8146207874868L300.84980838483904,160.03939254678977L301.0818422764123,267.5585333568216L301.17465583304164,168.54521373286258L301.4066897246149,153.20853339893426L301.49950328124424,162.28764655622777L301.68513039450283,178.76313868395573L301.8707575077615,117.87036569114383L302.14919817764945,162.28373305079407L302.1956049559641,192.44639040325637L303.2629608572012,167.19702939835966L303.4485879704598,134.60219242477947L304.9800116548435,177.07645441684588L305.3048591030461,173.22369975440589L305.583299772934,181.08966280206783L306.23299466933923,159.76153366099672L306.4186217825978,168.82305433124708L306.74346923080043,164.27958424716664L306.83628278742975,123.44504445700562L307.1147234573177,149.4125062778744L307.20753701394705,150.021038085407L307.8572319103522,139.84226647605948L307.9036386886669,140.36861466948426L308.36770647181345,159.46608228816052L308.5069268067574,155.4782934008491L308.92458781158933,203.92640256931094L309.110214924848,146.43831529789264L309.29584203810657,161.7573848573693L309.7135030429385,118.70981260667361L309.75990982125313,193.66933342017643L310.0383504911411,199.06005914324552L310.08475726945574,161.67911474869518L310.316791161029,180.36763933695778L311.15211317069287,163.32275045603424L311.2913335056368,187.4900546396243L311.7089945104687,155.80900289740575L313.10119785990844,147.2816574314476L313.70448597799896,181.93300493562273L313.9829266478869,192.9081749007293L314.1221469828309,168.82305433124708L314.21496053946015,257.1058026515583L314.4005876527188,239.20388351176612L314.67902832260677,227.2503554756418L314.91106221418005,165.84494984583162L315.3751299973266,156.5701431294443L315.6535706672145,148.07803749979806L315.88560455878786,171.64070509388063L316.3496723419344,152.18712676814576L316.5817062335077,137.59788939723802L318.29875703115,148.47330154860228L318.4843841444086,199.9347093202701L318.53079092272327,174.9279765085588L318.5771977010379,174.3018522139831L319.41251971070176,214.27933431416267L319.96940105047764,190.73818185626115L320.0158078287923,161.24864743839615L320.29424849868025,119.24007430553212L320.61909594688285,179.44602709472875L321.8256721830639,122.83651264947301L322.38255352283977,131.27578595576423L322.89302808430097,185.18112300855532L323.032248419245,152.63913664573872L323.17146875418894,180.65917720436025L324.09960432048206,155.85205145717651L324.37804499037003,117.79211386987828L324.70289243857263,209.69672917574516L324.98133310846055,180.44589115822333L325.7238415614951,128.70662450076242L325.86306189643904,120.11863798799038L326.37353645790023,151.48271407748737L326.51275679284424,140.7990819797833L326.6519771277882,160.54423474773776L326.69838390610283,178.58505589931357L328.92590926520637,143.11190882887743L329.0651296001503,146.90793594993727L329.2043499350943,141.17282174870212L329.250756713409,147.78649963239556L330.2717058363314,151.52576263725814L330.8285871761073,173.39783245879718L330.92140073273663,133.08964086206095L331.1070278459952,155.83050888988257L331.29265495925387,194.29938950759444L331.4782820725125,150.23042891351884L332.6384515303789,166.90155973811494L332.68485830869355,148.43023470142293L333.1953328701548,216.19299275272314L333.56658709667204,142.63839295880763L333.7522142099306,165.61013951980928L333.84502776656,136.2027795723478L334.6339429979091,128.4757276801738L335.330044672629,145.1821166284904L335.5156717858876,158.92212332028404L336.67584124375406,174.29792042114082L337.41834969678854,203.43917114281464L337.4647564751032,194.7474858797537L338.160858149823,192.08635704705978L338.34648526308166,168.35343367920245L339.0889937161162,130.4109378297325L339.1354004944309,181.3812006694703L339.7386886125214,185.37289391851118L340.1563496173533,154.55669944602863L340.38838350892655,140.0203126858845L340.6204174004999,204.77364906459528L340.75963773544385,152.79565857567837L340.9916716270171,198.60024054219372L341.1308919619611,136.2242855648246L341.68777330173697,185.05982262751903L342.0590275282542,110.58751495310395L342.3838749764568,178.86291478510665L342.7087224246594,122.42755133165082L343.12638342949134,135.6725178734893L343.31201054274993,129.61062596853975L343.40482409937925,129.88455306149058L343.4976376560086,120.37104080105581L343.63685799095254,186.0420942039705L343.96170543915514,148.21696694269454L344.37936644398707,129.95892795213956L344.8434342271336,148.17783188835753L345.0290613403923,126.16683262392195L345.12187489702154,159.00039342895815L345.26109523196556,178.85900127967295L345.49312912353884,146.75139573258906L345.6323494584828,108.04379128342123L345.6787562367974,181.8547348269487L345.7251630151121,130.0371797734051L346.6068918030906,127.86719587264119L347.0245528079225,194.02544412723503L347.3029934778104,150.66480972925154L347.62784092601305,166.76656208806065L347.6742477043277,166.78806808053747L348.09190870915955,149.17380073382694L348.4167561573622,78.41923178438907L349.39129850197,146.41679101800727L349.5769256152286,139.98117763154744L350.0409933983752,168.41019779539974L350.22662051163377,168.09711736070332L350.6442815164657,97.2427723101145L351.24756963455627,140.39013894936963L351.3867899695002,150.2910699603327L351.66523063938814,142.30770174965954L351.75804419601747,151.19113963526777L353.3358746587158,134.48087375633463L353.61431532860377,123.62309066683065L354.40323055995293,144.34268800036918L354.49604411658225,141.34695445309345L354.86729834309943,132.46351656748521L355.0065186780435,122.52343221477656L355.0993322346727,168.27126835250323L355.93465424433657,227.28557702454515L356.5843491407418,105.38266245072725L356.6771626973711,157.4310960374509L357.5124847070349,159.93568465279657L357.69811182029355,118.29695607082624L358.06936604681084,155.47831168825763L358.85828127815995,131.50668277635287L359.1367219480479,150.05627792171893L360.2504846275997,121.5450924311674L360.85377274569015,172.28839024315886L360.9929930806341,166.8232896294408L361.03939985894885,118.35759711764013L361.1322134155782,100.06042307274805L361.22502697220744,145.16448756663016L361.4106540854661,169.27113241599776L361.5962811987247,162.0704470046571L361.92112864692734,195.5086443992008L362.6172303216471,125.02802083012227L364.19506078434546,150.66089622381782L364.3806878976041,105.81314804843487L364.70553534580665,179.17208171436934L365.12319635063864,128.31527395739187L365.68007769041446,124.59753523241471L366.1441454735611,105.97358348380823L366.23695903019035,120.4101941428014L366.3297725868197,138.90693867740393L366.37617936513436,112.62248291640498L366.56180647839295,119.64901733594573L366.7010268133369,120.45713792059732L367.0722810398542,133.08965914946953L367.2579081531128,175.40151066603713L368.186043719406,155.14370697367585L368.41807761097925,148.84310952467888L368.4644843892939,93.05930815111782L368.55729794592327,178.31114709377132L368.6965182808672,165.33619413944993L368.8821453941258,133.1718427635773L368.9285521724405,165.0837913263845L369.25339962064305,85.73732235874087L369.392619955587,129.23690448702948L369.6246538471603,133.7940718401279L370.5063826351388,169.04023559540917L370.9704504182854,147.62995941504732L371.2488910881733,137.10286753469146L371.5273317580612,146.94707100427433L371.71295887131987,114.38352378675523L372.26984021109575,193.6341118712731L372.3162469894104,161.89238250742355L373.4764164472768,192.73011954720002L373.8940774521087,112.48748526635069L374.68299268345794,138.41189852744876L375.51831469312174,137.90707461390934L375.5647214714363,165.9623550088428L375.6575350280657,130.31112515376446L376.30722992447085,125.07105110248446L377.6994332739106,118.90936480897545L378.0706875004278,138.58996302468236L378.3955349486305,123.17109907664621L378.4883485052597,183.75077334735317L378.5811620618891,203.59179785472915L378.81319595346235,125.16695027301884L379.97336541132876,126.67165653746139L380.0197721896434,150.38696913086702L380.48383997279,106.8306228863811L380.57665352941933,85.07204472241955L380.8086874209926,114.14871346073289L381.4583823173978,133.7940718401279L381.73682298728573,200.38279654872508L382.1544839921176,170.77585696784888L382.8505856668375,143.34671915489972L383.0362127800961,117.0661768993345L383.1290263367255,132.44590579303355L383.73231445481593,127.0062429646346L384.2891957945919,158.27443817100584L384.8460771343677,139.68572625871124L385.3101449175143,99.35601038208966L385.58858558740224,145.16448756663016L386.3775008187514,111.15691170629947L386.6559414886393,112.62248291640498L386.702348266954,139.15546455985276L387.0736024934713,156.43512719198145L387.3520431633592,117.84885969866701L387.6304838332471,167.43185801179052L387.8625177248204,141.6639483932236L388.9298736260575,131.2894832247822L389.25472107426015,106.68192796730887L389.48675496583337,98.33851725673486L390.09004308392394,98.37765231107187L390.41489053212655,138.90302517197023L391.1109922068464,138.70734990028492L391.6678735466223,166.86242468377787L391.80709388156623,95.22929205188171L392.45678877797144,106.71323601077847L392.5031955562861,139.0634788947521L392.5960091129154,166.80569714239772L394.0810260189844,116.3011048744537L394.1274327972991,125.61502835776949L394.1738395756137,124.48014835681212L394.49868702381633,113.8571755933304L395.0091615852776,118.53174810944L395.70526325999737,142.63839295880763L395.9372971515707,149.35577873649427L397.3295005010104,114.01371581067866L397.93278861910096,137.24179697758802L398.35044962393283,121.93640639972077L398.7681106287647,115.94888938542022L399.0465512986527,141.8772344393605L399.2321784119113,150.93482331676864L400.0210936432605,135.69793737139983L400.1139071998898,114.50092894976643L400.16031397820444,143.71652713097632L400.71719531798027,95.2077860594049L402.3414325589933,183.92494262656163L402.7126867855106,134.1677933216382L403.78004268674766,91.00281590793134L404.1977036915796,115.6358089507238L404.29051724820886,164.35785435584074L404.3833308048382,131.7590855894183L404.5689579180969,118.49654484794524L404.6153646964115,120.13626704985063L405.1258392578727,147.59080607330174L405.26505959281667,106.20448030439684L405.63631381933396,155.22197708234995L405.7755341542779,117.5142549840852L406.8892968338297,143.60305376080743L407.0749239470883,177.35431330263899L407.1677375037176,113.33082739990562L407.86383917843744,179.8373593506907L408.467127296528,96.71640582928114L409.53448319776504,106.59583084776739L410.23058487248494,130.8022517982859L410.60183909900223,119.43183607178369L410.8338729905755,140.13380434346195L411.06590688214874,126.02788489361686L411.2515339954074,170.5019115874895L411.34434755203677,161.42279843019602L412.0868560050712,161.93151756176061L412.92217801473504,128.10200619866353L412.9685847930497,128.57162685070816L413.29343224125233,115.83148422240907L413.4326525761963,112.19203389351458L414.54641525574806,118.08365173728077L414.685635590692,83.91955394701046L415.01048303889456,87.20682536168863L415.1497033738385,102.54740091364204L415.19611015215327,127.61087955414206L415.2889237087825,155.82659538444886L415.3353304870972,101.89973405177238L416.4954999449636,157.10042311571135L416.9131609497955,126.61491070867265L418.02692362934727,82.21524061804035L418.39817785586456,117.00551756511209L419.0478727522697,144.5207342101942L419.09427953058434,121.27112876339945L419.3263134221577,112.97469840543846L419.8831947619335,121.27114705080803L421.2289913330586,150.64719895479988L421.32180488968794,143.34280564946602L421.4146184463172,109.14344973547526L421.78587267283444,148.4302529888315L422.5747879041836,119.45336035166906L422.8068217957569,126.20594939085044L423.82777091867933,131.5634286051416L423.9669912536233,143.34671915489972L424.19902514519663,149.62579232401137L424.7094997066578,176.27616084306172L424.80231326328715,182.53762323772168L425.12716071148975,99.53407487932321L425.4056013813777,132.79810299465848L425.73044882958027,157.39197927052243L426.0088894994682,122.79737759513597L426.1481098344122,109.98289665100503L426.9370250657614,128.00221181010403L427.49390640553725,107.30024353842578L427.6331267404812,114.57919905844045L427.95797418868386,130.35026020810153L428.7004826417183,152.22624353507425L428.7932961983476,115.24449498217041L429.0717368682356,136.32018473535896L429.2573639814942,129.64976102287682L429.99987243452875,112.87881752231272L430.7887876658779,104.48257448838365L431.716923232171,127.02776724451996L432.55224524183484,120.11863798799038L432.6450587984641,102.5865359679791L432.7378723550935,128.2585464160117L432.87709269003744,195.6123431494897L433.0163130249814,143.89067812277622L433.80522825633057,136.06385012945128L434.31570281779176,131.9763034283975L434.96539771419697,97.16450220144043L436.35760106363665,163.365799015805L436.450414620266,143.36432992935138L437.5641772998178,110.16096114823858L437.7498044130764,187.46853035973893L437.8426179697057,149.52599793545187L438.1210586395936,155.6700734545092L438.2602789745376,126.08464900981411L438.3530925311669,127.51499867101629L438.77075353599884,144.55595575909754L439.09560098420144,162.1272111208544L439.698889102292,171.40199954983316L440.0701433288092,158.16094651342837L440.67343144689977,85.54166537446417L440.7662450035291,132.11130107845176L440.90546533847305,102.89961640267558L441.4623466782489,104.81719749037399L441.6479737915076,135.92883419198844L441.88000768308086,138.746484954622L441.97282123971013,171.98900707748038L442.43688902285675,120.37104080105581L442.62251613611534,138.7073681876935L443.9683127072404,133.54166902706248L444.20034659881367,148.7296178671014L444.52519404701627,128.58921933775125L445.73177028319736,114.54006400410344L446.56709229286116,122.83651264947301L446.9383465193784,118.90548787835885L447.26319396758106,155.8657304387859L447.44882108083965,123.99291693031577L447.95929564230084,134.28519848464936L448.23773631218876,111.48760291544761L448.5161769820768,107.4567654683654L449.53712610499923,119.66664639780598L450.0476006664605,149.72167320713712L450.27963455803365,153.2437549478376L450.69729556286563,127.80653653841875L450.74370234118027,123.77573566615374L451.30058368095615,79.12364447504746L451.81105824241735,117.7705713025843L451.9502785773613,108.94389753317341L452.4143463605079,115.75712761916867L454.59546494129677,141.81657510513807L454.82749883287005,150.34783407652995L454.8739056111847,109.92223731678257L455.3379733943313,188.68561226221271L458.7256682113012,82.17610556370335L459.23614277276243,145.59497316433772L459.2825495510771,112.37008010333955L459.37536310770645,137.35528863516546L459.4681766643357,151.3653089144762L459.6073969992797,115.59667389638673L459.65380377759436,131.25034817044516L460.8139732354608,133.61992084832804L461.0460071270341,156.41362119950466L461.18522746197806,123.22784490543495L461.5564816884953,141.95548626062606L462.06695624995655,96.95121615530343L462.4846172547884,137.6683507824533L462.6238375897324,137.62921572811624L462.670244368047,130.74161075147205L463.3663460427669,143.67739207663925L464.10885449580144,84.35002125730949L464.38729516568935,91.92051464472667L464.57292227894794,105.06958201603084L464.9905832837799,138.15947742697477L465.0833968404092,155.7913738355455L465.5010578452411,111.91807022574659L465.68668495849977,126.86731352173805L465.9651256283877,133.3635862424203L466.19715951996096,124.0496627591045L467.403735756142,111.2351818149736L467.821396760974,117.59252509275927L468.51749843569377,114.99596909972155L468.8423458838964,139.7424538000914L469.12078655378434,165.21878897643876L469.30641366704293,101.07789791069428L469.3528204453576,123.03608313918343L470.2345492333361,148.37350716004278L470.37376956828007,131.09772145853063L470.65221023816804,108.23946655510645L472.0444135876077,153.265279227723L472.32285425749564,118.57086487636849L472.5084813707542,84.17195676007589L473.0189559322155,109.41348161040094L473.1117694888448,133.189453538029L473.90068472019396,130.21526255804721L473.94709149850866,102.83895706845311L474.82882028648714,97.14689142698876L474.8752270648018,107.63484825300753L475.01444739974573,81.06274984263126L475.4321084045776,120.05796036635937L475.94258296603886,125.06715588445934L477.10275242390526,106.73474200325535L477.2419727588492,118.22259946758584L477.75244732031047,130.45005459666098L477.8916676552545,101.99951015292334L477.98448121188375,133.52012645976853L478.07729476851307,88.55497312137442L478.63417610828895,142.659917238693L479.4230913396382,130.25437932497573L480.39763368424593,90.88541074492025L480.72248113244854,120.00123282497921L481.09373535896583,98.37765231107187L481.2793624722244,120.27517820533856L481.604209920427,127.14125890209743L481.65061669874166,128.76728383498485L481.6970234770563,135.32030238445586L482.1610912602029,149.1346656794899L483.36766749638394,122.13208167140604L483.5997013879572,134.40260364766053L484.34220984099176,126.98473697215778L484.85268440245295,131.5066644889443L485.03831151571154,113.40518400314602L485.0847182940263,139.45091593268896L485.4559725205435,126.00637890114001L485.5951928554875,138.12036066004626L485.73441319043144,137.1811376433656L485.8736335253754,170.44907926413447L486.2912945302073,129.91977461039392L486.47692164346597,107.4567654683654L486.8017690916685,137.90314282106706L486.8481758699832,142.01225037682335L487.1266165398712,148.74331513611938L487.4050572097591,132.81571376911015L487.4978707663884,126.47599955318469L487.6370911013324,88.75064839305969L489.2613283423454,104.59997965139479L489.8182096821212,106.83064117378967L490.6999384700997,127.7674197714903L490.7927520267291,111.40933280677348L491.67448081470747,95.77718281260042L491.7672943713368,126.84972103469494L492.6954299376299,128.15875202745227L493.8091926171817,118.08365173728077L493.9484129521257,109.68742699076029L494.5517010702162,159.19213690780114L494.9229552967335,86.97199674825777L495.3406163015654,135.0072219497594L495.47983663650933,159.85741454412246L495.57265019313866,123.6407197286909L495.6190569714533,121.52746336930716L496.2687518678585,115.03119064862489L496.64000609437574,88.71151333872263L497.6609552172982,124.65819456663709L497.93939588718615,130.25439761238428L498.07861622213017,119.14027991697262L498.4034636703327,103.89558524814498L499.0067517884233,103.79968607761066L499.0995653450526,123.0536939136351L499.14597212336724,128.0022300975126L499.4708195715698,98.9646781261277L500.30614158123365,86.63741032108447L501.3734974824707,139.97726412611374L501.605531374044,115.40101691211004L502.5336669403371,107.9655211747471L502.6264804969665,130.7063892025687L502.9049211668544,148.58679320617972L504.1114974030355,100.00367724395932L504.3435312946088,115.94888938542022L504.9468194126993,152.40432631971643L505.13244652595796,93.2119348630323L505.96776853562176,178.7240036296187L506.339022762139,141.42524284917613L507.4063786633762,90.62909442642109L507.54559899832014,134.0288821661502L507.5920057766348,123.03218792115828L507.77763288989337,144.98644135680513L507.82403966820806,109.16499230276918L509.0306159043891,124.2668440232666L510.09797180562623,125.14540770572486L510.70125992371675,168.8015300513617L511.4437683767513,122.584091548999L511.9542429382125,99.4949398249862L512.696751391247,125.77156857511773L513.3464462876522,124.01052770476744L513.3928530659668,102.95636223146431L513.5320734009108,119.04048552841311L514.32098863226,135.14615139265595L515.4347513118117,121.05784271726253L515.527564868441,128.86316471811065L516.1772597648462,133.3459937553772L517.0589885528248,97.00796198409216L517.1053953311393,93.60328540640285L517.1982088877687,87.5766333377652L517.4302427793419,134.14628732916137L518.7296325721524,136.5549950613813L519.1472935769842,141.25109185737625L519.4721410251868,141.738304996464L519.6577681384455,127.63240383402743L519.9362088083335,110.23531775147899L520.2146494782214,94.30771638446981L520.4466833697948,79.63240018142915L520.5859037047387,131.50668277635287L520.678717261368,77.26674100897998L521.3748189360878,134.6158714063889L521.7924799409197,98.72986780010541L522.1637341674369,133.26770535929452L522.9526493987861,149.52599793545187L523.1846832903594,151.83492956652083L523.2774968469887,122.46668638598783L523.8343781867646,122.36689199742838L523.9271917433939,87.14614774005764L524.2056324132818,99.96456047703083L524.7625137530578,91.05958002412865L524.994547644631,131.9938959154406L525.4586154277777,95.69893099133492L525.9226832109242,114.36593129971214L527.2220730037346,89.1028455946846L527.3148865603638,112.30940248170856L527.5005136736225,166.94069479245198L528.1966153483423,131.37168512629862L530.0992932592433,135.1070163383189L530.2385135941872,190.0689907145061L531.0738356038511,114.89619299857065L531.5843101653123,91.27676128829074L531.9091576135148,123.5409253401314L532.6980728448641,141.50349467044168L532.8372931798081,110.43097473575568L533.0693270713813,122.6799724321248L533.3013609629546,122.52734572021026L533.5798016328425,115.81389173536598L534.1366829726185,109.88310226244556L534.183089750933,140.50752582497222L534.9720049822822,124.9321399469965L535.1112253172262,116.59655624728987L535.4360727654288,125.53675824909539L536.6890557799245,111.87893517140952L536.7818693365539,140.72081187110916L537.1067167847565,121.27114705080803L537.9420387944203,85.26771999410477L538.0348523510495,141.81657510513807L538.3596997992522,123.9713926504304L538.7773608040841,154.73085043782848L539.2414285872306,94.4250849726638L539.2878353655453,151.73904868339505L539.7519031486919,137.51181056510512L539.9375302619504,154.73085043782848L539.9839370402652,115.16620658608775L540.8656658282436,131.64168042640713L541.0976997198169,137.6683507824533L541.1905132764463,111.01798226340298L541.3761403897048,137.37679462764228L541.7938013945368,122.93628875062393L542.6291234042005,148.86072029913055L543.5572589704938,122.79737759513597L543.789292862067,130.0019765119103L544.206953866899,130.15458493641626L544.4853945367869,140.05553423478784L544.5318013151015,111.91807022574659L544.5782080934162,124.832345558437L544.7174284283602,108.94777446378998L544.8566487633042,118.14041585347803L545.8775978862266,134.01125310428995L546.7129198958903,136.98548065908886L546.8985470091491,102.64328179676784L547.1305809007223,129.62823674299142L547.4554283489249,183.47682796699382L547.8730893537568,117.5142549840852L547.9659029103861,124.640602079594L548.4299706935327,181.98973247700295L548.7084113634206,162.47940832247934L548.80122492005,132.58092173049639L549.0796655899379,91.17698518713985L549.1724791465672,153.6174764293479L549.2652927031965,167.78403692600688L549.8221740429724,129.45019053316645L549.9149875996017,127.1803939564345L550.007801156231,126.04549566806853L551.0751570574681,147.49102997215084L551.4928180623001,150.64328544936615L551.6320383972441,126.61491070867265L552.3745468502785,128.632267897522L552.8386146334251,122.87564770381007L552.8850214117398,132.21109546701126L552.977834968369,95.01211078771962L553.256275638257,115.3227468034359L553.534716308145,121.41005820629599L553.8595637563475,76.28836465055366L554.0915976479208,99.59080242070343L554.4164450961234,153.00894462181532L554.6948857660113,105.38268073813583L555.2981738841019,135.2811673301188L556.504750120283,141.03780581123928L557.4328856865761,122.87564770381007L557.5721060215201,126.30184856138479L557.7577331347787,97.38168346560246L557.8041399130933,142.75577983441022L558.1289873612959,99.4734155451008L558.9179025926451,118.70981260667361L559.4283771541063,133.32445118808326L559.9388517155676,140.44688477815836L560.2636991637701,162.79248875717573L560.5421398336581,162.69660787404996L561.6559025132099,80.06286749172818L564.2082753205159,163.6358126033221L564.3939024337747,123.52331456567973L564.9971905518651,115.03119064862489L565.5076651133263,135.9679692463255L565.693292226585,104.13037728675874L566.0645464531023,133.44185635109443L566.1109532314168,185.84641893228522L566.2965803446756,154.4216835085658L566.7142413495075,89.88556496883422L566.760648127822,97.28190736445151L567.2247159109687,117.16595300048544L567.2711226892833,95.65979593699785L567.317529467598,128.92382405233303L567.6887836941152,149.4868628811148L568.6169192604084,110.50924484442982L569.73068193996,113.83565131344506L570.0091226098481,182.2460670829106L570.0555293881628,156.53102636251583L570.1947497231067,125.49762319475832L570.6588175062533,133.28531613374622L571.0764785110852,103.85643190639934L571.2156988460291,144.75164931819137L571.6797666291757,143.14713037778077L571.911800520749,126.39772944451056L573.5824445400766,135.14615139265595L574.0001055449086,142.36446586585686L574.0929191015379,116.5750502548131L574.2785462147965,139.29437571534072L574.5569868846844,121.11460683345979L574.6962072196284,100.78636004329184L575.021054667831,141.7989643306864L575.3923088943483,135.5942477648152L575.5315292292922,94.3683574312837L575.9027834558095,135.92883419198844L576.0884105690681,152.85240440446708L576.2740376823267,119.39270101744663L577.3413935835638,141.2902086243047L577.5270206968224,113.73977043031931L577.851868145025,94.0337710041104L578.0374952582837,117.82733541878162L578.5479698197448,99.29926455330093L579.1048511595208,125.63655263765489L579.8473596125554,96.10789230915708L581.0075290704217,123.60158467435383L581.7036307451416,96.81228671240689L582.3533256415467,146.90400415709505L582.5389527548055,134.5200088106717L582.724579868064,123.77571737874516L583.0958340945813,90.70736453509522L583.3742747644692,96.4209361690364L583.4206815427839,143.28605982067728L584.209596774133,92.25511935930854L584.6272577789649,163.6143066108453L584.9056984488528,92.19446002508607L585.2769526753701,126.7890617004725L585.4161730103141,125.65416341210656L586.4371221332365,101.62578867141303L587.2260373645856,112.54423109513942L587.4116644778444,133.48099140543147L587.7829187043616,134.0288821661502L587.9221390393055,128.31529224480045L588.2005797091934,100.41262027437296L589.0359017188573,87.30268795740585L589.1287152754866,129.60671246310608L589.9640372851504,130.62420558846088L590.1496643984091,123.22786319284353L590.288884733353,148.1386968340205L591.1242067430169,113.40518400314602L591.3098338562754,139.62504863708028L591.6346813044781,122.89715369628686L592.2379694225687,92.19446002508607L592.5164100924566,111.07865988503391L593.1661049888618,162.55767843115345L593.7229863286376,96.85142176674395L594.0478337768402,145.76910586872904L594.4190880033575,180.463501932675L594.7903422298748,96.69489983680432L594.8367490081894,150.2127998516586L595.2544100130212,116.40089926301317L595.8576981311119,117.31857971239992L596.0433252443704,84.27176943604394L596.6930201407757,131.3677533334563L597.2499014805516,125.40176059904113L597.2963082588662,98.43832993270291L597.6211557070689,135.94646325384872L598.2708506034741,137.90316110847564L598.549291273362,113.93544570200453L598.8741387215646,135.3809434312697L598.9669522781938,150.15607231027843L599.3846132830258,139.54679681581473L599.4774268396551,109.02213106703033L599.5238336179698,96.85142176674395L600.4055624059482,111.9963586218293L600.5447827408922,102.17366114472321L600.962443745724,121.93642468712935L601.5657318638147,137.31615358082843L602.2154267602199,168.29279263238857L602.6794945433663,142.40360092019387L603.4220029964009,120.01884359943091L603.9324775578621,126.2235601653021L604.7677995675259,102.60416502983935L605.2318673506725,153.55681709512547L605.2782741289872,151.13049858845392L605.5567147988751,106.40406908151579L605.8815622470777,115.59667389638673L606.0671893603363,128.6283543920883L606.113596138651,92.39013529677129L606.1600029169657,120.86218573298584L607.1809520398881,124.77559972964826L607.2273588182028,110.23529946407047L607.4129859314613,134.2245574378355L607.5057994880907,96.77315165806982L607.9234604929226,120.37104080105581L608.1090876061812,133.46339891838838L609.4548841773062,98.41678736540894L609.5012909556209,123.58004210705988L609.9189519604529,130.07631482774215L610.0581722953968,120.05799694117653L610.3830197435994,135.71165292782638L610.847087526746,141.3860895074305L610.8934943050607,151.52184913182444L610.9399010833753,122.7582425407989L610.98630786169,97.75150972908762L611.2183417532632,138.92456773926415L611.4967824231511,107.06543321240343L611.6824095364099,149.9995320929302L611.7752230930391,75.52331091308139L612.5177315460736,107.18285666282316L612.7961722159616,135.32030238445586L612.8425789942762,148.5476398644341L613.2138332207935,132.87637310333258L614.0955620087719,161.07058294116257L614.8844772401211,123.89312254175633L616.0910534763021,133.61992084832804L617.1584093775393,134.48087375633463L617.4832568257418,136.18125529246242L617.7616974956298,109.43502417769486L617.9009178305738,129.80238773479132L619.3395279583282,110.78317193738064L619.3859347366428,113.79649797169947L620.1284431896773,148.1954426628092L620.1748499679919,120.45322441516359L620.6389177511386,137.27701852649136L620.7781380860825,162.6750835941646L620.8709516427118,122.99303457941267L621.3814262041731,107.88725106607296L621.659866874061,100.62981982594363L621.7990872090049,118.41434294642886L621.9847143222636,124.40579175357172L622.8200363319274,99.74734263805163L622.866443110242,125.14542599313344L623.0520702235007,110.33509385262994L623.1912905584446,119.00136876148466L623.284104115074,108.45664781926854L623.9337990114792,129.72411762611722L624.1194261247377,127.68913137540758L624.629900686199,96.61661144072167L624.769121021143,90.58995937208402L625.6972565874362,110.03964247979377L626.0685108139534,125.84983868379183L626.5325785970999,145.98632370770827L626.5789853754146,140.44688477815836L627.0894599368758,99.86474780106278L628.156815838113,141.11216241447968L628.3888497296863,97.18602648132577L629.1777649610355,122.7797485332757L630.2451208622725,108.630817098477L631.2196632068803,118.78808271534768L631.2660699851949,80.7281451280495L631.4516970984536,179.97237528815353L631.6373242117122,111.82218934262079L632.4726462213761,126.34096532831327L632.751086891264,112.46596098646535L632.7974936695786,102.79980372670747L634.7465783587942,126.69318081734673L635.1178325853115,123.6407197286909L635.4890868118287,130.5068004254497L635.5354935901433,155.6700734545092L636.3244088214925,131.79822064375534L636.6956630480098,115.55755712945825L636.927696939583,150.095412976056L637.1133240528417,140.8382353215289L637.6237986143029,105.10873535777648L638.1806799540788,167.19704768576824L638.3199002890227,125.77156857511773L638.4127138456521,139.52918604136306L638.5983409589107,109.47415923203187L638.9695951854279,145.36016283831543L641.7540018843073,121.3885522138192L642.0324425541953,128.68903201371933L642.07884933251,101.70405878008711L642.1716628891393,160.8749076694773L642.8677645638592,114.77487433012578L643.1926120120618,110.62665000744096L644.2599679132989,128.23702213612634L644.4455950265574,108.90474419142777L644.9560695880186,150.0171428673819L645.0952899229626,124.87148061277406L645.8842051543119,117.39684982107406L646.1626458241998,102.83895706845311L646.7659339422903,152.13038093935702L647.6940695085834,111.66566741268116L648.1117305134153,97.00796198409216L648.7614254098205,88.00710064806424L648.8542389664499,140.27271549894994L648.9470525230792,71.9444833435922L649.364713527911,126.12378406415118L649.782374532743,120.31431325967563L650.1536287592602,153.32593856194543L651.0817643255533,87.73317355511341L651.1745778821827,113.54409515863404L651.3137982171266,101.66492372575004L651.406611773756,116.674826355964L651.6850524436439,142.01225037682335L652.2419337834198,168.97568104316161L652.2883405617345,132.99377826634375L652.6131880099371,120.84066145310044L652.752408344881,126.08463072240559L652.9844422364542,120.19690809666452L653.3092896846568,121.11460683345979L653.4021032412861,156.9615119602234L655.7688489353337,176.21548322143073L656.2793234967949,166.23630038920214L656.4185438317389,163.3012261761489L656.6505777233122,137.32006708626213L657.3930861763467,124.91452917254483L657.5787132896053,137.80728022534984L657.62512006792,84.52415396170079L657.7179336245492,159.19213690780114L657.8571539594932,145.4169269545127L658.1820014076958,110.31356957274454L658.3676285209544,118.78808271534768L658.5532556342131,131.9978094208743L658.970916639045,129.64586580485167L659.0173234173596,120.56671607274106L659.2493573089329,114.4226588410923L659.4349844221916,146.08611809626774L659.4813912005062,151.75665945784678L660.177492875226,143.79479723965042L661.6161030029805,118.61001821811413L662.1729843427563,128.98056988112177L662.4978317909589,101.27357318237955L662.7298656825321,113.75738120477098L663.3795605789375,154.18295967710975L663.7972215837693,158.43097838835402L664.4933232584891,155.90486549312297L665.0037978199504,157.70504141781026L665.328645268153,119.04048552841311L665.3750520464677,144.9296955280164L665.5142723814116,156.63080246366673L665.7927130512995,131.15446728731936L667.5561706272565,162.95294247995767L667.6953909622005,113.48343582441157L667.7882045188297,150.66087793640926L667.9274248537737,113.52257087874864L667.9738316320885,139.7424538000914L668.159458745347,135.26357484307567L669.6444756514161,87.420093120417L670.2941705478213,129.09797504413294L671.547153562317,98.10370693071258L671.8255942322049,102.29106630773435L672.0112213454636,115.38340613765837L672.8465433551274,122.24948683441721L673.0785772467007,147.1779495374544L673.4962382515325,162.0489410121803L673.7746789214206,124.16706792211568L673.9138992563645,117.5142549840852L674.0531195913085,102.29106630773435L675.0276619359163,153.57834137501087L675.5381364973774,130.1761275037102L676.1414246154679,160.34854118864394L676.1878313937826,167.6059724287733L676.6518991769292,142.720594860324L676.7911195118733,142.73818734736713L676.9767466251318,151.2870388058021L677.765661856481,113.87478636778212L677.8584754131103,184.1988697195124L677.9976957480543,106.71323601077847L678.9722380926621,131.2112131161081L679.0650516492914,104.79565492308006L679.2970855408646,138.29449336443759L679.8075601023259,110.31356957274454L680.1324075505285,140.87733380104882L680.1788143288431,111.39174031973039L680.3644414421018,145.0079656366905L681.153356673451,129.64584751744312L681.4317973433389,142.0513854311604L681.8958651264854,103.46509965043737L681.9886786831147,114.95683404538448L682.2671193530026,128.15875202745227" fill="none"></path></g></g></g></g></g></g><g transform="translate(48, 374)" clip-path="url(#clip_1)"><clipPath id="clip_1"><rect width="1385" height="25"></rect></clipPath><g><g><line x1="32.57222294780852" y1="0" x2="32.57222294780852" y2="5" style="visibility: inherit;" fill="rgb(0, 0, 0)" stroke="rgb(204, 204, 204)" stroke-width="1px"></line><line x1="125.38577957712197" y1="0" x2="125.38577957712197" y2="5" style="visibility: inherit;" fill="rgb(0, 0, 0)" stroke="rgb(204, 204, 204)" stroke-width="1px"></line><line x1="218.19933620643542" y1="0" x2="218.19933620643542" y2="5" style="visibility: inherit;" fill="rgb(0, 0, 0)" stroke="rgb(204, 204, 204)" stroke-width="1px"></line><line x1="311.01289283574886" y1="0" x2="311.01289283574886" y2="5" style="visibility: inherit;" fill="rgb(0, 0, 0)" stroke="rgb(204, 204, 204)" stroke-width="1px"></line><line x1="403.82644946506235" y1="0" x2="403.82644946506235" y2="5" style="visibility: inherit;" fill="rgb(0, 0, 0)" stroke="rgb(204, 204, 204)" stroke-width="1px"></line><line x1="496.64000609437574" y1="0" x2="496.64000609437574" y2="5" style="visibility: inherit;" fill="rgb(0, 0, 0)" stroke="rgb(204, 204, 204)" stroke-width="1px"></line><line x1="589.4535627236893" y1="0" x2="589.4535627236893" y2="5" style="visibility: inherit;" fill="rgb(0, 0, 0)" stroke="rgb(204, 204, 204)" stroke-width="1px"></line><line x1="682.2671193530026" y1="0" x2="682.2671193530026" y2="5" style="visibility: inherit;" fill="rgb(0, 0, 0)" stroke="rgb(204, 204, 204)" stroke-width="1px"></line><line x1="775.0806759823162" y1="0" x2="775.0806759823162" y2="5" style="visibility: inherit;" fill="rgb(0, 0, 0)" stroke="rgb(204, 204, 204)" stroke-width="1px"></line><line x1="867.8942326116295" y1="0" x2="867.8942326116295" y2="5" style="visibility: inherit;" fill="rgb(0, 0, 0)" stroke="rgb(204, 204, 204)" stroke-width="1px"></line><line x1="960.7077892409432" y1="0" x2="960.7077892409432" y2="5" style="visibility: inherit;" fill="rgb(0, 0, 0)" stroke="rgb(204, 204, 204)" stroke-width="1px"></line><line x1="1053.5213458702565" y1="0" x2="1053.5213458702565" y2="5" style="visibility: inherit;" fill="rgb(0, 0, 0)" stroke="rgb(204, 204, 204)" stroke-width="1px"></line><line x1="1146.33490249957" y1="0" x2="1146.33490249957" y2="5" style="visibility: inherit;" fill="rgb(0, 0, 0)" stroke="rgb(204, 204, 204)" stroke-width="1px"></line><line x1="1239.1484591288834" y1="0" x2="1239.1484591288834" y2="5" style="visibility: inherit;" fill="rgb(0, 0, 0)" stroke="rgb(204, 204, 204)" stroke-width="1px"></line><line x1="1331.962015758197" y1="0" x2="1331.962015758197" y2="5" style="visibility: inherit;" fill="rgb(0, 0, 0)" stroke="rgb(204, 204, 204)" stroke-width="1px"></line></g><g transform="translate(0, 8)"><text style="text-anchor: middle; visibility: inherit; font-family: &quot;Helvetica Neue&quot;, sans-serif; font-size: 12px; font-weight: 200;" x="32.57222294780852" y="0" dx="0em" dy="0.95em" fill="rgb(50, 49, 63)" stroke="none" stroke-width="1px">-4k</text><text style="text-anchor: middle; visibility: inherit; font-family: &quot;Helvetica Neue&quot;, sans-serif; font-size: 12px; font-weight: 200;" x="125.38577957712197" y="0" dx="0em" dy="0.95em" fill="rgb(50, 49, 63)" stroke="none" stroke-width="1px">-2k</text><text style="text-anchor: middle; visibility: inherit; font-family: &quot;Helvetica Neue&quot;, sans-serif; font-size: 12px; font-weight: 200;" x="218.19933620643542" y="0" dx="0em" dy="0.95em" fill="rgb(50, 49, 63)" stroke="none" stroke-width="1px">0</text><text style="text-anchor: middle; visibility: inherit; font-family: &quot;Helvetica Neue&quot;, sans-serif; font-size: 12px; font-weight: 200;" x="311.01289283574886" y="0" dx="0em" dy="0.95em" fill="rgb(50, 49, 63)" stroke="none" stroke-width="1px">2k</text><text style="text-anchor: middle; visibility: inherit; font-family: &quot;Helvetica Neue&quot;, sans-serif; font-size: 12px; font-weight: 200;" x="403.82644946506235" y="0" dx="0em" dy="0.95em" fill="rgb(50, 49, 63)" stroke="none" stroke-width="1px">4k</text><text style="text-anchor: middle; visibility: inherit; font-family: &quot;Helvetica Neue&quot;, sans-serif; font-size: 12px; font-weight: 200;" x="496.64000609437574" y="0" dx="0em" dy="0.95em" fill="rgb(50, 49, 63)" stroke="none" stroke-width="1px">6k</text><text style="text-anchor: middle; visibility: inherit; font-family: &quot;Helvetica Neue&quot;, sans-serif; font-size: 12px; font-weight: 200;" x="589.4535627236893" y="0" dx="0em" dy="0.95em" fill="rgb(50, 49, 63)" stroke="none" stroke-width="1px">8k</text><text style="text-anchor: middle; visibility: inherit; font-family: &quot;Helvetica Neue&quot;, sans-serif; font-size: 12px; font-weight: 200;" x="682.2671193530026" y="0" dx="0em" dy="0.95em" fill="rgb(50, 49, 63)" stroke="none" stroke-width="1px">10k</text><text style="text-anchor: middle; visibility: inherit; font-family: &quot;Helvetica Neue&quot;, sans-serif; font-size: 12px; font-weight: 200;" x="775.0806759823162" y="0" dx="0em" dy="0.95em" fill="rgb(50, 49, 63)" stroke="none" stroke-width="1px">12k</text><text style="text-anchor: middle; visibility: inherit; font-family: &quot;Helvetica Neue&quot;, sans-serif; font-size: 12px; font-weight: 200;" x="867.8942326116295" y="0" dx="0em" dy="0.95em" fill="rgb(50, 49, 63)" stroke="none" stroke-width="1px">14k</text><text style="text-anchor: middle; visibility: inherit; font-family: &quot;Helvetica Neue&quot;, sans-serif; font-size: 12px; font-weight: 200;" x="960.7077892409432" y="0" dx="0em" dy="0.95em" fill="rgb(50, 49, 63)" stroke="none" stroke-width="1px">16k</text><text style="text-anchor: middle; visibility: inherit; font-family: &quot;Helvetica Neue&quot;, sans-serif; font-size: 12px; font-weight: 200;" x="1053.5213458702565" y="0" dx="0em" dy="0.95em" fill="rgb(50, 49, 63)" stroke="none" stroke-width="1px">18k</text><text style="text-anchor: middle; visibility: inherit; font-family: &quot;Helvetica Neue&quot;, sans-serif; font-size: 12px; font-weight: 200;" x="1146.33490249957" y="0" dx="0em" dy="0.95em" fill="rgb(50, 49, 63)" stroke="none" stroke-width="1px">20k</text><text style="text-anchor: middle; visibility: inherit; font-family: &quot;Helvetica Neue&quot;, sans-serif; font-size: 12px; font-weight: 200;" x="1239.1484591288834" y="0" dx="0em" dy="0.95em" fill="rgb(50, 49, 63)" stroke="none" stroke-width="1px">22k</text><text style="text-anchor: middle; visibility: inherit; font-family: &quot;Helvetica Neue&quot;, sans-serif; font-size: 12px; font-weight: 200;" x="1331.962015758197" y="0" dx="0em" dy="0.95em" fill="rgb(50, 49, 63)" stroke="none" stroke-width="1px">24k</text></g><line x1="0" y1="0" x2="1385.023998260498" y2="0" fill="rgb(0, 0, 0)" stroke="rgb(204, 204, 204)" stroke-width="1px"></line></g></g></g></g></svg>