<svg viewBox="0 0 1434 400" xmlns="http://www.w3.org/2000/svg"><g><g><g><g><g><line x1="58.72000217437744" y1="373.22589625413906" x2="53.72000217437744" y2="373.22589625413906" style="visibility: inherit;" fill="rgb(0, 0, 0)" stroke="rgb(204, 204, 204)" stroke-width="1px"></line><line x1="58.72000217437744" y1="340.98778181145457" x2="53.72000217437744" y2="340.98778181145457" style="visibility: inherit;" fill="rgb(0, 0, 0)" stroke="rgb(204, 204, 204)" stroke-width="1px"></line><line x1="58.72000217437744" y1="308.7496673687701" x2="53.72000217437744" y2="308.7496673687701" style="visibility: inherit;" fill="rgb(0, 0, 0)" stroke="rgb(204, 204, 204)" stroke-width="1px"></line><line x1="58.72000217437744" y1="276.51155292608564" x2="53.72000217437744" y2="276.51155292608564" style="visibility: inherit;" fill="rgb(0, 0, 0)" stroke="rgb(204, 204, 204)" stroke-width="1px"></line><line x1="58.72000217437744" y1="244.27343848340115" x2="53.72000217437744" y2="244.27343848340115" style="visibility: inherit;" fill="rgb(0, 0, 0)" stroke="rgb(204, 204, 204)" stroke-width="1px"></line><line x1="58.72000217437744" y1="212.03532404071666" x2="53.72000217437744" y2="212.03532404071666" style="visibility: inherit;" fill="rgb(0, 0, 0)" stroke="rgb(204, 204, 204)" stroke-width="1px"></line><line x1="58.72000217437744" y1="179.79720959803223" x2="53.72000217437744" y2="179.79720959803223" style="visibility: inherit;" fill="rgb(0, 0, 0)" stroke="rgb(204, 204, 204)" stroke-width="1px"></line><line x1="58.72000217437744" y1="147.5590951553477" x2="53.72000217437744" y2="147.5590951553477" style="visibility: inherit;" fill="rgb(0, 0, 0)" stroke="rgb(204, 204, 204)" stroke-width="1px"></line><line x1="58.72000217437744" y1="115.32098071266324" x2="53.72000217437744" y2="115.32098071266324" style="visibility: inherit;" fill="rgb(0, 0, 0)" stroke="rgb(204, 204, 204)" stroke-width="1px"></line><line x1="58.72000217437744" y1="83.08286626997875" x2="53.72000217437744" y2="83.08286626997875" style="visibility: inherit;" fill="rgb(0, 0, 0)" stroke="rgb(204, 204, 204)" stroke-width="1px"></line><line x1="58.72000217437744" y1="50.84475182729432" x2="53.72000217437744" y2="50.84475182729432" style="visibility: inherit;" fill="rgb(0, 0, 0)" stroke="rgb(204, 204, 204)" stroke-width="1px"></line><line x1="58.72000217437744" y1="18.606637384609883" x2="53.72000217437744" y2="18.606637384609883" style="visibility: inherit;" fill="rgb(0, 0, 0)" stroke="rgb(204, 204, 204)" stroke-width="1px"></line></g><g transform="translate(48.72000217437744, 0)"><text style="text-anchor: end; visibility: hidden; font-family: &quot;Helvetica Neue&quot;, sans-serif; font-size: 12px; font-weight: 200;" x="0" y="373.22589625413906" dx="0em" dy="0.3em" fill="rgb(50, 49, 63)" stroke="none" stroke-width="1px">-0.2</text><text style="text-anchor: end; visibility: inherit; font-family: &quot;Helvetica Neue&quot;, sans-serif; font-size: 12px; font-weight: 200;" x="0" y="340.98778181145457" dx="0em" dy="0.3em" fill="rgb(50, 49, 63)" stroke="none" stroke-width="1px">-0.15</text><text style="text-anchor: end; visibility: inherit; font-family: &quot;Helvetica Neue&quot;, sans-serif; font-size: 12px; font-weight: 200;" x="0" y="308.7496673687701" dx="0em" dy="0.3em" fill="rgb(50, 49, 63)" stroke="none" stroke-width="1px">-0.1</text><text style="text-anchor: end; visibility: inherit; font-family: &quot;Helvetica Neue&quot;, sans-serif; font-size: 12px; font-weight: 200;" x="0" y="276.51155292608564" dx="0em" dy="0.3em" fill="rgb(50, 49, 63)" stroke="none" stroke-width="1px">-0.05</text><text style="text-anchor: end; visibility: inherit; font-family: &quot;Helvetica Neue&quot;, sans-serif; font-size: 12px; font-weight: 200;" x="0" y="244.27343848340115" dx="0em" dy="0.3em" fill="rgb(50, 49, 63)" stroke="none" stroke-width="1px">0</text><text style="text-anchor: end; visibility: inherit; font-family: &quot;Helvetica Neue&quot;, sans-serif; font-size: 12px; font-weight: 200;" x="0" y="212.03532404071666" dx="0em" dy="0.3em" fill="rgb(50, 49, 63)" stroke="none" stroke-width="1px">0.05</text><text style="text-anchor: end; visibility: inherit; font-family: &quot;Helvetica Neue&quot;, sans-serif; font-size: 12px; font-weight: 200;" x="0" y="179.79720959803223" dx="0em" dy="0.3em" fill="rgb(50, 49, 63)" stroke="none" stroke-width="1px">0.1</text><text style="text-anchor: end; visibility: inherit; font-family: &quot;Helvetica Neue&quot;, sans-serif; font-size: 12px; font-weight: 200;" x="0" y="147.5590951553477" dx="0em" dy="0.3em" fill="rgb(50, 49, 63)" stroke="none" stroke-width="1px">0.15</text><text style="text-anchor: end; visibility: inherit; font-family: &quot;Helvetica Neue&quot;, sans-serif; font-size: 12px; font-weight: 200;" x="0" y="115.32098071266324" dx="0em" dy="0.3em" fill="rgb(50, 49, 63)" stroke="none" stroke-width="1px">0.2</text><text style="text-anchor: end; visibility: inherit; font-family: &quot;Helvetica Neue&quot;, sans-serif; font-size: 12px; font-weight: 200;" x="0" y="83.08286626997875" dx="0em" dy="0.3em" fill="rgb(50, 49, 63)" stroke="none" stroke-width="1px">0.25</text><text style="text-anchor: end; visibility: inherit; font-family: &quot;Helvetica Neue&quot;, sans-serif; font-size: 12px; font-weight: 200;" x="0" y="50.84475182729432" dx="0em" dy="0.3em" fill="rgb(50, 49, 63)" stroke="none" stroke-width="1px">0.3</text><text style="text-anchor: end; visibility: inherit; font-family: &quot;Helvetica Neue&quot;, sans-serif; font-size: 12px; font-weight: 200;" x="0" y="18.606637384609883" dx="0em" dy="0.3em" fill="rgb(50, 49, 63)" stroke="none" stroke-width="1px">0.35</text></g><line x1="58.72000217437744" y1="0" x2="58.72000217437744" y2="374.5999984741211" fill="rgb(0, 0, 0)" stroke="rgb(204, 204, 204)" stroke-width="1px"></line></g></g><g transform="translate(58, 0)" clip-path="url(#clip_0)"><clipPath id="clip_0"><rect width="1375" height="374"></rect></clipPath><g><g><g><line x1="11.70872916766549" y1="0" x2="11.70872916766549" y2="374.5999984741211" fill="rgb(0, 0, 0)" stroke="rgb(60, 60, 60)" stroke-width="1px" opacity="0.25"></line><line x1="151.58487434944954" y1="0" x2="151.58487434944954" y2="374.5999984741211" fill="rgb(0, 0, 0)" stroke="rgb(60, 60, 60)" stroke-width="1px" opacity="0.25"></line><line x1="291.4610195312336" y1="0" x2="291.4610195312336" y2="374.5999984741211" fill="rgb(0, 0, 0)" stroke="rgb(60, 60, 60)" stroke-width="1px" opacity="0.25"></line><line x1="431.3371647130176" y1="0" x2="431.3371647130176" y2="374.5999984741211" fill="rgb(0, 0, 0)" stroke="rgb(60, 60, 60)" stroke-width="1px" opacity="0.25"></line><line x1="571.2133098948017" y1="0" x2="571.2133098948017" y2="374.5999984741211" fill="rgb(0, 0, 0)" stroke="rgb(60, 60, 60)" stroke-width="1px" opacity="0.25"></line><line x1="711.0894550765858" y1="0" x2="711.0894550765858" y2="374.5999984741211" fill="rgb(0, 0, 0)" stroke="rgb(60, 60, 60)" stroke-width="1px" opacity="0.25"></line><line x1="850.9656002583699" y1="0" x2="850.9656002583699" y2="374.5999984741211" fill="rgb(0, 0, 0)" stroke="rgb(60, 60, 60)" stroke-width="1px" opacity="0.25"></line><line x1="990.8417454401538" y1="0" x2="990.8417454401538" y2="374.5999984741211" fill="rgb(0, 0, 0)" stroke="rgb(60, 60, 60)" stroke-width="1px" opacity="0.25"></line><line x1="1130.7178906219378" y1="0" x2="1130.7178906219378" y2="374.5999984741211" fill="rgb(0, 0, 0)" stroke="rgb(60, 60, 60)" stroke-width="1px" opacity="0.25"></line><line x1="1270.594035803722" y1="0" x2="1270.594035803722" y2="374.5999984741211" fill="rgb(0, 0, 0)" stroke="rgb(60, 60, 60)" stroke-width="1px" opacity="0.25"></line></g><g><line x1="0" y1="373.22589625413906" x2="1375.2799978256226" y2="373.22589625413906" fill="rgb(0, 0, 0)" stroke="rgb(60, 60, 60)" stroke-width="1px" opacity="0.25"></line><line x1="0" y1="340.98778181145457" x2="1375.2799978256226" y2="340.98778181145457" fill="rgb(0, 0, 0)" stroke="rgb(60, 60, 60)" stroke-width="1px" opacity="0.25"></line><line x1="0" y1="308.7496673687701" x2="1375.2799978256226" y2="308.7496673687701" fill="rgb(0, 0, 0)" stroke="rgb(60, 60, 60)" stroke-width="1px" opacity="0.25"></line><line x1="0" y1="276.51155292608564" x2="1375.2799978256226" y2="276.51155292608564" fill="rgb(0, 0, 0)" stroke="rgb(60, 60, 60)" stroke-width="1px" opacity="0.25"></line><line x1="0" y1="244.27343848340115" x2="1375.2799978256226" y2="244.27343848340115" fill="rgb(0, 0, 0)" stroke="rgb(60, 60, 60)" stroke-width="1px" opacity="0.25"></line><line x1="0" y1="212.03532404071666" x2="1375.2799978256226" y2="212.03532404071666" fill="rgb(0, 0, 0)" stroke="rgb(60, 60, 60)" stroke-width="1px" opacity="0.25"></line><line x1="0" y1="179.79720959803223" x2="1375.2799978256226" y2="179.79720959803223" fill="rgb(0, 0, 0)" stroke="rgb(60, 60, 60)" stroke-width="1px" opacity="0.25"></line><line x1="0" y1="147.5590951553477" x2="1375.2799978256226" y2="147.5590951553477" fill="rgb(0, 0, 0)" stroke="rgb(60, 60, 60)" stroke-width="1px" opacity="0.25"></line><line x1="0" y1="115.32098071266324" x2="1375.2799978256226" y2="115.32098071266324" fill="rgb(0, 0, 0)" stroke="rgb(60, 60, 60)" stroke-width="1px" opacity="0.25"></line><line x1="0" y1="83.08286626997875" x2="1375.2799978256226" y2="83.08286626997875" fill="rgb(0, 0, 0)" stroke="rgb(60, 60, 60)" stroke-width="1px" opacity="0.25"></line><line x1="0" y1="50.84475182729432" x2="1375.2799978256226" y2="50.84475182729432" fill="rgb(0, 0, 0)" stroke="rgb(60, 60, 60)" stroke-width="1px" opacity="0.25"></line><line x1="0" y1="18.606637384609883" x2="1375.2799978256226" y2="18.606637384609883" fill="rgb(0, 0, 0)" stroke="rgb(60, 60, 60)" stroke-width="1px" opacity="0.25"></line></g></g></g><g><g><line x1="0" y1="244.27343848340115" x2="1375.2799978256226" y2="244.27343848340115" fill="rgb(0, 0, 0)" stroke="rgb(153, 153, 153)" stroke-width="1.5px"></line></g></g><g><g><line x1="151.58487434944954" y1="0" x2="151.58487434944954" y2="374.5999984741211" fill="rgb(0, 0, 0)" stroke="rgb(153, 153, 153)" stroke-width="1.5px"></line></g></g><g><g><g><g><g><path style="fill: none;" stroke="rgb(0, 119, 187)" stroke-width="2px" d="M180.09163273749715,-41.82888978200475L180.25948411171527,41.868604395965235L180.707087776297,118.07973167414542L180.76303823436967,150.49406143528063L180.8469639214788,169.2135099737054L181.15469144087868,175.2256827985553L181.57431987642406,172.9437710225612L181.65824556353311,170.02657907087678L182.21775014426026,164.74110560124865L182.44155197655112,161.0033003017497L182.55345289269653,158.92792497922792L183.1129574734237,150.2953491004316L183.92423911547803,152.3764569842831L184.0081648025871,152.2994925879867L184.2599418639143,150.68016754799174L184.5676693833142,145.4704313315465L184.707545528496,158.97743551776313L184.76349598656873,163.61278167904212L184.9033721317505,166.33078467674468L185.9944060641684,170.76524122848917L186.1342822093502,175.2120422123971L186.55391064489558,173.02301450329787L186.72176201911373,174.22204935576704L186.8616381642955,176.26327900966137L187.05746476755,180.26200176064435L187.22531614176813,182.33222250384893L187.7568454934589,181.94556712484015L188.20444915804063,176.1951035563824L188.26039961611332,181.31052647695364L188.48420144840418,182.84758074938975L188.81990419684047,180.03760063669958L189.07168125816767,179.0471946029437L189.29548309045853,181.3138317789122L189.74308675504022,184.45054280290492L189.85498767118568,184.6275216096906L191.36565003914893,189.63476347984326L191.3936252681853,186.70111441123137L191.86920416180337,187.04160141526714L191.95312984891245,190.77165708813325L192.0370555360215,187.71371674145595L192.45668397156686,190.3278583536787L192.54060965867592,189.04104864884212L192.5685848877123,189.16865897724395L192.84833717807584,189.32574715551854L193.3239160716939,192.63092537636385L193.37986652976662,195.49157737507468L193.9673463395301,197.74335872741256L194.4429252331482,199.2332034340499L194.58280137832995,199.8393458575789L195.3381325623116,201.46230013282974L195.6178848526752,202.9127884989961L195.78573622689333,205.51946999365927L195.9815628301478,203.90972398048135L196.0095380591842,203.041226138556L196.42916649472951,202.12369686157507L196.93272061738392,199.05593137359656L196.98867107545666,200.87024741545326L197.32437382389293,197.48775224931492L197.52020042714744,194.51606078738828L197.5481756561838,197.1469096392794L197.6041261142565,198.6757349214051L197.68805180136556,198.41659047153468L197.7440022594383,200.13950114671522L198.07970500787457,201.63673887049646L198.35945729823814,201.33194035097196L198.8350361918562,201.57006451379272L199.56239214680147,202.47111472609657L199.6742930629469,200.1578955587885L199.78619397909233,198.9081590903118L200.0099958113832,201.20576554250576L200.2617728727104,205.45690804431527L200.37367378885583,203.2794470596507L200.62545085018306,204.49033137318176L200.73735176632846,204.89798084491514L200.98912882765566,202.53515105382706L201.10102974380112,204.8633946363097L201.1569802018738,203.41565278660147L201.21293065994652,197.82904597942593L201.40875726320104,198.31560091352856L201.54863340838278,198.95196298553853L201.60458386645553,202.482321134575L201.7444600116373,206.29259251897074L201.80041046971004,206.41534845158034L201.91231138585545,208.78810088514948L202.0242123020009,210.26574324697344L202.19206367621902,212.6932018445864L202.22003890525536,211.6095351262579L202.86346917309157,212.52041336501878L202.97537008923703,212.44834198692604L203.89855264743682,214.55279679693635L204.09437925069128,213.562629664693L204.26223062490942,211.02321257852245L204.65388383141843,211.20121282024428L204.76578474756386,211.41709147887516L204.96161135081834,214.94544651756962L205.01756180889106,215.65195982758718L205.1854131831092,215.22113492860996L205.24136364118192,213.20682509106982L205.63301684769093,212.5321605516391L205.66099207672727,213.59028193645344L205.94074436709084,213.47057700369663L206.0246700541999,213.59324393489845L206.2764471155271,209.42642137187755L206.38834803167254,210.7340273743984L206.50024894781797,209.46821350637478L206.75202600914517,211.3209817778117L206.7800012381815,213.18147085820576L206.94785261239969,208.71866567923263L206.97582784143603,210.59211236800354L207.11570398661783,208.52167029854624L207.61925810927224,210.23323369422283L207.7031837963813,208.35295984097627L207.9549608577085,208.81522106588244L208.79421772879923,211.90297216084772L209.1578957062719,209.45521099240926L209.32574708049,209.76503089203655L209.4096727675991,213.20890840142405L209.4656232256718,214.13762705498868L209.5775241418172,214.23926342854975L209.74537551603535,214.65635221864497L209.88525166121715,215.86376957971353L210.16500395158073,216.65999604594867L210.33285532579885,215.52167787446783L210.47273147098065,215.5911229810001L210.7524837613442,216.85061096478717L210.892359906526,216.99385808399853L211.92744338087118,217.01425325160372L212.03934429701664,213.9943708218933L212.06731952605298,215.57773778893758L212.09529475508933,216.544240476846L212.59884887774376,215.19243166485694L212.93455162618002,215.64967875721948L212.96252685521637,217.79432980230715L213.13037822943454,217.95915478511807L213.32620483268903,216.38136787096846L214.0535607876343,217.07641462167257L214.38926353607062,215.92196503194228L214.69699105547053,217.57971406924835L214.7809167425796,217.63787298826014L214.86484242968865,214.35569372913372L215.4243470104158,214.68921753489658L215.59219838463392,216.89292413084044L215.78802498788843,213.98592939123654L215.95587636210658,215.96718461735676L216.4034800266883,216.5595021367564L216.48740571379736,217.90850993245928L216.7951332331973,218.9737577667294L216.87905892030636,219.67236425587222L216.96298460741542,217.3684689657561L216.99095983645176,217.4976695689322L218.3337708301969,217.09035862057522L218.41769651730596,217.27347410334045L218.50162220441504,218.7423732766623L218.5295974334514,219.9197548385252L219.14505247225125,220.2277885669193L219.48075522068754,220.73081607223358L219.53670567876026,219.9665865734564L219.64860659490566,219.5606231461885L219.7605075110511,217.41656666403247L219.87240842719652,219.4200075051776L220.57178915310544,220.02003446482027L220.59976438214179,220.92428271202226L220.90749190154173,219.3719116379562L221.1312937338326,218.24764455332678L221.243194649978,219.97475082192696L221.2991451080507,219.47982042508738L221.77472400166877,219.93971293205942L222.19435243721415,221.8178154047436L222.30625335335958,222.72115431883248L223.0056340792685,222.12799226286364L223.4532377438502,221.63980274317348L223.48121297288654,219.1518063631562L223.9008414084319,220.0166244817495L224.01274232457735,221.60184128914818L224.46034598915907,223.07818444911396L224.4883212181954,223.40027070609324L224.85199919566804,223.2111623904129L225.10377625699525,221.27072985855577L225.24365240217705,222.6658235267902L225.3835285473588,222.22428190775415L225.4674542344679,222.9010322322212L225.60733037964965,221.65379070905175L225.69125606675874,221.13896394181606L226.02695881519503,221.3444574503654L226.2507606474859,221.50709682784196L226.44658725074038,220.68996302862342L226.6424138539949,220.8929558356791L226.8941909153221,220.65872312700452L227.0060918314675,221.86371282974397L227.06204228954024,220.149568647981L227.11799274761296,221.5135929258322L227.20191843472202,223.8014299653432L227.3977450379765,222.950691288714L227.6495220993037,223.56551632492327L227.92927438966728,222.8132282063634L228.0411753058127,220.1620752835293L228.09712576388543,221.06135089022544L228.1810514509945,221.66728673027026L228.3209275961763,222.57084607188574L228.40485328328535,223.7602509055933L228.4328285123217,224.05526161029852L228.46080374135806,224.7662543702416L228.99233309304887,225.4717651161084L229.24411015437607,223.82325057719405L229.4119615285942,223.44803269732978L229.60778813184868,224.9409807423035L229.63576336088505,225.40231874035075L229.88754042221225,225.21752609140506L230.08336702546677,224.92808619177055L230.67084683523026,223.5347248621005L230.7827477513757,223.05940791981956L231.06250004173924,223.66124813244178L231.1744009578847,223.14189926119346L231.4261780192119,223.31260633746163L231.7898559966845,223.94692789134768L231.8737816837936,224.10403106645623L232.04163305801177,224.9107403510259L232.09758351608443,223.46316075451622L233.0487413033206,223.72272468048888L233.21659267753873,223.73825869373402L233.6921715711568,222.78246317945525L233.74812202922948,221.32412669157443L233.97192386152034,223.35772367973996L234.05584954862942,224.28524296107224L234.11180000670214,225.25523549691832L234.61535412935658,224.16939667320148L235.00700733586558,224.57840949561196L235.06295779393827,223.14870872949808L235.5665119165927,224.50135090752622L235.67841283273813,225.35350578377478L235.902214665029,224.9018322640883L236.37779355864706,226.29709952790537L236.54564493286517,225.20349878426276L237.21705042973775,226.67942783725314L237.58072840721042,225.12702875517198L237.66465409431947,224.68559084088656L237.69262932335582,225.62014070188698L237.74857978142853,227.29635387994023L237.80453023950122,227.61039277678304L237.91643115564668,227.5503438276068L238.02833207179208,227.15468527986096L238.2241586750466,226.39687962994302L238.64378711059194,227.05262047497388L239.59494489782807,227.39408184018575L239.70684581397353,226.95338676376542L239.902672417228,227.2492225703139L240.1544494785552,227.1956328964878L240.4901522269915,228.3808547378033L240.76990451735506,227.31226231190476L240.82585497542777,227.66466185258554L240.8818054335005,227.67394417194475L240.90978066253683,227.01854612048197L241.0216815786823,226.65509999609452L241.10560726579135,225.23470939042647L241.32940909808218,224.38826831262125L241.44131001422764,224.7346852592942L242.00081459495476,226.45722539032167L242.14069074013656,225.87660863670425L242.1686659691729,226.3812122022758L242.22461642724562,226.50759370668615L242.30854211435468,227.56316995758525L242.4204430305001,227.08814900487417L242.44841825953648,226.26093226759548L242.64424486279097,227.04323389468192L242.72817054990003,227.6136165175587L242.86804669508183,226.2814156201498L243.3995760467726,227.09313795068587L243.67932833713618,227.26639474159214L243.84717971135433,226.02528836497737L244.01503108557247,227.46018145973764L244.12693200171788,226.31715249887853L244.4626347501542,226.49495245644133L244.49060997919054,227.3291169184329L245.18999070509943,227.70397083616913L245.44176776642664,227.11078490009018L245.9173466600447,227.75841949486266L246.42090078269916,228.51383716914404L246.4488760117355,230.16323874146116L246.50482646980822,228.83636125957972L246.89647967631723,228.60307341214326L247.7357365474079,227.01286315090664L247.95953837969876,227.04854345579935L248.15536498295327,228.01133012798357L248.211315441026,228.11875774783L248.26726589909867,225.5881710105464L248.40714204428048,226.49742559817466L249.1065227701894,227.7887653631951L249.13449799922574,228.70981618720717L249.41425028958932,229.42580429319935L249.47020074766206,229.68348505976718L249.6100768928438,229.59245227883738L250.00173009935278,229.93356411367466L250.16958147357096,229.65190163420348L250.42135853489816,230.81961575712347L250.8409869704435,230.42014662887186L250.95288788658897,230.59786444687913L251.00883834466165,230.88338626244231L251.3725163221343,231.08333919956493L251.70821907057058,231.09019297783613L252.04392181900687,230.35349782245015L252.32367410937042,230.75733862930036L252.49152548358856,230.2938974452408L252.96710437720662,230.7245443267305L253.1349557514248,230.80510918500974L253.16293098046114,230.29227295991464L253.386732812752,230.29317038559617L253.55458418697015,227.71592064727574L253.72243556118826,228.77787943230396L253.86231170637006,229.57270538250287L254.50574197420625,230.34760949530312L254.70156857746076,229.82792004280347L254.84144472264254,230.77579376859146L255.20512270011517,230.78630992378854L255.40094930336969,228.73847026089376L255.82057773891503,229.62332691572314L256.1562804873513,230.33973954956252L256.24020617446035,231.23206462638842L256.6318593809694,231.52307515978634L256.65983461000576,231.59409739561312L256.71578506807845,231.16577872885176L257.6109923972419,231.71862130264967L257.6389676262782,230.8534418864209L257.6669428553146,231.1029443755992L257.86276945856906,231.28502719272697L258.170496977969,231.16015938731354L258.59012541351433,231.78502449200116L258.73000155869613,227.2080117410707L259.5692584297868,228.73539058569014L259.9329364072595,229.7910463434747L260.1847134685867,229.9641591275661L260.4364905299139,229.82293968788156L260.604341904132,229.5372882586588L260.7162428202775,230.06084267091504L261.19182171389554,228.86236711053985L261.2477721719682,230.08706700743764L261.2757474010046,231.06674148650063L261.6114501494409,231.62956727726777L262.5905831657134,231.9447040185347L262.81438499800424,232.11861480572995L263.45781526584045,231.6731357609969L263.7095923271677,230.9204284322434L263.76554278524037,231.57075331207932L263.82149324331306,232.23822485476057L263.93339415945854,232.2778965735633L263.96136938849486,231.83819916122636L264.2690969078948,232.53625368057476L264.35302259500384,233.6194859119563L264.5768244272947,232.99406739880757L264.6607501144038,233.0772334500248L265.33215561127633,232.5848471796872L265.44405652742176,233.19173103959093L265.5000069854945,233.0887537341511L265.91963542103986,232.45175919427635L266.28331339851246,232.06622544602183L266.92674366634867,231.98735329198007L267.346372101894,232.85544356404307L267.5701739341849,233.24525153429397L267.7100500793667,233.33453974246368L267.8499262245485,233.51094410414504L267.96182714069386,233.5994689088605L268.0177775987666,233.59966750934908L268.4653812633483,233.16638270672246L268.9689353860027,232.77072152396323L268.99691061503904,233.10140951320574L269.1927372182936,233.17146593382964L269.27666290540265,232.5268278439541L269.9480684022752,233.39754082842563L270.0319940893843,233.25748809806376L270.2278206926388,233.4748579389545L270.31174637974783,233.0715607291849L270.3397216087842,233.17178372524174L270.3956720668569,232.4658475172701L270.4236472958933,232.97040033185866L271.1230280218022,232.8342165163474L271.37480508312944,232.54853656155652L272.046210580002,232.80068664725835L272.27001241229283,232.91265043749718L272.6616656188018,233.68148379918458L272.6896408478382,233.40394278664579L272.82951699302,234.31979109190445L273.16521974145627,234.11537191704903L273.9765013835106,232.85851434395354L274.03245184158334,233.29337048559003L274.088402299656,233.56013292224566L274.3122041319469,234.00380272421987L274.787783025565,234.17565998210915L274.9276591707467,233.89589187879892L275.54311420954656,233.5033209203067L275.6270398966556,233.62802224364128L275.7669160418374,233.65892067563692L276.07464356123734,232.9982602183303L276.1305940193101,233.81700677948626L276.32642062256457,234.26837706472142L276.4942719967827,233.79875554985964L276.69009860003723,234.35922756110944L276.85794997425535,234.3716482093115L276.9418756613644,233.28354665568963L277.4174545549825,233.0940963037603L277.7531573034188,233.4761789563249L277.83708299052785,234.01666780845022L278.03290959378234,234.91844482855322L278.48051325836406,235.47603014825793L278.5364637164368,235.93351893062484L278.7043150906549,235.80322928651663L278.81621600680035,235.78929481723134L279.26381967138207,235.66536364381517L279.7393985650001,235.85691913156404L280.29890314572725,235.51506952084821L280.80245726838166,234.70849540966623L280.85840772645435,234.92525564132595L280.9143581845271,234.83215741818267L280.99828387163615,234.08863183755417L281.0822095587452,234.23616297215244L281.5577884523633,234.6936771127165L281.8655159717632,234.71534076278238L282.2571691782722,234.237881320911L283.09642604936295,233.06790814587958L283.15237650743563,234.105579026535L283.8237820043082,234.19597512880233L283.93568292045364,234.69438278174482L283.99163337852633,234.8695994352342L284.1594847527445,234.64679452867713L284.24341043985356,234.48302308376677L284.29936089792625,234.93825987795523L284.5511379592535,235.5734530831117L284.74696456250797,236.07508667133405L285.11064253998063,235.82969564961655L285.3344443722715,234.4211804865126L285.6981223497441,234.56458008413387L285.75407280781684,235.38790695572575L285.8379984949259,234.73815820702555L286.1737012433622,235.30578571340308L286.2856021595076,235.96777499350836L286.4254783046894,236.10178997468216L286.4814287627621,236.57329489412072L286.76118105312565,236.70925241813373L286.8730819692711,236.6393956922511L287.68436361132547,236.3705030233841L287.8242397565072,235.56254100690978L288.0200663597617,235.81897277022122L288.74742231470697,235.01067522866617L289.25097643736143,234.54938856220946L289.4747782696523,235.13805650455035L289.6706048729068,235.62286879623355L289.7825057890522,235.25763122149797L290.0902333084521,235.68510934939073L290.2580846826703,235.2143192225525L290.4259360568884,235.89503651395336L291.04139109568825,236.5122193802354L291.3491186150882,236.61746710290151L291.48899476027,236.65726563049105L291.7407718215972,237.10610559389772L291.7687470506335,236.51492940789564L292.1044497990698,236.5642032383695L292.41217731846973,235.94125546332643L292.4961030055788,236.16164295077937L292.7758552959424,236.39860753615858L294.0906910606512,236.2375885534399L294.2305672058329,235.6126017294261L294.2585424348693,235.59426732599334L294.53829472523284,235.97300606228256L296.5804864448869,236.98043495301255L296.8882139642868,237.29176375329274L296.9161891933232,236.51210030645063L296.9721396513959,236.19355224625164L297.0280901094686,236.21914847450273L297.1120157965777,236.84260167240697L297.13999102561405,236.75076711375027L297.839371751523,236.85902039940342L297.97924789670475,237.18534252168587L298.0631735838138,237.10836692927535L298.28697541610467,237.20006177561578L298.5947029355046,236.81271865659156L298.8464799968318,236.99071810290005L298.9304056839409,236.85440534868374L298.95838091297725,237.16947534972792L299.3780093485226,237.6528786115291L299.8256130131043,236.71956370993L299.99346438732243,236.5949323257376L300.10536530346786,236.62634758373773L300.3571423647951,236.89809626034673L300.4130928228678,236.29393799554947L300.664869884195,236.67206176036345L300.77677080034044,236.50125526127925L300.94462217455856,235.9535649341937L301.08449831974036,236.58057228624264L301.81185427468563,236.6835329444632L302.06363133601286,236.3557017378697L302.4832597715582,236.34878740519386L302.6790863748127,236.46389258783367L302.8469377490309,236.2940911095064L302.95883866517624,236.77509719519162L302.9868138942126,236.00583089200714L303.5183432459034,235.83910569850056L303.60226893301245,236.71065634695063L303.77012030723057,236.49091717651822L304.6093771783213,236.66789866176632L304.77722855253944,237.27388651776155L304.88912946868487,237.3136359159659L305.1968569880848,237.11148442885803L305.2528074461575,237.2219163434766L305.7283863397756,237.40273748025177L305.75636156881194,237.9211807259862L306.2878909205027,237.8141187403761L306.3158661495391,237.85774485206457L306.39979183664815,233.7958769539869L306.6515688979753,234.9743583654524L306.9592964173753,235.97256632746453L307.6586771432842,236.8668733855839L307.74260283039325,237.56527862644336L308.05033034979317,237.88610426532597L308.1342560369023,238.19156085173964L308.190206494975,237.82948580901345L308.2461569530477,237.4195153580886L308.58185970148395,237.88707666083207L309.05743859510204,237.58006129802806L309.64491840486556,237.22502456424817L309.84074500812005,237.48290982716952L310.0645468404109,237.82657088201353L310.1764477565563,237.13775608711032L310.37227435981083,237.72484492866383L310.40024958884715,237.7748038042919L310.4282248178835,237.406868208887L310.70797710824706,237.82065863595724L311.4353330631924,238.24030178134842L311.57520920837413,238.14938996014916L312.02281287295585,238.34894280073914L312.3305403923558,238.78357716216837L312.4424413085012,238.49671757810154L312.4704165375376,238.33415353628098L312.69421836982843,238.52632866298936L312.7781440569375,238.13806128785242L312.86206974404655,237.70596747106526L312.94599543115567,237.03504192219677L313.19777249248284,237.33698490574736L313.30967340862827,237.83414672327834L313.50550001188276,237.82450831859393L313.53347524091913,238.41685844612354L313.7013266151373,238.30441040832181L313.8691779893554,236.98406556747543L313.9251284474281,237.76612102080577L314.00905413453717,237.78250230167848L314.98818715080967,238.1718765523146L315.32388989924596,238.1742018526807L315.85541925093673,238.44459202361986L315.9113697090095,237.75565179256694L316.44289906070026,238.43789198853884L316.49884951877294,238.486542217475L317.0583540995001,238.46970959802437L317.7297595963727,238.92846609396128L317.81368528348173,238.9017395815895L318.1773632609544,238.88177051067953L318.40116509324525,239.22072333948282L318.65294215457243,238.79698935236007L318.7368678416815,238.55538883676354L318.79281829975423,238.04493814304357L318.82079352879055,237.9060616394593L319.2124467352996,237.95834139572796L319.43624856759044,238.51582603181748L320.0517036063903,238.8014298357174L320.2195549806084,238.92241838629351L320.3034806677175,238.68059143765646L320.499307270972,238.20021111944348L320.8629852484446,238.20124175189144L320.91893570651735,237.4941190807543L320.94691093555366,238.37695009507752L321.1427375388082,238.6173669276628L321.6462916614626,238.86721189316077L322.2897219292988,239.1492072303129L322.42959807448057,238.8158697652514L322.9891026552077,238.67792979510017L323.04505311328046,238.7975544352721L323.2129044874986,238.8941877466096L323.9402604424439,238.4509379760687L324.08013658762565,238.63825114675083L324.4438145650983,238.69863784917618L324.5557154812437,238.84540319742172L325.05926960389814,238.04045627464092L325.283071436189,239.13905373802635L325.9265017040252,238.7191701292404L326.0104273911343,239.04112942024682L326.0384026201706,239.25386590909395L326.1503035363161,239.14966099363448L326.1782787653524,238.22194653478766L326.90563472029766,238.70724352470396L327.5490649881339,238.66064827336945L327.9127429656065,238.4960277177824L328.36034663018825,238.49530344403752L328.66807414958816,239.14142165356043L329.1156778141699,239.37572452903044L329.50733102067886,239.9160820518566L329.53530624971523,239.9599153753323L329.6192319368243,240.21552796906695L330.0948108304423,240.10097461582274L330.7662163273149,240.03179760570038L330.82216678538765,240.08343457973768L331.2138199918966,240.0327194075694L331.7453493435874,240.4049338948859L331.7733245726238,239.91331575323426L331.82927503069646,240.0301081642952L331.96915117587827,239.40188295000218L332.7524575888963,239.3719708840004L333.0042346502235,239.3510484960696L333.200061253478,239.39373344417007L333.31196216962337,239.5928622100455L333.47981354384154,239.64072079489787L333.6476649180597,239.88060567682572L333.78754106324146,240.1908678251731L333.8714667503506,240.0872142136283L333.92741720842326,239.09116256836074L334.3470456439686,238.88945823232922L334.5988227052958,239.1824834860711L334.82262453758665,239.3110059711481L335.29820343120474,239.75593035150476L335.43807957638654,239.236263682142L335.49403003445923,239.39806682523715L335.8297327828955,238.98480799948658L335.8856832409682,239.39310585129854L336.0535346151864,239.6910990224478L336.38923736362267,239.78382297288033L336.52911350880447,239.75165343968266L336.808865799168,239.84994744537076L337.08861808953156,239.6874313358677L337.8719245025496,239.6147430120195L337.9278749606223,239.79591869637983L338.0397758767677,239.5032539040951L338.45940431231304,239.14807550776808L339.60638870280366,239.33338202489026L339.69031438991277,239.34091147732013L340.1938685125672,239.4208574666872L340.5015960319671,239.8189850950288L340.6974226352216,240.43827865253795L341.1730015288397,240.25515285229193L341.25692721594874,240.01456373769386L341.39680336113054,240.1465044855362L341.53667950631234,240.1773761570422L341.70453088053046,240.30956541056105L342.04023362896675,239.34343089769456L342.0682088580031,239.7768668109165L342.54378775162115,239.63790511794286L342.6277134387302,239.97993491272976L342.8235400419847,240.06492958779353L343.57887122596634,239.95099486935396L343.6348216840391,240.39147018315077L343.83064828729357,240.1745831836089L344.334202409948,240.33455459518683L344.39015286802066,240.67066069912053L344.5859794712752,240.5395686046396L344.8377565326024,240.79350034859775L345.117508822966,240.78688813379605L345.1454840520023,240.91360578487007L345.4252363423659,240.88060331807668L345.53713725851134,241.0430134926434L345.5651124875477,240.80226169195703L346.0966418392385,240.15614269012124L346.23651798442023,239.81609068108355L346.2924684424929,239.89205444795599L346.4043693586384,240.13628057370144L346.6561464199656,240.0881265449702L347.15970054262,240.52294980428778L347.71920512334714,240.80756627328026L347.85908126852894,240.5813167756002L348.1108583298561,240.77468296953305L348.27870970407423,240.83606598314205L348.30668493311066,240.70822267807753L348.33466016214703,240.85956889267592L348.4185858492561,240.9640963953857L348.50251153636515,240.7307770485783L349.117966575165,240.6282171781837L349.6215206978194,240.36701344339227L349.7334216139649,240.2728041685603L349.8732977591466,239.92091881637793L350.0691243624011,240.25918286832558L350.32090142372834,240.6991729691109L350.37685188180103,239.85631094493144L350.65660417216463,240.06718472569472L350.82445554638275,240.55034791880314L350.8804060044555,240.57561191265413L351.04825737867367,240.8252660889721L351.10420783674635,240.85629041145526L351.16015829481904,240.7054603888003L351.4958610432554,240.61016952839657L351.5518115013281,240.97480781401276L351.60776195940076,241.04409734836895L352.25119222723697,240.99859869085114L352.50296928856415,241.08949888675832L352.58689497567326,240.7986914624064L353.034498640255,240.2431922907381L353.3142509306185,239.99861862944041L353.34222615965484,239.95850153633688L353.3981766177276,240.28116667780074L353.56602799194576,240.50694769120312L353.7338793661639,240.53955708317986L353.9297059694184,240.63933781322822L354.06958211460017,241.11942768255776L354.26540871785465,241.32265733009822L354.4332600920728,240.90669726766137L354.79693806954543,240.91858988916945L355.5242940244907,240.54502796256864L356.08379860521785,240.11014093826313L356.1677242923269,240.21190552833173L356.27962520847234,240.41479087959476L356.30760043750865,240.3829053239347L356.5034270407632,240.50294493178703L356.9790059343813,239.94528301277998L357.28673345378115,240.3255607729234L357.5944609731811,240.76791123594177L357.79028757643556,240.94119848312795L357.95813895065373,241.00601679592677L358.6295444475263,240.45879937491978L360.16818204452596,240.92717828852443L360.2800829606714,240.98736965210136L360.64376093814406,240.51476926352464L360.9514884575439,240.86503873854207L361.06338937368935,240.7055444248033L361.2871912059802,240.7118063023717L361.3151664350166,240.25645128385136L361.427067351162,240.4128656842887L361.67884441248924,240.908976231081L361.70681964152556,240.39201487332724L361.9865719318891,239.44260296048313L362.0145471609255,239.91147864740879L362.0425223899619,240.06950855909938L362.2663242222527,240.5212616665227L362.82582880297986,240.91655042683573L363.49723429985244,240.94442173275132L363.66508567407055,240.8307703024498L363.6930609031069,241.0201397269541L363.776986590216,241.21282978666122L364.05673888057953,241.4825913117821L364.30851594190676,240.4637728475982L364.3924416290159,240.99254213836522L364.67219391937937,241.21704102272588L364.81207006456117,241.13794852983355L365.81917830987,241.3537430143604L366.0709553711972,241.62040893495598L366.12690582926996,240.53497720673914L366.23880674541533,240.87215478901578L366.40665811963345,241.3414947293515L366.4905838067426,241.57019760152997L366.68641040999705,241.45282553135723L366.91021224228797,241.5340013426698L366.994137929397,241.62301405180068L367.21793976168783,241.66927617604722L367.3298406778333,241.51238821558832L367.44174159397875,241.61426530023328L368.0851718618149,241.46878861799792L368.19707277796033,240.91028588995763L368.3928993812149,241.28094302576042L368.50480029736025,241.23567291496866L368.8125278167602,241.52909352021337L369.14823056519646,241.40080204285945L369.5958342297782,241.67215272348815L370.29521495568713,241.48915377647796L370.7148433912325,241.55930561006952L371.1064965977415,241.63294083472292L371.2183975138869,241.915242378146L371.3302984300323,241.608768931643L371.5541002623231,241.73770740199748L371.7219516365413,241.59554046406706L371.74992686557766,241.6885598274686L372.22550575919576,241.67439374497457L372.47728282052293,241.7575726648948L372.6451341947411,241.61171612553466L372.8689360270319,241.85245402722953L372.95286171414097,241.73865128117907L373.5683167529408,240.70172148551356L374.04389564655895,240.86225984351086L374.1557965627044,241.3952124169906L374.3795983949952,241.6448126040465L374.46352408210424,241.58771654627907L374.6313754563224,241.41456067095277L375.1349295789768,241.53289414876525L375.19088003704957,241.67436596173758L375.694434159704,241.6365484307079L375.8063350758494,241.86002718277652L375.8902607629585,241.92180244506184L376.3938148856129,241.87271577561006L376.50571580175836,241.61090724616344L376.7015424050128,241.43577591228768L377.06522038248545,241.6369039439109L377.23307175670357,241.58377020133432L377.6247249632126,241.61526356513187L377.9604277116489,241.67972736472012L378.1562543149034,241.82999415189053L378.38005614719424,241.6431530133212L378.6038579794851,241.72441362615285L378.6318332085214,241.60347628284822L378.88361026984865,241.75867891158L379.24728824732125,241.89189915998423L379.35918916346674,241.66932581716898L379.75084236997566,241.8672938348915L380.08654511841195,241.88255251396993L380.1145203474483,241.82943692584087L380.31034695070286,242.13277760432533L380.7020001572118,241.80115937289364L380.86985153142996,242.1607736506568L381.06567813468445,242.05948208191774L381.12162859275725,241.77059384896725L381.3734056540844,241.45542951309326L381.4293561121571,241.6435334052412L381.4573313411935,241.60820687707397L381.98886069288426,241.60179052263533L382.0727863799934,241.7741982026265L382.32456344132055,242.16407139807555L382.6882414187932,242.35041418862454L383.07989462530213,242.00364450313435L383.35964691566573,242.09850936408304L383.80725058024746,242.14845781737554L384.1149780996474,242.09031578587536L384.6185322223018,241.74311980394978L384.8982845126653,241.794416561176L384.9262597417017,242.00791442406015L385.0941111159199,240.98988479423355L385.28993771917436,241.19060520680742L385.40183863531973,241.41117276141276L385.4298138643561,241.4502340514907L385.45778909339253,241.71881895112142L386.0732441321924,241.75128378477353L386.1012193612287,242.00900508253636L386.2131202773741,241.76639516017255L386.26907073544686,241.62071524032496L386.5208477967741,241.45295019653418L386.63274871291947,241.78651073705814L387.44403035497385,241.68193788923992L387.4720055840102,241.7928138576443L387.7237826453374,241.7402021959611L387.80770833244645,241.93180167153108L388.003534935701,241.8359205847564L388.2832872260645,241.95244247662103L388.31126245510086,242.19187787938023L388.3392376841373,242.03741111048276L388.36721291317355,241.92635151076405L388.5070890583554,241.89851215445307L388.6749404325735,241.97251603242643L388.786841348719,241.97006263845677L388.8427918067917,241.9402526620902L389.2903954713734,241.94889172425943L389.45824684559153,242.2929011617031L389.4862220746279,242.40699461749432L389.7100239069187,242.48319146061664L390.24155325860954,242.3755305829897L390.71713215222763,242.5660486817314L391.44448810717284,242.3738812603736L392.08791837500905,241.96866513086428L392.2837449782636,242.2131438896641L392.4515963524817,242.3014251174366L392.5355220395908,242.5873176567945L393.40275413971784,242.5601019246905L393.43072936875416,242.35303194192247L393.8783330333359,242.0685491495521L393.90630826237225,241.85967417854457L394.18606055273585,242.10977361510564L394.2699862398449,242.38367508374313L394.3259366979176,242.32596696381685L394.6336642173176,242.44697165260945L394.8015155915357,242.3748662155596L394.88544127864475,242.55168415202522L394.9973421947901,242.24397208312848L395.50089631744464,242.38485093705188L395.5288715464809,242.4440208570973L395.6407724626264,242.52205322751635L395.72469814973545,242.20626281877912L395.78064860780813,241.9709050777983L396.17230181431717,242.10536332931636L396.2842027304626,242.1594019541119L396.5919302498625,242.1520379850574L396.6758559369716,242.1982552485409L397.2353605176987,242.21011694111306L397.4591623499896,242.28128927158716L397.73891464035313,242.2613609563573L397.7668898693895,242.47206432523896L398.0746173887894,241.96834571788858L398.71804765662563,241.78257152755933L398.85792380180743,241.80435935542644L399.3335026954255,242.0282821324533L399.9769329632617,242.0407026214474L400.5644127730252,242.01241281558282L400.5923880020615,242.19083464384127L400.70428891820694,242.39069710099665L400.81618983435243,242.11367699651942L401.31974395700684,242.31915847492007L401.48759533122495,242.2158246559782L401.5155705602613,242.2515150362516L402.6905301797883,242.25683679079847L402.91433201207917,242.4795292356566L403.13813384437003,242.2731740764576L403.1661090734064,241.54004154829073L403.64168796702444,241.96768265155072L403.8654897993153,242.41716637101928L404.00536594449704,242.55222498875193L404.11726686064253,242.61052758299482L404.4249943800424,242.76487937177714L404.7606971284787,242.62158942998542L404.84462281558774,242.42005847674943L404.9005732736605,242.54287650223705L405.01247418980586,242.42081864791277L405.2362760220968,242.3393808376901L406.9147897642782,242.4961455945848L407.08264113849634,242.54500148602565L407.11061636753266,242.756595621613L407.1665668256054,242.86541190743978L407.58619526115075,242.80529002792252L407.78202186440524,242.86013503210992L408.4254521322414,242.70180033982777L408.5373530483869,242.63079272776756L408.84508056778674,242.28669019926303L408.9290062548959,242.31305219145588L409.40458514851395,242.5061841256322L409.57243652273206,242.63303517930018L409.9361145002047,242.5152731933382L410.4956190809319,242.0258730521593L410.7473961422591,242.30151914842054L411.139049348768,242.39317817467446L411.1949998068408,242.55876383027683L411.2509502649135,242.6304631132859L411.5027273262407,242.79743130185446L411.7545043875679,242.42187363312385L411.9783062198588,242.48297605477265L412.5378108005859,242.42961413759141L412.59376125865856,242.5620585007316L412.67768694576773,242.47280360355637L412.7336374038404,242.37148494401376L412.90148877805854,242.37135858397127L413.2371915264948,242.44624036933763L413.2651667555312,242.2797356737553L413.4609933587857,242.14182040304607L413.54491904589474,242.0791570095267L413.68479519107655,241.9704837995461L413.88062179433103,242.27314425193066L413.9365722524037,242.4963519782609L415.36330893325794,242.54748283321828L415.67103645265786,242.69800377599233L415.7549621397669,242.90043418184837L415.8948382849487,242.98524229957658L416.3424419495304,242.8092766518617L416.4543428656758,242.2468731642694L416.48231809471224,242.51581883746687L416.5382685527849,242.59623309164155L416.622194239894,242.04038447587152L416.8180208431485,242.37287389802083L416.92992175929396,242.53324080396754L417.0418226754393,242.59160407009207L417.29359973676657,242.72035441627503L417.3215749658029,242.92271357384433L417.46145111098474,242.9353215323346L417.5733520271301,242.73509893619732L417.6013272561665,242.8660770354827L418.02095569171183,242.7959211513681L418.88818779183885,242.79171371356995L419.22389054027514,242.55579394500248L419.4197171435297,242.81118187826382L419.5595932887115,242.61336122592795L419.95124649522046,242.84926750747528L420.20302355654763,241.6631304304118L420.622651992093,242.1471891348352L420.93037951149296,242.33993151274493L421.12620611474745,242.6764401613355L421.15418134378376,242.79269898763275L421.2381070308928,242.8564551739277L421.405958405111,242.94419369950384L422.46901710849255,242.1210146978648L422.5529427956016,242.2115834289402L422.60889325367435,242.17990622072847L422.69281894078347,242.43811984922593L422.7207941698197,242.42394874367213L422.8326950859652,242.57486016542197L423.72790241512865,242.78934595826394L424.1195556216376,242.80918817562022L424.87488680561927,242.87280226899003L425.04273817983744,242.90022060570138L425.1546390959828,242.8781037548592L425.6581932186373,242.97872923574414L425.798069363819,242.59512185600434L426.0498464251462,242.49010671643612L426.2176977993644,242.69770981762827L426.30162348647343,242.8655589954694L426.3855491735825,242.88785763460953L426.97302898334596,242.9883922828053L427.28075650274593,242.92353252450334L427.6444344802186,242.92621328418826L427.6724097092549,242.97452426538183L427.95216199961845,243.0768082299233L428.03608768672757,242.94170807346484L428.147988602873,243.06585942056375L428.6235674964911,242.98670034645372L428.6795179545638,243.14100216448247L428.76344364167284,243.22856525642075L429.3509234514363,243.24507214806815L429.4068739095091,243.03119829183822L429.54675005469085,242.9909680775251L429.8544775740907,243.08932223890196L430.05030417734525,242.95948799903377L430.0782794063816,242.88127886931764L430.19018032252706,242.92084379459172L430.6657592161451,242.77876687380044L430.8336105903632,242.79739137569098L431.1133628807268,242.6342157162722L431.1693133387995,242.4950701080087L431.3371647130176,242.72476475011044" fill="none"></path></g></g></g></g><g opacity="0.2"><g><g><g><path style="fill: none;" stroke="rgb(0, 119, 187)" stroke-width="2px" d="M180.09163273749715,-41.82888978200481L180.25948411171527,96.52306809417962L180.707087776297,200.34270835835855L180.76303823436967,194.5079912546605L180.8469639214788,198.03544639395776L181.15469144087868,185.19633153015533L181.57431987642406,168.98250484972905L181.65824556353311,164.81481134483184L182.21775014426026,155.1234982823533L182.44155197655112,154.1211838783668L182.55345289269653,155.07744854367087L183.1129574734237,134.19972873306185L183.92423911547803,156.26923653341925L184.0081648025871,152.15522609025538L184.2599418639143,147.64066074297938L184.5676693833142,135.682928077698L184.707545528496,184.36773407278204L184.76349598656873,172.3295560784817L184.9033721317505,171.4432595379335L185.9944060641684,179.10765871652117L186.1342822093502,183.57856664410744L186.55391064489558,168.90413958923182L186.72176201911373,176.47825514703942L186.8616381642955,180.1043430043241L187.05746476755,187.78670379077053L187.22531614176813,186.2279638514357L187.7568454934589,181.2179530838578L188.20444915804063,165.37373488394763L188.26039961611332,190.93689310723371L188.48420144840418,185.74006528482357L188.81990419684047,174.74967016693088L189.07168125816767,177.1834079836196L189.29548309045853,185.57928511541374L189.74308675504022,190.35334021174148L189.85498767118568,184.9605680130411L191.36565003914893,199.05761032018876L191.3936252681853,181.18044459651867L191.86920416180337,187.68234487953148L191.95312984891245,197.7910407445788L192.0370555360215,181.95914923249035L192.45668397156686,195.2472658619335L192.54060965867592,186.61947309959768L192.5685848877123,189.40880175258428L192.84833717807584,189.62136265778153L193.3239160716939,198.85075639282948L193.37986652976662,200.8748792378955L193.9673463395301,201.98086079823162L194.4429252331482,202.0368593173033L194.58280137832995,200.98001156953177L195.3381325623116,204.5164475127584L195.6178848526752,205.64238187818705L195.78573622689333,210.42483891410959L195.9815628301478,200.88043249242472L196.0095380591842,201.40684835558972L196.42916649472951,200.39704954800763L196.93272061738392,193.28287413003017L196.98867107545666,204.2845078629497L197.32437382389293,191.122422729355L197.52020042714744,188.9237999095717L197.5481756561838,202.09775776684194L197.6041261142565,201.55274618716956L197.68805180136556,197.92892094483577L197.7440022594383,203.38175091872998L198.07970500787457,204.4543072671161L198.35945729823814,200.7583569698503L198.8350361918562,202.01817713143475L199.56239214680147,204.16675100458096L199.6742930629469,195.80477706814997L199.78619397909233,196.5563495401243L200.0099958113832,205.52950333294498L200.2617728727104,213.4568966716389L200.37367378885583,199.18180434211212L200.62545085018306,206.7690272139188L200.73735176632846,205.66511371247094L200.98912882765566,198.08867308961825L201.10102974380112,209.24478673821488L201.1569802018738,200.6912279224532L201.21293065994652,187.3159213538189L201.40875726320104,199.23122158202725L201.54863340838278,200.14949737465233L201.60458386645553,209.1259057781508L201.7444600116373,213.462930311508L201.80041046971004,206.6463560135229L201.91231138585545,213.25325171835013L202.0242123020009,213.04643622181806L202.19206367621902,217.26130116516637L202.22003890525536,209.57024300214115L202.86346917309157,214.2345444598628L202.97537008923703,212.31271486907426L203.89855264743682,218.51305325496728L204.09437925069128,211.69928921122056L204.26223062490942,206.2444248054119L204.65388383141843,211.53618157483893L204.76578474756386,211.82334151946867L204.96161135081834,221.5852616192051L205.01756180889106,216.98150792972396L205.1854131831092,214.41038951353178L205.24136364118192,209.41620744290344L205.63301684769093,211.262546879454L205.66099207672727,215.58150171825102L205.94074436709084,213.24531094868163L206.0246700541999,213.82408401004193L206.2764471155271,201.58510974751837L206.38834803167254,213.19473838202407L206.50024894781797,207.08614879219786L206.75202600914517,214.80760333760503L206.7800012381815,216.68262177894735L206.94785261239969,200.32036083234658L206.97582784143603,214.11764749125248L207.11570398661783,204.6254205251871L207.61925810927224,213.45412965208112L207.7031837963813,204.81457705662461L207.9549608577085,209.6851247542506L208.79421772879923,217.71363920699267L209.1578957062719,204.84890539301358L209.32574708049,210.3480637290874L209.4096727675991,219.68974993926278L209.4656232256718,215.88533103417512L209.5775241418172,214.43052726698022L209.74537551603535,215.44124841441493L209.88525166121715,218.13594115544197L210.16500395158073,218.15837034696173L210.33285532579885,213.37954022035544L210.47273147098065,215.7218078644745L210.7524837613442,219.22077134926246L210.892359906526,217.2634268702954L211.92744338087118,217.052633783149L212.03934429701664,208.31142204206367L212.06731952605298,218.55738801798628L212.09529475508933,218.3630481287313L212.59884887774376,212.64853784863547L212.93455162618002,216.51014662843775L212.96252685521637,221.83022931943174L213.13037822943454,218.26932975277094L213.32620483268903,213.41221843310188L214.0535607876343,218.38438444360278L214.38926353607062,213.74947055904926L214.69699105547053,220.69933977922204L214.7809167425796,217.7473190231728L214.86484242968865,208.17914313486986L215.4243470104158,215.31685743450223L215.59219838463392,221.03995700447538L215.78802498788843,208.51541767665057L215.95587636210658,219.695598630776L216.4034800266883,217.6741515320532L216.48740571379736,220.44713267192316L216.7951332331973,220.9783884173876L216.87905892030636,220.98703295157904L216.96298460741542,213.03289656101308L216.99095983645176,217.7408049979638L218.3337708301969,216.3238628013328L218.41769651730596,217.61806894554704L218.50162220441504,221.50661293135732L218.5295974334514,222.13540371430759L219.14505247225125,220.80746010767245L219.48075522068754,221.6774355562977L219.53670567876026,218.52842558584393L219.64860659490566,218.79666315193515L219.7605075110511,213.38178602181944L219.87240842719652,223.19017139355736L220.57178915310544,221.14919182691438L220.59976438214179,222.62593719450902L220.90749190154173,216.45059085592413L221.1312937338326,216.13194885804432L221.243194649978,223.22489604785176L221.2991451080507,218.54843843910402L221.77472400166877,220.80515906189433L222.19435243721415,225.3521119887862L222.30625335335958,224.4210975779104L223.0056340792685,221.0117535811701L223.4532377438502,220.72110603897272L223.48121297288654,214.46978435695655L223.9008414084319,221.6440775982953L224.01274232457735,224.58497262987254L224.46034598915907,225.85643252824266L224.4883212181954,224.00638691879482L224.85199919566804,222.85528996926234L225.10377625699525,217.6191378029283L225.24365240217705,225.29117270649365L225.3835285473588,221.39336929325688L225.4674542344679,224.17457102725578L225.60733037964965,219.3066762576694L225.69125606675874,220.17014008301234L226.02695881519503,221.73116425463834L226.2507606474859,221.81315882637855L226.44658725074038,219.1522443805263L226.6424138539949,221.27495670889917L226.8941909153221,220.2179336204786L227.0060918314675,224.1313159302882L227.06204228954024,216.92381605232913L227.11799274761296,224.0804743478403L227.20191843472202,228.10678324142597L227.3977450379765,221.34973349090743L227.6495220993037,224.722521364245L227.92927438966728,221.39753903800718L228.0411753058127,215.17301805410384L228.09712576388543,222.75364763712042L228.1810514509945,222.80756368574367L228.3209275961763,224.27120414126597L228.40485328328535,225.99852570793055L228.4328285123217,224.6104258471069L228.46080374135806,226.104232100048L228.99233309304887,226.79942654853213L229.24411015437607,220.72100275612465L229.4119615285942,222.74193103868035L229.60778813184868,227.7504766309716L229.63576336088505,226.2704850594426L229.88754042221225,224.8697750834467L230.08336702546677,224.3834053431788L230.67084683523026,220.9126356739893L230.7827477513757,222.1649354030777L231.06250004173924,224.7938177544657L231.1744009578847,222.164565506366L231.4261780192119,223.63385048963204L231.7898559966845,225.1406223428969L231.8737816837936,224.39967479367775L232.04163305801177,226.42884168481265L232.09758351608443,220.73904122563775L233.0487413033206,224.21118359593598L233.21659267753873,223.76749128926446L233.6921715711568,220.98380476209493L233.74812202922948,218.57976436711863L233.97192386152034,227.18463674392467L234.05584954862942,226.03068990836329L234.11180000670214,227.08061049953352L234.61535412935658,222.126016984766L235.00700733586558,225.34810797697816L235.06295779393827,220.45823437712815L235.5665119165927,227.0468129889451L235.67841283273813,226.95712864887656L235.902214665029,224.05185298928927L236.37779355864706,228.92277538748039L236.54564493286517,223.14551237043392L237.21705042973775,229.4568966314973L237.58072840721042,222.205655266414L237.66465409431947,223.85487338259156L237.69262932335582,227.37881810601752L237.74857978142853,230.4507262294179L237.80453023950122,228.20136511003477L237.91643115564668,227.43734105005035L238.02833207179208,226.41011746522685L238.2241586750466,224.97080732620697L238.64378711059194,228.2866226991962L239.59494489782807,228.03665899143462L239.70684581397353,226.1240672107323L239.902672417228,227.80593952038933L240.1544494785552,227.0947854699505L240.4901522269915,230.61125779941435L240.76990451735506,225.30133766028587L240.82585497542777,228.3278229478724L240.8818054335005,227.69141205246802L240.90978066253683,225.78518898040937L241.0216815786823,225.97115094933656L241.10560726579135,222.56175531117222L241.32940909808218,222.79539792701078L241.44131001422764,225.3865880436672L242.00081459495476,229.69877785591513L242.14069074013656,224.78397826174125L242.1686659691729,227.33079758647813L242.22461642724562,226.74542403054767L242.30854211435468,229.5496001934271L242.4204430305001,226.19423349444088L242.44841825953648,224.7042390991719L242.64424486279097,228.51540381539505L242.72817054990003,228.68698785109916L242.86804669508183,223.77442084779247L243.3995760467726,228.62067305685318L243.67932833713618,227.59243705992589L243.84717971135433,223.68971930466196L244.01503108557247,230.16042696659196L244.12693200171788,224.16614987224742L244.4626347501542,226.82954430741688L244.49060997919054,228.898884623564L245.18999070509943,228.40938757473336L245.44176776642664,225.99450127974555L245.9173466600447,228.97716701759012L246.42090078269916,229.93541567434795L246.4488760117355,233.26715582135475L246.50482646980822,226.3393843268172L246.89647967631723,228.16406198742848L247.7357365474079,224.0203349071387L247.95953837969876,227.11568823705272L248.15536498295327,229.82314481656084L248.211315441026,228.3209198105381L248.26726589909867,220.82600057986573L248.40714204428048,228.20850123425893L249.1065227701894,230.21886584319031L249.13449799922574,230.44309050444025L249.41425028958932,230.7731824868965L249.47020074766206,230.16840016227087L249.6100768928438,229.4211427516122L250.00173009935278,230.5754835031523L250.16958147357096,229.12185668004014L250.42135853489816,233.01707201725822L250.8409869704435,229.66840789472687L250.95288788658897,230.93230172399365L251.00883834466165,231.42069388654252L251.3725163221343,231.4596195106343L251.70821907057058,231.10309072196023L252.04392181900687,228.96715218421662L252.32367410937042,231.51730418224903L252.49152548358856,229.4217732573708L252.96710437720662,231.53495474060017L253.1349557514248,230.95671971082058L253.16293098046114,229.32719499165205L253.386732812752,230.29485920107186L253.55458418697015,222.86593771032116L253.72243556118826,230.77632060412935L253.86231170637006,231.06844413028355L254.50574197420625,231.8058584453278L254.70156857746076,228.84994536706205L254.84144472264254,232.55954461279768L255.20512270011517,230.80609969134952L255.40094930336969,224.88475469930802L255.82057773891503,231.28848943907641L256.1562804873513,231.6879166386032L256.24020617446035,232.91128155770627L256.6318593809694,232.07071169669945L256.65983461000576,231.7277501909874L256.71578506807845,230.35974965278504L257.6109923972419,232.758984993399L257.6389676262782,229.22530886395012L257.6669428553146,231.572469232756L257.86276945856906,231.62767871890694L258.170496977969,230.925177609403L258.59012541351433,232.96092337776778L258.73000155869613,218.59478601669719L259.5692584297868,231.60967988118435L259.9329364072595,231.7776261989021L260.1847134685867,230.28993044748452L260.4364905299139,229.5571866789074L260.604341904132,228.9997367218218L260.7162428202775,231.04609059945486L261.19182171389554,226.6070226121969L261.2477721719682,232.3917616260955L261.2757474010046,232.91033639955003L261.6114501494409,232.68871782876906L262.5905831657134,232.53774232414648L262.81438499800424,232.44588784330494L263.45781526584045,230.83481352407847L263.7095923271677,229.50395037554014L263.76554278524037,232.79456353263507L263.82149324331306,233.4943024264346L263.93339415945854,232.35255257465317L263.96136938849486,231.01075705674214L264.2690969078948,233.8498836550257L264.35302259500384,235.65796039925357L264.5768244272947,231.81712708443843L264.6607501144038,233.23373901614823L265.33215561127633,231.6582528438646L265.44405652742176,234.33379202090833L265.5000069854945,232.89496647060005L265.91963542103986,231.25303459906536L266.28331339851246,231.34071092841316L266.92674366634867,231.83892817212626L267.346372101894,234.4890543642078L267.5701739341849,233.97880947254706L267.7100500793667,233.50256625524415L267.8499262245485,233.8429096608538L267.96182714069386,233.76605881514052L268.0177775987666,233.60004124456248L268.4653812633483,232.3510081357854L268.9689353860027,232.02614875064398L268.99691061503904,233.7237128474287L269.1927372182936,233.30330121529187L269.27666290540265,231.31371927712775L269.9480684022752,235.03608716519778L270.0319940893843,232.99393065447208L270.2278206926388,233.88391415250396L270.31174637974783,232.3126181413476L270.3397216087842,233.36038780715845L270.3956720668569,231.13738543137544L270.4236472958933,233.9198902106088L271.1230280218022,232.57793976842564L271.37480508312944,232.01093134403942L272.046210580002,233.27519386905456L272.27001241229283,233.12334886696678L272.6616656188018,235.12830854034266L272.6896408478382,232.8816537918682L272.82951699302,236.04327507845755L273.16521974145627,233.73068684160063L273.9765013835106,230.49330398305625L274.03245184158334,234.11170207201258L274.088402299656,234.06213831456878L274.3122041319469,234.8387202478198L274.787783025565,234.4990685970996L274.9276591707467,233.36941184576838L275.54311420954656,232.76456346815854L275.6270398966556,233.86269072818737L275.7669160418374,233.71706671625125L276.07464356123734,231.755000049393L276.1305940193101,235.35776039457235L276.32642062256457,235.11778569947225L276.4942719967827,232.91500094120042L276.69009860003723,235.4139486658533L276.85794997425535,234.3950219363315L276.9418756613644,231.23590886169808L277.4174545549825,232.7375802236166L277.7531573034188,234.19519904890328L277.83708299052785,235.03378371749298L278.03290959378234,236.61544884621102L278.48051325836406,236.52531894873968L278.5364637164368,236.79444162481965L278.7043150906549,235.55804445192686L278.81621600680035,235.76307231451287L279.26381967138207,235.43214446156523L279.7393985650001,236.21739674971965L280.29890314572725,234.8717617519795L280.80245726838166,233.19064845115952L280.85840772645435,235.33316466516968L280.9143581845271,234.65696105013498L280.99828387163615,232.68943240196214L281.0822095587452,234.51379360873077L281.5577884523633,235.55464752709213L281.8655159717632,234.75610838091782L282.2571691782722,233.33937695335473L283.09642604936295,230.86620070122396L283.15237650743563,236.05831414200466L283.8237820043082,234.36608652586455L283.93568292045364,235.63230842258477L283.99163337852633,235.19932990995628L284.1594847527445,234.22751036734638L284.24341043985356,234.17483071049168L284.29936089792625,235.79494468085164L284.5511379592535,236.76878784670586L284.74696456250797,237.01908302035193L285.11064253998063,235.367907934396L285.3344443722715,231.77057414211242L285.6981223497441,234.83443581106957L285.75407280781684,236.93728000226605L285.8379984949259,233.51543217560993L286.1737012433622,236.37397234644206L286.2856021595076,237.21353580016182L286.4254783046894,236.35398531389401L286.4814287627621,237.46059377709867L286.76118105312565,236.96510332067118L286.8730819692711,236.50793620521554L287.68436361132547,235.86448886554504L287.8242397565072,234.04208222662814L288.0200663597617,236.3015374429658L288.74742231470697,233.4895850423968L289.25097643736143,233.68131884118287L289.4747782696523,236.2458379637682L289.6706048729068,236.53521008288814L289.7825057890522,234.57031094396956L290.0902333084521,236.48955666211114L290.2580846826703,234.32836546801252L290.4259360568884,237.17604052341957L291.04139109568825,237.6736614888295L291.3491186150882,236.81552693835107L291.48899476027,236.7321602659838L291.7407718215972,237.950752556735L291.7687470506335,235.40242782443926L292.1044497990698,236.65692891934768L292.41217731846973,234.7689646935768L292.4961030055788,236.5763779055539L292.7758552959424,236.84453800950905L294.0906910606512,235.93457588567256L294.2305672058329,234.43647378682945L294.2585424348693,235.55976483192538L294.53829472523284,236.68573342480954L296.5804864448869,238.87625934968887L296.8882139642868,237.8776361065578L296.9161891933232,235.04489503040477L296.9721396513959,235.5940943692777L297.0280901094686,236.26731659279665L297.1120157965777,238.0158435693276L297.13999102561405,236.57794876561536L297.839371751523,237.06273623667L297.97924789670475,237.79942997370438L298.0631735838138,236.9635108432694L298.28697541610467,237.37261720691345L298.5947029355046,236.08379918476783L298.8464799968318,237.32568536065062L298.9304056839409,236.5978859581844L298.95838091297725,237.76238806062668L299.3780093485226,238.5625683232184L299.8256130131043,234.96321030720884L299.99346438732243,236.36039545577324L300.10536530346786,236.68546621046423L300.3571423647951,237.40948498030545L300.4130928228678,235.1570061600664L300.664869884195,237.3836318422756L300.77677080034044,236.17982401084137L300.94462217455856,234.92289696996642L301.08449831974036,237.76050254816758L301.81185427468563,236.87728888053815L302.06363133601286,235.73877442402093L302.4832597715582,236.33577570710355L302.6790863748127,236.68050262893973L302.8469377490309,235.97455115173202L302.95883866517624,237.6802757944782L302.9868138942126,234.55819142232565L303.5183432459034,235.52535483002862L303.60226893301245,238.35077903697334L303.77012030723057,236.07740225348545L304.6093771783213,237.0009502752159L304.77722855253944,238.41426135915896L304.88912946868487,237.38843809760124L305.1968569880848,236.73106678885387L305.2528074461575,237.42973202141872L305.7283863397756,237.74301472035032L305.75636156881194,238.89681023452965L306.2878909205027,237.61264474440094L306.3158661495391,237.9398424051843L306.39979183664815,226.15207367604825L306.6515688979753,237.19207698702866L306.9592964173753,237.8510383712511L307.6586771432842,238.5498200972609L307.74260283039325,238.8795686041991L308.05033034979317,238.48984819094656L308.1342560369023,238.76638261233947L308.190206494975,237.14811692457477L308.2461569530477,236.64801476888422L308.58185970148395,238.76695427089393L309.05743859510204,237.00230616283775L309.64491840486556,236.5569006819478L309.84074500812005,237.96820975998682L310.0645468404109,238.47328750683533L310.1764477565563,235.84151383618286L310.37227435981083,238.82965476593887L310.40024958884715,237.868818633644L310.4282248178835,236.7144706763238L310.70797710824706,238.59934782580416L311.4353330631924,239.03000487627764L311.57520920837413,237.97830806031314L312.02281287295585,238.7244701923969L312.3305403923558,239.60149139275418L312.4424413085012,237.95689248186056L312.4704165375376,238.02823330772517L312.69421836982843,238.88797234523892L312.7781440569375,237.407402509857L312.86206974404655,236.8928341501372L312.94599543115567,235.7724644483895L313.19777249248284,237.90519461254428L313.30967340862827,238.76972789575018L313.50550001188276,237.80637034090253L313.53347524091913,239.53156920484645L313.7013266151373,238.0928007002973L313.8691779893554,234.49938204853387L313.9251284474281,239.23782768081932L314.00905413453717,237.8133293230326L314.98818715080967,238.90461829774796L315.32388989924596,238.17857770610746L315.85541925093673,238.95342424731808L315.9113697090095,236.45917349032604L316.44289906070026,239.72176186741396L316.49884951877294,238.57809437740383L317.0583540995001,238.4380332277037L317.7297595963727,239.79177442781378L317.81368528348173,238.85144444447488L318.1773632609544,238.8441918268058L318.40116509324525,239.8585798155881L318.65294215457243,237.99958792990716L318.7368678416815,238.10073426418566L318.79281829975423,237.0843493735936L318.82079352879055,237.6447176716191L319.2124467352996,238.05672376127106L319.43624856759044,239.5649253614038L320.0517036063903,239.33889174910834L320.2195549806084,239.15010001028833L320.3034806677175,238.22551075333365L320.499307270972,237.29621011715793L320.8629852484446,238.20318124177192L320.91893570651735,236.16342425581897L320.94691093555366,240.03830067822753L321.1427375388082,239.06979399301787L321.6462916614626,239.3373812374552L322.2897219292988,239.67987857083259L322.42959807448057,238.18858052984746L322.9891026552077,238.4183482374381L323.04505311328046,239.02266939213743L323.2129044874986,239.07603660050984L323.9402604424439,237.6168108862612L324.08013658762565,238.9907453843746L324.4438145650983,238.81227622578643L324.5557154812437,239.12159274325552L325.05926960389814,236.52567143148286L325.283071436189,241.20644320082368L325.9265017040252,237.92901451962305L326.0104273911343,239.647006702746L326.0384026201706,239.65420287513763L326.1503035363161,238.95356355906665L326.1782787653524,236.47613229378774L326.90563472029766,239.62049693800466L327.5490649881339,238.57296326149205L327.9127429656065,238.1862374503521L328.36034663018825,238.4939404735608L328.66807414958816,240.35731557522743L329.1156778141699,239.81664607854606L329.50733102067886,240.93295081959567L329.53530624971523,240.04240286878942L329.6192319368243,240.69655109214693L330.0948108304423,239.8854030317637L330.7662163273149,239.90161723794856L330.82216678538765,240.18060732915083L331.2138199918966,239.9372813458233L331.7453493435874,241.10538363614722L331.7733245726238,238.98816691606274L331.82927503069646,240.24989330672403L331.96915117587827,238.21966086085706L332.7524575888963,239.31568103068872L333.0042346502235,239.31167581791735L333.200061253478,239.47405987388078L333.31196216962337,239.96759155908487L333.47981354384154,239.73078320385636L333.6476649180597,240.33203169382534L333.78754106324146,240.7747329054925L333.8714667503506,239.89215424723426L333.92741720842326,237.21674837712237L334.3470456439686,238.50988206106527L334.5988227052958,239.73391141314158L334.82262453758665,239.5528652874457L335.29820343120474,240.59320879638344L335.43807957638654,238.25833188071869L335.49403003445923,239.7025551608024L335.8297327828955,238.20711920059574L335.8856832409682,240.16145886926174L336.0535346151864,240.25187579697362L336.38923736362267,239.95831501793063L336.52911350880447,239.69111538441445L336.808865799168,240.0349214676022L337.08861808953156,239.3816013084743L337.8719245025496,239.4779548982648L337.9278749606223,240.13686313985903L338.0397758767677,238.9525043093922L338.45940431231304,238.4796850385994L339.60638870280366,239.68210005278877L339.69031438991277,239.35508073506284L340.1938685125672,239.57130337751346L340.5015960319671,240.56819933510678L340.6974226352216,241.60369275355657L341.1730015288397,239.9105385941921L341.25692721594874,239.56181246440127L341.39680336113054,240.3947964404095L341.53667950631234,240.2354718385795L341.70453088053046,240.55832501444522L342.04023362896675,237.52531609394288L342.0682088580031,240.59252574847827L342.54378775162115,239.3764008369291L342.6277134387302,240.62358175998006L342.8235400419847,240.22487633942643L343.57887122596634,239.73658745972565L343.6348216840391,241.2203761771257L343.83064828729357,239.76643560233842L344.334202409948,240.63559589709L344.39015286802066,241.3031600820275L344.5859794712752,240.29287368332538L344.8377565326024,241.2713603739714L345.117508822966,240.77444497452942L345.1454840520023,241.15206868444167L345.4252363423659,240.8184978114021L345.53713725851134,241.3486441669722L345.5651124875477,240.3492042687633L346.0966418392385,238.94024727744474L346.23651798442023,239.17616571883107L346.2924684424929,240.0350064357592L346.4043693586384,240.59587613598322L346.6561464199656,239.99750815660857L347.15970054262,241.34121951130328L347.71920512334714,241.34317017602407L347.85908126852894,240.15555042982183L348.1108583298561,241.13856805494555L348.27870970407423,240.95157926235433L348.30668493311066,240.46764147286964L348.33466016214703,241.14437891611328L348.4185858492561,241.16080088895765L348.50251153636515,240.29170634694944L349.117966575165,240.43521546242667L349.6215206978194,239.87546866293465L349.7334216139649,240.09551697413588L349.8732977591466,239.2587253438273L350.0691243624011,240.89574317357568L350.32090142372834,241.5271658677069L350.37685188180103,238.27017578127382L350.65660417216463,240.46401636499846L350.82445554638275,241.459585858572L350.8804060044555,240.62315481750923L351.04825737867367,241.29507639772038L351.10420783674635,240.91467335837598L351.16015829481904,240.42162175827096L351.4958610432554,240.43084695824197L351.5518115013281,241.66100032267948L351.60776195940076,241.17448946921797L352.25119222723697,240.91297729788533L352.50296928856415,241.26055890960382L352.58689497567326,240.25143714511015L353.034498640255,239.19782929621536L353.3142509306185,239.53836905933267L353.34222615965484,239.88300741012182L353.3981766177276,240.88837226101666L353.56602799194576,240.93183242247622L353.7338793661639,240.60092288421964L353.9297059694184,240.82710961934222L354.06958211460017,242.02288210524418L354.26540871785465,241.70510390025368L354.4332600920728,240.1239251616923L354.79693806954543,240.94096995212274L355.5242940244907,239.84204255026216L356.08379860521785,239.2917512354635L356.1677242923269,240.40341065027633L356.27962520847234,240.7965895377353L356.30760043750865,240.3229016701998L356.5034270407632,240.7288407932497L356.9790059343813,238.8958500643315L357.28673345378115,241.04118433884182L357.5944609731811,241.60034596894167L357.79028757643556,241.2672981154409L357.95813895065373,241.12799477361446L358.6295444475263,239.4290213463388L360.16818204452596,241.80859451499086L360.2800829606714,241.1006404313974L360.64376093814406,239.6254088781051L360.9514884575439,241.52419138173045L361.06338937368935,240.4054009467877L361.2871912059802,240.72359018148467L361.3151664350166,239.39954400116028L361.427067351162,240.7072132447659L361.67884441248924,241.84257907562096L361.70681964152556,239.4191740473526L361.9865719318891,237.6559574876093L362.0145471609255,240.79382972395757L362.0425223899619,240.36689626035L362.2663242222527,241.37139071305714L362.82582880297986,241.6604223590674L363.49723429985244,240.99687119316312L363.66508567407055,240.61689599701202L363.6930609031069,241.3765035142778L363.776986590216,241.57544249268062L364.05673888057953,241.9902405218799L364.30851594190676,238.5465150461224L364.3924416290159,241.98760365672516L364.67219391937937,241.63951298666677L364.81207006456117,240.98910876655205L365.81917830987,241.7598346523893L366.0709553711972,242.12223269907398L366.12690582926996,238.49236360868258L366.23880674541533,241.50667052742108L366.40665811963345,242.22471945857117L366.4905838067426,242.0005808163212L366.68641040999705,241.2319495606863L366.91021224228797,241.68676158701308L366.994137929397,241.7905221182631L367.21793976168783,241.75633429458605L367.3298406778333,241.2171494888458L367.44174159397875,241.80598211946435L368.0851718618149,241.1950241410535L368.19707277796033,239.85927066975503L368.3928993812149,241.97846207382733L368.50480029736025,241.150481611375L368.8125278167602,242.0812654372876L369.14823056519646,241.15937744714736L369.5958342297782,242.18279247694798L370.29521495568713,241.14477823642707L370.7148433912325,241.69132044388869L371.1064965977415,241.77151086843674L371.2183975138869,242.4464899512159L371.3302984300323,241.03203359859847L371.5541002623231,241.98034953785188L371.7219516365413,241.32800441084356L371.74992686557766,241.8636077937545L372.22550575919576,241.64773538224074L372.47728282052293,241.91410244791473L372.6451341947411,241.3372368165947L372.8689360270319,242.30548529468416L372.95286171414097,241.52449222304955L373.5683167529408,238.75038097666751L374.04389564655895,241.1643680503472L374.1557965627044,242.39814622241505L374.3795983949952,242.11452131340528L374.46352408210424,241.48027065082627L374.6313754563224,241.08870826003607L375.1349295789768,241.75557933900032L375.19088003704957,241.940593897965L375.694434159704,241.56538172245902L375.8063350758494,242.28057941649638L375.8902607629585,242.03805387524145L376.3938148856129,241.78034230254946L376.50571580175836,241.11822433628265L376.7015424050128,241.10620599580096L377.06522038248545,242.01539559996274L377.23307175670357,241.48378076645673L377.6247249632126,241.67452917481432L377.9604277116489,241.80103820371468L378.1562543149034,242.11277286088847L378.38005614719424,241.29154706667634L378.6038579794851,241.87733345375827L378.6318332085214,241.37589102296945L378.88361026984865,242.05074610628276L379.24728824732125,242.1425989357997L379.35918916346674,241.25047742276442L379.75084236997566,242.2398388365423L380.08654511841195,241.911266973446L380.1145203474483,241.72948165480838L380.31034695070286,242.7036175554791L380.7020001572118,241.17710546763453L380.86985153142996,242.8375117583783L381.06567813468445,241.86886711250386L381.12162859275725,241.22695115122468L381.3734056540844,240.8623392787252L381.4293561121571,241.9975156576118L381.4573313411935,241.54172784856337L381.98886069288426,241.58971594209228L382.0727863799934,242.09864262635628L382.32456344132055,242.89775208000128L382.6882414187932,242.7010823218478L383.07989462530213,241.35107791920043L383.35964691566573,242.2770302695571L383.80725058024746,242.24245303351387L384.1149780996474,241.98090153063148L384.6185322223018,241.0897509964645L384.8982845126653,241.89094907549512L384.9262597417017,242.40968417755684L385.0941111159199,239.0741114562602L385.28993771917436,241.5683297872418L385.40183863531973,241.82624657454616L385.4298138643561,241.52374132071512L385.45778909339253,242.22425393515272L386.0732441321924,241.81237754954253L386.1012193612287,242.4939964584416L386.2131202773741,241.3098410411421L386.26907073544686,241.34656830182217L386.5208477967741,241.1372424916483L386.63274871291947,242.41421976576754L387.44403035497385,241.48514806323038L387.4720055840102,242.00146517570784L387.7237826453374,241.64119523607891L387.80770833244645,242.29236206792072L388.003534935701,241.6554873004225L388.2832872260645,242.17171854402045L388.31126245510086,242.6424580465323L388.3392376841373,241.746728689474L388.36721291317355,241.71735462714352L388.5070890583554,241.8461228182252L388.6749404325735,242.11177981431868L388.786841348719,241.965445732802L388.8427918067917,241.8841549255848L389.2903954713734,241.96514909485464L389.45824684559153,242.9402733883622L389.4862220746279,242.62170074611583L389.7100239069187,242.62658206165082L390.24155325860954,242.17292956543824L390.71713215222763,242.92457409521356L391.44448810717284,242.0122520783948L392.08791837500905,241.20611143469833L392.2837449782636,242.6732148680396L392.4515963524817,242.46755664981538L392.5355220395908,243.1253229253844L393.40275413971784,242.5088861521721L393.43072936875416,241.96335845850018L393.8783330333359,241.5331968054085L393.90630826237225,241.46660398814706L394.18606055273585,242.5804218343402L394.2699862398449,242.8991150232828L394.3259366979176,242.21736926262992L394.6336642173176,242.67468364621632L394.8015155915357,242.23917500405076L394.88544127864475,242.8844279921176L394.9973421947901,241.66490585549283L395.50089631744464,242.64996301662526L395.5288715464809,242.55536943862379L395.6407724626264,242.66889800527895L395.72469814973545,241.61199441271165L395.78064860780813,241.52799843554914L396.17230181431717,242.35839283433444L396.2842027304626,242.26109423650811L396.5919302498625,242.13818014127474L396.6758559369716,242.28522894610492L397.2353605176987,242.23243880062205L397.4591623499896,242.41522452173004L397.73891464035313,242.2238589683311L397.7668898693895,242.868575275901L398.0746173887894,241.02042568734157L398.71804765662563,241.43297341146427L398.85792380180743,241.84536065685938L399.3335026954255,242.4496699520456L399.9769329632617,242.0640760488628L400.5644127730252,241.95917580339386L400.5923880020615,242.52659675869072L400.70428891820694,242.7668071428482L400.81618983435243,241.5923682696502L401.31974395700684,242.70584264032533L401.48759533122495,242.0213664894968L401.5155705602613,242.31867877780357L402.6905301797883,242.26685150468634L402.91433201207917,242.89860176157123L403.13813384437003,241.8848457797517L403.1661090734064,240.16040022006894L403.64168796702444,242.7724366585501L403.8654897993153,243.26302478258398L404.00536594449704,242.80638428955723L404.11726686064253,242.72024399233374L404.4249943800424,243.05534541810238L404.7606971284787,242.3519400582563L404.84462281558774,242.04080858492492L404.9005732736605,242.77400091331313L405.01247418980586,242.19112476066846L405.2362760220968,242.1861275521702L406.9147897642782,242.79115247139248L407.08264113849634,242.6369406707832L407.11061636753266,243.15478285659438L407.1665668256054,243.0701872234193L407.58619526115075,242.69215000681368L407.78202186440524,242.9633447950332L408.4254521322414,242.40383908893364L408.5373530483869,242.49716745204617L408.84508056778674,241.6391427897142L408.9290062548959,242.36266135832025L409.40458514851395,242.8696283706383L409.57243652273206,242.87174912179353L409.9361145002047,242.29366346183056L410.4956190809319,241.10489814671308L410.7473961422591,242.82024220564986L411.139049348768,242.56566619814362L411.1949998068408,242.87037026574762L411.2509502649135,242.76539000609552L411.5027273262407,243.1116394492183L411.7545043875679,241.71513254470568L411.9783062198588,242.59796130358149L412.5378108005859,242.3291953136164L412.59376125865856,242.8112981812231L412.67768694576773,242.30483977688368L412.7336374038404,242.1808189939235L412.90148877805854,242.37112079403542L413.2371915264948,242.5871562363239L413.2651667555312,241.96639974806297L413.4609933587857,241.88228532589008L413.54491904589474,241.96123425457532L413.68479519107655,241.76597773004363L413.88062179433103,242.8427041234209L413.9365722524037,242.91639418371804L415.36330893325794,242.64370314528514L415.67103645265786,242.98126076628463L415.7549621397669,243.28137670353135L415.8948382849487,243.14483797933605L416.3424419495304,242.47813668656536L416.4543428656758,241.18851732162463L416.48231809471224,243.02193274120737L416.5382685527849,242.7475602039644L416.622194239894,240.99436388192967L416.8180208431485,242.99856724863608L416.92992175929396,242.83502636472602L417.0418226754393,242.70143465447052L417.29359973676657,242.96264253171447L417.3215749658029,243.3035220173393L417.46145111098474,242.95904774816785L417.5733520271301,242.35831116882667L417.6013272561665,243.11255743557876L418.02095569171183,242.66389869509482L418.88818779183885,242.7837959703936L419.22389054027514,242.11182965429768L419.4197171435297,243.29178222529455L419.5595932887115,242.24109354300197L419.95124649522046,243.29320641770693L420.20302355654763,239.43100503755176L420.622651992093,243.05811228753976L420.93037951149296,242.70264267347994L421.12620611474745,243.30969707064284L421.15418134378376,243.01148000657247L421.2381070308928,242.97643439482286L421.405958405111,243.1093039508041L422.46901710849255,240.57191991956427L422.5529427956016,242.38201968655474L422.60889325367435,242.12029464446832L422.69281894078347,242.92403771495748L422.7207941698197,242.39728092832158L422.8326950859652,242.85885197638066L423.72790241512865,243.1929748421999L424.1195556216376,242.84652814084689L424.87488680561927,242.99251409311253L425.04273817983744,242.95181764856156L425.1546390959828,242.83648328338967L425.6581932186373,243.16809073147286L425.798069363819,241.87323246415974L426.0498464251462,242.29248456618237L426.2176977993644,243.08838654696106L426.30162348647343,243.18142502754503L426.3855491735825,242.92982020336603L426.97302898334596,243.17758284554836L427.28075650274593,242.8014765528285L427.6444344802186,242.9312580567365L427.6724097092549,243.06543801385277L427.95216199961845,243.26929073380103L428.03608768672757,242.68747060324185L428.147988602873,243.29949293542134L428.6235674964911,242.83773528768177L428.6795179545638,243.43137417362598L428.76344364167284,243.39334536891562L429.3509234514363,243.2761355493527L429.4068739095091,242.62872097737673L429.54675005469085,242.91526107479754L429.8544775740907,243.27440946477824L430.05030417734525,242.71516016435388L430.0782794063816,242.73410145806514L430.19018032252706,242.99529882687978L430.6657592161451,242.51140021882438L430.8336105903632,242.83243978991152L431.1133628807268,242.3271445185763L431.1693133387995,242.23321972704022L431.3371647130176,243.15701432155842" fill="none"></path></g></g></g></g></g></g><g transform="translate(58, 374)" clip-path="url(#clip_1)"><clipPath id="clip_1"><rect width="1375" height="25"></rect></clipPath><g><g><line x1="11.70872916766549" y1="0" x2="11.70872916766549" y2="5" style="visibility: inherit;" fill="rgb(0, 0, 0)" stroke="rgb(204, 204, 204)" stroke-width="1px"></line><line x1="151.58487434944954" y1="0" x2="151.58487434944954" y2="5" style="visibility: inherit;" fill="rgb(0, 0, 0)" stroke="rgb(204, 204, 204)" stroke-width="1px"></line><line x1="291.4610195312336" y1="0" x2="291.4610195312336" y2="5" style="visibility: inherit;" fill="rgb(0, 0, 0)" stroke="rgb(204, 204, 204)" stroke-width="1px"></line><line x1="431.3371647130176" y1="0" x2="431.3371647130176" y2="5" style="visibility: inherit;" fill="rgb(0, 0, 0)" stroke="rgb(204, 204, 204)" stroke-width="1px"></line><line x1="571.2133098948017" y1="0" x2="571.2133098948017" y2="5" style="visibility: inherit;" fill="rgb(0, 0, 0)" stroke="rgb(204, 204, 204)" stroke-width="1px"></line><line x1="711.0894550765858" y1="0" x2="711.0894550765858" y2="5" style="visibility: inherit;" fill="rgb(0, 0, 0)" stroke="rgb(204, 204, 204)" stroke-width="1px"></line><line x1="850.9656002583699" y1="0" x2="850.9656002583699" y2="5" style="visibility: inherit;" fill="rgb(0, 0, 0)" stroke="rgb(204, 204, 204)" stroke-width="1px"></line><line x1="990.8417454401538" y1="0" x2="990.8417454401538" y2="5" style="visibility: inherit;" fill="rgb(0, 0, 0)" stroke="rgb(204, 204, 204)" stroke-width="1px"></line><line x1="1130.7178906219378" y1="0" x2="1130.7178906219378" y2="5" style="visibility: inherit;" fill="rgb(0, 0, 0)" stroke="rgb(204, 204, 204)" stroke-width="1px"></line><line x1="1270.594035803722" y1="0" x2="1270.594035803722" y2="5" style="visibility: inherit;" fill="rgb(0, 0, 0)" stroke="rgb(204, 204, 204)" stroke-width="1px"></line></g><g transform="translate(0, 8)"><text style="text-anchor: middle; visibility: inherit; font-family: &quot;Helvetica Neue&quot;, sans-serif; font-size: 12px; font-weight: 200;" x="11.70872916766549" y="0" dx="0em" dy="0.95em" fill="rgb(50, 49, 63)" stroke="none" stroke-width="1px">-5k</text><text style="text-anchor: middle; visibility: inherit; font-family: &quot;Helvetica Neue&quot;, sans-serif; font-size: 12px; font-weight: 200;" x="151.58487434944954" y="0" dx="0em" dy="0.95em" fill="rgb(50, 49, 63)" stroke="none" stroke-width="1px">0</text><text style="text-anchor: middle; visibility: inherit; font-family: &quot;Helvetica Neue&quot;, sans-serif; font-size: 12px; font-weight: 200;" x="291.4610195312336" y="0" dx="0em" dy="0.95em" fill="rgb(50, 49, 63)" stroke="none" stroke-width="1px">5k</text><text style="text-anchor: middle; visibility: inherit; font-family: &quot;Helvetica Neue&quot;, sans-serif; font-size: 12px; font-weight: 200;" x="431.3371647130176" y="0" dx="0em" dy="0.95em" fill="rgb(50, 49, 63)" stroke="none" stroke-width="1px">10k</text><text style="text-anchor: middle; visibility: inherit; font-family: &quot;Helvetica Neue&quot;, sans-serif; font-size: 12px; font-weight: 200;" x="571.2133098948017" y="0" dx="0em" dy="0.95em" fill="rgb(50, 49, 63)" stroke="none" stroke-width="1px">15k</text><text style="text-anchor: middle; visibility: inherit; font-family: &quot;Helvetica Neue&quot;, sans-serif; font-size: 12px; font-weight: 200;" x="711.0894550765858" y="0" dx="0em" dy="0.95em" fill="rgb(50, 49, 63)" stroke="none" stroke-width="1px">20k</text><text style="text-anchor: middle; visibility: inherit; font-family: &quot;Helvetica Neue&quot;, sans-serif; font-size: 12px; font-weight: 200;" x="850.9656002583699" y="0" dx="0em" dy="0.95em" fill="rgb(50, 49, 63)" stroke="none" stroke-width="1px">25k</text><text style="text-anchor: middle; visibility: inherit; font-family: &quot;Helvetica Neue&quot;, sans-serif; font-size: 12px; font-weight: 200;" x="990.8417454401538" y="0" dx="0em" dy="0.95em" fill="rgb(50, 49, 63)" stroke="none" stroke-width="1px">30k</text><text style="text-anchor: middle; visibility: inherit; font-family: &quot;Helvetica Neue&quot;, sans-serif; font-size: 12px; font-weight: 200;" x="1130.7178906219378" y="0" dx="0em" dy="0.95em" fill="rgb(50, 49, 63)" stroke="none" stroke-width="1px">35k</text><text style="text-anchor: middle; visibility: inherit; font-family: &quot;Helvetica Neue&quot;, sans-serif; font-size: 12px; font-weight: 200;" x="1270.594035803722" y="0" dx="0em" dy="0.95em" fill="rgb(50, 49, 63)" stroke="none" stroke-width="1px">40k</text></g><line x1="0" y1="0" x2="1375.2799978256226" y2="0" fill="rgb(0, 0, 0)" stroke="rgb(204, 204, 204)" stroke-width="1px"></line></g></g></g></g></svg>