<svg viewBox="0 0 1434 400" xmlns="http://www.w3.org/2000/svg"><g><g><g><g><g><line x1="29.488000869750977" y1="374.5999984741211" x2="24.488000869750977" y2="374.5999984741211" style="visibility: inherit;" fill="rgb(0, 0, 0)" stroke="rgb(204, 204, 204)" stroke-width="1px"></line><line x1="29.488000869750977" y1="332.977776421441" x2="24.488000869750977" y2="332.977776421441" style="visibility: inherit;" fill="rgb(0, 0, 0)" stroke="rgb(204, 204, 204)" stroke-width="1px"></line><line x1="29.488000869750977" y1="291.35555436876086" x2="24.488000869750977" y2="291.35555436876086" style="visibility: inherit;" fill="rgb(0, 0, 0)" stroke="rgb(204, 204, 204)" stroke-width="1px"></line><line x1="29.488000869750977" y1="249.73333231608075" x2="24.488000869750977" y2="249.73333231608075" style="visibility: inherit;" fill="rgb(0, 0, 0)" stroke="rgb(204, 204, 204)" stroke-width="1px"></line><line x1="29.488000869750977" y1="208.1111102634006" x2="24.488000869750977" y2="208.1111102634006" style="visibility: inherit;" fill="rgb(0, 0, 0)" stroke="rgb(204, 204, 204)" stroke-width="1px"></line><line x1="29.488000869750977" y1="166.4888882107205" x2="24.488000869750977" y2="166.4888882107205" style="visibility: inherit;" fill="rgb(0, 0, 0)" stroke="rgb(204, 204, 204)" stroke-width="1px"></line><line x1="29.488000869750977" y1="124.86666615804037" x2="24.488000869750977" y2="124.86666615804037" style="visibility: inherit;" fill="rgb(0, 0, 0)" stroke="rgb(204, 204, 204)" stroke-width="1px"></line><line x1="29.488000869750977" y1="83.24444410536023" x2="24.488000869750977" y2="83.24444410536023" style="visibility: inherit;" fill="rgb(0, 0, 0)" stroke="rgb(204, 204, 204)" stroke-width="1px"></line><line x1="29.488000869750977" y1="41.622222052680115" x2="24.488000869750977" y2="41.622222052680115" style="visibility: inherit;" fill="rgb(0, 0, 0)" stroke="rgb(204, 204, 204)" stroke-width="1px"></line><line x1="29.488000869750977" y1="0" x2="24.488000869750977" y2="0" style="visibility: inherit;" fill="rgb(0, 0, 0)" stroke="rgb(204, 204, 204)" stroke-width="1px"></line></g><g transform="translate(19.488000869750977, 0)"><text style="text-anchor: end; visibility: hidden; font-family: &quot;Helvetica Neue&quot;, sans-serif; font-size: 12px; font-weight: 200;" x="0" y="374.5999984741211" dx="0em" dy="0.3em" fill="rgb(50, 49, 63)" stroke="none" stroke-width="1px">-2</text><text style="text-anchor: end; visibility: inherit; font-family: &quot;Helvetica Neue&quot;, sans-serif; font-size: 12px; font-weight: 200;" x="0" y="332.977776421441" dx="0em" dy="0.3em" fill="rgb(50, 49, 63)" stroke="none" stroke-width="1px">0</text><text style="text-anchor: end; visibility: inherit; font-family: &quot;Helvetica Neue&quot;, sans-serif; font-size: 12px; font-weight: 200;" x="0" y="291.35555436876086" dx="0em" dy="0.3em" fill="rgb(50, 49, 63)" stroke="none" stroke-width="1px">2</text><text style="text-anchor: end; visibility: inherit; font-family: &quot;Helvetica Neue&quot;, sans-serif; font-size: 12px; font-weight: 200;" x="0" y="249.73333231608075" dx="0em" dy="0.3em" fill="rgb(50, 49, 63)" stroke="none" stroke-width="1px">4</text><text style="text-anchor: end; visibility: inherit; font-family: &quot;Helvetica Neue&quot;, sans-serif; font-size: 12px; font-weight: 200;" x="0" y="208.1111102634006" dx="0em" dy="0.3em" fill="rgb(50, 49, 63)" stroke="none" stroke-width="1px">6</text><text style="text-anchor: end; visibility: inherit; font-family: &quot;Helvetica Neue&quot;, sans-serif; font-size: 12px; font-weight: 200;" x="0" y="166.4888882107205" dx="0em" dy="0.3em" fill="rgb(50, 49, 63)" stroke="none" stroke-width="1px">8</text><text style="text-anchor: end; visibility: inherit; font-family: &quot;Helvetica Neue&quot;, sans-serif; font-size: 12px; font-weight: 200;" x="0" y="124.86666615804037" dx="0em" dy="0.3em" fill="rgb(50, 49, 63)" stroke="none" stroke-width="1px">10</text><text style="text-anchor: end; visibility: inherit; font-family: &quot;Helvetica Neue&quot;, sans-serif; font-size: 12px; font-weight: 200;" x="0" y="83.24444410536023" dx="0em" dy="0.3em" fill="rgb(50, 49, 63)" stroke="none" stroke-width="1px">12</text><text style="text-anchor: end; visibility: inherit; font-family: &quot;Helvetica Neue&quot;, sans-serif; font-size: 12px; font-weight: 200;" x="0" y="41.622222052680115" dx="0em" dy="0.3em" fill="rgb(50, 49, 63)" stroke="none" stroke-width="1px">14</text><text style="text-anchor: end; visibility: hidden; font-family: &quot;Helvetica Neue&quot;, sans-serif; font-size: 12px; font-weight: 200;" x="0" y="0" dx="0em" dy="0.3em" fill="rgb(50, 49, 63)" stroke="none" stroke-width="1px">16</text></g><line x1="29.488000869750977" y1="0" x2="29.488000869750977" y2="374.5999984741211" fill="rgb(0, 0, 0)" stroke="rgb(204, 204, 204)" stroke-width="1px"></line></g></g><g transform="translate(29, 0)" clip-path="url(#clip_0)"><clipPath id="clip_0"><rect width="1404" height="374"></rect></clipPath><g><g><g><line x1="0" y1="0" x2="0" y2="374.5999984741211" fill="rgb(0, 0, 0)" stroke="rgb(60, 60, 60)" stroke-width="1px" opacity="0.25"></line><line x1="117.04266659418741" y1="0" x2="117.04266659418741" y2="374.5999984741211" fill="rgb(0, 0, 0)" stroke="rgb(60, 60, 60)" stroke-width="1px" opacity="0.25"></line><line x1="234.08533318837482" y1="0" x2="234.08533318837482" y2="374.5999984741211" fill="rgb(0, 0, 0)" stroke="rgb(60, 60, 60)" stroke-width="1px" opacity="0.25"></line><line x1="351.12799978256226" y1="0" x2="351.12799978256226" y2="374.5999984741211" fill="rgb(0, 0, 0)" stroke="rgb(60, 60, 60)" stroke-width="1px" opacity="0.25"></line><line x1="468.17066637674964" y1="0" x2="468.17066637674964" y2="374.5999984741211" fill="rgb(0, 0, 0)" stroke="rgb(60, 60, 60)" stroke-width="1px" opacity="0.25"></line><line x1="585.2133329709371" y1="0" x2="585.2133329709371" y2="374.5999984741211" fill="rgb(0, 0, 0)" stroke="rgb(60, 60, 60)" stroke-width="1px" opacity="0.25"></line><line x1="702.2559995651245" y1="0" x2="702.2559995651245" y2="374.5999984741211" fill="rgb(0, 0, 0)" stroke="rgb(60, 60, 60)" stroke-width="1px" opacity="0.25"></line><line x1="819.298666159312" y1="0" x2="819.298666159312" y2="374.5999984741211" fill="rgb(0, 0, 0)" stroke="rgb(60, 60, 60)" stroke-width="1px" opacity="0.25"></line><line x1="936.3413327534993" y1="0" x2="936.3413327534993" y2="374.5999984741211" fill="rgb(0, 0, 0)" stroke="rgb(60, 60, 60)" stroke-width="1px" opacity="0.25"></line><line x1="1053.3839993476868" y1="0" x2="1053.3839993476868" y2="374.5999984741211" fill="rgb(0, 0, 0)" stroke="rgb(60, 60, 60)" stroke-width="1px" opacity="0.25"></line><line x1="1170.4266659418743" y1="0" x2="1170.4266659418743" y2="374.5999984741211" fill="rgb(0, 0, 0)" stroke="rgb(60, 60, 60)" stroke-width="1px" opacity="0.25"></line><line x1="1287.4693325360615" y1="0" x2="1287.4693325360615" y2="374.5999984741211" fill="rgb(0, 0, 0)" stroke="rgb(60, 60, 60)" stroke-width="1px" opacity="0.25"></line><line x1="1404.511999130249" y1="0" x2="1404.511999130249" y2="374.5999984741211" fill="rgb(0, 0, 0)" stroke="rgb(60, 60, 60)" stroke-width="1px" opacity="0.25"></line></g><g><line x1="0" y1="374.5999984741211" x2="1404.511999130249" y2="374.5999984741211" fill="rgb(0, 0, 0)" stroke="rgb(60, 60, 60)" stroke-width="1px" opacity="0.25"></line><line x1="0" y1="332.977776421441" x2="1404.511999130249" y2="332.977776421441" fill="rgb(0, 0, 0)" stroke="rgb(60, 60, 60)" stroke-width="1px" opacity="0.25"></line><line x1="0" y1="291.35555436876086" x2="1404.511999130249" y2="291.35555436876086" fill="rgb(0, 0, 0)" stroke="rgb(60, 60, 60)" stroke-width="1px" opacity="0.25"></line><line x1="0" y1="249.73333231608075" x2="1404.511999130249" y2="249.73333231608075" fill="rgb(0, 0, 0)" stroke="rgb(60, 60, 60)" stroke-width="1px" opacity="0.25"></line><line x1="0" y1="208.1111102634006" x2="1404.511999130249" y2="208.1111102634006" fill="rgb(0, 0, 0)" stroke="rgb(60, 60, 60)" stroke-width="1px" opacity="0.25"></line><line x1="0" y1="166.4888882107205" x2="1404.511999130249" y2="166.4888882107205" fill="rgb(0, 0, 0)" stroke="rgb(60, 60, 60)" stroke-width="1px" opacity="0.25"></line><line x1="0" y1="124.86666615804037" x2="1404.511999130249" y2="124.86666615804037" fill="rgb(0, 0, 0)" stroke="rgb(60, 60, 60)" stroke-width="1px" opacity="0.25"></line><line x1="0" y1="83.24444410536023" x2="1404.511999130249" y2="83.24444410536023" fill="rgb(0, 0, 0)" stroke="rgb(60, 60, 60)" stroke-width="1px" opacity="0.25"></line><line x1="0" y1="41.622222052680115" x2="1404.511999130249" y2="41.622222052680115" fill="rgb(0, 0, 0)" stroke="rgb(60, 60, 60)" stroke-width="1px" opacity="0.25"></line><line x1="0" y1="0" x2="1404.511999130249" y2="0" fill="rgb(0, 0, 0)" stroke="rgb(60, 60, 60)" stroke-width="1px" opacity="0.25"></line></g></g></g><g><g><line x1="0" y1="332.977776421441" x2="1404.511999130249" y2="332.977776421441" fill="rgb(0, 0, 0)" stroke="rgb(153, 153, 153)" stroke-width="1.5px"></line></g></g><g><g><line x1="117.04266659418741" y1="0" x2="117.04266659418741" y2="374.5999984741211" fill="rgb(0, 0, 0)" stroke="rgb(153, 153, 153)" stroke-width="1.5px"></line></g></g><g><g><g><g><g><path style="fill: none;" stroke="rgb(0, 119, 187)" stroke-width="2px" d="M121.72437325795492,297.74111540630474L126.40607992172241,302.086220849554L133.42863991737366,318.4972918659208L134.59906658331553,324.2737497404663L138.11034658114116,337.20182736131875L140.4511999130249,340.49116619910177L143.9624799108505,332.76737245099645L147.47375990867613,327.91184763403044L155.66674657026928,332.47859031994386L159.17802656809488,322.1055683978773L166.20058656374613,316.219357601317L167.371013229688,322.03981872617925L181.41613322099053,289.80744127540004L200.14295987606047,271.61731396837615L205.99509320576985,293.2538266851071L210.67679986953735,297.08160832386204L222.3810665289561,304.55653091662896L223.55149319489797,315.8429309226046L235.25575985431672,284.86915757726547L248.13045317967732,265.0684065109259L250.4713065115611,284.347392241222L256.32343984127044,306.101677959747L262.1755731709798,314.45449831141883L264.51642650286357,317.4461936720126L266.8572798347473,321.7454465166338L270.36855983257294,316.78813801646237L280.9023998260498,300.02180544184864L283.24325315793357,304.79650799054957L289.09538648764294,292.0804747734732L296.1179464832942,293.9847213522896L308.9926398086548,298.20771482019484L314.84477313836413,300.1163511288344L317.1856264702479,311.6538054624309L319.5264798021317,322.1322928227661L324.20818646589913,338.06500767763805L331.2307464615504,328.4080200594974L362.83226644198106,282.3291724794938L374.53653310139975,279.8809096825013L380.3886664311091,299.18741535021354L387.4112264267603,292.6481995280677L393.26335975646975,308.2169436120102L401.4563464180628,302.9262328895552L404.96762641588845,314.5061972320378L406.1380530818304,321.5552398799092L416.67189307530725,319.29134803130336L419.01274640719095,326.38086363577963L445.93255972385407,284.1164359343905L456.46639971733094,283.2772984786165L462.3185330470403,293.53261278689365L472.8523730405172,293.0650997630079L477.5340797042847,294.23161947399154L482.21578636805214,309.60704423689333L518.4990130122502,305.87516117716626L523.1807196760177,292.9729488084297L530.2032796716691,288.7831130136708L553.6118129905065,278.4455332945282L554.7822396564484,298.81609311939786L568.8273596477509,277.7587744322942L575.849919643402,303.66087239650835L589.8950396347045,302.0603914262066L592.2358929665884,307.9045968083724L593.4063196325302,317.4904135525984L598.0880262962977,316.21039015494705L603.940159626007,329.0556177580573L626.1782662789027,277.3212943245462L627.3486929448445,298.9688010934906L641.393812936147,253.63183235729394L661.291066257159,246.7905959564634L674.1657595825195,248.1236146598908L681.1883195781708,268.70828709048675L688.210879573822,289.77308337764003L701.0855728991826,274.6921424233476L713.9602662245433,256.4829208435701L747.9026395368576,162.0497841857533L766.6294661919275,165.34338558561478L774.8224528535206,218.08817135415478L778.3337328513463,264.9599348435565L832.1733594846726,190.54037902775065L869.6270127948125,131.02109045949834L889.5242661158244,136.89106885357722L923.4666394281387,114.08128132382132L928.1483460919063,187.4463867103589L958.579439406395,147.30699291369484L989.0105327208838,109.61347559100955L1058.0657060114543,-40.893860104951784L1062.7474126752218,88.36943506361393L1073.2812526686987,153.52283878638582L1093.1785059897104,157.18604724420229L1102.5419193172456,192.8654579668288L1144.677279291153,77.39918438375264L1177.4492259375254,86.60515179354695L1213.7324525817235,121.04909038527217L1248.8452525599798,53.5319509689748L1295.6623191976546,-30.41790685146077L1303.855305859248,90.31973465550573L1306.1961591911318,185.29999845559664" fill="none"></path></g></g></g></g><g opacity="0.2"><g><g><g><path style="fill: none;" stroke="rgb(0, 119, 187)" stroke-width="2px" d="M121.72437325795492,297.74111540630474L126.40607992172241,304.69328411550356L133.42863991737366,334.25192004163284L134.59906658331553,331.0668642009319L138.11034658114116,354.0807255031036L140.4511999130249,345.0415059737373L143.9624799108505,321.72222381050585L147.47375990867613,320.83244583785574L155.66674657026928,339.2136487375669L159.17802656809488,306.7028397570753L166.20058656374613,307.4434289051761L167.371013229688,330.7388357210628L181.41613322099053,241.5641194040545L200.14295987606047,244.3677593608706L205.99509320576985,325.68316285170846L210.67679986953735,302.8205811338184L222.3810665289561,315.76575166905167L223.55149319489797,332.76966531582923L235.25575985431672,238.41321610187495L248.13045317967732,235.36908977849492L250.4713065115611,313.26481353127014L256.32343984127044,338.7323907034966L262.1755731709798,326.98356392705955L264.51642650286357,321.9337012734196L266.8572798347473,328.1942952263164L270.36855983257294,309.3521964068615L280.9023998260498,274.8723494803779L283.24325315793357,311.95855448330775L289.09538648764294,273.0064366611225L296.1179464832942,296.8410901680661L308.9926398086548,304.5422036216621L314.84477313836413,302.97930521203904L317.1856264702479,328.95998558548536L319.5264798021317,337.85002311271626L324.20818646589913,361.9640792752094L331.2307464615504,313.92253888130216L362.83226644198106,213.21090182240368L374.53653310139975,276.2085155097397L380.3886664311091,328.1471737442486L387.4112264267603,282.8393758167024L393.26335975646975,331.5700597067066L401.4563464180628,294.9901668122378L404.96762641588845,331.8761437374027L406.1380530818304,332.12880384866344L416.67189307530725,315.89551025898294L419.01274640719095,337.0151370413886L445.93255972385407,220.71979438626073L456.46639971733094,282.01859229500263L462.3185330470403,308.91558424896397L472.8523730405172,292.3638302271886L477.5340797042847,295.98139904045297L482.21578636805214,332.6701813811341L518.4990130122502,300.277336587592L523.1807196760177,273.6196302553587L530.2032796716691,282.49835932153906L553.6118129905065,262.93916371582395L554.7822396564484,329.3719328566909L568.8273596477509,246.17279640164594L575.849919643402,342.5140193428243L589.8950396347045,299.6596699707542L592.2358929665884,316.6709048816207L593.4063196325302,331.869138668937L598.0880262962977,314.29035505847014L603.940159626007,348.3234591627223L626.1782662789027,199.71980917428016L627.3486929448445,331.4400612469069L641.393812936147,185.62637925299916L661.291066257159,236.5287413552176L674.1657595825195,250.12314271503186L681.1883195781708,299.5852957363808L688.210879573822,321.37027780836996L701.0855728991826,252.07073099190904L713.9602662245433,229.16908847390388L747.9026395368576,20.400079199028028L766.6294661919275,170.28378768540702L774.8224528535206,297.20535000696475L778.3337328513463,335.26758007765903L832.1733594846726,78.91104530404198L869.6270127948125,41.74215760711979L889.5242661158244,145.69603644469558L923.4666394281387,79.86660002918745L928.1483460919063,297.49404479016516L958.579439406395,87.09790221869883L989.0105327208838,53.073199606981575L1058.0657060114543,-266.6548636488935L1062.7474126752218,282.2643778164624L1073.2812526686987,251.25294437054367L1093.1785059897104,162.68085993092689L1102.5419193172456,246.38457405076872L1144.677279291153,-95.80022599086163L1177.4492259375254,100.41410290823842L1213.7324525817235,172.71499827286002L1248.8452525599798,-47.74375815547114L1295.6623191976546,-156.34269358211418L1303.855305859248,271.4261969159555L1306.1961591911318,327.770394155733" fill="none"></path></g></g></g></g></g></g><g transform="translate(29, 374)" clip-path="url(#clip_1)"><clipPath id="clip_1"><rect width="1404" height="25"></rect></clipPath><g><g><line x1="0" y1="0" x2="0" y2="5" style="visibility: inherit;" fill="rgb(0, 0, 0)" stroke="rgb(204, 204, 204)" stroke-width="1px"></line><line x1="117.04266659418741" y1="0" x2="117.04266659418741" y2="5" style="visibility: inherit;" fill="rgb(0, 0, 0)" stroke="rgb(204, 204, 204)" stroke-width="1px"></line><line x1="234.08533318837482" y1="0" x2="234.08533318837482" y2="5" style="visibility: inherit;" fill="rgb(0, 0, 0)" stroke="rgb(204, 204, 204)" stroke-width="1px"></line><line x1="351.12799978256226" y1="0" x2="351.12799978256226" y2="5" style="visibility: inherit;" fill="rgb(0, 0, 0)" stroke="rgb(204, 204, 204)" stroke-width="1px"></line><line x1="468.17066637674964" y1="0" x2="468.17066637674964" y2="5" style="visibility: inherit;" fill="rgb(0, 0, 0)" stroke="rgb(204, 204, 204)" stroke-width="1px"></line><line x1="585.2133329709371" y1="0" x2="585.2133329709371" y2="5" style="visibility: inherit;" fill="rgb(0, 0, 0)" stroke="rgb(204, 204, 204)" stroke-width="1px"></line><line x1="702.2559995651245" y1="0" x2="702.2559995651245" y2="5" style="visibility: inherit;" fill="rgb(0, 0, 0)" stroke="rgb(204, 204, 204)" stroke-width="1px"></line><line x1="819.298666159312" y1="0" x2="819.298666159312" y2="5" style="visibility: inherit;" fill="rgb(0, 0, 0)" stroke="rgb(204, 204, 204)" stroke-width="1px"></line><line x1="936.3413327534993" y1="0" x2="936.3413327534993" y2="5" style="visibility: inherit;" fill="rgb(0, 0, 0)" stroke="rgb(204, 204, 204)" stroke-width="1px"></line><line x1="1053.3839993476868" y1="0" x2="1053.3839993476868" y2="5" style="visibility: inherit;" fill="rgb(0, 0, 0)" stroke="rgb(204, 204, 204)" stroke-width="1px"></line><line x1="1170.4266659418743" y1="0" x2="1170.4266659418743" y2="5" style="visibility: inherit;" fill="rgb(0, 0, 0)" stroke="rgb(204, 204, 204)" stroke-width="1px"></line><line x1="1287.4693325360615" y1="0" x2="1287.4693325360615" y2="5" style="visibility: inherit;" fill="rgb(0, 0, 0)" stroke="rgb(204, 204, 204)" stroke-width="1px"></line><line x1="1404.511999130249" y1="0" x2="1404.511999130249" y2="5" style="visibility: inherit;" fill="rgb(0, 0, 0)" stroke="rgb(204, 204, 204)" stroke-width="1px"></line></g><g transform="translate(0, 8)"><text style="text-anchor: middle; visibility: hidden; font-family: &quot;Helvetica Neue&quot;, sans-serif; font-size: 12px; font-weight: 200;" x="0" y="0" dx="0em" dy="0.95em" fill="rgb(50, 49, 63)" stroke="none" stroke-width="1px">-100</text><text style="text-anchor: middle; visibility: inherit; font-family: &quot;Helvetica Neue&quot;, sans-serif; font-size: 12px; font-weight: 200;" x="117.04266659418741" y="0" dx="0em" dy="0.95em" fill="rgb(50, 49, 63)" stroke="none" stroke-width="1px">0</text><text style="text-anchor: middle; visibility: inherit; font-family: &quot;Helvetica Neue&quot;, sans-serif; font-size: 12px; font-weight: 200;" x="234.08533318837482" y="0" dx="0em" dy="0.95em" fill="rgb(50, 49, 63)" stroke="none" stroke-width="1px">100</text><text style="text-anchor: middle; visibility: inherit; font-family: &quot;Helvetica Neue&quot;, sans-serif; font-size: 12px; font-weight: 200;" x="351.12799978256226" y="0" dx="0em" dy="0.95em" fill="rgb(50, 49, 63)" stroke="none" stroke-width="1px">200</text><text style="text-anchor: middle; visibility: inherit; font-family: &quot;Helvetica Neue&quot;, sans-serif; font-size: 12px; font-weight: 200;" x="468.17066637674964" y="0" dx="0em" dy="0.95em" fill="rgb(50, 49, 63)" stroke="none" stroke-width="1px">300</text><text style="text-anchor: middle; visibility: inherit; font-family: &quot;Helvetica Neue&quot;, sans-serif; font-size: 12px; font-weight: 200;" x="585.2133329709371" y="0" dx="0em" dy="0.95em" fill="rgb(50, 49, 63)" stroke="none" stroke-width="1px">400</text><text style="text-anchor: middle; visibility: inherit; font-family: &quot;Helvetica Neue&quot;, sans-serif; font-size: 12px; font-weight: 200;" x="702.2559995651245" y="0" dx="0em" dy="0.95em" fill="rgb(50, 49, 63)" stroke="none" stroke-width="1px">500</text><text style="text-anchor: middle; visibility: inherit; font-family: &quot;Helvetica Neue&quot;, sans-serif; font-size: 12px; font-weight: 200;" x="819.298666159312" y="0" dx="0em" dy="0.95em" fill="rgb(50, 49, 63)" stroke="none" stroke-width="1px">600</text><text style="text-anchor: middle; visibility: inherit; font-family: &quot;Helvetica Neue&quot;, sans-serif; font-size: 12px; font-weight: 200;" x="936.3413327534993" y="0" dx="0em" dy="0.95em" fill="rgb(50, 49, 63)" stroke="none" stroke-width="1px">700</text><text style="text-anchor: middle; visibility: inherit; font-family: &quot;Helvetica Neue&quot;, sans-serif; font-size: 12px; font-weight: 200;" x="1053.3839993476868" y="0" dx="0em" dy="0.95em" fill="rgb(50, 49, 63)" stroke="none" stroke-width="1px">800</text><text style="text-anchor: middle; visibility: inherit; font-family: &quot;Helvetica Neue&quot;, sans-serif; font-size: 12px; font-weight: 200;" x="1170.4266659418743" y="0" dx="0em" dy="0.95em" fill="rgb(50, 49, 63)" stroke="none" stroke-width="1px">900</text><text style="text-anchor: middle; visibility: inherit; font-family: &quot;Helvetica Neue&quot;, sans-serif; font-size: 12px; font-weight: 200;" x="1287.4693325360615" y="0" dx="0em" dy="0.95em" fill="rgb(50, 49, 63)" stroke="none" stroke-width="1px">1k</text><text style="text-anchor: middle; visibility: hidden; font-family: &quot;Helvetica Neue&quot;, sans-serif; font-size: 12px; font-weight: 200;" x="1404.511999130249" y="0" dx="0em" dy="0.95em" fill="rgb(50, 49, 63)" stroke="none" stroke-width="1px">1.1k</text></g><line x1="0" y1="0" x2="1404.511999130249" y2="0" fill="rgb(0, 0, 0)" stroke="rgb(204, 204, 204)" stroke-width="1px"></line></g></g></g></g></svg>